<svg width="112" height="112" viewBox="0 0 112 112" fill="none" xmlns="http://www.w3.org/2000/svg">
<path d="M32.8015 112L0 79.1883V32.8015L32.8015 0H79.1985L112 32.8015V79.1883L79.1985 112H32.8015Z" fill="#140036"/>
<path d="M33.8161 109.545L2.45532 78.1738V33.8161L33.8161 2.45532H78.1738L109.545 33.8161V78.1738L78.1738 109.545H33.8161Z" fill="#0070C4"/>
<g style="mix-blend-mode:multiply" opacity="0.47">
<path d="M29.2403 46.9651V69.2251L2.56689 80.2739V35.9163L29.2403 46.9651Z" fill="#028185"/>
</g>
<path opacity="0.74" d="M2.56689 78.1333L29.2403 67.0845L44.8649 82.6482L33.8161 109.311L2.56689 78.1333Z" fill="#140036"/>
<path d="M2.56689 80.2738L27.8199 68.7786L28.6417 70.412L2.56689 80.2738Z" fill="white"/>
<g style="mix-blend-mode:multiply" opacity="0.63">
<path d="M2.36401 34.1917V79.3204L33.6132 109.727H77.9709L109.738 78.5391L75.4953 101.428H37.4382L10.0241 74.6228L2.36401 34.1917Z" fill="#002638"/>
</g>
<g style="mix-blend-mode:multiply" opacity="0.5">
<path d="M28.4388 45.4534V69.8643L16.3652 57.7298L28.4388 45.4534Z" fill="#140036"/>
</g>
<path d="M2.56689 35.9163L29.0476 45.8592L28.4388 47.9087L2.56689 35.9163Z" fill="white"/>
<path d="M44.865 29.1186H67.1351L78.1738 2.45532H33.8162L44.865 29.1186Z" fill="#47ADFF"/>
<path opacity="0.74" d="M44.865 82.6482H67.1351L78.1738 109.311H33.8162L44.865 82.6482Z" fill="#140036"/>
<path d="M67.4192 29.3417L81.6944 45.149L109.778 33.7958L78.0723 2.51611L67.4192 29.3417Z" fill="#47ADFF"/>
<path d="M82.7698 44.8245V67.0845L109.433 78.1333V33.7756L82.7698 44.8245Z" fill="#0070C4"/>
<path opacity="0.74" d="M109.94 78.1333L83.2669 67.0845L67.6423 82.6482L78.6912 109.311L109.94 78.1333Z" fill="#140036"/>
<path d="M33.8162 2.45532L44.7027 29.6462L46.5492 29.1896L33.8162 2.45532Z" fill="white"/>
<path d="M66.3438 29.1896L78.1738 2.45532L68.3323 30.1129L66.3438 29.1896Z" fill="white"/>
<path d="M44.2764 84.312L27.688 67.7235V44.2764L44.2764 27.688H67.7235L84.3018 44.2764V67.7235L67.7235 84.312H44.2764Z" fill="white"/>
<path d="M44.8649 82.8713L29.1287 67.1351V44.865L44.8649 29.1187H67.135L82.8712 44.865V67.1351L67.135 82.8713H44.8649Z" fill="#47ADFF"/>
<g style="mix-blend-mode:overlay">
<mask id="mask0_2223_1294" style="mask-type:luminance" maskUnits="userSpaceOnUse" x="28" y="29" width="55" height="55">
<path d="M44.662 83.0742L28.9258 67.338V45.0679L44.662 29.3215H66.9321L82.6683 45.0679V67.338L66.9321 83.0742H44.662Z" fill="white"/>
</mask>
<g mask="url(#mask0_2223_1294)">
<path style="mix-blend-mode:lighten" d="M17.1262 63.0565C17.1262 63.0565 25.9835 58.8562 33.5118 57.5271C41.04 56.198 51.9874 55.0616 61.0882 54.392C90.1966 52.2512 91.1909 69.5194 93.6259 69.7427C96.0609 69.9659 102.666 55.6501 103.559 56.5429C104.441 57.4256 96.3957 67.7236 87.995 79.016C87.995 79.016 72.1269 81.9481 57.1922 79.9494C55.1123 79.6653 41.4965 77.9101 40.1674 78.5695C38.8383 79.2392 33.2987 80.1219 33.2987 80.1219L26.43 83.2265C26.43 83.2265 17.7958 73.9227 17.1262 63.0768V63.0565Z" fill="url(#paint0_linear_2223_1294)"/>
<path style="mix-blend-mode:multiply" opacity="0.56" d="M16.9029 44.2361C16.9029 44.2361 29.6664 50.0395 47.3811 39.8531C65.0957 29.6768 92.6315 1.27856 92.6315 1.27856C92.6315 1.27856 95.726 6.14857 92.1851 6.59499C88.6442 7.04141 97.5015 3.49036 95.726 6.14857C93.9505 8.80678 98.8306 6.59499 95.726 8.36037C92.6315 10.1359 85.5396 15.4422 85.5396 15.4422L97.5015 8.80678C97.5015 8.80678 84.6569 18.5569 82.8915 19.4396C81.116 20.3325 98.8306 11.0186 98.8306 11.0186L93.0678 17.6743L98.8306 15.4422C98.8306 15.4422 100.16 15.8886 98.8306 18.1105C97.5015 20.3325 97.0551 17.2278 97.5015 20.3325C97.948 23.4269 99.7133 21.6616 97.948 23.4269C96.1724 25.1923 88.6442 31.4016 80.2333 35.8252C80.2333 35.8252 97.948 28.297 100.16 24.3096C100.16 24.3096 101.925 30.9552 101.489 32.2843C101.042 33.6134 101.489 31.8379 101.489 35.3788C101.489 38.9197 99.2771 38.9298 98.3944 43.3534C97.5117 47.7871 96.1826 49.9989 96.1826 49.9989L91.3836 62.1638C91.3836 62.1638 82.3741 51.3179 60.2764 52.5455C34.4958 53.9761 17.1363 63.0566 17.1363 63.0566C17.1363 63.0566 14.2549 52.647 16.9131 44.2361H16.9029Z" fill="url(#paint1_linear_2223_1294)"/>
<path opacity="0.75" d="M66.5059 21.4281C66.5059 21.4281 52.3321 35.1656 40.5934 40.0254C28.8546 44.9056 16.9028 44.2359 16.9028 44.2359C16.9028 44.2359 25.1007 24.3095 31.0766 21.8745C37.0525 19.4395 64.568 3.91635 69.0018 4.58598C73.4355 5.24546 79.9288 10.8257 66.5059 21.4281Z" fill="white"/>
<g style="mix-blend-mode:multiply" opacity="0.57">
<path d="M20.0076 74.5719C20.0076 74.5719 34.2422 66.7698 56.5935 64.2029C86.8788 60.7229 95.0665 71.1629 95.0665 71.1629C95.0665 71.1629 74.7038 53.5396 20.0076 74.5719Z" fill="#AA3A3B"/>
<path d="M18.9016 69.4789C18.9016 69.4789 50.3436 57.7401 74.0341 54.1992C74.0341 54.1992 31.7463 64.3857 18.9016 69.4789Z" fill="#AA3A3B"/>
<path d="M20.4437 71.4775C20.4437 71.4775 50.6276 62.2651 69.8844 60.936C89.1514 59.6069 96.6898 69.5295 96.6898 69.5295C96.6898 69.5295 88.6441 55.092 62.2852 60.3982C35.9364 65.7147 20.4336 71.4674 20.4336 71.4674L20.4437 71.4775Z" fill="#AA3A3B"/>
<path d="M24.431 79.2289C24.431 79.2289 38.828 73.6893 58.308 72.137C77.7982 70.5847 85.7627 73.9125 85.7627 73.9125C85.7627 73.9125 58.308 67.9366 24.4209 79.2289H24.431Z" fill="#AA3A3B"/>
<path d="M22.2194 76.3477C22.2194 76.3477 40.2587 67.9672 63.9492 67.0744C87.6398 66.1917 93.2099 74.8562 93.2099 74.8562C93.2099 74.8562 73.1414 58.1968 22.2092 76.3477H22.2194Z" fill="#AA3A3B"/>
</g>
<g style="mix-blend-mode:multiply">
<g style="mix-blend-mode:multiply" opacity="0.42">
<path d="M67.1654 13.0071C67.1654 13.0071 46.7925 28.0737 25.0906 33.1669C25.0906 33.1669 44.3575 27.404 67.1654 13.0071Z" fill="#AA3A3B"/>
<path d="M22.2192 39.8122C22.2192 39.8122 40.5934 33.8363 61.8591 19.6626C61.8591 19.6626 43.9212 34.2726 22.2192 39.8122Z" fill="#AA3A3B"/>
<path d="M71.8223 15.8887C71.8223 15.8887 49.8972 38.9197 24.218 44.2362C24.218 44.2362 51.2364 37.1544 71.8223 15.8887Z" fill="#AA3A3B"/>
<path d="M82.6683 12.7837C82.6683 12.7837 62.0823 35.1553 45.2504 43.5662C28.4184 51.9771 18.9016 51.3176 18.9016 51.3176C18.9016 51.3176 38.1584 52.6467 56.5427 37.3671C74.927 22.0874 82.6683 12.7837 82.6683 12.7837Z" fill="#AA3A3B"/>
</g>
</g>
<g style="mix-blend-mode:multiply">
<g style="mix-blend-mode:multiply" opacity="0.42">
<path d="M82.6683 15.4421C82.6683 15.4421 62.0823 37.8137 45.2504 46.2348C28.4184 54.6457 18.9016 53.9862 18.9016 53.9862C18.9016 53.9862 38.1584 55.3153 56.5427 40.0357C74.927 24.7662 82.6683 15.4523 82.6683 15.4523V15.4421Z" fill="#AA3A3B"/>
</g>
</g>
<g style="mix-blend-mode:multiply" opacity="0.51">
<g style="mix-blend-mode:multiply" opacity="0.42">
<path d="M82.6683 18.1104C82.6683 18.1104 62.9853 41.6792 46.1534 50.0901C29.3214 58.5111 18.9016 56.6443 18.9016 56.6443C18.9016 56.6443 42.9168 58.014 61.291 42.7242C79.6752 27.4445 82.6683 18.1104 82.6683 18.1104Z" fill="#AA3A3B"/>
</g>
</g>
<g style="mix-blend-mode:overlay" opacity="0.73">
<path d="M48.7913 9.24299C48.7913 9.24299 77.1286 -4.03792 93.9606 -1.37971C110.793 1.2785 99.5002 53.0933 99.5002 53.0933C99.5002 53.0933 106.805 9.23285 95.2897 1.71477C85.5091 -4.67711 48.7913 9.24299 48.7913 9.24299Z" fill="white"/>
</g>
<g style="mix-blend-mode:multiply" opacity="0.27">
<path d="M19.561 60.6216C19.561 60.6216 40.3702 49.5423 55.4266 45.5652C76.0937 40.0965 86.8686 42.4707 92.185 43.7896C97.5014 45.1187 99.277 47.3305 99.277 47.3305C99.277 47.3305 96.1723 47.7668 89.5268 47.3305C79.7969 46.6711 96.1723 49.9887 96.1723 49.9887C96.1723 49.9887 78.4475 50.425 66.9421 50.425C55.4368 50.425 33.7246 55.295 19.561 60.6114V60.6216Z" fill="#7A0000"/>
</g>
<g style="mix-blend-mode:overlay" opacity="0.52">
<path d="M34.1814 18.9931C34.1814 18.9931 58.5314 -0.497071 86.8789 -1.82618C115.226 -3.15528 99.5004 53.0933 99.5004 53.0933C99.5004 53.0933 99.2771 11.9012 80.6798 10.1256C62.0825 8.35011 34.1814 18.9931 34.1814 18.9931Z" fill="#FBFFFE"/>
</g>
<path d="M31.7464 84.312C31.7464 84.312 17.3494 73.6792 18.9017 51.3279C18.9017 51.3279 18.4553 72.5834 31.7464 84.312Z" fill="white"/>
<path opacity="0.26" d="M33.7349 89.4053C33.7349 89.4053 -4.35261 64.6089 28.8547 22.9805C28.8547 22.9805 6.27009 59.7389 33.7248 89.4155L33.7349 89.4053Z" fill="white"/>
</g>
</g>
<path d="M82.1509 44.2259L109.433 33.7756L82.7698 46.0724L82.1509 44.2259Z" fill="white"/>
<path d="M77.9099 30.052C77.9099 30.052 82.6987 25.2531 85.4381 22.8586C85.4381 22.8586 91.1604 26.7445 92.7736 32.2537C92.7736 32.2537 86.0773 35.8859 83.0234 36.7077C83.0234 36.7077 78.8839 30.2651 77.9201 30.052H77.9099Z" fill="white"/>
<path d="M77.149 29.23C77.149 29.23 78.0012 28.2864 78.4578 27.4037C78.4578 27.4037 75.5155 25.2223 73.9733 24.918L72.4109 26.8152C72.4109 26.8152 77.0881 28.8343 77.149 29.23Z" fill="white"/>
<path d="M80.4667 24.2891C80.4667 24.2891 79.655 25.9834 79.0666 26.5211C79.0666 26.5211 75.6373 24.3296 74.1763 23.9441C74.1763 23.9441 75.3126 22.2599 75.5967 21.3772C75.5967 21.3772 79.2086 23.0918 80.4768 24.2891H80.4667Z" fill="white"/>
<path d="M67.7844 46.9346C67.7844 46.9346 72.5834 42.1356 75.3025 39.7412C75.3025 39.7412 81.0349 43.6271 82.6379 49.1363C82.6379 49.1363 75.9518 52.7685 72.8878 53.5903C72.8878 53.5903 68.7381 47.1477 67.7844 46.9346Z" fill="white"/>
<path d="M67.0134 46.1128C67.0134 46.1128 67.8656 45.1692 68.3121 44.2865C68.3121 44.2865 65.3698 42.1153 63.8276 41.8008L62.2651 43.7082C62.2651 43.7082 66.9424 45.7272 67.0032 46.1128H67.0134Z" fill="white"/>
<path d="M70.3412 41.1617C70.3412 41.1617 69.5397 42.8561 68.9411 43.404C68.9411 43.404 65.5118 41.2125 64.0508 40.8269C64.0508 40.8269 65.1871 39.1427 65.4712 38.26C65.4712 38.26 69.0933 39.9645 70.3513 41.1617H70.3412Z" fill="white"/>
<g style="mix-blend-mode:multiply" opacity="0.5">
<path d="M44.6619 29.3215L29.2402 44.8244V67.338L44.8243 82.922H54.8281L35.1857 64.7914V46.3767L44.6619 29.3215Z" fill="#140036"/>
</g>
<path opacity="0.49" d="M43.7793 29.1896L55.8529 15.8884L67.7235 29.1896H43.7793Z" fill="white"/>
<g style="mix-blend-mode:multiply" opacity="0.5">
<path d="M43.7793 84.231L55.8529 97.5322L67.7235 84.231H43.7793Z" fill="#140036"/>
</g>
<path opacity="0.46" d="M82.6685 67.3378V44.2256L95.9595 56.4006L82.6685 67.3378Z" fill="white"/>
<path d="M82.8611 68.4744L109.737 78.5391L83.2771 65.8162L82.8611 68.4744Z" fill="white"/>
<path d="M65.4812 84.444L78.7723 109.606L67.6423 82.6482L65.4812 84.444Z" fill="white"/>
<path d="M43.3736 82.8003L33.6133 109.727L45.626 84.0279L43.3736 82.8003Z" fill="white"/>
<g style="mix-blend-mode:overlay" opacity="0.5">
<path d="M2.56689 33.7756L33.8161 2.45532H77.3418L109.433 33.7756L74.0748 9.34435H37.6411L2.56689 33.7756Z" fill="white"/>
</g>
<g style="mix-blend-mode:overlay" opacity="0.83">
<path d="M65.045 70.615C65.045 81.4609 56.2485 90.2574 45.4026 90.2574C34.5567 90.2574 25.7603 81.4609 25.7603 70.615C25.7603 59.7691 34.5567 50.9727 45.4026 50.9727C56.2485 50.9727 65.045 59.7691 65.045 70.615Z" fill="white"/>
</g>
<g style="mix-blend-mode:overlay" opacity="0.49">
<path d="M109.433 33.7756V78.5391L74.4807 101.631L102.098 75.8403L109.433 33.7756Z" fill="white"/>
</g>
<defs>
<linearGradient id="paint0_linear_2223_1294" x1="37.4179" y1="67.5004" x2="130.131" y2="75.4142" gradientUnits="userSpaceOnUse">
<stop stop-color="#FF7B28"/>
<stop offset="0.44" stop-color="#D64D30"/>
<stop offset="1" stop-color="#9F2B1F"/>
</linearGradient>
<linearGradient id="paint1_linear_2223_1294" x1="37.8034" y1="30.7117" x2="128.852" y2="38.4834" gradientUnits="userSpaceOnUse">
<stop stop-color="#781C31"/>
<stop offset="1" stop-color="#9F2B1F"/>
</linearGradient>
</defs>
</svg>
