<svg width="80" height="240" viewBox="0 0 80 240" fill="none" xmlns="http://www.w3.org/2000/svg">
<path d="M10.6673 214.911L0 145.97L12.4164 76.6374L39.6783 0L67.357 77.0505L80 145.513L69.3237 214.041L39.9048 240L10.6673 214.911Z" fill="#022202"/>
<path d="M13.6669 78.0509L39.6871 4.89209L66.1241 78.4857L78.5043 145.6L68.1815 211.867L39.8955 236.826L11.809 212.737L1.48608 146.035L13.6669 78.0509Z" fill="#328D23"/>
<path d="M30.8054 67.7239L39.6873 4.89209L49.1854 67.2891L39.7416 74.7245L30.8054 67.7239Z" fill="#42B624"/>
<path d="M13.4587 120.641L13.6672 78.0502L30.8055 67.7231L26.419 101.509L13.4587 120.641Z" fill="#42B624"/>
<g style="mix-blend-mode:multiply" opacity="0.74">
<path d="M1.48608 146.035L13.4584 120.641C13.4584 120.641 16.3586 152.057 16.6668 152.905L12.8422 172.255L1.48608 146.013V146.035Z" fill="#002461"/>
</g>
<path d="M78.4049 145.383L67.4566 120.228C67.4566 120.228 63.7408 152.492 63.4326 153.34L67.6741 172.255L78.4049 145.361V145.383Z" fill="#42B624"/>
<path d="M49.1855 67.2886L52.5933 100.205L67.3571 122.794L66.1245 78.4852L49.1855 67.2886Z" fill="#42B624"/>
<path d="M28.1228 208.845L39.8958 236.826L51.0434 210.584L39.8958 198.953L28.1228 208.845Z" fill="#328D23"/>
<path d="M11.8093 212.737L12.8425 172.276L21.9328 189.495L28.1229 208.845L11.8093 212.737Z" fill="#328D23"/>
<path d="M51.0435 210.585L57.3423 189.931L67.6199 172.494L68.1818 211.867L51.0435 210.585Z" fill="#328D23"/>
<path d="M21.8783 192.909L16.2048 152.34L26.2921 101.944L39.8958 74.7244L53.4995 101.922L64.0127 152.384L57.6957 191.148L39.932 200.997L21.8783 192.909Z" fill="#022202"/>
<path d="M39.8958 77.1809L52.4935 102.575L62.8164 152.492L56.8257 189.495L39.8958 198.953L22.7575 191.213L17.3831 152.492L27.2981 102.575L39.8958 77.1809Z" fill="#42B624"/>
<g style="mix-blend-mode:overlay">
<mask id="mask0_2223_1370" style="mask-type:luminance" maskUnits="userSpaceOnUse" x="17" y="77" width="46" height="122">
<path d="M39.5061 77.1809L52.1038 102.575L62.4267 152.492L56.436 189.495L39.5061 198.953L22.3678 191.213L17.0024 152.492L26.9084 102.575L39.5061 77.1809Z" fill="white"/>
</mask>
<g mask="url(#mask0_2223_1370)">
<path style="mix-blend-mode:lighten" d="M1.83984 190.082C1.83984 190.082 10.2051 181.799 17.3196 179.19C24.4342 176.581 35.5183 170.906 44.1101 169.167C52.6838 167.428 56.0372 167.863 58.1217 168.276C60.2153 168.71 61.6835 168.276 64.6109 168.276C67.5383 168.276 74.0456 171.08 76.3476 171.515C78.6496 171.95 82.6736 175.472 83.5075 177.211C84.3413 178.951 76.7464 199.235 68.789 221.476C68.789 221.476 53.7986 227.259 39.6874 223.302C37.7207 222.759 24.8511 219.28 23.6004 220.585C22.3496 221.889 17.1112 223.629 17.1112 223.629L10.6311 229.738C10.6311 229.738 2.4652 211.432 1.83984 190.06V190.082Z" fill="url(#paint0_linear_2223_1370)"/>
<path style="mix-blend-mode:multiply" opacity="0.56" d="M1.63137 153.014C1.63137 153.014 14.6007 158.254 31.3402 138.187C48.0798 118.141 73.1846 68.4194 73.1846 68.4194C73.1846 68.4194 76.112 78.0073 72.7677 78.8769C69.4234 79.7465 77.7886 72.7677 76.112 78.0073C74.4353 83.2469 79.0393 78.8769 76.112 82.3555C73.1846 85.8341 66.4869 96.2915 66.4869 96.2915L77.7886 83.2251C77.7886 83.2251 65.6531 102.423 63.9765 104.162C62.2998 105.923 79.0393 87.5733 79.0393 87.5733L73.6015 100.683L79.0393 96.2915C79.0393 96.2915 80.2991 97.1829 79.0393 101.553C77.7796 105.923 77.3717 99.8136 77.7796 105.923C78.1965 112.032 79.8731 108.532 78.1965 112.032C76.5198 115.511 69.4053 127.729 61.4569 136.447C61.4569 136.447 78.1965 121.62 80.29 113.771C80.29 113.771 81.9667 126.86 81.5407 129.468C81.1238 132.077 81.5407 128.599 81.5407 135.556C81.5407 142.513 79.4562 142.535 78.6134 151.253C77.7705 159.971 76.5198 164.341 76.5198 164.341L75.26 169.581C75.26 169.581 58.3301 164.493 44.9349 167.102C31.5487 169.711 1.8217 190.061 1.8217 190.061C1.8217 190.061 -0.89723 169.581 1.61325 153.014H1.63137Z" fill="url(#paint1_linear_2223_1370)"/>
<path opacity="0.75" d="M48.4966 108.118C48.4966 108.118 35.1014 135.164 24.0172 144.752C12.924 154.34 1.63135 153.035 1.63135 153.035C1.63135 153.035 9.37124 113.793 15.0266 109.01C20.6729 104.205 46.675 73.6585 50.8621 74.9629C55.0493 76.2674 61.1759 87.2684 48.5057 108.118H48.4966Z" fill="white"/>
<path d="M65.6531 68.8757C65.6531 68.8757 59.5899 76.7243 55.4027 81.5073C51.2156 86.3121 42.8503 93.2693 42.8503 93.2693C42.8503 93.2693 48.7142 82.377 54.9858 75.8329C61.2666 69.2888 65.6531 68.854 65.6531 68.854V68.8757Z" fill="white"/>
<g style="mix-blend-mode:multiply" opacity="0.57">
<path d="M4.55884 212.758C4.55884 212.758 21.5068 198.366 42.4245 190.517C63.3512 182.669 74.8613 200.105 74.8613 200.105C74.8613 200.105 56.2366 171.32 4.55884 212.758Z" fill="#AA3A3B"/>
<path d="M3.5166 202.714C3.5166 202.714 33.2345 179.603 55.6204 172.624C55.6204 172.624 15.6521 192.691 3.5166 202.714Z" fill="#AA3A3B"/>
<path d="M4.97583 206.649C4.97583 206.649 35.736 186.147 53.9347 183.538C72.1425 180.907 76.5381 190.952 76.5381 190.952C76.5381 190.952 69.4236 174.385 44.5272 184.843C19.6309 195.3 4.98489 206.649 4.98489 206.649H4.97583Z" fill="#AA3A3B"/>
<path d="M6.65237 216.237C6.65237 216.237 25.9024 197.931 48.2883 196.17C70.6741 194.43 72.9761 206.649 72.9761 206.649C72.9761 206.649 54.7684 180.494 6.64331 216.237H6.65237Z" fill="#AA3A3B"/>
</g>
<g style="mix-blend-mode:multiply">
<path d="M16.0691 107.248C16.0691 107.248 33.0171 93.2906 44.1103 76.2891C44.1103 76.2891 30.0897 99.8347 16.0691 107.248Z" fill="#AA3A3B"/>
<g style="mix-blend-mode:multiply" opacity="0.42">
<path d="M49.1311 91.5298C49.1311 91.5298 29.8811 121.185 9.38037 131.229C9.38037 131.229 27.5881 119.88 49.1311 91.5298Z" fill="#AA3A3B"/>
<path d="M6.65234 144.295C6.65234 144.295 24.0263 132.512 44.1101 104.618C44.1101 104.618 27.1621 133.403 6.65234 144.295Z" fill="#AA3A3B"/>
<path d="M12.0903 119.88C12.0903 119.88 33.6424 101.139 53.7262 76.2891C53.7262 76.2891 34.6846 102.444 12.0903 119.88Z" fill="#AA3A3B"/>
<path d="M53.5178 97.2043C53.5178 97.2043 32.8086 142.556 8.52856 153.014C8.52856 153.014 34.0593 139.056 53.5178 97.2043Z" fill="#AA3A3B"/>
<path d="M63.7772 91.0952C63.7772 91.0952 44.3187 135.143 28.4129 151.709C12.5072 168.276 3.5166 166.972 3.5166 166.972C3.5166 166.972 21.7244 169.581 39.0893 139.513C56.4632 109.423 63.7772 91.0952 63.7772 91.0952Z" fill="#AA3A3B"/>
</g>
</g>
<g style="mix-blend-mode:multiply">
<g style="mix-blend-mode:multiply" opacity="0.42">
<path d="M63.7772 96.3347C63.7772 96.3347 44.3187 140.382 28.4129 156.949C12.5072 173.516 3.5166 172.211 3.5166 172.211C3.5166 172.211 21.7244 174.82 39.0893 144.73C56.4632 114.662 63.7772 96.313 63.7772 96.313V96.3347Z" fill="#AA3A3B"/>
</g>
</g>
<g style="mix-blend-mode:multiply" opacity="0.51">
<g style="mix-blend-mode:multiply" opacity="0.42">
<path d="M63.7772 101.575C63.7772 101.575 44.3187 145.6 28.4129 162.167C12.5072 178.734 3.5166 177.429 3.5166 177.429C3.5166 177.429 21.7244 180.038 39.0893 149.949C56.4632 119.881 63.7772 101.575 63.7772 101.575Z" fill="#AA3A3B"/>
</g>
</g>
<g style="mix-blend-mode:overlay" opacity="0.73">
<path d="M31.7571 84.1159C31.7571 84.1159 58.5385 57.9831 74.4352 63.2009C90.341 68.4405 79.6737 170.45 79.6737 170.45C79.6737 170.45 86.5798 84.0941 75.695 69.2884C66.4506 56.7003 31.7571 84.0941 31.7571 84.0941V84.1159Z" fill="white"/>
</g>
<g style="mix-blend-mode:multiply" opacity="0.27">
<path d="M4.14185 185.278C4.14185 185.278 23.8088 163.472 38.0379 155.623C57.5688 144.839 67.7467 149.535 72.7767 152.144C77.7977 154.753 79.4744 159.123 79.4744 159.123C79.4744 159.123 76.547 159.993 70.2662 159.123C61.0672 157.841 76.547 164.363 76.547 164.363C76.547 164.363 59.8074 165.233 48.9226 165.233C38.0378 165.233 17.5371 174.82 4.15091 185.3L4.14185 185.278Z" fill="#7A0000"/>
</g>
<g style="mix-blend-mode:overlay" opacity="0.52">
<path d="M17.9541 103.314C17.9541 103.314 40.9653 64.9405 67.7468 62.3315C94.5283 59.7009 79.6738 170.45 79.6738 170.45C79.6738 170.45 79.4654 89.334 61.892 85.8554C44.3096 82.3768 17.9541 103.314 17.9541 103.314Z" fill="#FBFFFE"/>
</g>
<path opacity="0.26" d="M17.5282 241.957C17.5282 241.957 -18.4614 193.126 12.9241 111.162C12.9241 111.162 -8.41946 183.538 17.5282 241.957Z" fill="white"/>
</g>
</g>
<path d="M63.8495 150.992L67.3569 120.228L53.1641 101.922L63.8495 150.992Z" fill="#328D23"/>
<g style="mix-blend-mode:multiply">
<path d="M23.5823 103.727L39.6874 38.7646L30.8056 99.8571L23.5823 103.727Z" fill="#328D23"/>
</g>
<path d="M63.8494 152.709L67.4656 172.494L57.9131 189.169L63.8494 152.709Z" fill="#328D23"/>
<g style="mix-blend-mode:overlay" opacity="0.84">
<path d="M74.997 168.276L66.1243 78.355L78.5045 145.47L74.997 168.276Z" fill="white"/>
</g>
<path d="M30.8054 99.8569L39.6873 37.0251L49.1854 99.4221L39.6873 45.2215L30.8054 99.8569Z" fill="white"/>
<path d="M49.1855 67.2886L66.1245 78.4852L67.3571 122.794L65.2997 80.6376L49.1855 67.2886Z" fill="white"/>
<path d="M41.0288 199.822L51.0435 210.584L57.1339 190.147L41.0288 199.822Z" fill="#328D23"/>
<g style="mix-blend-mode:overlay" opacity="0.51">
<path d="M28.1228 103.118L39.8958 79.5508L52.285 104.727L39.5876 93.4433L28.1228 103.118Z" fill="white"/>
</g>
<g style="mix-blend-mode:overlay" opacity="0.68">
<path d="M16.8212 150.231L13.4587 120.641L22.0868 122.163L16.8212 150.231Z" fill="white"/>
</g>
<path d="M16.4586 151.622L13.4587 120.641L26.419 101.509L14.9088 121.728L16.4586 151.622Z" fill="white"/>
<path opacity="0.54" d="M39.8958 37.46L49.1854 99.4221L59.1005 106.749L39.8958 37.46Z" fill="white"/>
<path d="M49.6568 67.2886L40.1043 73.9631L30.8055 67.7234L13.7669 78.0504L13.4587 120.641L14.7004 79.768L30.6061 69.8758L39.8958 76.0068L49.6568 67.2886Z" fill="white"/>
<path d="M28.1228 208.845L39.8958 198.953L51.0434 210.584L39.932 200.997L28.1228 208.845Z" fill="white"/>
<g style="mix-blend-mode:overlay" opacity="0.69">
<path d="M61.158 112.053L67.2574 120.011L65.9161 80.2026L61.158 112.053Z" fill="white"/>
</g>
<g style="mix-blend-mode:overlay" opacity="0.59">
<path d="M56.6262 189.278L50.1189 162.384L52.285 104.727L62.8163 152.492L56.6262 189.278Z" fill="white"/>
</g>
<g style="mix-blend-mode:overlay" opacity="0.29">
<path d="M56.6263 189.278L41.4456 127.316L62.8163 152.492L56.6263 189.278Z" fill="white"/>
</g>
<path d="M52.4934 99.9873L67.4657 120.011L63.7498 151.84L66.0156 121.076L52.4934 99.9873Z" fill="white"/>
<g style="mix-blend-mode:overlay" opacity="0.8">
<path d="M49.7292 168.95C49.7292 190.3 41.4183 207.627 31.1679 207.627C20.9176 207.627 12.6067 190.3 12.6067 168.95C12.6067 147.6 20.9176 130.272 31.1679 130.272C41.4183 130.272 49.7292 147.6 49.7292 168.95Z" fill="white"/>
</g>
<path d="M68.3539 211.584L67.783 172.211L78.5681 145.535L69.1787 173.298L68.3539 211.584Z" fill="white"/>
<g style="mix-blend-mode:multiply" opacity="0.63">
<path d="M39.8958 236.826L51.0434 210.584L68.1817 211.867L51.6687 213.476L39.8958 236.826Z" fill="#003D00"/>
</g>
<g style="mix-blend-mode:multiply" opacity="0.63">
<path d="M11.8093 212.737L28.1229 208.845L39.8959 236.826L27.6516 212.193L11.8093 212.737Z" fill="#003D00"/>
</g>
<g style="mix-blend-mode:multiply" opacity="0.63">
<path d="M0.706787 144.1L13.096 171.537L11.8091 212.737L12.0175 172.82L0.706787 144.1Z" fill="#003D00"/>
</g>
<path d="M48.1343 78.7895C48.1343 78.7895 52.2399 68.5059 54.6053 63.3533C54.6053 63.3533 60.3241 69.9626 62.309 80.4853C62.309 80.4853 56.3183 88.7904 53.5087 90.9427C53.5087 90.9427 49.0587 79.0286 48.1433 78.8112L48.1343 78.7895Z" fill="white"/>
<path d="M47.3367 77.2892C47.3367 77.2892 48.0617 75.2891 48.4061 73.4628C48.4061 73.4628 45.4516 69.7233 43.9743 69.3755L42.6692 73.3759C42.6692 73.3759 47.237 76.5066 47.3367 77.2675V77.2892Z" fill="white"/>
<path d="M50.0463 99.1398C50.0463 99.1398 49.4209 102.597 48.9134 103.771C48.9134 103.771 45.4966 100.075 44.0918 99.5746C44.0918 99.5746 45.0162 96.0743 45.2066 94.2915C45.2066 94.2915 48.7593 97.0091 50.0463 99.1398Z" fill="white"/>
<path d="M37.5483 109.031C37.5483 109.031 42.0799 99.574 44.6629 94.8779C44.6629 94.8779 50.0735 102.531 51.5871 113.38C51.5871 113.38 45.261 120.532 42.3699 122.141C42.3699 122.141 38.4547 109.444 37.5483 109.053V109.031Z" fill="white"/>
<path d="M36.8143 107.423C36.8143 107.423 37.6209 105.575 38.0469 103.814C38.0469 103.814 35.2645 99.5309 33.8054 98.9221L32.3372 102.683C32.3372 102.683 36.7509 106.662 36.8143 107.423Z" fill="white"/>
<path d="M39.9593 97.6828C39.9593 97.6828 39.1889 101.009 38.6361 102.096C38.6361 102.096 35.3915 97.7697 34.0139 97.0088C34.0139 97.0088 35.0924 93.7041 35.3553 91.9648C35.3553 91.9648 38.772 95.3347 39.9684 97.6828H39.9593Z" fill="white"/>
<g style="mix-blend-mode:multiply" opacity="0.63">
<path d="M13.7666 78.0503L1.48608 146.035L11.809 212.736L39.8955 236.826L68.1815 211.867L78.1871 151.253L63.6861 201.409L40.1855 220.15L17.854 202.018L6.83331 143.991L13.7666 78.0503Z" fill="#003D00"/>
</g>
<g style="mix-blend-mode:multiply" opacity="0.63">
<path d="M34.8748 196.366L22.7575 191.213L17.3831 152.492L27.2981 102.575L39.8958 77.1809L31.9747 105.727L23.2741 153.666L27.5247 184.278L34.8748 196.366Z" fill="#003D00"/>
</g>
<path d="M17.1836 154.644L27.298 102.575L39.8957 77.1809L52.4934 102.575L62.6079 150.775L51.4602 103.227L39.8957 80.8552L28.1228 103.118L17.1836 154.644Z" fill="white"/>
<defs>
<linearGradient id="paint0_linear_2223_1370" x1="21.1986" y1="195.582" x2="109.403" y2="198.722" gradientUnits="userSpaceOnUse">
<stop stop-color="#FF7B28"/>
<stop offset="0.44" stop-color="#D64D30"/>
<stop offset="1" stop-color="#9F2B1F"/>
</linearGradient>
<linearGradient id="paint1_linear_2223_1370" x1="21.2258" y1="125.925" x2="107.934" y2="129.011" gradientUnits="userSpaceOnUse">
<stop stop-color="#781C31"/>
<stop offset="1" stop-color="#9F2B1F"/>
</linearGradient>
</defs>
</svg>
