<svg width="65" height="65" viewBox="0 0 65 65" fill="none" xmlns="http://www.w3.org/2000/svg">
<path d="M14.0151 63.3316L6.85737 53.8199L0 38.3154L1.05657 24.9299L12.9793 7.9584L28.3618 0L39.3729 1.69715L51.9793 8.3707L65 27.4805L58.7124 54.0979L41.4964 65L14.0151 63.3316Z" fill="#470000"/>
<path d="M2.08203 25.2464L13.7147 8.68717L28.5482 1.00684L39.0207 2.62728L51.2334 9.08989L63.8916 27.6627L57.78 53.5131L41.196 64.0124L14.5848 62.392L7.77925 53.3501L1.06689 38.162L2.08203 25.2464Z" fill="#FF1A12"/>
<path opacity="0.6" d="M13.7147 8.68726L22.1466 17.1634L13.1346 28.7463L2.08203 25.2465L13.7147 8.68726Z" fill="white"/>
<path d="M28.5483 1.00684L28.4654 14.8238L22.1467 17.1633L13.7148 8.68717L28.5483 1.00684Z" fill="#F08073"/>
<path d="M13.1346 28.7461L11.6844 35.7457L1.06689 38.162L2.08203 25.2463L13.1346 28.7461Z" fill="#F74230"/>
<path opacity="0.78" d="M28.4653 14.8238L28.5482 1.00684L39.0207 2.62728L51.2335 9.08989L41.3514 17.7099L28.4653 14.8238Z" fill="white"/>
<g style="mix-blend-mode:screen" opacity="0.55">
<path d="M51.2334 30.357L63.8916 27.6626L51.2334 9.08984L41.3513 17.7098L51.2334 30.357Z" fill="white"/>
</g>
<path opacity="0.69" d="M50.0735 44.1547L51.2336 30.6926L63.8918 28.0078L57.7803 53.8486L50.0735 44.1547Z" fill="#8D0F06"/>
<g style="mix-blend-mode:multiply" opacity="0.82">
<path d="M40.7715 51.0871L50.0735 43.8191L57.7802 53.513L41.1962 64.0123L40.7715 51.0871Z" fill="#470000"/>
</g>
<g style="mix-blend-mode:multiply" opacity="0.99">
<path d="M20.8726 50.2051L40.7714 51.0872L41.1961 64.0124L14.585 62.392L20.8726 50.2051Z" fill="#8D0F06"/>
</g>
<path opacity="0.64" d="M1.06689 38.1619L11.6844 35.7456L16.6773 45.8422L20.8725 50.205L14.5848 62.3919L7.77925 53.35L1.06689 38.1619Z" fill="#8D0F06"/>
<path d="M22.1467 17.1633L28.4654 14.8237L41.3515 17.7098L51.2336 30.357L50.0734 43.8192L40.7714 51.0872L20.8726 50.2051L16.6774 45.8423L11.6846 35.7457L13.1348 28.7461L22.1467 17.1633Z" fill="#FF4738"/>
<mask id="mask0_2223_1532" style="mask-type:luminance" maskUnits="userSpaceOnUse" x="11" y="14" width="41" height="37">
<path d="M22.2398 16.8755L28.5482 14.5264L41.4343 17.4125L51.3267 30.0596L50.1562 43.5218L40.8542 50.7898L20.9554 49.9077L16.7705 45.545L11.7673 35.4483L13.2175 28.4488L22.2398 16.8755Z" fill="white"/>
</mask>
<g mask="url(#mask0_2223_1532)">
<g style="mix-blend-mode:multiply">
<path style="mix-blend-mode:lighten" d="M6.51587 42.0258C6.51587 42.0258 9.10551 41.5368 13.5286 40.8177C17.9517 40.0985 28.3828 36.9631 33.7071 36.4741C39.0314 35.9947 40.1916 35.8892 41.4864 36.0043C42.7916 36.1289 43.7031 36.0043 45.5159 36.0043C47.3286 36.0043 51.3788 36.7809 52.8083 36.896C54.2378 37.0111 56.7342 37.9891 57.2625 38.4685C57.7804 38.9479 53.0569 44.5476 48.1159 50.6842C48.1159 50.6842 38.8035 52.2759 30.0298 51.1924C28.8075 51.039 20.8107 50.0897 20.0338 50.4445C19.2569 50.8088 16.0043 51.2883 16.0043 51.2883L11.9748 52.9758C11.9748 52.9758 6.90949 47.9227 6.51587 42.0258Z" fill="url(#paint0_linear_2223_1532)"/>
<path style="mix-blend-mode:multiply" opacity="0.56" d="M6.38108 31.7951C6.38108 31.7951 14.44 33.243 24.84 27.7008C35.24 22.1683 50.84 8.44727 50.84 8.44727C50.84 8.44727 52.6632 11.0937 50.5811 11.3334C48.499 11.5731 53.699 9.64582 52.6632 11.0937C51.6169 12.5415 54.4863 11.3334 52.6632 12.2922C50.84 13.2511 46.6863 16.1372 46.6863 16.1372L53.7094 12.5319C53.7094 12.5319 46.1683 17.8248 45.1325 18.3138C44.0863 18.7932 54.4966 13.7305 54.4966 13.7305L51.1197 17.3453L54.4966 16.1372C54.4966 16.1372 55.2735 16.3865 54.4966 17.585C53.7197 18.7932 53.4608 17.1056 53.7197 18.7932C53.9787 20.4808 55.0249 19.5123 53.9787 20.4808C52.9428 21.4396 48.5197 24.8147 43.5787 27.2214C43.5787 27.2214 53.9787 23.1272 55.2839 20.9602C55.2839 20.9602 56.3197 24.5654 56.0608 25.2941C55.8018 26.0133 56.0608 25.0544 56.0608 26.9817C56.0608 28.909 54.7659 28.909 54.2377 31.3157C53.7197 33.7224 52.9428 34.9305 52.9428 34.9305L52.1556 36.3688C52.1556 36.3688 41.6313 34.9689 33.3134 35.688C24.9954 36.4071 6.5261 42.026 6.5261 42.026C6.5261 42.026 4.83765 36.3688 6.39144 31.7951H6.38108Z" fill="url(#paint1_linear_2223_1532)"/>
<path opacity="0.75" d="M35.499 19.3972C35.499 19.3972 27.1811 26.857 20.2927 29.5034C13.4042 32.1498 6.3811 31.7951 6.3811 31.7951C6.3811 31.7951 11.1875 20.9601 14.699 19.6369C18.2106 18.3137 34.3699 9.8759 36.9699 10.2499C39.5699 10.6046 43.3819 13.6442 35.5094 19.3972H35.499Z" fill="white"/>
<path d="M46.1578 8.57202C46.1578 8.57202 42.3873 10.739 39.7873 12.0622C37.1873 13.3854 31.9873 15.3127 31.9873 15.3127C31.9873 15.3127 35.6335 12.3019 39.5283 10.4993C43.4232 8.69667 46.1578 8.57202 46.1578 8.57202Z" fill="white"/>
<path d="M11.9748 24.4504C11.9748 24.4504 10.0273 27.1064 9.49906 30.8363C8.98113 34.5662 11.0632 26.512 11.9748 24.4504Z" fill="white"/>
<g style="mix-blend-mode:multiply" opacity="0.57">
<path d="M8.2041 48.2872C8.2041 48.2872 18.7388 44.3176 31.7388 42.141C44.7388 39.974 51.8862 44.7874 51.8862 44.7874C51.8862 44.7874 40.3157 36.8482 8.2041 48.2776V48.2872Z" fill="#AA3A3B"/>
<path d="M7.55176 45.5162C7.55176 45.5162 26.0107 39.1399 39.9223 37.2126C39.9223 37.2126 15.0928 42.7452 7.55176 45.5162Z" fill="#AA3A3B"/>
<path d="M8.46313 46.5996C8.46313 46.5996 27.5747 40.9425 38.8862 40.2233C50.1978 39.4946 52.9325 42.2657 52.9325 42.2657C52.9325 42.2657 48.5094 37.692 33.044 40.5781C17.5683 43.4642 8.47349 46.5996 8.47349 46.5996H8.46313Z" fill="#AA3A3B"/>
<path d="M10.8041 50.8187C10.8041 50.8187 19.2566 47.8079 30.6925 46.9641C42.1387 46.1203 46.8104 47.923 46.8104 47.923C46.8104 47.923 30.6925 44.6725 10.7937 50.8091L10.8041 50.8187Z" fill="#AA3A3B"/>
<path d="M9.49902 49.2461C9.49902 49.2461 21.4632 44.193 35.3747 43.704C49.2863 43.2246 50.7158 46.5901 50.7158 46.5901C50.7158 46.5901 39.4042 39.37 9.49902 49.2365V49.2461Z" fill="#AA3A3B"/>
</g>
<g style="mix-blend-mode:multiply">
<path d="M15.3518 19.1576C15.3518 19.1576 25.8865 15.303 32.7749 10.6143C32.7749 10.6143 24.0634 17.1152 15.3518 19.1576Z" fill="#AA3A3B"/>
<g style="mix-blend-mode:multiply" opacity="0.42">
<path d="M35.8928 14.8235C35.8928 14.8235 23.939 23.012 11.198 25.7831C11.198 25.7831 22.5096 22.6476 35.8928 14.8235Z" fill="#AA3A3B"/>
<path d="M9.49927 29.3882C9.49927 29.3882 20.2929 26.1377 32.775 18.4382C32.775 18.4382 22.2403 26.3775 9.49927 29.3882Z" fill="#AA3A3B"/>
<path d="M12.876 22.6477C12.876 22.6477 26.2696 17.47 38.7517 10.6143C38.7517 10.6143 26.9222 17.8344 12.876 22.6477Z" fill="#AA3A3B"/>
<path d="M38.6273 16.396C38.6273 16.396 25.762 28.9185 10.6799 31.8046C10.6799 31.8046 26.5389 27.9501 38.6273 16.396Z" fill="#AA3A3B"/>
<path d="M44.9979 14.7085C44.9979 14.7085 32.9094 26.8666 23.0274 31.4403C13.1453 36.014 7.56201 35.6592 7.56201 35.6592C7.56201 35.6592 18.8736 36.3784 29.6672 28.0748C40.4608 19.7712 45.0082 14.7085 45.0082 14.7085H44.9979Z" fill="#AA3A3B"/>
</g>
</g>
<g style="mix-blend-mode:multiply">
<g style="mix-blend-mode:multiply" opacity="0.42">
<path d="M44.9979 16.1468C44.9979 16.1468 32.9094 28.3145 23.0274 32.8786C13.1453 37.4523 7.56201 37.0879 7.56201 37.0879C7.56201 37.0879 18.8736 37.8071 29.6672 29.5035C40.4608 21.1999 45.0082 16.1372 45.0082 16.1372L44.9979 16.1468Z" fill="#AA3A3B"/>
</g>
</g>
<g style="mix-blend-mode:multiply" opacity="0.51">
<g style="mix-blend-mode:multiply" opacity="0.42">
<path d="M44.9979 17.5947C44.9979 17.5947 32.9094 29.7529 23.0274 34.3265C13.1453 38.9002 7.56201 38.5359 7.56201 38.5359C7.56201 38.5359 18.8736 39.255 29.6672 30.9514C40.4608 22.6478 45.0082 17.5947 45.0082 17.5947H44.9979Z" fill="#AA3A3B"/>
</g>
</g>
<g style="mix-blend-mode:overlay" opacity="0.73">
<path d="M25.0991 12.7718C25.0991 12.7718 41.7453 5.56129 51.6171 6.99955C61.4991 8.44741 54.8696 36.6086 54.8696 36.6086C54.8696 36.6086 59.1581 12.7718 52.4043 8.68712C46.6657 5.2161 25.0991 12.7718 25.0991 12.7718Z" fill="white"/>
</g>
<g style="mix-blend-mode:multiply" opacity="0.27">
<path d="M7.94531 40.7028C7.94531 40.7028 20.1684 34.6813 29.0043 32.5143C41.1342 29.5419 47.4632 30.8267 50.5915 31.5554C53.7095 32.2842 54.7557 33.4827 54.7557 33.4827C54.7557 33.4827 52.9326 33.7224 49.0377 33.4827C43.3302 33.1279 52.9429 34.9306 52.9429 34.9306C52.9429 34.9306 42.5429 35.1703 35.7788 35.1703C29.0146 35.1703 16.2736 37.8167 7.95567 40.7028H7.94531Z" fill="#7A0000"/>
</g>
<g style="mix-blend-mode:overlay" opacity="0.52">
<path d="M16.5221 18.0837C16.5221 18.0837 30.8169 7.48846 47.4631 6.76933C64.1093 6.0502 54.8695 36.6181 54.8695 36.6181C54.8695 36.6181 54.7452 14.2291 43.8169 13.2703C32.899 12.3114 16.5117 18.0933 16.5117 18.0933L16.5221 18.0837Z" fill="#FBFFFE"/>
</g>
<path d="M15.0927 53.58C15.0927 53.58 6.64012 47.8078 7.55167 35.6497C7.55167 35.6497 7.29271 47.2037 15.0927 53.58Z" fill="white"/>
<path opacity="0.26" d="M16.2631 56.3512C16.2631 56.3512 -6.10108 42.8699 13.4041 20.2507C13.4041 20.2507 0.145132 40.2234 16.2631 56.3512Z" fill="white"/>
</g>
</g>
<g style="mix-blend-mode:multiply" opacity="0.59">
<path d="M1.06689 38.162L1.92666 25.4189L3.25255 37.8743L11.3115 52.257L17.0709 57.9525L40.8956 59.7743L55.6876 51.1735L63.8916 27.6626L57.78 53.5131L41.196 64.0124L14.5848 62.3919L7.77925 53.3501L1.06689 38.162Z" fill="#470000"/>
</g>
<g style="mix-blend-mode:multiply" opacity="0.59">
<path d="M28.3719 14.7854L22.0532 17.125L13.0413 28.6982L11.5911 35.6978L16.5839 45.804L20.7791 50.1571L28.0197 50.4831L22.913 44.1835L17.8062 34.1253L18.8524 27.586L23.5656 17.6428L28.3719 14.7854Z" fill="#470000"/>
</g>
<path d="M42.5115 16.7702C42.5115 16.7702 45.329 14.1622 46.9346 12.8582C46.9346 12.8582 50.3011 14.9676 51.2437 17.9592C51.2437 17.9592 47.3178 19.9344 45.5155 20.3755C45.5155 20.3755 43.0812 16.8757 42.5218 16.7606L42.5115 16.7702Z" fill="white"/>
<path d="M42.0661 16.3196C42.0661 16.3196 42.5633 15.8114 42.8327 15.3224C42.8327 15.3224 41.1028 14.1431 40.2016 13.9705L39.29 15.006C39.29 15.006 42.0351 16.1087 42.0765 16.31L42.0661 16.3196Z" fill="white"/>
<path d="M44.0135 13.6348C44.0135 13.6348 43.537 14.5553 43.1849 14.8526C43.1849 14.8526 41.1649 13.6636 40.3052 13.4526C40.3052 13.4526 40.9681 12.5417 41.1339 12.0527C41.1339 12.0527 43.2574 12.9828 44.0032 13.6348H44.0135Z" fill="white"/>
<g style="mix-blend-mode:overlay" opacity="0.54">
<path d="M35.1882 22.6576C35.1882 22.6576 38.0058 20.0496 39.601 18.7551C39.601 18.7551 42.9675 20.8646 43.9101 23.8562C43.9101 23.8562 39.9842 25.8314 38.1819 26.2725C38.1819 26.2725 35.7476 22.7631 35.1882 22.6576Z" fill="white"/>
<path d="M34.7324 22.2164C34.7324 22.2164 35.2296 21.6986 35.4989 21.2192C35.4989 21.2192 33.769 20.0398 32.8679 19.8672L31.9563 20.9027C31.9563 20.9027 34.7013 22.0054 34.7428 22.2164H34.7324Z" fill="white"/>
<path d="M36.6798 19.5316C36.6798 19.5316 36.2033 20.452 35.8615 20.7493C35.8615 20.7493 33.8416 19.5603 32.9922 19.3494C32.9922 19.3494 33.6551 18.4385 33.8209 17.9495C33.8209 17.9495 35.9444 18.8795 36.6798 19.5316Z" fill="white"/>
</g>
<g style="mix-blend-mode:overlay" opacity="0.55">
<path d="M39.6214 3.90266C39.6214 3.90266 41.7346 5.70528 41.8692 8.45716C41.8692 8.45716 45.2358 9.85707 46.7896 12.1871C46.7896 12.1871 46.9139 11.7939 46.7274 11.4296C46.5513 11.0652 47.3282 10.8543 47.0382 10.4324C46.7585 10.0105 47.639 10.5858 48.188 11.3529C48.188 11.3529 47.8876 8.62975 46.7999 7.61338C45.9712 6.8463 42.0661 4.58343 39.6111 3.89307L39.6214 3.90266Z" fill="white"/>
<path d="M39.725 7.14345C39.725 7.14345 37.1561 6.65444 36.5242 6.54897C35.882 6.4435 33.7895 2.53142 29.2007 1.66846C29.2007 1.66846 35.1879 2.18623 37.9122 3.2889C37.9122 3.2889 40.2118 4.92852 39.725 7.13386V7.14345Z" fill="white"/>
</g>
<g style="mix-blend-mode:overlay" opacity="0.49">
<path d="M49.1099 10.9595C49.2342 10.9595 51.1816 8.95557 51.1816 8.95557C51.4613 9.02269 63.529 27.49 63.674 27.4133C63.9123 27.2982 55.5011 50.9913 55.5011 50.9913C55.5011 50.7707 44.086 57.7799 41.2063 59.5537C41.2063 59.5537 53.5641 47.923 53.4605 47.9901C53.0979 48.2106 58.5051 28.6406 58.6294 28.8612C58.6812 28.957 48.6748 10.95 49.1099 10.95V10.9595Z" fill="white"/>
</g>
<g style="mix-blend-mode:overlay" opacity="0.8">
<path d="M34.8256 45.2096C34.8256 51.1065 29.6567 55.8815 23.2862 55.8815C16.9156 55.8815 11.7571 51.1065 11.7571 45.2096C11.7571 39.3127 16.926 34.5281 23.2862 34.5281C29.6463 34.5281 34.8256 39.3127 34.8256 45.2096Z" fill="white"/>
</g>
<defs>
<linearGradient id="paint0_linear_2223_1532" x1="18.5007" y1="43.6654" x2="72.8692" y2="48.6839" gradientUnits="userSpaceOnUse">
<stop stop-color="#FF7B28"/>
<stop offset="0.44" stop-color="#D64D30"/>
<stop offset="1" stop-color="#9F2B1F"/>
</linearGradient>
<linearGradient id="paint1_linear_2223_1532" x1="18.656" y1="24.4504" x2="72.0522" y2="29.3683" gradientUnits="userSpaceOnUse">
<stop stop-color="#781C31"/>
<stop offset="1" stop-color="#9F2B1F"/>
</linearGradient>
</defs>
</svg>
