<svg width="80" height="80" viewBox="0 0 80 80" fill="none" xmlns="http://www.w3.org/2000/svg">
<path d="M10.6673 71.6369L0 48.6566L12.4164 25.5458L39.6783 0L67.357 25.6835L80 48.5044L69.3237 71.347L39.9048 80L10.6673 71.6369Z" fill="#022202"/>
<path d="M13.6669 26.0169L39.6871 1.63062L66.1241 26.1618L78.5043 48.5334L68.1815 70.6224L39.8955 78.942L11.809 70.9123L1.48608 48.6784L13.6669 26.0169Z" fill="#328D23"/>
<path d="M30.8054 22.5745L39.6873 1.63062L49.1854 22.4296L39.7416 24.9081L30.8054 22.5745Z" fill="#42B624"/>
<path d="M13.4587 40.2137L13.6672 26.0168L30.8055 22.5745L26.419 33.8364L13.4587 40.2137Z" fill="#42B624"/>
<g style="mix-blend-mode:multiply" opacity="0.74">
<path d="M1.48608 48.6784L13.4584 40.2139C13.4584 40.2139 16.3586 50.6858 16.6668 50.9685L12.8422 57.4183L1.48608 48.6712V48.6784Z" fill="#002461"/>
</g>
<path d="M78.4049 48.461L67.4566 40.0762C67.4566 40.0762 63.7408 50.8308 63.4326 51.1134L67.6741 57.4183L78.4049 48.4537V48.461Z" fill="#42B624"/>
<path d="M49.1855 22.4294L52.5933 33.4015L67.3571 40.9311L66.1245 26.1617L49.1855 22.4294Z" fill="#42B624"/>
<path d="M28.1228 69.615L39.8958 78.942L51.0434 70.1948L39.8958 66.3176L28.1228 69.615Z" fill="#328D23"/>
<path d="M11.8093 70.9123L12.8425 57.4255L21.9328 63.1652L28.1229 69.615L11.8093 70.9123Z" fill="#328D23"/>
<path d="M51.0435 70.1949L57.3423 63.3102L67.6199 57.498L68.1818 70.6224L51.0435 70.1949Z" fill="#328D23"/>
<path d="M21.8783 64.3031L16.2048 50.7801L26.2921 33.9815L39.8958 24.9082L53.4995 33.9742L64.0127 50.7946L57.6957 63.7161L39.932 66.999L21.8783 64.3031Z" fill="#022202"/>
<path d="M39.8958 25.7271L52.4935 34.1916L62.8164 50.8308L56.8257 63.1652L39.8958 66.3177L22.7575 63.7377L17.3831 50.8308L27.2981 34.1916L39.8958 25.7271Z" fill="#42B624"/>
<g style="mix-blend-mode:overlay">
<mask id="mask0_2225_1600" style="mask-type:luminance" maskUnits="userSpaceOnUse" x="17" y="25" width="46" height="42">
<path d="M39.5061 25.7271L52.1038 34.1916L62.4267 50.8308L56.436 63.1652L39.5061 66.3177L22.3678 63.7377L17.0024 50.8308L26.9084 34.1916L39.5061 25.7271Z" fill="white"/>
</mask>
<g mask="url(#mask0_2225_1600)">
<path style="mix-blend-mode:lighten" d="M1.83984 63.3607C1.83984 63.3607 10.2051 60.5995 17.3196 59.7299C24.4342 58.8603 35.5183 56.9688 44.1101 56.389C52.6838 55.8093 56.0372 55.9542 58.1217 56.0919C60.2153 56.2368 61.6835 56.0919 64.6109 56.0919C67.5383 56.0919 74.0456 57.0268 76.3476 57.1717C78.6496 57.3166 82.6736 58.4907 83.5075 59.0704C84.3413 59.6502 76.7464 66.4117 68.789 73.8254C68.789 73.8254 53.7986 75.7531 39.6874 74.4341C37.7207 74.253 24.8511 73.0934 23.6004 73.5283C22.3496 73.9631 17.1112 74.5428 17.1112 74.5428L10.6311 76.5793C10.6311 76.5793 2.4652 70.4772 1.83984 63.3534V63.3607Z" fill="url(#paint0_linear_2225_1600)"/>
<path style="mix-blend-mode:multiply" opacity="0.56" d="M1.63137 51.0046C1.63137 51.0046 14.6007 52.7511 31.3402 46.0621C48.0798 39.3804 73.1846 22.8064 73.1846 22.8064C73.1846 22.8064 76.112 26.0023 72.7677 26.2922C69.4234 26.5821 77.7886 24.2558 76.112 26.0023C74.4353 27.7489 79.0393 26.2922 76.112 27.4517C73.1846 28.6113 66.4869 32.0971 66.4869 32.0971L77.7886 27.7416C77.7886 27.7416 65.6531 34.1408 63.9765 34.7205C62.2998 35.3075 79.0393 29.191 79.0393 29.191L73.6015 33.561L79.0393 32.0971C79.0393 32.0971 80.2991 32.3942 79.0393 33.8509C77.7796 35.3075 77.3717 33.2711 77.7796 35.3075C78.1965 37.3439 79.8731 36.1772 78.1965 37.3439C76.5198 38.5035 69.4053 42.5763 61.4569 45.4824C61.4569 45.4824 78.1965 40.5399 80.29 37.9237C80.29 37.9237 81.9667 42.2864 81.5407 43.1561C81.1238 44.0257 81.5407 42.8662 81.5407 45.1852C81.5407 47.5043 79.4562 47.5115 78.6134 50.4176C77.7705 53.3237 76.5198 54.7803 76.5198 54.7803L75.26 56.5268C75.26 56.5268 58.3301 54.831 44.9349 55.7007C31.5487 56.5703 1.8217 63.3535 1.8217 63.3535C1.8217 63.3535 -0.89723 56.5268 1.61325 51.0046H1.63137Z" fill="url(#paint1_linear_2225_1600)"/>
<path opacity="0.75" d="M48.4966 36.0394C48.4966 36.0394 35.1014 45.0547 24.0172 48.2506C12.924 51.4466 1.63135 51.0117 1.63135 51.0117C1.63135 51.0117 9.37124 37.9309 15.0266 36.3365C20.6729 34.7349 46.675 24.5528 50.8621 24.9876C55.0493 25.4225 61.1759 29.0895 48.5057 36.0394H48.4966Z" fill="white"/>
<path d="M65.6531 22.9587C65.6531 22.9587 59.5899 25.5748 55.4027 27.1692C51.2156 28.7708 42.8503 31.0898 42.8503 31.0898C42.8503 31.0898 48.7142 27.4591 54.9858 25.2777C61.2666 23.0964 65.6531 22.9514 65.6531 22.9514V22.9587Z" fill="white"/>
<g style="mix-blend-mode:multiply" opacity="0.57">
<path d="M4.55884 70.9194C4.55884 70.9194 21.5068 66.1218 42.4245 63.5057C63.3512 60.8895 74.8613 66.7016 74.8613 66.7016C74.8613 66.7016 56.2366 57.1065 4.55884 70.9194Z" fill="#AA3A3B"/>
<path d="M3.5166 67.5714C3.5166 67.5714 33.2345 59.8678 55.6204 57.5415C55.6204 57.5415 15.6521 64.2305 3.5166 67.5714Z" fill="#AA3A3B"/>
<path d="M4.97583 68.8831C4.97583 68.8831 35.736 62.0491 53.9347 61.1795C72.1425 60.3026 76.5381 63.6507 76.5381 63.6507C76.5381 63.6507 69.4236 58.1284 44.5272 61.6143C19.6309 65.1001 4.98489 68.8831 4.98489 68.8831H4.97583Z" fill="#AA3A3B"/>
<path d="M6.65237 72.0788C6.65237 72.0788 25.9024 65.9768 48.2883 65.3898C70.6741 64.81 72.9761 68.8828 72.9761 68.8828C72.9761 68.8828 54.7684 60.1646 6.64331 72.0788H6.65237Z" fill="#AA3A3B"/>
</g>
<g style="mix-blend-mode:multiply">
<path d="M16.0691 35.7495C16.0691 35.7495 33.0171 31.0969 44.1103 25.4297C44.1103 25.4297 30.0897 33.2782 16.0691 35.7495Z" fill="#AA3A3B"/>
<g style="mix-blend-mode:multiply" opacity="0.42">
<path d="M49.1311 30.51C49.1311 30.51 29.8811 40.395 9.38037 43.7431C9.38037 43.7431 27.5881 39.9601 49.1311 30.51Z" fill="#AA3A3B"/>
<path d="M6.65234 48.0984C6.65234 48.0984 24.0263 44.1705 44.1101 34.8726C44.1101 34.8726 27.1621 44.4676 6.65234 48.0984Z" fill="#AA3A3B"/>
<path d="M12.0903 39.96C12.0903 39.96 33.6424 33.713 53.7262 25.4297C53.7262 25.4297 34.6846 34.1479 12.0903 39.96Z" fill="#AA3A3B"/>
<path d="M53.5178 32.4014C53.5178 32.4014 32.8086 47.5187 8.52856 51.0045C8.52856 51.0045 34.0593 46.3519 53.5178 32.4014Z" fill="#AA3A3B"/>
<path d="M63.7772 30.365C63.7772 30.365 44.3187 45.0475 28.4129 50.5697C12.5072 56.092 3.5166 55.6571 3.5166 55.6571C3.5166 55.6571 21.7244 56.5268 39.0893 46.5041C56.4632 36.4742 63.7772 30.365 63.7772 30.365Z" fill="#AA3A3B"/>
</g>
</g>
<g style="mix-blend-mode:multiply">
<g style="mix-blend-mode:multiply" opacity="0.42">
<path d="M63.7772 32.1115C63.7772 32.1115 44.3187 46.794 28.4129 52.3162C12.5072 57.8385 3.5166 57.4036 3.5166 57.4036C3.5166 57.4036 21.7244 58.2733 39.0893 48.2434C56.4632 38.2207 63.7772 32.1042 63.7772 32.1042V32.1115Z" fill="#AA3A3B"/>
</g>
</g>
<g style="mix-blend-mode:multiply" opacity="0.51">
<g style="mix-blend-mode:multiply" opacity="0.42">
<path d="M63.7772 33.8582C63.7772 33.8582 44.3187 48.5334 28.4129 54.0556C12.5072 59.5779 3.5166 59.1431 3.5166 59.1431C3.5166 59.1431 21.7244 60.0127 39.0893 49.9828C56.4632 39.9602 63.7772 33.8582 63.7772 33.8582Z" fill="#AA3A3B"/>
</g>
</g>
<g style="mix-blend-mode:overlay" opacity="0.73">
<path d="M31.7571 28.0387C31.7571 28.0387 58.5385 19.3278 74.4352 21.0671C90.341 22.8136 79.6737 56.8167 79.6737 56.8167C79.6737 56.8167 86.5798 28.0315 75.695 23.0962C66.4506 18.9002 31.7571 28.0315 31.7571 28.0315V28.0387Z" fill="white"/>
</g>
<g style="mix-blend-mode:multiply" opacity="0.27">
<path d="M4.14185 61.7594C4.14185 61.7594 23.8088 54.4906 38.0379 51.8744C57.5688 48.2799 67.7467 49.8452 72.7767 50.7149C77.7977 51.5845 79.4744 53.0412 79.4744 53.0412C79.4744 53.0412 76.547 53.3311 70.2662 53.0412C61.0672 52.6136 76.547 54.7877 76.547 54.7877C76.547 54.7877 59.8074 55.0776 48.9226 55.0776C38.0378 55.0776 17.5371 58.2735 4.15091 61.7666L4.14185 61.7594Z" fill="#7A0000"/>
</g>
<g style="mix-blend-mode:overlay" opacity="0.52">
<path d="M17.9541 34.4378C17.9541 34.4378 40.9653 21.6467 67.7468 20.7771C94.5283 19.9002 79.6738 56.8166 79.6738 56.8166C79.6738 56.8166 79.4654 29.7779 61.892 28.6184C44.3096 27.4589 17.9541 34.4378 17.9541 34.4378Z" fill="#FBFFFE"/>
</g>
<path opacity="0.26" d="M17.5282 80.6521C17.5282 80.6521 -18.4614 64.3753 12.9241 37.054C12.9241 37.054 -8.41946 61.1793 17.5282 80.6521Z" fill="white"/>
</g>
</g>
<path d="M63.8495 50.3307L67.3569 40.0761L53.1641 33.9741L63.8495 50.3307Z" fill="#328D23"/>
<g style="mix-blend-mode:multiply">
<path d="M23.5823 34.5758L39.6874 12.9216L30.8056 33.2858L23.5823 34.5758Z" fill="#328D23"/>
</g>
<path d="M63.8494 50.9031L67.4656 57.4979L57.9131 63.0564L63.8494 50.9031Z" fill="#328D23"/>
<g style="mix-blend-mode:overlay" opacity="0.84">
<path d="M74.997 56.0921L66.1243 26.1184L78.5045 48.49L74.997 56.0921Z" fill="white"/>
</g>
<path d="M30.8054 33.2857L39.6873 12.3418L49.1854 33.1408L39.6873 15.0739L30.8054 33.2857Z" fill="white"/>
<path d="M49.1855 22.4294L66.1245 26.1617L67.3571 40.9311L65.2997 26.8791L49.1855 22.4294Z" fill="white"/>
<path d="M41.0288 66.6075L51.0435 70.1948L57.1339 63.3826L41.0288 66.6075Z" fill="#328D23"/>
<g style="mix-blend-mode:overlay" opacity="0.51">
<path d="M28.1228 34.3726L39.8958 26.5168L52.285 34.9089L39.5876 31.1477L28.1228 34.3726Z" fill="white"/>
</g>
<g style="mix-blend-mode:overlay" opacity="0.68">
<path d="M16.8212 50.0771L13.4587 40.2139L22.0868 40.7212L16.8212 50.0771Z" fill="white"/>
</g>
<path d="M16.4586 50.5408L13.4587 40.2138L26.419 33.8364L14.9088 40.5762L16.4586 50.5408Z" fill="white"/>
<path opacity="0.54" d="M39.8958 12.4866L49.1854 33.1406L59.1005 35.5829L39.8958 12.4866Z" fill="white"/>
<path d="M49.6568 22.4294L40.1043 24.6543L30.8055 22.5744L13.7669 26.0167L13.4587 40.2137L14.7004 26.5892L30.6061 23.2918L39.8958 25.3355L49.6568 22.4294Z" fill="white"/>
<path d="M28.1228 69.615L39.8958 66.3176L51.0434 70.1948L39.932 66.9988L28.1228 69.615Z" fill="white"/>
<g style="mix-blend-mode:overlay" opacity="0.69">
<path d="M61.158 37.351L67.2574 40.0034L65.9161 26.7341L61.158 37.351Z" fill="white"/>
</g>
<g style="mix-blend-mode:overlay" opacity="0.59">
<path d="M56.6262 63.0926L50.1189 54.1281L52.285 34.9089L62.8163 50.8307L56.6262 63.0926Z" fill="white"/>
</g>
<g style="mix-blend-mode:overlay" opacity="0.29">
<path d="M56.6263 63.0928L41.4456 42.4387L62.8163 50.8308L56.6263 63.0928Z" fill="white"/>
</g>
<path d="M52.4934 33.3291L67.4657 40.0036L63.7498 50.6133L66.0156 40.3587L52.4934 33.3291Z" fill="white"/>
<g style="mix-blend-mode:overlay" opacity="0.8">
<path d="M49.7292 56.3165C49.7292 63.4331 41.4183 69.209 31.1679 69.209C20.9176 69.209 12.6067 63.4331 12.6067 56.3165C12.6067 49.2 20.9176 43.4241 31.1679 43.4241C41.4183 43.4241 49.7292 49.2 49.7292 56.3165Z" fill="white"/>
</g>
<path d="M68.3539 70.5282L67.783 57.4038L78.5681 48.5117L69.1787 57.7662L68.3539 70.5282Z" fill="white"/>
<g style="mix-blend-mode:multiply" opacity="0.63">
<path d="M39.8958 78.942L51.0434 70.1948L68.1817 70.6224L51.6687 71.1587L39.8958 78.942Z" fill="#003D00"/>
</g>
<g style="mix-blend-mode:multiply" opacity="0.63">
<path d="M11.8093 70.9122L28.1229 69.615L39.8959 78.9419L27.6516 70.731L11.8093 70.9122Z" fill="#003D00"/>
</g>
<g style="mix-blend-mode:multiply" opacity="0.63">
<path d="M0.706787 48.0334L13.096 57.1792L11.8091 70.9123L12.0175 57.6068L0.706787 48.0334Z" fill="#003D00"/>
</g>
<path d="M48.1343 26.2631C48.1343 26.2631 52.2399 22.8352 54.6053 21.1177C54.6053 21.1177 60.3241 23.3208 62.309 26.8283C62.309 26.8283 56.3183 29.5967 53.5087 30.3142C53.5087 30.3142 49.0587 26.3428 48.1433 26.2703L48.1343 26.2631Z" fill="white"/>
<path d="M47.3367 25.7632C47.3367 25.7632 48.0617 25.0964 48.4061 24.4877C48.4061 24.4877 45.4516 23.2412 43.9743 23.1252L42.6692 24.4587C42.6692 24.4587 47.237 25.5023 47.3367 25.7559V25.7632Z" fill="white"/>
<path d="M50.0463 33.0465C50.0463 33.0465 49.4209 34.1988 48.9134 34.5901C48.9134 34.5901 45.4966 33.3581 44.0918 33.1914C44.0918 33.1914 45.0162 32.0247 45.2066 31.4304C45.2066 31.4304 48.7593 32.3363 50.0463 33.0465Z" fill="white"/>
<path d="M37.5483 36.3438C37.5483 36.3438 42.0799 33.1913 44.6629 31.626C44.6629 31.626 50.0735 34.1769 51.5871 37.7932C51.5871 37.7932 45.261 40.1775 42.3699 40.7138C42.3699 40.7138 38.4547 36.4815 37.5483 36.351V36.3438Z" fill="white"/>
<path d="M36.8143 35.8077C36.8143 35.8077 37.6209 35.1917 38.0469 34.6047C38.0469 34.6047 35.2645 33.177 33.8054 32.9741L32.3372 34.2279C32.3372 34.2279 36.7509 35.5541 36.8143 35.8077Z" fill="white"/>
<path d="M39.9593 32.561C39.9593 32.561 39.1889 33.6698 38.6361 34.0321C38.6361 34.0321 35.3915 32.59 34.0139 32.3363C34.0139 32.3363 35.0924 31.2348 35.3553 30.655C35.3553 30.655 38.772 31.7783 39.9684 32.561H39.9593Z" fill="white"/>
<g style="mix-blend-mode:multiply" opacity="0.63">
<path d="M13.7666 26.0168L1.48608 48.6783L11.809 70.9122L39.8955 78.9419L68.1815 70.6223L78.1871 50.4176L63.6861 67.1365L40.1855 73.3835L17.854 67.3394L6.83331 47.9971L13.7666 26.0168Z" fill="#003D00"/>
</g>
<g style="mix-blend-mode:multiply" opacity="0.63">
<path d="M34.8748 65.4553L22.7575 63.7377L17.3831 50.8308L27.2981 34.1916L39.8958 25.7271L31.9747 35.2424L23.2741 51.2221L27.5247 61.4259L34.8748 65.4553Z" fill="#003D00"/>
</g>
<path d="M17.1836 51.5482L27.298 34.1916L39.8957 25.7271L52.4934 34.1916L62.6079 50.2583L51.4602 34.409L39.8957 26.9518L28.1228 34.3728L17.1836 51.5482Z" fill="white"/>
<defs>
<linearGradient id="paint0_linear_2225_1600" x1="21.1986" y1="65.1942" x2="108.519" y2="74.5182" gradientUnits="userSpaceOnUse">
<stop stop-color="#FF7B28"/>
<stop offset="0.44" stop-color="#D64D30"/>
<stop offset="1" stop-color="#9F2B1F"/>
</linearGradient>
<linearGradient id="paint1_linear_2225_1600" x1="21.2258" y1="41.9748" x2="107.066" y2="51.1408" gradientUnits="userSpaceOnUse">
<stop stop-color="#781C31"/>
<stop offset="1" stop-color="#9F2B1F"/>
</linearGradient>
</defs>
</svg>
