<svg width="80" height="80" viewBox="0 0 80 80" fill="none" xmlns="http://www.w3.org/2000/svg">
<path d="M14.1889 80L0 65.9938V14.1985L14.0159 0H65.9841L80 14.1985V65.9938L65.8111 80H14.1889Z" fill="#391F27"/>
<path d="M78.1637 14.7559L65.4168 1.83594H14.5829L1.83594 14.7559V65.4264L14.7463 78.1637H65.2534L78.1637 65.4264V14.7559Z" fill="#9A1AE6"/>
<path d="M14.583 1.83594H65.5804L56.6306 17.1015H23.5424L14.583 1.83594Z" fill="#E28EFC"/>
<path opacity="0.49" d="M57.2842 17.7073L40.8747 9.70923L23.9653 17.2074L57.2842 17.7073Z" fill="white"/>
<path d="M62.5813 56.2077V24.0039L78.3371 14.7561V65.4362L62.5813 56.2077Z" fill="#C497EA"/>
<g style="mix-blend-mode:multiply" opacity="0.7">
<path d="M2.27832 66.0802V15.5059L17.4862 24.3883V56.9574L2.27832 66.0802Z" fill="#5B1F4A"/>
</g>
<g style="mix-blend-mode:multiply" opacity="0.42">
<path d="M17.7266 28.897L9.72852 43.057L17.2267 59.976L17.7266 28.897Z" fill="#5B0685"/>
</g>
<path opacity="0.46" d="M62.3984 24.8306L70.3965 39.0002L62.8983 55.9192L62.3984 24.8306Z" fill="white"/>
<path d="M23.6291 62.8985L17.1018 56.4577V23.6291L23.5426 17.1018H56.4577L62.8985 23.6291V56.4577L56.3712 62.8985H23.6291Z" fill="white"/>
<path d="M24.1768 61.5716L18.4282 55.8999V24.1767L24.0999 18.4377H55.9L61.5621 24.1767V55.8999L55.8231 61.5716H24.1768Z" fill="#D43CF7"/>
<g style="mix-blend-mode:multiply" opacity="0.76">
<mask id="mask0_2225_1684" style="mask-type:luminance" maskUnits="userSpaceOnUse" x="18" y="18" width="44" height="44">
<path d="M24.0232 61.5716L18.2842 55.8999V24.1767L23.9559 18.4377H55.7463L61.418 24.1767V55.8999L55.679 61.5716H24.0232Z" fill="white"/>
</mask>
<g mask="url(#mask0_2225_1684)">
<path style="mix-blend-mode:lighten" d="M9.34399 50.5167C9.34399 50.5167 15.9001 47.402 21.4757 46.4215C27.0513 45.4409 35.1647 44.595 41.8939 44.1047C63.4464 42.5186 64.177 55.304 65.9842 55.4674C67.7819 55.6308 72.6845 45.0276 73.3382 45.6909C73.9919 46.3446 68.0414 53.9677 61.8122 62.3311C61.8122 62.3311 50.065 64.5037 39.0099 63.0233C37.4718 62.8214 27.3781 61.514 26.3976 62.0043C25.4171 62.5042 21.3123 63.1578 21.3123 63.1578L16.2366 65.4458C16.2366 65.4458 9.84387 58.5628 9.34399 50.5263V50.5167Z" fill="url(#paint0_linear_2225_1684)"/>
<path style="mix-blend-mode:multiply" opacity="0.56" d="M9.18062 36.5777C9.18062 36.5777 18.6303 40.8748 31.7425 33.3285C44.8547 25.7919 65.2537 4.76807 65.2537 4.76807C65.2537 4.76807 67.5512 8.37297 64.9268 8.69981C62.3025 9.02666 68.8586 6.40229 67.5512 8.37297C66.2438 10.334 69.8487 8.69981 67.5512 10.0072C65.2537 11.3146 60.0049 15.2463 60.0049 15.2463L68.8586 10.3244C68.8586 10.3244 59.3513 17.5438 58.0439 18.1975C56.7269 18.8512 69.8487 11.9586 69.8487 11.9586L65.5805 16.8805L69.8487 15.2367C69.8487 15.2367 70.8293 15.5635 69.8487 17.217C68.8682 18.8512 68.5414 16.5633 68.8682 18.8512C69.195 21.1487 70.512 19.8318 69.195 21.1487C67.8877 22.4561 62.3121 27.0512 56.0732 30.3292C56.0732 30.3292 69.195 24.7536 70.8293 21.8024C70.8293 21.8024 72.1366 26.7243 71.8098 27.7049C71.483 28.6854 71.8098 27.378 71.8098 30.0024C71.8098 32.6268 70.1756 32.6268 69.5123 35.9048C68.8586 39.1829 67.8781 40.8267 67.8781 40.8267L64.3212 49.8438C64.3212 49.8438 57.6497 41.8072 41.2883 42.7205C22.1967 43.7779 9.34405 50.5071 9.34405 50.5071C9.34405 50.5071 7.20994 42.807 9.18062 36.5681V36.5777Z" fill="url(#paint1_linear_2225_1684)"/>
<path opacity="0.75" d="M45.912 19.6874C45.912 19.6874 35.4145 29.858 26.7243 33.4629C18.0341 37.0678 9.18042 36.5775 9.18042 36.5775C9.18042 36.5775 15.2463 21.8215 19.6779 20.0142C24.1095 18.2069 44.4796 6.71933 47.7577 7.21921C51.0357 7.70947 55.8423 11.8431 45.912 19.6874Z" fill="white"/>
<g style="mix-blend-mode:multiply" opacity="0.57">
<path d="M11.4783 59.0435C11.4783 59.0435 22.0142 53.2661 38.5679 51.3627C60.9952 48.7864 67.0515 56.5153 67.0515 56.5153C67.0515 56.5153 51.9782 43.4607 11.4783 59.0435Z" fill="#AA3A3B"/>
<path d="M10.6609 55.275C10.6609 55.275 33.9438 46.5848 51.4876 43.9604C51.4876 43.9604 20.1778 51.4971 10.6609 55.275Z" fill="#AA3A3B"/>
<path d="M11.8049 56.7461C11.8049 56.7461 34.1553 49.9305 48.4115 48.9403C62.6773 47.9598 68.2625 55.3042 68.2625 55.3042C68.2625 55.3042 62.3024 44.6144 42.7975 48.5462C23.2829 52.4779 11.8049 56.7461 11.8049 56.7461Z" fill="#AA3A3B"/>
<path d="M14.7561 62.4848C14.7561 62.4848 25.417 58.38 39.8462 57.236C54.2754 56.0825 60.1779 58.553 60.1779 58.553C60.1779 58.553 39.8462 54.1214 14.7561 62.4848Z" fill="#AA3A3B"/>
<path d="M13.1221 60.351C13.1221 60.351 26.4842 54.1409 44.0281 53.4872C61.572 52.8335 65.696 59.2455 65.696 59.2455C65.696 59.2455 50.8342 46.9119 13.1317 60.351H13.1221Z" fill="#AA3A3B"/>
</g>
<g style="mix-blend-mode:multiply">
<path d="M20.4951 19.3607C20.4951 19.3607 33.7708 14.1119 42.4706 7.71924C42.4706 7.71924 31.4829 16.5729 20.4951 19.3607Z" fill="#AA3A3B"/>
<g style="mix-blend-mode:multiply" opacity="0.42">
<path d="M46.4023 13.4583C46.4023 13.4583 31.3194 24.6094 15.2463 28.3874C15.2463 28.3874 29.5121 24.1192 46.4023 13.4583Z" fill="#AA3A3B"/>
<path d="M13.1221 33.2999C13.1221 33.2999 26.7342 28.8778 42.4708 18.3804C42.4708 18.3804 29.1855 29.1951 13.1221 33.2999Z" fill="#AA3A3B"/>
<path d="M17.3806 24.1191C17.3806 24.1191 34.2708 17.0631 50.0074 7.71924C50.0074 7.71924 35.0879 17.5534 17.3806 24.1191Z" fill="#AA3A3B"/>
<path d="M49.8439 15.5828C49.8439 15.5828 33.617 32.646 14.5928 36.5777C14.5928 36.5777 34.5976 31.329 49.8439 15.5828Z" fill="#AA3A3B"/>
<path d="M57.8803 13.2852C57.8803 13.2852 42.634 29.8486 30.1754 36.0778C17.7169 42.3071 10.6609 41.8169 10.6609 41.8169C10.6609 41.8169 24.9267 42.7974 38.5292 31.4828C52.1413 20.1682 57.8803 13.2756 57.8803 13.2756V13.2852Z" fill="#AA3A3B"/>
</g>
</g>
<g style="mix-blend-mode:multiply">
<g style="mix-blend-mode:multiply" opacity="0.42">
<path d="M57.8803 15.2557C57.8803 15.2557 42.634 31.819 30.1754 38.0483C17.7169 44.2776 10.6609 43.7873 10.6609 43.7873C10.6609 43.7873 24.9267 44.7678 38.5292 33.4533C52.1413 22.1387 57.8803 15.2461 57.8803 15.2461V15.2557Z" fill="#AA3A3B"/>
</g>
</g>
<g style="mix-blend-mode:multiply" opacity="0.51">
<g style="mix-blend-mode:multiply" opacity="0.42">
<path d="M57.8803 17.2361C57.8803 17.2361 43.2973 34.6838 30.8387 40.9131C18.3802 47.1424 10.6609 45.7581 10.6609 45.7581C10.6609 45.7581 28.4451 46.7771 42.0476 35.4529C55.6597 24.1383 57.8803 17.2361 57.8803 17.2361Z" fill="#AA3A3B"/>
</g>
</g>
<g style="mix-blend-mode:overlay" opacity="0.73">
<path d="M32.7903 10.6609C32.7903 10.6609 53.7756 0.836375 66.2438 2.79744C78.7023 4.76812 70.3389 43.1339 70.3389 43.1339C70.3389 43.1339 75.7511 10.6609 67.2243 5.09497C59.9857 0.365334 32.7903 10.6609 32.7903 10.6609Z" fill="white"/>
</g>
<g style="mix-blend-mode:multiply" opacity="0.27">
<path d="M11.1512 48.7096C11.1512 48.7096 26.561 40.5097 37.7121 37.5584C53.0162 33.5113 60.995 35.2609 64.9268 36.2511C68.8585 37.2316 70.1755 38.8754 70.1755 38.8754C70.1755 38.8754 67.8876 39.2023 62.9561 38.8754C55.7559 38.3948 67.878 40.8461 67.878 40.8461C67.878 40.8461 54.7561 41.173 46.2293 41.173C37.7025 41.173 21.6391 44.7779 11.1416 48.7192L11.1512 48.7096Z" fill="#7A0000"/>
</g>
<g style="mix-blend-mode:overlay" opacity="0.52">
<path d="M21.9756 17.89C21.9756 17.89 40.0097 3.45119 60.9951 2.47066C81.9804 1.49013 70.339 43.134 70.339 43.134C70.339 43.134 70.1755 12.6413 56.4096 11.3243C42.6341 10.0169 21.9756 17.89 21.9756 17.89Z" fill="#FBFFFE"/>
</g>
<path d="M20.1684 66.2532C20.1684 66.2532 9.50745 58.3801 10.661 41.8264C10.661 41.8264 10.3342 57.563 20.1684 66.2532Z" fill="white"/>
<path opacity="0.26" d="M21.6488 70.0216C21.6488 70.0216 -6.55594 51.6607 18.0439 20.8315C18.0439 20.8315 1.31717 48.0462 21.6488 70.0216Z" fill="white"/>
</g>
</g>
<path d="M1.83594 14.7559L17.1015 23.6288L23.5423 17.1015L14.5829 1.83594L1.83594 14.7559Z" fill="#E28EFC"/>
<path d="M78.3369 14.7559L63.0714 23.6288L56.6306 17.1015L65.5804 1.83594L78.3369 14.7559Z" fill="#E28EFC"/>
<g style="mix-blend-mode:multiply" opacity="0.25">
<path d="M1.8938 65.3303L17.1017 56.2075L23.5424 62.7444L14.6503 78.2503L1.8938 65.3303Z" fill="#113E09"/>
</g>
<path opacity="0.67" d="M78.2312 65.4361L63.0714 56.2075L56.6306 62.7444L65.3977 78.3272L78.2312 65.4361Z" fill="#5B0685"/>
<g style="mix-blend-mode:multiply" opacity="0.95">
<path d="M14.6504 78.2505H65.2536L56.6307 62.7446H23.5425L14.6504 78.2505Z" fill="#5B1F4A"/>
</g>
<path d="M14.583 1.83594L23.0617 17.4956L24.3883 16.9958L14.583 1.83594Z" fill="white"/>
<path d="M55.7271 17.1688L65.5805 1.83594L57.5631 17.8321L55.7271 17.1688Z" fill="white"/>
<path d="M17.1018 23.6291L23.5426 17.1018H57.5632L63.8406 24.6673L57.0634 18.3323H23.7252L17.1018 23.6291Z" fill="white"/>
<path d="M61.4468 24.0904L78.3369 14.7561L62.5811 25.6862L61.4468 24.0904Z" fill="white"/>
<path d="M2.69165 65.7054L18.0245 56.2942L18.8608 57.4574L2.69165 65.7054Z" fill="white"/>
<path d="M14.6504 78.2505L22.8984 61.4949L24.3884 62.1678L14.6504 78.2505Z" fill="white"/>
<path d="M65.2537 78.2506L56.054 62.1679L57.4863 61.1008L65.2537 78.2506Z" fill="white"/>
<path d="M78.3369 65.4361L62.3984 56.669L63.0617 55.6692L78.3369 65.4361Z" fill="white"/>
<path d="M1.41309 14.4871L17.9091 22.7351L17.2458 24.5712L1.41309 14.4871Z" fill="white"/>
<g style="mix-blend-mode:multiply" opacity="0.42">
<path d="M56.4479 62.7349L40.8747 70.3773L23.9653 62.8694L56.4479 62.7349Z" fill="#5B0685"/>
</g>
<path d="M60.5046 18.5244C60.5046 18.5244 64.0519 14.9675 66.0706 13.1987C66.0706 13.1987 70.31 16.073 71.502 20.149C71.502 20.149 66.5513 22.8406 64.2826 23.4463C64.2826 23.4463 61.2064 18.6782 60.5046 18.5244Z" fill="white"/>
<path d="M59.9376 17.9092C59.9376 17.9092 60.572 17.2074 60.8989 16.5537C60.8989 16.5537 58.7167 14.9483 57.5728 14.708L56.4192 16.1115C56.4192 16.1115 59.8799 17.6112 59.928 17.8995L59.9376 17.9092Z" fill="white"/>
<path d="M62.3984 14.2466C62.3984 14.2466 61.8024 15.4963 61.3602 15.9097C61.3602 15.9097 58.8224 14.285 57.7361 13.9967C57.7361 13.9967 58.582 12.747 58.7839 12.0933C58.7839 12.0933 61.466 13.3622 62.3984 14.2466Z" fill="white"/>
<path d="M48.0847 26.3974C48.0847 26.3974 51.6319 22.8406 53.6603 21.0718C53.6603 21.0718 57.8997 23.9461 59.0917 28.022C59.0917 28.022 54.141 30.7137 51.8723 31.3193C51.8723 31.3193 48.8057 26.5512 48.0943 26.3974H48.0847Z" fill="white"/>
<path d="M47.5176 25.792C47.5176 25.792 48.152 25.0902 48.4885 24.4365C48.4885 24.4365 46.3063 22.8311 45.1624 22.5908L44.0088 24.0039C44.0088 24.0039 47.4695 25.5036 47.5176 25.792Z" fill="white"/>
<path d="M49.9783 22.1293C49.9783 22.1293 49.3726 23.3789 48.94 23.7827C48.94 23.7827 46.4022 22.1581 45.3159 21.8697C45.3159 21.8697 46.1619 20.62 46.3637 19.9663C46.3637 19.9663 49.0458 21.2352 49.9783 22.1196V22.1293Z" fill="white"/>
<g style="mix-blend-mode:overlay" opacity="0.95">
<path d="M43.5472 50.6803C43.5472 58.7072 37.0295 65.2249 29.0026 65.2249C20.9757 65.2249 14.458 58.7072 14.458 50.6803C14.458 42.6534 20.9757 36.1357 29.0026 36.1357C37.0295 36.1357 43.5472 42.6534 43.5472 50.6803Z" fill="white"/>
</g>
<g style="mix-blend-mode:multiply" opacity="0.69">
<path d="M5.0854 63.331L0.836426 33.9438L1.78812 65.6766L14.6504 78.2505H65.2536L78.337 65.4363L62.8119 72.9537H18.2649L5.0854 63.331Z" fill="#391F27"/>
</g>
<g style="mix-blend-mode:overlay" opacity="0.5">
<path d="M1.78809 14.3718L14.6504 1.79785H65.2536L78.337 14.6121L62.8119 7.09466H18.2649L1.78809 14.3718Z" fill="white"/>
</g>
<g style="mix-blend-mode:overlay" opacity="0.49">
<path d="M78.3371 14.6118V65.4361L62.812 72.9536L73.4152 62.7349L78.3371 14.6118Z" fill="white"/>
</g>
<defs>
<linearGradient id="paint0_linear_2225_1684" x1="24.3692" y1="53.7947" x2="93.0258" y2="59.6587" gradientUnits="userSpaceOnUse">
<stop stop-color="#FF7B28"/>
<stop offset="0.44" stop-color="#D64D30"/>
<stop offset="1" stop-color="#9F2B1F"/>
</linearGradient>
<linearGradient id="paint1_linear_2225_1684" x1="24.6577" y1="26.5609" x2="92.0742" y2="32.3191" gradientUnits="userSpaceOnUse">
<stop stop-color="#781C31"/>
<stop offset="1" stop-color="#9F2B1F"/>
</linearGradient>
</defs>
</svg>
