<svg width="160" height="80" viewBox="0 0 160 80" fill="none" xmlns="http://www.w3.org/2000/svg">
<path d="M28.3778 80L0 65.9938V14.1985L28.0317 0H131.968L160 14.1985V65.9938L131.622 80H28.3778Z" fill="#391F27"/>
<path d="M156.327 14.7559L130.834 1.83594H29.1657L3.67188 14.7559V65.4264L29.4926 78.1637H130.507L156.327 65.4264V14.7559Z" fill="#9A1AE6"/>
<path d="M29.166 1.83594H131.161L113.261 17.1015H47.0848L29.166 1.83594Z" fill="#E28EFC"/>
<path opacity="0.49" d="M114.568 17.7073L81.7495 9.70923L47.9307 17.2074L114.568 17.7073Z" fill="white"/>
<path d="M125.163 56.2077V24.0039L156.674 14.7561V65.4362L125.163 56.2077Z" fill="#C497EA"/>
<g style="mix-blend-mode:multiply" opacity="0.7">
<path d="M4.55664 66.0802V15.5059L34.9724 24.3883V56.9574L4.55664 66.0802Z" fill="#5B1F4A"/>
</g>
<g style="mix-blend-mode:multiply" opacity="0.42">
<path d="M35.4532 28.897L19.457 43.057L34.4534 59.976L35.4532 28.897Z" fill="#5B0685"/>
</g>
<path opacity="0.46" d="M124.797 24.8306L140.793 39.0002L125.797 55.9192L124.797 24.8306Z" fill="white"/>
<path d="M47.2582 62.8985L34.2036 56.4577V23.6291L47.0851 17.1018H112.915L125.797 23.6291V56.4577L112.742 62.8985H47.2582Z" fill="white"/>
<path d="M48.3537 61.5716L36.8564 55.8999V24.1767L48.1999 18.4377H111.8L123.124 24.1767V55.8999L111.646 61.5716H48.3537Z" fill="#D43CF7"/>
<g style="mix-blend-mode:multiply" opacity="0.76">
<mask id="mask0_2223_1455" style="mask-type:luminance" maskUnits="userSpaceOnUse" x="36" y="18" width="87" height="44">
<path d="M48.0464 61.5716L36.5684 55.8999V24.1767L47.9118 18.4377H111.493L122.836 24.1767V55.8999L111.358 61.5716H48.0464Z" fill="white"/>
</mask>
<g mask="url(#mask0_2223_1455)">
<path style="mix-blend-mode:lighten" d="M18.688 50.5167C18.688 50.5167 31.8002 47.402 42.9514 46.4215C54.1026 45.4409 70.3294 44.595 83.7877 44.1047C126.893 42.5186 128.354 55.304 131.968 55.4674C135.564 55.6308 145.369 45.0276 146.676 45.6909C147.984 46.3446 136.083 53.9677 123.624 62.3311C123.624 62.3311 100.13 64.5037 78.0199 63.0233C74.9437 62.8214 54.7562 61.514 52.7952 62.0043C50.8341 62.5042 42.6245 63.1578 42.6245 63.1578L32.4731 65.4458C32.4731 65.4458 19.6877 58.5628 18.688 50.5263V50.5167Z" fill="url(#paint0_linear_2223_1455)"/>
<path style="mix-blend-mode:multiply" opacity="0.56" d="M18.3612 36.5777C18.3612 36.5777 37.2605 40.8748 63.485 33.3285C89.7095 25.7919 130.507 4.76807 130.507 4.76807C130.507 4.76807 135.102 8.37297 129.854 8.69981C124.605 9.02666 137.717 6.40229 135.102 8.37297C132.488 10.334 139.697 8.69981 135.102 10.0072C130.507 11.3146 120.01 15.2463 120.01 15.2463L137.717 10.3244C137.717 10.3244 118.703 17.5438 116.088 18.1975C113.454 18.8512 139.697 11.9586 139.697 11.9586L131.161 16.8805L139.697 15.2367C139.697 15.2367 141.659 15.5635 139.697 17.217C137.736 18.8512 137.083 16.5633 137.736 18.8512C138.39 21.1487 141.024 19.8318 138.39 21.1487C135.775 22.4561 124.624 27.0512 112.146 30.3292C112.146 30.3292 138.39 24.7536 141.659 21.8024C141.659 21.8024 144.273 26.7243 143.62 27.7049C142.966 28.6854 143.62 27.378 143.62 30.0024C143.62 32.6268 140.351 32.6268 139.025 35.9048C137.717 39.1829 135.756 40.8267 135.756 40.8267L128.642 49.8438C128.642 49.8438 115.299 41.8072 82.5766 42.7205C44.3935 43.7779 18.6881 50.5071 18.6881 50.5071C18.6881 50.5071 14.4199 42.807 18.3612 36.5681V36.5777Z" fill="url(#paint1_linear_2223_1455)"/>
<path opacity="0.75" d="M91.8239 19.6874C91.8239 19.6874 70.829 29.858 53.4486 33.4629C36.0681 37.0678 18.3608 36.5775 18.3608 36.5775C18.3608 36.5775 30.4925 21.8215 39.3558 20.0142C48.219 18.2069 88.9593 6.71933 95.5154 7.21921C102.071 7.70947 111.685 11.8431 91.8239 19.6874Z" fill="white"/>
<g style="mix-blend-mode:multiply" opacity="0.57">
<path d="M22.9565 59.0435C22.9565 59.0435 44.0284 53.2661 77.1358 51.3627C121.99 48.7864 134.103 56.5153 134.103 56.5153C134.103 56.5153 103.956 43.4607 22.9565 59.0435Z" fill="#AA3A3B"/>
<path d="M21.3218 55.275C21.3218 55.275 67.8875 46.5848 102.975 43.9604C102.975 43.9604 40.3557 51.4971 21.3218 55.275Z" fill="#AA3A3B"/>
<path d="M23.6099 56.7461C23.6099 56.7461 68.3107 49.9305 96.823 48.9403C125.355 47.9598 136.525 55.3042 136.525 55.3042C136.525 55.3042 124.605 44.6144 85.595 48.5462C46.5659 52.4779 23.6099 56.7461 23.6099 56.7461Z" fill="#AA3A3B"/>
<path d="M29.5122 62.4848C29.5122 62.4848 50.834 58.38 79.6925 57.236C108.551 56.0825 120.356 58.553 120.356 58.553C120.356 58.553 79.6925 54.1214 29.5122 62.4848Z" fill="#AA3A3B"/>
<path d="M26.2441 60.351C26.2441 60.351 52.9685 54.1409 88.0562 53.4872C123.144 52.8335 131.392 59.2455 131.392 59.2455C131.392 59.2455 101.668 46.9119 26.2634 60.351H26.2441Z" fill="#AA3A3B"/>
</g>
<g style="mix-blend-mode:multiply">
<path d="M40.9902 19.3607C40.9902 19.3607 67.5415 14.1119 84.9412 7.71924C84.9412 7.71924 62.9657 16.5729 40.9902 19.3607Z" fill="#AA3A3B"/>
<g style="mix-blend-mode:multiply" opacity="0.42">
<path d="M92.8046 13.4583C92.8046 13.4583 62.6388 24.6094 30.4927 28.3874C30.4927 28.3874 59.0243 24.1192 92.8046 13.4583Z" fill="#AA3A3B"/>
<path d="M26.2441 33.2999C26.2441 33.2999 53.4684 28.8778 84.9416 18.3804C84.9416 18.3804 58.371 29.1951 26.2441 33.2999Z" fill="#AA3A3B"/>
<path d="M34.7612 24.1191C34.7612 24.1191 68.5416 17.0631 100.015 7.71924C100.015 7.71924 70.1758 17.5534 34.7612 24.1191Z" fill="#AA3A3B"/>
<path d="M99.6878 15.5828C99.6878 15.5828 67.2341 32.646 29.1855 36.5777C29.1855 36.5777 69.1952 31.329 99.6878 15.5828Z" fill="#AA3A3B"/>
<path d="M115.761 13.2852C115.761 13.2852 85.2679 29.8486 60.3509 36.0778C35.4338 42.3071 21.3218 41.8169 21.3218 41.8169C21.3218 41.8169 49.8534 42.7974 77.0584 31.4828C104.283 20.1682 115.761 13.2756 115.761 13.2756V13.2852Z" fill="#AA3A3B"/>
</g>
</g>
<g style="mix-blend-mode:multiply">
<g style="mix-blend-mode:multiply" opacity="0.42">
<path d="M115.761 15.2557C115.761 15.2557 85.2679 31.819 60.3509 38.0483C35.4338 44.2776 21.3218 43.7873 21.3218 43.7873C21.3218 43.7873 49.8534 44.7678 77.0584 33.4533C104.283 22.1387 115.761 15.2461 115.761 15.2461V15.2557Z" fill="#AA3A3B"/>
</g>
</g>
<g style="mix-blend-mode:multiply" opacity="0.51">
<g style="mix-blend-mode:multiply" opacity="0.42">
<path d="M115.761 17.2361C115.761 17.2361 86.5946 34.6838 61.6775 40.9131C36.7604 47.1424 21.3218 45.7581 21.3218 45.7581C21.3218 45.7581 56.8902 46.7771 84.0952 35.4529C111.319 24.1383 115.761 17.2361 115.761 17.2361Z" fill="#AA3A3B"/>
</g>
</g>
<g style="mix-blend-mode:overlay" opacity="0.73">
<path d="M65.5806 10.6609C65.5806 10.6609 107.551 0.836375 132.488 2.79744C157.405 4.76812 140.678 43.1339 140.678 43.1339C140.678 43.1339 151.502 10.6609 134.449 5.09497C119.971 0.365334 65.5806 10.6609 65.5806 10.6609Z" fill="white"/>
</g>
<g style="mix-blend-mode:multiply" opacity="0.27">
<path d="M22.3024 48.7096C22.3024 48.7096 53.1219 40.5097 75.4243 37.5584C106.032 33.5113 121.99 35.2609 129.854 36.2511C137.717 37.2316 140.351 38.8754 140.351 38.8754C140.351 38.8754 135.775 39.2023 125.912 38.8754C111.512 38.3948 135.756 40.8461 135.756 40.8461C135.756 40.8461 109.512 41.173 92.4586 41.173C75.4051 41.173 43.2782 44.7779 22.2832 48.7192L22.3024 48.7096Z" fill="#7A0000"/>
</g>
<g style="mix-blend-mode:overlay" opacity="0.52">
<path d="M43.9512 17.89C43.9512 17.89 80.0194 3.45119 121.99 2.47066C163.961 1.49013 140.678 43.134 140.678 43.134C140.678 43.134 140.351 12.6413 112.819 11.3243C85.2682 10.0169 43.9512 17.89 43.9512 17.89Z" fill="#FBFFFE"/>
</g>
<path d="M40.3367 66.2532C40.3367 66.2532 19.0149 58.3801 21.322 41.8264C21.322 41.8264 20.6684 57.563 40.3367 66.2532Z" fill="white"/>
<path opacity="0.26" d="M43.2976 70.0216C43.2976 70.0216 -13.1119 51.6607 36.0878 20.8315C36.0878 20.8315 2.63434 48.0462 43.2976 70.0216Z" fill="white"/>
</g>
</g>
<path d="M3.67188 14.7559L34.203 23.6288L47.0845 17.1015L29.1657 1.83594L3.67188 14.7559Z" fill="#E28EFC"/>
<path d="M156.674 14.7559L126.143 23.6288L113.261 17.1015L131.161 1.83594L156.674 14.7559Z" fill="#E28EFC"/>
<g style="mix-blend-mode:multiply" opacity="0.25">
<path d="M3.7876 65.3303L34.2034 56.2075L47.0849 62.7444L29.3007 78.2503L3.7876 65.3303Z" fill="#113E09"/>
</g>
<path opacity="0.67" d="M156.462 65.4361L126.143 56.2075L113.261 62.7444L130.795 78.3272L156.462 65.4361Z" fill="#5B0685"/>
<g style="mix-blend-mode:multiply" opacity="0.95">
<path d="M29.3008 78.2505H130.507L113.261 62.7446H47.085L29.3008 78.2505Z" fill="#5B1F4A"/>
</g>
<path d="M29.166 1.83594L46.1235 17.4956L48.7767 16.9958L29.166 1.83594Z" fill="white"/>
<path d="M111.454 17.1688L131.161 1.83594L115.126 17.8321L111.454 17.1688Z" fill="white"/>
<path d="M34.2036 23.6291L47.0851 17.1018H115.126L127.681 24.6673L114.127 18.3323H47.4504L34.2036 23.6291Z" fill="white"/>
<path d="M122.894 24.0904L156.674 14.7561L125.162 25.6862L122.894 24.0904Z" fill="white"/>
<path d="M5.3833 65.7054L36.049 56.2942L37.7217 57.4574L5.3833 65.7054Z" fill="white"/>
<path d="M29.3008 78.2505L45.7968 61.4949L48.7769 62.1678L29.3008 78.2505Z" fill="white"/>
<path d="M130.507 78.2506L112.108 62.1679L114.973 61.1008L130.507 78.2506Z" fill="white"/>
<path d="M156.674 65.4361L124.797 56.669L126.123 55.6692L156.674 65.4361Z" fill="white"/>
<path d="M2.82617 14.4871L35.8182 22.7351L34.4916 24.5712L2.82617 14.4871Z" fill="white"/>
<g style="mix-blend-mode:multiply" opacity="0.42">
<path d="M112.896 62.7349L81.7495 70.3773L47.9307 62.8694L112.896 62.7349Z" fill="#5B0685"/>
</g>
<path d="M121.009 18.5244C121.009 18.5244 128.104 14.9675 132.141 13.1987C132.141 13.1987 140.62 16.073 143.004 20.149C143.004 20.149 133.103 22.8406 128.565 23.4463C128.565 23.4463 122.413 18.6782 121.009 18.5244Z" fill="white"/>
<path d="M119.875 17.9092C119.875 17.9092 121.144 17.2074 121.798 16.5537C121.798 16.5537 117.433 14.9483 115.146 14.708L112.838 16.1115C112.838 16.1115 119.76 17.6112 119.856 17.8995L119.875 17.9092Z" fill="white"/>
<path d="M124.797 14.2466C124.797 14.2466 123.605 15.4963 122.72 15.9097C122.72 15.9097 117.645 14.285 115.472 13.9967C115.472 13.9967 117.164 12.747 117.568 12.0933C117.568 12.0933 122.932 13.3622 124.797 14.2466Z" fill="white"/>
<path d="M96.1694 26.3974C96.1694 26.3974 103.264 22.8406 107.321 21.0718C107.321 21.0718 115.799 23.9461 118.183 28.022C118.183 28.022 108.282 30.7137 103.745 31.3193C103.745 31.3193 97.6114 26.5512 96.1887 26.3974H96.1694Z" fill="white"/>
<path d="M95.0351 25.792C95.0351 25.792 96.304 25.0902 96.977 24.4365C96.977 24.4365 92.6126 22.8311 90.3247 22.5908L88.0176 24.0039C88.0176 24.0039 94.939 25.5036 95.0351 25.792Z" fill="white"/>
<path d="M99.9565 22.1293C99.9565 22.1293 98.7453 23.3789 97.8801 23.7827C97.8801 23.7827 92.8044 22.1581 90.6318 21.8697C90.6318 21.8697 92.3237 20.62 92.7275 19.9663C92.7275 19.9663 98.0916 21.2352 99.9565 22.1196V22.1293Z" fill="white"/>
<g style="mix-blend-mode:overlay" opacity="0.95">
<path d="M87.0943 50.6803C87.0943 58.7072 74.059 65.2249 58.0052 65.2249C41.9513 65.2249 28.916 58.7072 28.916 50.6803C28.916 42.6534 41.9513 36.1357 58.0052 36.1357C74.059 36.1357 87.0943 42.6534 87.0943 50.6803Z" fill="white"/>
</g>
<g style="mix-blend-mode:multiply" opacity="0.69">
<path d="M10.1708 63.331L1.67285 33.9438L3.57624 65.6766L29.3008 78.2505H130.507L156.674 65.4363L125.624 72.9537H36.5299L10.1708 63.331Z" fill="#391F27"/>
</g>
<g style="mix-blend-mode:overlay" opacity="0.5">
<path d="M3.57617 14.3718L29.3008 1.79785H130.507L156.674 14.6121L125.624 7.09466H36.5298L3.57617 14.3718Z" fill="white"/>
</g>
<g style="mix-blend-mode:overlay" opacity="0.49">
<path d="M156.674 14.6118V65.4361L125.624 72.9536L146.83 62.7349L156.674 14.6118Z" fill="white"/>
</g>
<defs>
<linearGradient id="paint0_linear_2223_1455" x1="48.7385" y1="53.7947" x2="183.132" y2="76.7518" gradientUnits="userSpaceOnUse">
<stop stop-color="#FF7B28"/>
<stop offset="0.44" stop-color="#D64D30"/>
<stop offset="1" stop-color="#9F2B1F"/>
</linearGradient>
<linearGradient id="paint1_linear_2223_1455" x1="49.3153" y1="26.5609" x2="181.281" y2="49.104" gradientUnits="userSpaceOnUse">
<stop stop-color="#781C31"/>
<stop offset="1" stop-color="#9F2B1F"/>
</linearGradient>
</defs>
</svg>
