<svg width="81" height="81" viewBox="0 0 81 81" fill="none" xmlns="http://www.w3.org/2000/svg">
<g filter="url(#filter0_d_2229_1412)">
<path fill-rule="evenodd" clip-rule="evenodd" d="M40.4165 6C47.2235 6 53.8776 8.01821 59.5374 11.7994C65.1972 15.5806 69.6084 20.955 72.2133 27.2429C74.8182 33.5308 75.4998 40.4499 74.1718 47.1251C72.8439 53.8003 69.5661 59.9319 64.7528 64.7445C59.9396 69.557 53.8071 72.8345 47.131 74.1623C40.4549 75.4901 33.5349 74.8086 27.2461 72.2041C20.9572 69.5996 15.5821 65.189 11.8003 59.5301C8.01857 53.8711 6.00004 47.218 6 40.412C6 31.2854 9.62603 22.5326 16.0804 16.0791C22.5347 9.62562 31.2887 6.00006 40.4165 6Z" fill="url(#paint0_linear_2229_1412)"/>
<path fill-rule="evenodd" clip-rule="evenodd" d="M14.9567 40.4119C14.9567 33.6604 17.6391 27.1855 22.4137 22.4115C27.1884 17.6376 33.6642 14.9556 40.4165 14.9556C47.1689 14.9556 53.6447 17.6376 58.4194 22.4115C63.194 27.1855 65.8764 33.6604 65.8764 40.4119C66.2116 39.4936 66.821 38.7006 67.6221 38.1403C68.4232 37.58 69.3773 37.2795 70.3549 37.2795C71.3325 37.2795 72.2865 37.58 73.0876 38.1403C73.8887 38.7006 74.4981 39.4936 74.8334 40.4119C74.8334 35.8928 73.9432 31.4181 72.2136 27.243C70.484 23.068 67.9488 19.2744 64.7529 16.079C61.557 12.8836 57.763 10.3488 53.5874 8.61945C49.4117 6.89009 44.9363 6 40.4167 6C35.897 6 31.4216 6.89009 27.246 8.61945C23.0704 10.3488 19.2763 12.8836 16.0804 16.079C12.8845 19.2744 10.3494 23.068 8.61979 27.243C6.89019 31.4181 6 35.8928 6 40.4119C6.33519 39.4936 6.9446 38.7006 7.74567 38.1403C8.54674 37.58 9.50076 37.2795 10.4784 37.2795C11.456 37.2795 12.41 37.58 13.211 38.1403C14.0121 38.7006 14.6215 39.4936 14.9567 40.4119Z" fill="url(#paint1_linear_2229_1412)"/>
<g style="mix-blend-mode:screen">
<path fill-rule="evenodd" clip-rule="evenodd" d="M39.7645 14.2876C44.8031 14.2876 49.7284 15.7815 53.9178 18.5804C58.1072 21.3793 61.3725 25.3575 63.3006 30.0119C65.2288 34.6662 65.7332 39.7877 64.7502 44.7288C63.7672 49.6698 61.3409 54.2084 57.7781 57.7707C54.2153 61.333 49.676 63.7589 44.7343 64.7417C39.7926 65.7246 34.6704 65.2201 30.0154 63.2922C25.3604 61.3643 21.3816 58.0995 18.5824 53.9107C15.7831 49.7218 14.289 44.7971 14.2891 39.7593C14.2891 33.0037 16.9731 26.5249 21.7507 21.748C26.5283 16.9712 33.008 14.2876 39.7645 14.2876Z" fill="#F7E984"/>
</g>
<path fill-rule="evenodd" clip-rule="evenodd" d="M40.4166 14.9556C45.4521 14.9556 50.3745 16.4485 54.5613 19.2457C58.7482 22.0429 62.0115 26.0186 63.9385 30.6701C65.8655 35.3216 66.3697 40.44 65.3873 45.3781C64.405 50.3161 61.9802 54.852 58.4196 58.4121C54.859 61.9722 50.3225 64.3967 45.3838 65.379C40.4451 66.3613 35.3259 65.8572 30.6738 63.9305C26.0216 62.0038 22.0453 58.741 19.2477 54.5548C16.4501 50.3685 14.9568 45.4468 14.9568 40.4121C14.9568 33.6606 17.6392 27.1857 22.4138 22.4117C27.1885 17.6376 33.6642 14.9556 40.4166 14.9556Z" fill="url(#paint2_radial_2229_1412)"/>
<path style="mix-blend-mode:screen" fill-rule="evenodd" clip-rule="evenodd" d="M19.476 54.8944L54.9016 19.4739C51.8829 17.3904 48.4506 15.9819 44.8384 15.3443C41.2262 14.7066 37.519 14.8549 33.9692 15.7789L15.7802 33.9653C14.8561 37.5145 14.7078 41.2212 15.3456 44.8328C15.9833 48.4444 17.3921 51.8762 19.476 54.8944Z" fill="url(#paint3_radial_2229_1412)"/>
<path style="mix-blend-mode:screen" fill-rule="evenodd" clip-rule="evenodd" d="M63.759 31.1818L31.1851 63.7511L30.9043 64.0316C33.6215 65.1261 36.508 65.7411 39.4354 65.8494L40.0552 65.2299L65.2379 40.0506L65.8579 39.4307C65.7494 36.5038 65.1343 33.6178 64.0399 30.9009L63.759 31.1818Z" fill="url(#paint4_radial_2229_1412)"/>
<path fill-rule="evenodd" clip-rule="evenodd" d="M40.4165 6.89565C47.0463 6.89568 53.5273 8.86138 59.0398 12.5442C64.5522 16.227 68.8486 21.4615 71.3857 27.5858C73.9228 33.7101 74.5866 40.4491 73.2932 46.9506C71.9998 53.4521 68.8073 59.4241 64.1193 64.1114C59.4313 68.7987 53.4585 71.9908 46.9561 73.2841C40.4537 74.5773 33.7138 73.9136 27.5886 71.3768C21.4635 68.8401 16.2282 64.5442 12.5449 59.0325C8.86156 53.5208 6.89557 47.0408 6.89554 40.412C6.89554 36.0105 7.76259 31.6522 9.44717 27.5858C11.1318 23.5194 13.6009 19.8246 16.7136 16.7123C19.8263 13.6001 23.5217 11.1313 27.5886 9.44691C31.6556 7.76257 36.0145 6.89565 40.4165 6.89565ZM40.4165 6C47.2235 6 53.8776 8.01821 59.5374 11.7994C65.1972 15.5806 69.6084 20.955 72.2133 27.2429C74.8182 33.5308 75.4998 40.4499 74.1718 47.1251C72.8439 53.8003 69.5661 59.9319 64.7528 64.7445C59.9396 69.557 53.8071 72.8345 47.131 74.1623C40.4549 75.4901 33.5349 74.8086 27.2461 72.2041C20.9572 69.5996 15.5821 65.189 11.8003 59.5301C8.01857 53.8711 6.00004 47.218 6 40.412C6 31.2854 9.62603 22.5326 16.0804 16.0791C22.5347 9.62562 31.2887 6.00006 40.4165 6Z" fill="url(#paint5_linear_2229_1412)"/>
<g style="mix-blend-mode:screen">
<path fill-rule="evenodd" clip-rule="evenodd" d="M7.71045 33.0331C9.70471 25.8934 13.9811 19.6024 19.8867 15.1208C25.7923 10.6392 33.0025 8.21313 40.4164 8.21313C47.8304 8.21313 55.0407 10.6392 60.9462 15.1208C66.8518 19.6024 71.1282 25.8934 73.1225 33.0331C71.4457 25.6125 67.2946 18.9828 61.3511 14.233C55.4076 9.48317 48.0251 6.89575 40.4164 6.89575C32.8078 6.89575 25.4253 9.48317 19.4818 14.233C13.5383 18.9828 9.38725 25.6125 7.71045 33.0331Z" fill="#F7E984"/>
</g>
<path fill-rule="evenodd" clip-rule="evenodd" d="M54.2286 28.2293C54.2286 28.054 54.0846 27.9119 53.907 27.9119H49.093C48.9154 27.9119 48.7714 28.054 48.7714 28.2293V32.5239C48.7714 32.6992 48.6274 32.8413 48.4498 32.8413H47.3222C47.0564 32.8413 46.9053 33.1415 47.066 33.3505L51.2438 38.7863C51.3725 38.9537 51.6275 38.9537 51.7562 38.7863L55.934 33.3505C56.0947 33.1415 55.9436 32.8413 55.6778 32.8413H54.5502C54.3726 32.8413 54.2286 32.6992 54.2286 32.5239V28.2293Z" fill="#985025"/>
<path fill-rule="evenodd" clip-rule="evenodd" d="M46.4941 36.2467C46.4941 36.0618 46.3472 35.9119 46.1661 35.9119H36.8339C36.6528 35.9119 36.5059 36.0618 36.5059 36.2467V44.9097C36.5059 45.0946 36.3591 45.2445 36.1779 45.2445H33.3286C33.0575 45.2445 32.9034 45.5612 33.0673 45.7817L41.2387 56.7794C41.3699 56.956 41.6301 56.956 41.7613 56.7794L49.9327 45.7817C50.0966 45.5612 49.9425 45.2445 49.6714 45.2445H46.8221C46.6409 45.2445 46.4941 45.0946 46.4941 44.9097V36.2467Z" fill="#985025"/>
<path fill-rule="evenodd" clip-rule="evenodd" d="M32.7995 28.2304C32.7995 28.0545 32.6513 27.9119 32.4684 27.9119H26.5316C26.3487 27.9119 26.2005 28.0545 26.2005 28.2304V33.4027C26.2005 33.5786 26.0522 33.7213 25.8693 33.7213H24.3318C24.058 33.7213 23.9025 34.0225 24.0679 34.2323L29.2362 40.7858C29.3687 40.9539 29.6313 40.9539 29.7638 40.7858L34.9321 34.2323C35.0975 34.0225 34.942 33.7213 34.6682 33.7213H33.1307C32.9478 33.7213 32.7995 33.5786 32.7995 33.4027V28.2304Z" fill="#985025"/>
</g>
<defs>
<filter id="filter0_d_2229_1412" x="0" y="0" width="80.8333" height="80.8235" filterUnits="userSpaceOnUse" color-interpolation-filters="sRGB">
<feFlood flood-opacity="0" result="BackgroundImageFix"/>
<feColorMatrix in="SourceAlpha" type="matrix" values="0 0 0 0 0 0 0 0 0 0 0 0 0 0 0 0 0 0 127 0" result="hardAlpha"/>
<feOffset/>
<feGaussianBlur stdDeviation="3"/>
<feComposite in2="hardAlpha" operator="out"/>
<feColorMatrix type="matrix" values="0 0 0 0 0 0 0 0 0 0 0 0 0 0 0 0 0 0 0.7 0"/>
<feBlend mode="normal" in2="BackgroundImageFix" result="effect1_dropShadow_2229_1412"/>
<feBlend mode="normal" in="SourceGraphic" in2="effect1_dropShadow_2229_1412" result="shape"/>
</filter>
<linearGradient id="paint0_linear_2229_1412" x1="40.4167" y1="74.8235" x2="40.4167" y2="6" gradientUnits="userSpaceOnUse">
<stop stop-color="#DE8B00"/>
<stop offset="1" stop-color="#FFC75E"/>
</linearGradient>
<linearGradient id="paint1_linear_2229_1412" x1="40.4167" y1="40.4119" x2="40.4167" y2="5.99989" gradientUnits="userSpaceOnUse">
<stop stop-color="#FFB805"/>
<stop offset="1" stop-color="#FFE89C"/>
</linearGradient>
<radialGradient id="paint2_radial_2229_1412" cx="0" cy="0" r="1" gradientUnits="userSpaceOnUse" gradientTransform="translate(28.4065 18.2712) scale(56.5096 56.5017)">
<stop stop-color="#FFEEB8"/>
<stop offset="1" stop-color="#FFBF00"/>
</radialGradient>
<radialGradient id="paint3_radial_2229_1412" cx="0" cy="0" r="1" gradientUnits="userSpaceOnUse" gradientTransform="translate(31.176 3.40267) scale(57.0231 57.0152)">
<stop stop-color="#FFFD9E"/>
<stop offset="1"/>
</radialGradient>
<radialGradient id="paint4_radial_2229_1412" cx="0" cy="0" r="1" gradientUnits="userSpaceOnUse" gradientTransform="translate(52.1343 22.4817) scale(48.4106 48.4038)">
<stop stop-color="#FFFD9E"/>
<stop offset="1"/>
</radialGradient>
<linearGradient id="paint5_linear_2229_1412" x1="40.4167" y1="74.8235" x2="40.4167" y2="6" gradientUnits="userSpaceOnUse">
<stop stop-color="#CF8000"/>
<stop offset="1" stop-color="#F5B133"/>
</linearGradient>
</defs>
</svg>
