<svg width="150" height="178" viewBox="0 0 150 178" fill="none" xmlns="http://www.w3.org/2000/svg">
<g filter="url(#filter0_d_2229_1429)">
<mask id="path-1-outside-1_2229_1429" maskUnits="userSpaceOnUse" x="-0.0344238" y="0.00878906" width="141" height="139" fill="black">
<rect fill="white" x="-0.0344238" y="0.00878906" width="141" height="139"/>
<path fill-rule="evenodd" clip-rule="evenodd" d="M53.1935 14.8296C55.5978 7.38981 62.5811 2.00879 70.8213 2.00879C78.9846 2.00879 85.9144 7.2898 88.3807 14.6218C106.563 20.2997 120.891 34.7073 126.458 52.9381C133.939 55.3181 139.359 62.3219 139.359 70.5915C139.359 79.0519 133.686 86.1874 125.937 88.4023C120.056 105.798 106.128 119.485 88.5826 125.035C86.0293 132.209 79.1785 137.345 71.1281 137.345C63.0818 137.345 56.2338 132.214 53.6775 125.046C36.2017 119.53 22.3097 105.942 16.3754 88.6558C8.12509 86.7856 1.96558 79.4082 1.96558 70.5921C1.96558 61.9622 7.86762 54.7108 15.8554 52.6541C21.4164 34.7757 35.4151 20.6149 53.1935 14.8296Z"/>
</mask>
<path fill-rule="evenodd" clip-rule="evenodd" d="M53.1935 14.8296C55.5978 7.38981 62.5811 2.00879 70.8213 2.00879C78.9846 2.00879 85.9144 7.2898 88.3807 14.6218C106.563 20.2997 120.891 34.7073 126.458 52.9381C133.939 55.3181 139.359 62.3219 139.359 70.5915C139.359 79.0519 133.686 86.1874 125.937 88.4023C120.056 105.798 106.128 119.485 88.5826 125.035C86.0293 132.209 79.1785 137.345 71.1281 137.345C63.0818 137.345 56.2338 132.214 53.6775 125.046C36.2017 119.53 22.3097 105.942 16.3754 88.6558C8.12509 86.7856 1.96558 79.4082 1.96558 70.5921C1.96558 61.9622 7.86762 54.7108 15.8554 52.6541C21.4164 34.7757 35.4151 20.6149 53.1935 14.8296Z" fill="#03D302"/>
<path d="M53.1935 14.8296L53.5648 15.9707L54.147 15.7813L54.3353 15.1986L53.1935 14.8296ZM88.3807 14.6218L87.2433 15.0044L87.4385 15.5847L88.023 15.7672L88.3807 14.6218ZM126.458 52.9381L125.31 53.2885L125.494 53.8907L126.094 54.0816L126.458 52.9381ZM125.937 88.4023L125.607 87.2485L125.002 87.4215L124.8 88.0179L125.937 88.4023ZM88.5826 125.035L88.2207 123.891L87.6521 124.071L87.4521 124.633L88.5826 125.035ZM53.6775 125.046L54.8078 124.643L54.6074 124.081L54.0387 123.901L53.6775 125.046ZM16.3754 88.6558L17.5104 88.2662L17.2932 87.6334L16.6407 87.4855L16.3754 88.6558ZM15.8554 52.6541L16.1547 53.8162L16.8026 53.6494L17.0013 53.0105L15.8554 52.6541ZM53.1935 14.8296L54.3353 15.1986C56.5843 8.23963 63.1168 3.20879 70.8213 3.20879V2.00879V0.808789C62.0454 0.808789 54.6113 6.54 52.0516 14.4606L53.1935 14.8296ZM70.8213 2.00879V3.20879C78.4538 3.20879 84.9363 8.14602 87.2433 15.0044L88.3807 14.6218L89.518 14.2392C86.8924 6.43358 79.5153 0.808789 70.8213 0.808789V2.00879ZM126.458 52.9381L127.606 52.5876C121.923 33.9773 107.299 19.2723 88.7384 13.4763L88.3807 14.6218L88.023 15.7672C105.827 21.327 119.859 35.4372 125.31 53.2885L126.458 52.9381ZM139.359 70.5915H140.559C140.559 61.7843 134.787 54.3284 126.822 51.7945L126.458 52.9381L126.094 54.0816C133.092 56.3078 138.159 62.8595 138.159 70.5915H139.359ZM125.937 88.4023L126.267 89.5561C134.517 87.1979 140.559 79.6018 140.559 70.5915H139.359H138.159C138.159 78.502 132.855 85.1769 125.607 87.2485L125.937 88.4023ZM88.5826 125.035L88.9445 126.179C106.855 120.514 121.07 106.544 127.074 88.7866L125.937 88.4023L124.8 88.0179C119.041 105.052 105.401 118.456 88.2207 123.891L88.5826 125.035ZM71.1281 137.345V138.545C79.7019 138.545 86.995 133.075 89.7131 125.437L88.5826 125.035L87.4521 124.633C85.0636 131.344 78.6551 136.145 71.1281 136.145V137.345ZM53.6775 125.046L52.5472 125.449C55.2686 133.08 62.5586 138.545 71.1281 138.545V137.345V136.145C63.605 136.145 57.1991 131.348 54.8078 124.643L53.6775 125.046ZM16.3754 88.6558L15.2405 89.0455C21.2981 106.691 35.4766 120.559 53.3163 126.19L53.6775 125.046L54.0387 123.901C36.9267 118.5 23.3214 105.193 17.5104 88.2662L16.3754 88.6558ZM1.96558 70.5921H0.765576C0.765576 79.9809 7.32509 87.8348 16.1102 89.8261L16.3754 88.6558L16.6407 87.4855C8.92508 85.7365 3.16558 78.8355 3.16558 70.5921H1.96558ZM15.8554 52.6541L15.5562 51.492C7.05115 53.6819 0.765576 61.4014 0.765576 70.5921H1.96558H3.16558C3.16558 62.5229 8.68409 55.7397 16.1547 53.8162L15.8554 52.6541ZM53.1935 14.8296L52.8221 13.6885C34.674 19.5941 20.3863 34.0472 14.7096 52.2977L15.8554 52.6541L17.0013 53.0105C22.4465 35.5042 36.1561 21.6357 53.5648 15.9707L53.1935 14.8296Z" fill="black" mask="url(#path-1-outside-1_2229_1429)"/>
</g>
<mask id="mask0_2229_1429" style="mask-type:alpha" maskUnits="userSpaceOnUse" x="3" y="2" width="137" height="136">
<path d="M88.7229 14.7299C106.346 20.3546 120.3 34.1954 126.08 51.7486C134.048 53.8188 139.931 61.0606 139.931 69.6763C139.931 78.2449 134.113 85.4545 126.211 87.5696C120.498 105.36 106.406 119.397 88.582 125.035C86.0287 132.209 79.1779 137.345 71.1276 137.345C63.0812 137.345 56.2333 132.214 53.6769 125.046C35.7516 119.388 21.5969 105.237 15.933 87.3142C8.47708 84.9193 3.08105 77.928 3.08105 69.6763C3.08105 61.3764 8.54035 54.3516 16.064 51.9969C21.7977 34.315 35.8137 20.3636 53.5358 14.7193C55.9732 7.3367 62.9282 2.00879 71.1276 2.00879C79.3309 2.00879 86.2887 7.34179 88.7229 14.7299Z" fill="#03D302"/>
</mask>
<g mask="url(#mask0_2229_1429)">
<path d="M37.0815 91.7107L16.4604 104.5L31.2974 139.898H108.4L133.522 94.2301L105.19 83.978L37.0815 91.7107Z" fill="#019701"/>
</g>
<g filter="url(#filter1_di_2229_1429)">
<circle cx="70.8209" cy="69.046" r="39.8175" fill="#034502"/>
</g>
<ellipse cx="64.9979" cy="8.87544" rx="4.72034" ry="7.36098" transform="rotate(58.4309 64.9979 8.87544)" fill="white"/>
<ellipse opacity="0.9" cx="11.7966" cy="61.4591" rx="4.72034" ry="7.36098" transform="rotate(52.6602 11.7966 61.4591)" fill="white"/>
<g filter="url(#filter2_d_2229_1429)">
<g filter="url(#filter3_d_2229_1429)">
<path d="M149.767 113.812C149.767 126.806 139.234 137.34 126.24 137.34C113.246 137.34 102.712 126.806 102.712 113.812C102.712 100.818 113.246 90.2844 126.24 90.2844C139.234 90.2844 149.767 100.818 149.767 113.812Z" fill="#FF3CD5"/>
<path fill-rule="evenodd" clip-rule="evenodd" d="M126.24 135.842C138.407 135.842 148.27 125.979 148.27 113.812C148.27 101.645 138.407 91.7816 126.24 91.7816C114.073 91.7816 104.209 101.645 104.209 113.812C104.209 125.979 114.073 135.842 126.24 135.842ZM126.24 137.34C139.234 137.34 149.767 126.806 149.767 113.812C149.767 100.818 139.234 90.2844 126.24 90.2844C113.246 90.2844 102.712 100.818 102.712 113.812C102.712 126.806 113.246 137.34 126.24 137.34Z" fill="black"/>
<path opacity="0.3" d="M129.729 95.4817C133.788 99.2343 132.345 107.395 126.506 113.71C120.667 120.025 112.644 122.101 108.586 118.349C104.527 114.596 105.97 106.435 111.809 100.12C117.648 93.8058 125.671 91.729 129.729 95.4817Z" fill="white"/>
<path opacity="0.3" d="M144.016 116.87C146.225 119.058 145.256 123.616 141.853 127.052C138.45 130.489 133.901 131.501 131.693 129.314C129.484 127.126 130.453 122.568 133.856 119.132C137.259 115.695 141.808 114.683 144.016 116.87Z" fill="white"/>
<path opacity="0.8" d="M110.851 99.3134C110.928 98.9689 111.367 98.8615 111.595 99.1312L113.513 101.399L116.411 102.052C116.756 102.129 116.863 102.568 116.593 102.796L114.326 104.714L113.673 107.612C113.595 107.957 113.157 108.064 112.929 107.794L111.01 105.527L108.112 104.874C107.768 104.796 107.661 104.358 107.93 104.13L110.198 102.211L110.851 99.3134Z" fill="white"/>
<path d="M139.804 115.336V113.406H137.607V115.336H139.804Z" fill="black"/>
<path d="M111.947 110.885L132.503 96.7203C133.104 96.3056 133.915 96.7876 133.839 97.5145L132.527 109.958C132.492 110.293 132.656 110.618 132.947 110.787L139.383 114.534C139.91 114.84 139.957 115.584 139.472 115.954L122.401 128.965C121.139 129.927 119.361 128.802 119.689 127.25L121.832 117.119L112.057 112.359C111.469 112.072 111.407 111.257 111.947 110.885Z" fill="black"/>
<path d="M113.72 110.313L132.494 97.2532L130.935 109.274L139.395 113.429L120.918 126.712L123.292 114.765L113.72 110.313Z" fill="white"/>
<path fill-rule="evenodd" clip-rule="evenodd" d="M132.716 96.8876C132.86 96.9755 132.94 97.1404 132.918 97.3082L131.399 109.025L139.583 113.045C139.718 113.112 139.808 113.244 139.821 113.394C139.833 113.544 139.766 113.689 139.644 113.777L121.168 127.059C121.025 127.162 120.834 127.167 120.686 127.072C120.539 126.976 120.464 126.801 120.498 126.628L122.807 115.011L113.54 110.701C113.401 110.636 113.307 110.503 113.294 110.35C113.281 110.197 113.35 110.049 113.476 109.962L132.249 96.9021C132.388 96.8054 132.571 96.7998 132.716 96.8876ZM123.292 114.765L120.918 126.712L139.395 113.429L130.935 109.274L132.494 97.2532L113.72 110.313L123.292 114.765Z" fill="black"/>
<mask id="mask1_2229_1429" style="mask-type:alpha" maskUnits="userSpaceOnUse" x="113" y="97" width="27" height="30">
<path d="M113.72 110.314L132.494 97.2537L130.935 109.274L139.395 113.43L120.918 126.712L123.292 114.765L113.72 110.314Z" fill="white"/>
</mask>
<g mask="url(#mask1_2229_1429)">
<path d="M133.394 96.3262L117.627 112.526L122.865 115.062L120.328 127.813L139.9 113.519L130.565 111.844L133.394 96.3262Z" fill="#FFCCFF"/>
</g>
</g>
</g>
<g filter="url(#filter4_d_2229_1429)">
<mask id="path-19-outside-2_2229_1429" maskUnits="userSpaceOnUse" x="55.6289" y="111.584" width="31" height="14" fill="black">
<rect fill="white" x="55.6289" y="111.584" width="31" height="14"/>
<path d="M63.0181 112.684C63.2334 112.684 63.3411 113.154 63.3411 114.095C63.3411 114.389 63.3127 114.741 63.2561 115.149C63.2107 115.545 63.1201 115.744 62.9841 115.744H59.6691L59.6521 116.985H60.2131C61.4257 116.985 62.3267 117.336 62.9161 118.039C63.5167 118.741 63.8171 119.671 63.8171 120.827C63.8171 121.983 63.4091 122.929 62.5931 123.666C61.7771 124.391 60.7287 124.754 59.4481 124.754C58.1674 124.754 57.2324 124.572 56.6431 124.21C56.5524 124.062 56.5071 123.836 56.5071 123.53C56.5071 123.212 56.5524 122.77 56.6431 122.204C56.7337 121.626 56.8584 121.337 57.0171 121.337C57.0284 121.337 57.0624 121.359 57.1191 121.405C57.9237 121.733 58.5357 121.898 58.9551 121.898C59.3857 121.898 59.7371 121.784 60.0091 121.558C60.2924 121.32 60.4341 121.019 60.4341 120.657C60.4341 119.75 59.9467 119.297 58.9721 119.297L57.5101 119.314C57.3967 119.336 57.2834 119.291 57.1701 119.178C57.0567 119.053 57.0001 118.894 57.0001 118.702V113.381C57.0001 112.916 57.1701 112.684 57.5101 112.684H63.0181ZM69.9271 124.754C68.5104 124.754 67.3488 124.232 66.4421 123.19C65.5468 122.147 65.0991 120.623 65.0991 118.617C65.0991 116.611 65.5524 115.098 66.4591 114.078C67.3658 113.046 68.5331 112.531 69.9611 112.531C71.4004 112.531 72.5621 113.041 73.4461 114.061C74.3301 115.081 74.7721 116.616 74.7721 118.668C74.7721 120.719 74.3188 122.249 73.4121 123.258C72.5168 124.255 71.3551 124.754 69.9271 124.754ZM69.9271 115.795C69.4964 115.795 69.1281 116.044 68.8221 116.543C68.5274 117.03 68.3801 117.727 68.3801 118.634C68.3801 119.54 68.5218 120.237 68.8051 120.725C69.0998 121.201 69.4738 121.439 69.9271 121.439C70.3918 121.439 70.7658 121.195 71.0491 120.708C71.3438 120.22 71.4911 119.523 71.4911 118.617C71.4911 117.71 71.3381 117.013 71.0321 116.526C70.7374 116.038 70.3691 115.795 69.9271 115.795ZM80.6145 124.754C79.1979 124.754 78.0362 124.232 77.1295 123.19C76.2342 122.147 75.7865 120.623 75.7865 118.617C75.7865 116.611 76.2399 115.098 77.1465 114.078C78.0532 113.046 79.2205 112.531 80.6485 112.531C82.0879 112.531 83.2495 113.041 84.1335 114.061C85.0175 115.081 85.4595 116.616 85.4595 118.668C85.4595 120.719 85.0062 122.249 84.0995 123.258C83.2042 124.255 82.0425 124.754 80.6145 124.754ZM80.6145 115.795C80.1839 115.795 79.8155 116.044 79.5095 116.543C79.2149 117.03 79.0675 117.727 79.0675 118.634C79.0675 119.54 79.2092 120.237 79.4925 120.725C79.7872 121.201 80.1612 121.439 80.6145 121.439C81.0792 121.439 81.4532 121.195 81.7365 120.708C82.0312 120.22 82.1785 119.523 82.1785 118.617C82.1785 117.71 82.0255 117.013 81.7195 116.526C81.4249 116.038 81.0565 115.795 80.6145 115.795Z"/>
</mask>
<path d="M63.0181 112.684C63.2334 112.684 63.3411 113.154 63.3411 114.095C63.3411 114.389 63.3127 114.741 63.2561 115.149C63.2107 115.545 63.1201 115.744 62.9841 115.744H59.6691L59.6521 116.985H60.2131C61.4257 116.985 62.3267 117.336 62.9161 118.039C63.5167 118.741 63.8171 119.671 63.8171 120.827C63.8171 121.983 63.4091 122.929 62.5931 123.666C61.7771 124.391 60.7287 124.754 59.4481 124.754C58.1674 124.754 57.2324 124.572 56.6431 124.21C56.5524 124.062 56.5071 123.836 56.5071 123.53C56.5071 123.212 56.5524 122.77 56.6431 122.204C56.7337 121.626 56.8584 121.337 57.0171 121.337C57.0284 121.337 57.0624 121.359 57.1191 121.405C57.9237 121.733 58.5357 121.898 58.9551 121.898C59.3857 121.898 59.7371 121.784 60.0091 121.558C60.2924 121.32 60.4341 121.019 60.4341 120.657C60.4341 119.75 59.9467 119.297 58.9721 119.297L57.5101 119.314C57.3967 119.336 57.2834 119.291 57.1701 119.178C57.0567 119.053 57.0001 118.894 57.0001 118.702V113.381C57.0001 112.916 57.1701 112.684 57.5101 112.684H63.0181ZM69.9271 124.754C68.5104 124.754 67.3488 124.232 66.4421 123.19C65.5468 122.147 65.0991 120.623 65.0991 118.617C65.0991 116.611 65.5524 115.098 66.4591 114.078C67.3658 113.046 68.5331 112.531 69.9611 112.531C71.4004 112.531 72.5621 113.041 73.4461 114.061C74.3301 115.081 74.7721 116.616 74.7721 118.668C74.7721 120.719 74.3188 122.249 73.4121 123.258C72.5168 124.255 71.3551 124.754 69.9271 124.754ZM69.9271 115.795C69.4964 115.795 69.1281 116.044 68.8221 116.543C68.5274 117.03 68.3801 117.727 68.3801 118.634C68.3801 119.54 68.5218 120.237 68.8051 120.725C69.0998 121.201 69.4738 121.439 69.9271 121.439C70.3918 121.439 70.7658 121.195 71.0491 120.708C71.3438 120.22 71.4911 119.523 71.4911 118.617C71.4911 117.71 71.3381 117.013 71.0321 116.526C70.7374 116.038 70.3691 115.795 69.9271 115.795ZM80.6145 124.754C79.1979 124.754 78.0362 124.232 77.1295 123.19C76.2342 122.147 75.7865 120.623 75.7865 118.617C75.7865 116.611 76.2399 115.098 77.1465 114.078C78.0532 113.046 79.2205 112.531 80.6485 112.531C82.0879 112.531 83.2495 113.041 84.1335 114.061C85.0175 115.081 85.4595 116.616 85.4595 118.668C85.4595 120.719 85.0062 122.249 84.0995 123.258C83.2042 124.255 82.0425 124.754 80.6145 124.754ZM80.6145 115.795C80.1839 115.795 79.8155 116.044 79.5095 116.543C79.2149 117.03 79.0675 117.727 79.0675 118.634C79.0675 119.54 79.2092 120.237 79.4925 120.725C79.7872 121.201 80.1612 121.439 80.6145 121.439C81.0792 121.439 81.4532 121.195 81.7365 120.708C82.0312 120.22 82.1785 119.523 82.1785 118.617C82.1785 117.71 82.0255 117.013 81.7195 116.526C81.4249 116.038 81.0565 115.795 80.6145 115.795Z" fill="white"/>
<path d="M63.2561 115.149L62.4637 115.039L62.4623 115.048L62.4612 115.058L63.2561 115.149ZM59.6691 115.744V114.944H58.8799L58.8691 115.733L59.6691 115.744ZM59.6521 116.985L58.8521 116.974L58.841 117.785H59.6521V116.985ZM62.9161 118.039L62.3031 118.553L62.308 118.559L62.9161 118.039ZM62.5931 123.666L63.1246 124.264L63.1291 124.26L62.5931 123.666ZM56.6431 124.21L55.9617 124.629L56.0616 124.791L56.2238 124.891L56.6431 124.21ZM56.6431 122.204L57.433 122.33L57.4334 122.328L56.6431 122.204ZM57.1191 121.405L56.6193 122.029L56.7096 122.102L56.8166 122.145L57.1191 121.405ZM60.0091 121.558L60.5212 122.172L60.5236 122.17L60.0091 121.558ZM58.9721 119.297V118.497L58.9628 118.497L58.9721 119.297ZM57.5101 119.314L57.5008 118.514L57.4262 118.515L57.3532 118.529L57.5101 119.314ZM57.1701 119.178L56.5781 119.716L56.5909 119.73L56.6044 119.743L57.1701 119.178ZM63.0181 112.684V113.484C62.8904 113.484 62.7695 113.446 62.6702 113.384C62.5779 113.327 62.525 113.261 62.4999 113.225C62.457 113.162 62.4627 113.137 62.4805 113.215C62.5136 113.36 62.5411 113.639 62.5411 114.095H63.3411H64.1411C64.1411 113.61 64.1147 113.184 64.0401 112.858C64.0041 112.701 63.9425 112.499 63.8188 112.319C63.6828 112.121 63.4177 111.884 63.0181 111.884V112.684ZM63.3411 114.095H62.5411C62.5411 114.341 62.5171 114.654 62.4637 115.039L63.2561 115.149L64.0485 115.259C64.1084 114.827 64.1411 114.437 64.1411 114.095H63.3411ZM63.2561 115.149L62.4612 115.058C62.4416 115.23 62.419 115.279 62.4265 115.262C62.4315 115.251 62.4645 115.18 62.5508 115.104C62.6514 115.016 62.803 114.944 62.9841 114.944V115.744V116.544C63.5304 116.544 63.7927 116.122 63.8816 115.928C63.9798 115.713 64.0252 115.464 64.0509 115.24L63.2561 115.149ZM62.9841 115.744V114.944H59.6691V115.744V116.544H62.9841V115.744ZM59.6691 115.744L58.8691 115.733L58.8521 116.974L59.6521 116.985L60.452 116.996L60.469 115.755L59.6691 115.744ZM59.6521 116.985V117.785H60.2131V116.985V116.185H59.6521V116.985ZM60.2131 116.985V117.785C61.2705 117.785 61.9113 118.086 62.3031 118.553L62.9161 118.039L63.529 117.525C62.7422 116.587 61.581 116.185 60.2131 116.185V116.985ZM62.9161 118.039L62.308 118.559C62.7561 119.083 63.0171 119.812 63.0171 120.827H63.8171H64.6171C64.6171 119.529 64.2773 118.4 63.5242 117.519L62.9161 118.039ZM63.8171 120.827H63.0171C63.0171 121.77 62.6954 122.496 62.057 123.072L62.5931 123.666L63.1291 124.26C64.1227 123.363 64.6171 122.196 64.6171 120.827H63.8171ZM62.5931 123.666L62.0616 123.068C61.4168 123.641 60.5687 123.954 59.4481 123.954V124.754V125.554C60.8888 125.554 62.1373 125.141 63.1246 124.264L62.5931 123.666ZM59.4481 124.754V123.954C58.2082 123.954 57.458 123.772 57.0623 123.528L56.6431 124.21L56.2238 124.891C57.0068 125.373 58.1265 125.554 59.4481 125.554V124.754ZM56.6431 124.21L57.3244 123.79C57.3423 123.82 57.3355 123.822 57.3255 123.772C57.3159 123.724 57.3071 123.646 57.3071 123.53H56.5071H55.7071C55.7071 123.885 55.7543 124.292 55.9617 124.629L56.6431 124.21ZM56.5071 123.53H57.3071C57.3071 123.276 57.3446 122.883 57.433 122.33L56.6431 122.204L55.8531 122.077C55.7602 122.658 55.7071 123.149 55.7071 123.53H56.5071ZM56.6431 122.204L57.4334 122.328C57.4756 122.059 57.5172 121.921 57.5391 121.87C57.5506 121.844 57.5366 121.889 57.4757 121.951C57.4043 122.024 57.2475 122.137 57.0171 122.137V121.337V120.537C56.7073 120.537 56.4754 120.686 56.3332 120.831C56.2014 120.965 56.1209 121.119 56.07 121.237C55.9673 121.475 55.9012 121.771 55.8527 122.08L56.6431 122.204ZM57.0171 121.337V122.137C56.8975 122.137 56.8072 122.109 56.7694 122.097C56.7243 122.082 56.6904 122.066 56.672 122.057C56.6357 122.038 56.6119 122.022 56.6073 122.019C56.5958 122.012 56.5975 122.012 56.6193 122.029L57.1191 121.405L57.6188 120.78C57.5839 120.752 57.5403 120.718 57.4948 120.688C57.4732 120.674 57.4352 120.649 57.3876 120.625C57.3756 120.619 57.2238 120.537 57.0171 120.537V121.337ZM57.1191 121.405L56.8166 122.145C57.6364 122.48 58.3706 122.698 58.9551 122.698V121.898V121.098C58.7008 121.098 58.211 120.987 57.4216 120.664L57.1191 121.405ZM58.9551 121.898V122.698C59.5309 122.698 60.0762 122.543 60.5212 122.172L60.0091 121.558L59.4969 120.943C59.398 121.026 59.2406 121.098 58.9551 121.098V121.898ZM60.0091 121.558L60.5236 122.17C60.9837 121.784 61.2341 121.261 61.2341 120.657H60.4341H59.6341C59.6341 120.778 59.6011 120.856 59.4945 120.945L60.0091 121.558ZM60.4341 120.657H61.2341C61.2341 120.065 61.0722 119.478 60.6134 119.051C60.1656 118.634 59.5689 118.497 58.9721 118.497V119.297V120.097C59.3499 120.097 59.4842 120.186 59.5237 120.222C59.5522 120.249 59.6341 120.342 59.6341 120.657H60.4341ZM58.9721 119.297L58.9628 118.497L57.5008 118.514L57.5101 119.314L57.5194 120.114L58.9814 120.097L58.9721 119.297ZM57.5101 119.314L57.3532 118.529C57.4574 118.508 57.5583 118.522 57.6372 118.554C57.7073 118.582 57.7386 118.615 57.7357 118.612L57.1701 119.178L56.6044 119.743C56.827 119.966 57.1971 120.192 57.667 120.098L57.5101 119.314ZM57.1701 119.178L57.762 118.64C57.7684 118.647 57.7753 118.656 57.7817 118.666C57.7881 118.677 57.7928 118.687 57.796 118.696C57.8025 118.715 57.8001 118.719 57.8001 118.702H57.0001H56.2001C56.2001 119.063 56.3117 119.423 56.5781 119.716L57.1701 119.178ZM57.0001 118.702H57.8001V113.381H57.0001H56.2001V118.702H57.0001ZM57.0001 113.381H57.8001C57.8001 113.311 57.8067 113.275 57.8092 113.265C57.8114 113.256 57.8059 113.286 57.7732 113.33C57.737 113.38 57.6832 113.426 57.6186 113.455C57.5584 113.483 57.5156 113.484 57.5101 113.484V112.684V111.884C57.1373 111.884 56.7461 112.025 56.4819 112.386C56.2519 112.7 56.2001 113.075 56.2001 113.381H57.0001ZM57.5101 112.684V113.484H63.0181V112.684V111.884H57.5101V112.684ZM66.4421 123.19L65.8351 123.711L65.8384 123.715L66.4421 123.19ZM66.4591 114.078L67.057 114.609L67.0599 114.606L66.4591 114.078ZM73.4461 114.061L72.8415 114.585L72.8416 114.585L73.4461 114.061ZM73.4121 123.258L72.8171 122.723L72.8168 122.723L73.4121 123.258ZM68.8221 116.543L68.1402 116.124L68.1375 116.129L68.8221 116.543ZM68.8051 120.725L68.1135 121.127L68.1191 121.136L68.1249 121.146L68.8051 120.725ZM71.0491 120.708L70.3644 120.294L70.3575 120.306L71.0491 120.708ZM71.0321 116.526L70.3474 116.94L70.3546 116.951L71.0321 116.526ZM69.9271 124.754V123.954C68.7353 123.954 67.7962 123.528 67.0458 122.665L66.4421 123.19L65.8384 123.715C66.9014 124.937 68.2856 125.554 69.9271 125.554V124.754ZM66.4421 123.19L67.049 122.669C66.3247 121.825 65.8991 120.517 65.8991 118.617H65.0991H64.2991C64.2991 120.728 64.7689 122.469 65.8352 123.711L66.4421 123.19ZM65.0991 118.617H65.8991C65.8991 116.717 66.33 115.427 67.057 114.609L66.4591 114.078L65.8612 113.546C64.7748 114.768 64.2991 116.505 64.2991 118.617H65.0991ZM66.4591 114.078L67.0599 114.606C67.8079 113.755 68.7527 113.331 69.9611 113.331V112.531V111.731C68.3135 111.731 66.9236 112.338 65.8583 113.55L66.4591 114.078ZM69.9611 112.531V113.331C71.1859 113.331 72.1206 113.753 72.8415 114.585L73.4461 114.061L74.0507 113.537C73.0036 112.329 71.615 111.731 69.9611 111.731V112.531ZM73.4461 114.061L72.8416 114.585C73.5482 115.4 73.9721 116.713 73.9721 118.668H74.7721H75.5721C75.5721 116.52 75.112 114.761 74.0507 113.537L73.4461 114.061ZM74.7721 118.668H73.9721C73.9721 120.62 73.5383 121.921 72.8171 122.723L73.4121 123.258L74.0071 123.793C75.0992 122.578 75.5721 120.818 75.5721 118.668H74.7721ZM73.4121 123.258L72.8168 122.723C72.0841 123.54 71.1447 123.954 69.9271 123.954V124.754V125.554C71.5655 125.554 72.9495 124.971 74.0074 123.792L73.4121 123.258ZM69.9271 115.795V114.995C69.1225 114.995 68.5334 115.484 68.1402 116.124L68.8221 116.543L69.504 116.961C69.7228 116.605 69.8704 116.595 69.9271 116.595V115.795ZM68.8221 116.543L68.1375 116.129C67.7351 116.794 67.5801 117.66 67.5801 118.634H68.3801H69.1801C69.1801 117.795 69.3198 117.266 69.5067 116.957L68.8221 116.543ZM68.3801 118.634H67.5801C67.5801 119.604 67.7284 120.464 68.1135 121.127L68.8051 120.725L69.4967 120.323C69.3152 120.01 69.1801 119.477 69.1801 118.634H68.3801ZM68.8051 120.725L68.1249 121.146C68.5258 121.794 69.1291 122.239 69.9271 122.239V121.439V120.639C69.8184 120.639 69.6737 120.608 69.4853 120.304L68.8051 120.725ZM69.9271 121.439V122.239C70.7415 122.239 71.35 121.782 71.7407 121.11L71.0491 120.708L70.3575 120.306C70.1815 120.608 70.042 120.639 69.9271 120.639V121.439ZM71.0491 120.708L71.7337 121.122C72.1361 120.456 72.2911 119.591 72.2911 118.617H71.4911H70.6911C70.6911 119.456 70.5514 119.985 70.3645 120.294L71.0491 120.708ZM71.4911 118.617H72.2911C72.2911 117.639 72.1293 116.769 71.7096 116.1L71.0321 116.526L70.3546 116.951C70.5469 117.257 70.6911 117.781 70.6911 118.617H71.4911ZM71.0321 116.526L71.7167 116.112C71.3249 115.464 70.7305 114.995 69.9271 114.995V115.795V116.595C70.0077 116.595 70.15 116.613 70.3475 116.94L71.0321 116.526ZM77.1295 123.19L76.5226 123.711L76.5258 123.715L77.1295 123.19ZM77.1465 114.078L77.7445 114.609L77.7474 114.606L77.1465 114.078ZM84.1335 114.061L83.529 114.585L83.529 114.585L84.1335 114.061ZM84.0995 123.258L83.5046 122.723L83.5042 122.723L84.0995 123.258ZM79.5095 116.543L78.8276 116.124L78.8249 116.129L79.5095 116.543ZM79.4925 120.725L78.8009 121.127L78.8065 121.136L78.8123 121.146L79.4925 120.725ZM81.7365 120.708L81.0518 120.294L81.0449 120.306L81.7365 120.708ZM81.7195 116.526L81.0348 116.94L81.042 116.951L81.7195 116.526ZM80.6145 124.754V123.954C79.4227 123.954 78.4836 123.528 77.7332 122.665L77.1295 123.19L76.5258 123.715C77.5888 124.937 78.973 125.554 80.6145 125.554V124.754ZM77.1295 123.19L77.7365 122.669C77.0121 121.825 76.5865 120.517 76.5865 118.617H75.7865H74.9865C74.9865 120.728 75.4563 122.469 76.5226 123.711L77.1295 123.19ZM75.7865 118.617H76.5865C76.5865 116.717 77.0175 115.427 77.7444 114.609L77.1465 114.078L76.5486 113.546C75.4623 114.768 74.9865 116.505 74.9865 118.617H75.7865ZM77.1465 114.078L77.7474 114.606C78.4954 113.755 79.4401 113.331 80.6485 113.331V112.531V111.731C79.0009 111.731 77.611 112.338 76.5457 113.55L77.1465 114.078ZM80.6485 112.531V113.331C81.8733 113.331 82.808 113.753 83.529 114.585L84.1335 114.061L84.7381 113.537C83.691 112.329 82.3024 111.731 80.6485 111.731V112.531ZM84.1335 114.061L83.529 114.585C84.2356 115.4 84.6595 116.713 84.6595 118.668H85.4595H86.2595C86.2595 116.52 85.7994 114.761 84.7381 113.537L84.1335 114.061ZM85.4595 118.668H84.6595C84.6595 120.62 84.2257 121.921 83.5046 122.723L84.0995 123.258L84.6945 123.793C85.7866 122.578 86.2595 120.818 86.2595 118.668H85.4595ZM84.0995 123.258L83.5042 122.723C82.7715 123.54 81.8322 123.954 80.6145 123.954V124.754V125.554C82.2529 125.554 83.6369 124.971 84.6948 123.792L84.0995 123.258ZM80.6145 115.795V114.995C79.8099 114.995 79.2208 115.484 78.8277 116.124L79.5095 116.543L80.1914 116.961C80.4102 116.605 80.5578 116.595 80.6145 116.595V115.795ZM79.5095 116.543L78.8249 116.129C78.4225 116.794 78.2675 117.66 78.2675 118.634H79.0675H79.8675C79.8675 117.795 80.0072 117.266 80.1941 116.957L79.5095 116.543ZM79.0675 118.634H78.2675C78.2675 119.604 78.4158 120.464 78.8009 121.127L79.4925 120.725L80.1841 120.323C80.0026 120.01 79.8675 119.477 79.8675 118.634H79.0675ZM79.4925 120.725L78.8123 121.146C79.2133 121.794 79.8165 122.239 80.6145 122.239V121.439V120.639C80.5059 120.639 80.3611 120.608 80.1727 120.304L79.4925 120.725ZM80.6145 121.439V122.239C81.4289 122.239 82.0374 121.782 82.4281 121.11L81.7365 120.708L81.0449 120.306C80.8689 120.608 80.7294 120.639 80.6145 120.639V121.439ZM81.7365 120.708L82.4211 121.122C82.8235 120.456 82.9785 119.591 82.9785 118.617H82.1785H81.3785C81.3785 119.456 81.2388 119.985 81.0519 120.294L81.7365 120.708ZM82.1785 118.617H82.9785C82.9785 117.639 82.8167 116.769 82.397 116.1L81.7195 116.526L81.042 116.951C81.2343 117.257 81.3785 117.781 81.3785 118.617H82.1785ZM81.7195 116.526L82.4041 116.112C82.0123 115.464 81.4179 114.995 80.6145 114.995V115.795V116.595C80.6951 116.595 80.8374 116.613 81.0349 116.94L81.7195 116.526Z" fill="black" mask="url(#path-19-outside-2_2229_1429)"/>
</g>
<path fill-rule="evenodd" clip-rule="evenodd" d="M56.4335 78.9985L63.7692 86.57L58.539 93.3706C58.4741 93.4547 58.4047 93.535 58.331 93.611C56.7433 95.2499 53.5044 94.5639 51.0962 92.0783C48.6887 89.5934 48.0239 86.2502 49.6117 84.6113C49.6854 84.5354 49.7632 84.4638 49.8448 84.3969L56.4335 78.9985Z" fill="url(#paint0_linear_2229_1429)"/>
<g style="mix-blend-mode:multiply">
<path fill-rule="evenodd" clip-rule="evenodd" d="M48.7521 87.1701C51.5842 84.7267 54.4163 82.2832 57.2484 79.8397L56.4334 78.9985L49.8447 84.3969C49.7632 84.4638 49.6853 84.5354 49.6116 84.6113C49.3027 84.9519 49.0665 85.3557 48.9185 85.7965C48.7704 86.2373 48.7137 86.7053 48.7521 87.1701Z" fill="url(#paint1_linear_2229_1429)"/>
</g>
<g style="mix-blend-mode:multiply" opacity="0.75">
<path fill-rule="evenodd" clip-rule="evenodd" d="M62.3016 85.0557C59.7112 88.1253 57.1209 91.1951 54.5308 94.265C56.0252 94.7189 57.4385 94.5319 58.3307 93.611C58.4043 93.535 58.4738 93.4547 58.5387 93.3706L63.7689 86.57L62.3016 85.0557Z" fill="url(#paint2_linear_2229_1429)"/>
</g>
<g style="mix-blend-mode:screen">
<path fill-rule="evenodd" clip-rule="evenodd" d="M61.9258 80.7951C63.906 82.839 64.5581 85.4797 63.3823 86.6933C62.2065 87.9069 59.6481 87.2339 57.6679 85.19C55.6877 83.1461 55.0355 80.5052 56.2112 79.2916C57.387 78.078 59.9456 78.7512 61.9258 80.7951Z" fill="url(#paint3_radial_2229_1429)"/>
</g>
<path fill-rule="evenodd" clip-rule="evenodd" d="M62.0782 80.743C64.1085 82.8386 64.8055 85.5169 63.6349 86.725C62.4644 87.9332 59.8695 87.2138 57.8393 85.1182C55.8094 83.0231 55.1125 80.345 56.2831 79.1368C57.4536 77.9286 60.0483 78.6479 62.0782 80.743Z" fill="url(#paint4_radial_2229_1429)"/>
<path fill-rule="evenodd" clip-rule="evenodd" d="M63.6244 86.2368C62.5092 87.3427 60.1066 86.6935 58.2097 84.7357C56.3133 82.7782 55.6844 80.2986 56.756 79.1475L66.7628 68.3972L74.0398 75.9082L63.6244 86.2368Z" fill="url(#paint5_linear_2229_1429)"/>
<path style="mix-blend-mode:multiply" fill-rule="evenodd" clip-rule="evenodd" d="M56.2889 81.2453C60.0506 77.2401 63.8122 73.2348 67.5737 69.2295L66.7652 68.395L56.7584 79.1453C56.5251 79.4322 56.3609 79.7721 56.2793 80.1371C56.1977 80.5021 56.201 80.8818 56.2889 81.2453Z" fill="url(#paint6_linear_2229_1429)"/>
<path style="mix-blend-mode:multiply" fill-rule="evenodd" clip-rule="evenodd" d="M72.5867 74.4041C68.606 78.4154 64.6252 82.4266 60.6443 86.4379C61.8412 86.929 62.9603 86.8933 63.6246 86.237L74.0421 75.9062L72.5867 74.4041Z" fill="url(#paint7_linear_2229_1429)"/>
<path style="mix-blend-mode:multiply" fill-rule="evenodd" clip-rule="evenodd" d="M68.9782 80.9278L73.3805 76.562L66.1324 69.0808C66.0584 69.1275 65.9892 69.1816 65.9255 69.2424L65.7998 69.3777C64.7026 70.7042 65.1456 74.4088 66.827 77.779C67.3822 78.9369 68.1079 79.9991 68.9782 80.9278Z" fill="url(#paint8_radial_2229_1429)"/>
<path fill-rule="evenodd" clip-rule="evenodd" d="M73.8802 76.4542C72.6846 77.6304 70.0323 76.848 67.8949 74.6419C65.7572 72.4354 64.9993 69.6981 66.1389 68.4639L69.4273 64.9028L77.3304 73.06L73.8802 76.4542Z" fill="url(#paint9_linear_2229_1429)"/>
<path style="mix-blend-mode:multiply" fill-rule="evenodd" clip-rule="evenodd" d="M72.454 77.3403L76.8563 72.9745L69.6082 65.4932C69.5343 65.5399 69.4651 65.594 69.4014 65.6547L69.2757 65.79C68.1785 67.1165 68.6215 70.8212 70.3028 74.1913C70.8581 75.3493 71.5837 76.4115 72.454 77.3403Z" fill="url(#paint10_radial_2229_1429)"/>
<path style="mix-blend-mode:multiply" fill-rule="evenodd" clip-rule="evenodd" d="M65.6857 70.7585C67.2257 69.1089 68.7657 67.4591 70.3054 65.8092L69.4272 64.9028L66.1388 68.4639C65.8897 68.7804 65.7184 69.1543 65.6395 69.5538C65.5606 69.9534 65.5764 70.3667 65.6857 70.7585Z" fill="url(#paint11_linear_2229_1429)"/>
<path fill-rule="evenodd" clip-rule="evenodd" d="M75.139 43.2789C74.9257 43.2188 74.7004 43.2217 74.4885 43.2871C74.2767 43.3525 74.0869 43.4779 73.9406 43.649L65.5958 53.1469C65.4903 53.2604 65.413 53.3985 65.3703 53.5494C65.3277 53.7003 65.321 53.8596 65.3508 54.0138L72.0425 77.1718C72.1187 77.3866 72.2432 77.5797 72.406 77.7351C72.5687 77.8905 72.7648 78.0037 72.9783 78.0654L84.8746 81.5144C85.0409 81.5545 85.214 81.5533 85.3797 81.5109C85.5455 81.4685 85.6991 81.3861 85.828 81.2706L95.4106 72.4181C95.5675 72.274 95.6864 72.0912 95.756 71.8867C95.8257 71.6822 95.8439 71.4628 95.8088 71.249L92.6554 58.2434L87.3899 48.8089C87.2018 48.4736 86.9132 48.2105 86.5675 48.0594L75.139 43.2789Z" fill="#666666"/>
<path fill-rule="evenodd" clip-rule="evenodd" d="M79.6292 52.999L92.547 58.0492L87.39 48.809C87.2019 48.4737 86.9133 48.2107 86.5676 48.0595L75.1391 43.279C74.9292 43.203 74.7001 43.2057 74.4919 43.2866L79.6292 52.999Z" fill="url(#paint12_radial_2229_1429)"/>
<path fill-rule="evenodd" clip-rule="evenodd" d="M92.5469 58.0492L79.6292 52.999L82.7109 67.6368C82.9098 67.5748 83.1219 67.575 83.3207 67.6374L95.405 71.8042C95.519 71.8462 95.6384 71.8709 95.7593 71.8774C95.8355 71.6776 95.8528 71.4591 95.8089 71.2493L92.6555 58.2436L92.5469 58.0492Z" fill="url(#paint13_radial_2229_1429)"/>
<path fill-rule="evenodd" clip-rule="evenodd" d="M82.7109 67.6368L79.6291 52.999L74.4919 43.2866C74.2816 43.3581 74.0921 43.4827 73.9406 43.6492L65.5958 53.1471C65.4903 53.2606 65.413 53.3986 65.3703 53.5496C65.3277 53.7005 65.321 53.8598 65.3508 54.014L72.0425 77.1719C72.1164 77.4035 72.253 77.6083 72.4362 77.7623C72.5088 77.6507 72.5933 77.5479 72.6882 77.4558L82.2926 67.8768C82.4112 67.7631 82.5547 67.6808 82.7109 67.6368Z" fill="url(#paint14_radial_2229_1429)"/>
<path fill-rule="evenodd" clip-rule="evenodd" d="M82.2927 67.8767L72.6883 77.4557C72.5935 77.5478 72.5089 77.6506 72.4363 77.7622C72.5941 77.9018 72.7789 78.0052 72.9784 78.0655L84.8748 81.5145C85.041 81.5545 85.2141 81.5533 85.3798 81.5109C85.5456 81.4685 85.6992 81.3862 85.8281 81.2706L95.4107 72.4181C95.5672 72.2693 95.6868 72.0838 95.7594 71.8772C95.6385 71.8706 95.5191 71.846 95.4051 71.804L83.3207 67.6372C83.122 67.5749 82.9098 67.5747 82.711 67.6367C82.5548 67.6806 82.4113 67.763 82.2927 67.8767Z" fill="url(#paint15_radial_2229_1429)"/>
<path style="mix-blend-mode:multiply" fill-rule="evenodd" clip-rule="evenodd" d="M88.6416 54.8851C90.7455 57.0566 91.6427 59.6511 90.6457 60.6802C89.6487 61.7092 87.1351 60.7832 85.0312 58.6117C82.9274 56.4402 82.0299 53.8455 83.0269 52.8164C84.0239 51.7874 86.5378 52.7136 88.6416 54.8851Z" fill="url(#paint16_radial_2229_1429)"/>
<path fill-rule="evenodd" clip-rule="evenodd" d="M90.8327 59.0917L83.1467 51.3047L82.3079 52.2366C81.9481 52.6079 82.0722 53.4423 82.5639 54.1464C82.9512 55.9589 83.9229 57.5821 85.3202 58.7505C87.1344 60.2573 89.0127 60.8398 89.8282 60.0564L90.8327 59.0917Z" fill="url(#paint17_linear_2229_1429)"/>
<path style="mix-blend-mode:multiply" opacity="0.5" fill-rule="evenodd" clip-rule="evenodd" d="M82.413 53.9022C82.9429 53.3244 83.4727 52.7465 84.0023 52.1686L83.1481 51.3032L82.3094 52.235C82.16 52.4907 82.0899 52.7874 82.1084 53.0853C82.1269 53.3833 82.2332 53.6683 82.413 53.9022Z" fill="url(#paint18_linear_2229_1429)"/>
<path style="mix-blend-mode:multiply" opacity="0.5" fill-rule="evenodd" clip-rule="evenodd" d="M89.297 57.533C88.515 58.305 87.7329 59.0769 86.9507 59.8488C88.1718 60.4828 89.2586 60.602 89.8282 60.0564L90.8343 59.0905L89.297 57.533Z" fill="url(#paint19_linear_2229_1429)"/>
<path style="mix-blend-mode:screen" fill-rule="evenodd" clip-rule="evenodd" d="M88.7145 53.3992C90.7882 55.5396 91.687 58.0822 90.722 59.0782C89.757 60.0742 87.2936 59.1466 85.2199 57.0061C83.1462 54.8657 82.2473 52.3232 83.2123 51.3271C84.1774 50.3311 86.6408 51.2588 88.7145 53.3992Z" fill="url(#paint20_radial_2229_1429)"/>
<path fill-rule="evenodd" clip-rule="evenodd" d="M88.7652 53.3626C90.8693 55.5343 91.8084 58.086 90.8627 59.0621C89.917 60.0382 87.4448 59.069 85.3407 56.8973C83.2371 54.7259 82.2983 52.1745 83.2439 51.1984C84.1896 50.2223 86.6616 51.1913 88.7652 53.3626Z" fill="url(#paint21_radial_2229_1429)"/>
<path style="mix-blend-mode:screen" fill-rule="evenodd" clip-rule="evenodd" d="M80.48 57.0408L82.0708 66.5031C82.1266 66.8016 82.1104 67.1097 82.0237 67.4002C81.9369 67.6907 81.7823 67.9547 81.5734 68.169L73.2517 76.8939L82.2925 68.2541C82.4398 68.1 82.6237 67.9886 82.8257 67.931C83.0278 67.8733 83.241 67.8713 83.4441 67.9253L94.3981 71.457L83.9184 67.5242C83.6346 67.4213 83.3805 67.2466 83.1792 67.016C82.9779 66.7854 82.836 66.5063 82.7665 66.2043L80.48 57.0408Z" fill="url(#paint22_radial_2229_1429)"/>
<path style="mix-blend-mode:screen" fill-rule="evenodd" clip-rule="evenodd" d="M75.7151 45.5994L79.6696 52.684L82.3829 54.0759L79.9467 53.3707L80.3929 56.627L79.3053 52.872L75.7151 45.5994Z" fill="url(#paint23_radial_2229_1429)"/>
<g filter="url(#filter5_d_2229_1429)">
<mask id="path-46-outside-3_2229_1429" maskUnits="userSpaceOnUse" x="38.9126" y="159.592" width="52" height="15" fill="black">
<rect fill="white" x="38.9126" y="159.592" width="52" height="15"/>
<path d="M40.2126 170.602C40.2126 170.322 40.2826 170.007 40.4226 169.657C40.5626 169.297 40.6976 169.012 40.8276 168.802C40.9576 168.582 41.0326 168.472 41.0526 168.472C41.6326 168.822 42.2426 168.997 42.8826 168.997C43.2826 168.997 43.6026 168.917 43.8426 168.757C44.0926 168.597 44.2176 168.377 44.2176 168.097C44.2176 167.807 44.1026 167.622 43.8726 167.542C43.6526 167.462 43.2976 167.407 42.8076 167.377H42.2676C42.1476 167.377 42.0326 167.232 41.9226 166.942C41.8226 166.642 41.7726 166.352 41.7726 166.072C41.7726 165.602 41.9126 165.362 42.1926 165.352L42.6276 165.337C42.8976 165.337 43.1776 165.262 43.4676 165.112C43.7676 164.952 43.9176 164.752 43.9176 164.512C43.9176 164.092 43.5426 163.882 42.7926 163.882C42.2326 163.882 41.6926 163.992 41.1726 164.212C40.7226 163.402 40.4976 162.772 40.4976 162.322C40.4976 161.862 40.8126 161.517 41.4426 161.287C42.0826 161.057 42.8826 160.942 43.8426 160.942C44.8026 160.942 45.5526 161.142 46.0926 161.542C46.6326 161.942 46.9026 162.487 46.9026 163.177C46.9026 164.387 46.3826 165.317 45.3426 165.967C46.6026 166.477 47.2326 167.342 47.2326 168.562C47.2326 169.512 46.8976 170.282 46.2276 170.872C45.5576 171.452 44.5976 171.742 43.3476 171.742C42.5576 171.742 41.8376 171.632 41.1876 171.412C40.5376 171.182 40.2126 170.912 40.2126 170.602ZM52.4724 171.742C51.2224 171.742 50.1974 171.282 49.3974 170.362C48.6074 169.442 48.2124 168.097 48.2124 166.327C48.2124 164.557 48.6124 163.222 49.4124 162.322C50.2124 161.412 51.2424 160.957 52.5024 160.957C53.7724 160.957 54.7974 161.407 55.5774 162.307C56.3574 163.207 56.7474 164.562 56.7474 166.372C56.7474 168.182 56.3474 169.532 55.5474 170.422C54.7574 171.302 53.7324 171.742 52.4724 171.742ZM52.4724 163.837C52.0924 163.837 51.7674 164.057 51.4974 164.497C51.2374 164.927 51.1074 165.542 51.1074 166.342C51.1074 167.142 51.2324 167.757 51.4824 168.187C51.7424 168.607 52.0724 168.817 52.4724 168.817C52.8824 168.817 53.2124 168.602 53.4624 168.172C53.7224 167.742 53.8524 167.127 53.8524 166.327C53.8524 165.527 53.7174 164.912 53.4474 164.482C53.1874 164.052 52.8624 163.837 52.4724 163.837ZM58.9175 169.372C58.9775 169.212 59.4025 169.132 60.1925 169.132C60.9825 169.132 61.3775 169.237 61.3775 169.447L61.3475 170.722L60.4775 172.762C60.3475 173.052 59.9425 173.197 59.2625 173.197C58.5925 173.197 58.1675 173.087 57.9875 172.867C57.9475 172.817 57.9275 172.767 57.9275 172.717C57.9275 172.677 57.9325 172.637 57.9425 172.597L58.8575 170.737L58.9175 169.372ZM66.3228 171.742C65.0728 171.742 64.0478 171.282 63.2478 170.362C62.4578 169.442 62.0628 168.097 62.0628 166.327C62.0628 164.557 62.4628 163.222 63.2628 162.322C64.0628 161.412 65.0928 160.957 66.3528 160.957C67.6228 160.957 68.6478 161.407 69.4278 162.307C70.2078 163.207 70.5978 164.562 70.5978 166.372C70.5978 168.182 70.1978 169.532 69.3978 170.422C68.6078 171.302 67.5828 171.742 66.3228 171.742ZM66.3228 163.837C65.9428 163.837 65.6178 164.057 65.3478 164.497C65.0878 164.927 64.9578 165.542 64.9578 166.342C64.9578 167.142 65.0828 167.757 65.3328 168.187C65.5928 168.607 65.9228 168.817 66.3228 168.817C66.7328 168.817 67.0628 168.602 67.3128 168.172C67.5728 167.742 67.7028 167.127 67.7028 166.327C67.7028 165.527 67.5678 164.912 67.2978 164.482C67.0378 164.052 66.7128 163.837 66.3228 163.837ZM75.7529 171.742C74.5029 171.742 73.4779 171.282 72.6779 170.362C71.8879 169.442 71.4929 168.097 71.4929 166.327C71.4929 164.557 71.8929 163.222 72.6929 162.322C73.4929 161.412 74.5229 160.957 75.7829 160.957C77.0529 160.957 78.0779 161.407 78.8579 162.307C79.6379 163.207 80.0279 164.562 80.0279 166.372C80.0279 168.182 79.6279 169.532 78.8279 170.422C78.0379 171.302 77.0129 171.742 75.7529 171.742ZM75.7529 163.837C75.3729 163.837 75.0479 164.057 74.7779 164.497C74.5179 164.927 74.3879 165.542 74.3879 166.342C74.3879 167.142 74.5129 167.757 74.7629 168.187C75.0229 168.607 75.3529 168.817 75.7529 168.817C76.1629 168.817 76.4929 168.602 76.7429 168.172C77.0029 167.742 77.1329 167.127 77.1329 166.327C77.1329 165.527 76.9979 164.912 76.7279 164.482C76.4679 164.052 76.1429 163.837 75.7529 163.837ZM85.1829 171.742C83.9329 171.742 82.9079 171.282 82.1079 170.362C81.3179 169.442 80.9229 168.097 80.9229 166.327C80.9229 164.557 81.3229 163.222 82.1229 162.322C82.9229 161.412 83.9529 160.957 85.2129 160.957C86.4829 160.957 87.5079 161.407 88.2879 162.307C89.0679 163.207 89.4579 164.562 89.4579 166.372C89.4579 168.182 89.0579 169.532 88.2579 170.422C87.4679 171.302 86.4429 171.742 85.1829 171.742ZM85.1829 163.837C84.8029 163.837 84.4779 164.057 84.2079 164.497C83.9479 164.927 83.8179 165.542 83.8179 166.342C83.8179 167.142 83.9429 167.757 84.1929 168.187C84.4529 168.607 84.7829 168.817 85.1829 168.817C85.5929 168.817 85.9229 168.602 86.1729 168.172C86.4329 167.742 86.5629 167.127 86.5629 166.327C86.5629 165.527 86.4279 164.912 86.1579 164.482C85.8979 164.052 85.5729 163.837 85.1829 163.837Z"/>
</mask>
<path d="M40.2126 170.602C40.2126 170.322 40.2826 170.007 40.4226 169.657C40.5626 169.297 40.6976 169.012 40.8276 168.802C40.9576 168.582 41.0326 168.472 41.0526 168.472C41.6326 168.822 42.2426 168.997 42.8826 168.997C43.2826 168.997 43.6026 168.917 43.8426 168.757C44.0926 168.597 44.2176 168.377 44.2176 168.097C44.2176 167.807 44.1026 167.622 43.8726 167.542C43.6526 167.462 43.2976 167.407 42.8076 167.377H42.2676C42.1476 167.377 42.0326 167.232 41.9226 166.942C41.8226 166.642 41.7726 166.352 41.7726 166.072C41.7726 165.602 41.9126 165.362 42.1926 165.352L42.6276 165.337C42.8976 165.337 43.1776 165.262 43.4676 165.112C43.7676 164.952 43.9176 164.752 43.9176 164.512C43.9176 164.092 43.5426 163.882 42.7926 163.882C42.2326 163.882 41.6926 163.992 41.1726 164.212C40.7226 163.402 40.4976 162.772 40.4976 162.322C40.4976 161.862 40.8126 161.517 41.4426 161.287C42.0826 161.057 42.8826 160.942 43.8426 160.942C44.8026 160.942 45.5526 161.142 46.0926 161.542C46.6326 161.942 46.9026 162.487 46.9026 163.177C46.9026 164.387 46.3826 165.317 45.3426 165.967C46.6026 166.477 47.2326 167.342 47.2326 168.562C47.2326 169.512 46.8976 170.282 46.2276 170.872C45.5576 171.452 44.5976 171.742 43.3476 171.742C42.5576 171.742 41.8376 171.632 41.1876 171.412C40.5376 171.182 40.2126 170.912 40.2126 170.602ZM52.4724 171.742C51.2224 171.742 50.1974 171.282 49.3974 170.362C48.6074 169.442 48.2124 168.097 48.2124 166.327C48.2124 164.557 48.6124 163.222 49.4124 162.322C50.2124 161.412 51.2424 160.957 52.5024 160.957C53.7724 160.957 54.7974 161.407 55.5774 162.307C56.3574 163.207 56.7474 164.562 56.7474 166.372C56.7474 168.182 56.3474 169.532 55.5474 170.422C54.7574 171.302 53.7324 171.742 52.4724 171.742ZM52.4724 163.837C52.0924 163.837 51.7674 164.057 51.4974 164.497C51.2374 164.927 51.1074 165.542 51.1074 166.342C51.1074 167.142 51.2324 167.757 51.4824 168.187C51.7424 168.607 52.0724 168.817 52.4724 168.817C52.8824 168.817 53.2124 168.602 53.4624 168.172C53.7224 167.742 53.8524 167.127 53.8524 166.327C53.8524 165.527 53.7174 164.912 53.4474 164.482C53.1874 164.052 52.8624 163.837 52.4724 163.837ZM58.9175 169.372C58.9775 169.212 59.4025 169.132 60.1925 169.132C60.9825 169.132 61.3775 169.237 61.3775 169.447L61.3475 170.722L60.4775 172.762C60.3475 173.052 59.9425 173.197 59.2625 173.197C58.5925 173.197 58.1675 173.087 57.9875 172.867C57.9475 172.817 57.9275 172.767 57.9275 172.717C57.9275 172.677 57.9325 172.637 57.9425 172.597L58.8575 170.737L58.9175 169.372ZM66.3228 171.742C65.0728 171.742 64.0478 171.282 63.2478 170.362C62.4578 169.442 62.0628 168.097 62.0628 166.327C62.0628 164.557 62.4628 163.222 63.2628 162.322C64.0628 161.412 65.0928 160.957 66.3528 160.957C67.6228 160.957 68.6478 161.407 69.4278 162.307C70.2078 163.207 70.5978 164.562 70.5978 166.372C70.5978 168.182 70.1978 169.532 69.3978 170.422C68.6078 171.302 67.5828 171.742 66.3228 171.742ZM66.3228 163.837C65.9428 163.837 65.6178 164.057 65.3478 164.497C65.0878 164.927 64.9578 165.542 64.9578 166.342C64.9578 167.142 65.0828 167.757 65.3328 168.187C65.5928 168.607 65.9228 168.817 66.3228 168.817C66.7328 168.817 67.0628 168.602 67.3128 168.172C67.5728 167.742 67.7028 167.127 67.7028 166.327C67.7028 165.527 67.5678 164.912 67.2978 164.482C67.0378 164.052 66.7128 163.837 66.3228 163.837ZM75.7529 171.742C74.5029 171.742 73.4779 171.282 72.6779 170.362C71.8879 169.442 71.4929 168.097 71.4929 166.327C71.4929 164.557 71.8929 163.222 72.6929 162.322C73.4929 161.412 74.5229 160.957 75.7829 160.957C77.0529 160.957 78.0779 161.407 78.8579 162.307C79.6379 163.207 80.0279 164.562 80.0279 166.372C80.0279 168.182 79.6279 169.532 78.8279 170.422C78.0379 171.302 77.0129 171.742 75.7529 171.742ZM75.7529 163.837C75.3729 163.837 75.0479 164.057 74.7779 164.497C74.5179 164.927 74.3879 165.542 74.3879 166.342C74.3879 167.142 74.5129 167.757 74.7629 168.187C75.0229 168.607 75.3529 168.817 75.7529 168.817C76.1629 168.817 76.4929 168.602 76.7429 168.172C77.0029 167.742 77.1329 167.127 77.1329 166.327C77.1329 165.527 76.9979 164.912 76.7279 164.482C76.4679 164.052 76.1429 163.837 75.7529 163.837ZM85.1829 171.742C83.9329 171.742 82.9079 171.282 82.1079 170.362C81.3179 169.442 80.9229 168.097 80.9229 166.327C80.9229 164.557 81.3229 163.222 82.1229 162.322C82.9229 161.412 83.9529 160.957 85.2129 160.957C86.4829 160.957 87.5079 161.407 88.2879 162.307C89.0679 163.207 89.4579 164.562 89.4579 166.372C89.4579 168.182 89.0579 169.532 88.2579 170.422C87.4679 171.302 86.4429 171.742 85.1829 171.742ZM85.1829 163.837C84.8029 163.837 84.4779 164.057 84.2079 164.497C83.9479 164.927 83.8179 165.542 83.8179 166.342C83.8179 167.142 83.9429 167.757 84.1929 168.187C84.4529 168.607 84.7829 168.817 85.1829 168.817C85.5929 168.817 85.9229 168.602 86.1729 168.172C86.4329 167.742 86.5629 167.127 86.5629 166.327C86.5629 165.527 86.4279 164.912 86.1579 164.482C85.8979 164.052 85.5729 163.837 85.1829 163.837Z" fill="white"/>
<path d="M40.4226 169.657L41.1654 169.954L41.1682 169.947L40.4226 169.657ZM40.8276 168.802L41.5078 169.223L41.5121 169.216L41.5163 169.209L40.8276 168.802ZM41.0526 168.472L41.4659 167.787L41.2753 167.672H41.0526V168.472ZM43.8426 168.757L43.4114 168.083L43.4051 168.087L43.3988 168.091L43.8426 168.757ZM43.8726 167.542L43.5992 168.293L43.6098 168.297L43.8726 167.542ZM42.8076 167.377L42.8565 166.578L42.8321 166.577H42.8076V167.377ZM41.9226 166.942L41.1637 167.195L41.1688 167.21L41.1746 167.225L41.9226 166.942ZM42.1926 165.352L42.165 164.552L42.164 164.552L42.1926 165.352ZM42.6276 165.337V164.537H42.6138L42.6 164.537L42.6276 165.337ZM43.4676 165.112L43.8352 165.822L43.8441 165.817L43.4676 165.112ZM41.1726 164.212L40.4733 164.6L40.8223 165.228L41.4843 164.948L41.1726 164.212ZM41.4426 161.287L41.172 160.534L41.1682 160.535L41.4426 161.287ZM46.0926 161.542L45.6164 162.184L45.6164 162.184L46.0926 161.542ZM45.3426 165.967L44.9186 165.288L43.5884 166.12L45.0424 166.708L45.3426 165.967ZM46.2276 170.872L46.7512 171.476L46.7563 171.472L46.2276 170.872ZM41.1876 171.412L40.9207 172.166L40.9311 172.169L41.1876 171.412ZM40.2126 170.602H41.0126C41.0126 170.452 41.0509 170.24 41.1654 169.954L40.4226 169.657L39.6798 169.359C39.5143 169.773 39.4126 170.191 39.4126 170.602H40.2126ZM40.4226 169.657L41.1682 169.947C41.2992 169.61 41.4137 169.375 41.5078 169.223L40.8276 168.802L40.1474 168.38C39.9815 168.648 39.826 168.983 39.677 169.367L40.4226 169.657ZM40.8276 168.802L41.5163 169.209C41.579 169.103 41.6197 169.038 41.6423 169.005C41.6555 168.985 41.6507 168.994 41.6327 169.015C41.6255 169.023 41.5957 169.058 41.5479 169.097C41.5237 169.117 41.4776 169.152 41.4126 169.185C41.354 169.215 41.2262 169.272 41.0526 169.272V168.472V167.672C40.8765 167.672 40.7457 167.729 40.6838 167.761C40.6154 167.796 40.5655 167.833 40.5372 167.857C40.4809 167.902 40.4409 167.947 40.4218 167.969C40.3801 168.018 40.3447 168.068 40.3204 168.103C40.268 168.18 40.2062 168.281 40.1389 168.395L40.8276 168.802ZM41.0526 168.472L40.6393 169.157C41.3364 169.577 42.0883 169.797 42.8826 169.797V168.997V168.197C42.3969 168.197 41.9288 168.066 41.4659 167.787L41.0526 168.472ZM42.8826 168.997V169.797C43.3815 169.797 43.8732 169.698 44.2864 169.422L43.8426 168.757L43.3988 168.091C43.332 168.135 43.1837 168.197 42.8826 168.197V168.997ZM43.8426 168.757L44.2738 169.43C44.737 169.134 45.0176 168.668 45.0176 168.097H44.2176H43.4176C43.4176 168.107 43.4165 168.107 43.418 168.101C43.4188 168.098 43.42 168.094 43.4218 168.09C43.4236 168.085 43.4258 168.081 43.4283 168.076C43.4335 168.067 43.4377 168.063 43.4372 168.063C43.4365 168.064 43.4293 168.071 43.4114 168.083L43.8426 168.757ZM44.2176 168.097H45.0176C45.0176 167.85 44.9691 167.573 44.8108 167.318C44.6452 167.052 44.4017 166.879 44.1354 166.786L43.8726 167.542L43.6098 168.297C43.596 168.292 43.5685 168.281 43.5362 168.256C43.503 168.23 43.4739 168.198 43.4519 168.163C43.4086 168.093 43.4176 168.053 43.4176 168.097H44.2176ZM43.8726 167.542L44.146 166.79C43.8111 166.668 43.3583 166.609 42.8565 166.578L42.8076 167.377L42.7587 168.175C43.2369 168.204 43.4941 168.255 43.5992 168.293L43.8726 167.542ZM42.8076 167.377V166.577H42.2676V167.377V168.177H42.8076V167.377ZM42.2676 167.377V166.577C42.5603 166.577 42.7074 166.757 42.7181 166.771C42.7347 166.792 42.7133 166.77 42.6706 166.658L41.9226 166.942L41.1746 167.225C41.2419 167.403 41.333 167.599 41.4645 167.765C41.5903 167.923 41.8548 168.177 42.2676 168.177V167.377ZM41.9226 166.942L42.6815 166.689C42.6053 166.46 42.5726 166.255 42.5726 166.072H41.7726H40.9726C40.9726 166.448 41.0399 166.823 41.1637 167.195L41.9226 166.942ZM41.7726 166.072H42.5726C42.5726 165.992 42.5787 165.942 42.5837 165.917C42.5889 165.891 42.5898 165.906 42.5686 165.942C42.5448 165.983 42.4972 166.042 42.418 166.09C42.3391 166.137 42.2656 166.149 42.2212 166.151L42.1926 165.352L42.164 164.552C41.7527 164.567 41.3962 164.777 41.1866 165.136C41.0116 165.436 40.9726 165.781 40.9726 166.072H41.7726ZM42.1926 165.352L42.2202 166.151L42.6552 166.136L42.6276 165.337L42.6 164.537L42.165 164.552L42.1926 165.352ZM42.6276 165.337V166.137C43.0496 166.137 43.4551 166.019 43.8351 165.822L43.4676 165.112L43.1001 164.401C42.9001 164.504 42.7456 164.537 42.6276 164.537V165.337ZM43.4676 165.112L43.8441 165.817C44.2821 165.584 44.7176 165.164 44.7176 164.512H43.9176H43.1176C43.1176 164.487 43.1218 164.457 43.1323 164.426C43.1426 164.395 43.1559 164.374 43.1651 164.362C43.1737 164.35 43.1761 164.35 43.1647 164.359C43.1531 164.369 43.1301 164.385 43.0911 164.406L43.4676 165.112ZM43.9176 164.512H44.7176C44.7176 164.284 44.6655 164.046 44.5347 163.827C44.4045 163.608 44.2222 163.45 44.0272 163.341C43.6616 163.136 43.216 163.082 42.7926 163.082V163.882V164.682C42.9451 164.682 43.058 164.692 43.138 164.707C43.2196 164.723 43.2482 164.739 43.2455 164.737C43.238 164.733 43.1963 164.706 43.1599 164.645C43.1228 164.583 43.1176 164.529 43.1176 164.512H43.9176ZM42.7926 163.882V163.082C42.1246 163.082 41.4787 163.213 40.8609 163.475L41.1726 164.212L41.4843 164.948C41.9065 164.77 42.3406 164.682 42.7926 164.682V163.882ZM41.1726 164.212L41.8719 163.823C41.4319 163.031 41.2976 162.554 41.2976 162.322H40.4976H39.6976C39.6976 162.989 40.0133 163.772 40.4733 164.6L41.1726 164.212ZM40.4976 162.322H41.2976C41.2976 162.3 41.3009 162.292 41.3017 162.29C41.3025 162.288 41.3067 162.277 41.3246 162.257C41.3657 162.212 41.4737 162.127 41.7169 162.038L41.4426 161.287L41.1682 160.535C40.7815 160.676 40.417 160.878 40.1431 161.178C39.8533 161.496 39.6976 161.889 39.6976 162.322H40.4976ZM41.4426 161.287L41.7132 162.039C42.2387 161.851 42.9399 161.742 43.8426 161.742V160.942V160.142C42.8253 160.142 41.9265 160.263 41.172 160.534L41.4426 161.287ZM43.8426 160.942V161.742C44.7022 161.742 45.2621 161.922 45.6164 162.184L46.0926 161.542L46.5688 160.899C45.8431 160.361 44.903 160.142 43.8426 160.142V160.942ZM46.0926 161.542L45.6164 162.184C45.9464 162.429 46.1026 162.732 46.1026 163.177H46.9026H47.7026C47.7026 162.241 47.3188 161.454 46.5688 160.899L46.0926 161.542ZM46.9026 163.177H46.1026C46.1026 164.106 45.7286 164.782 44.9186 165.288L45.3426 165.967L45.7666 166.645C47.0366 165.851 47.7026 164.667 47.7026 163.177H46.9026ZM45.3426 165.967L45.0424 166.708C45.571 166.922 45.9073 167.186 46.1134 167.469C46.3152 167.746 46.4326 168.096 46.4326 168.562H47.2326H48.0326C48.0326 167.807 47.835 167.115 47.4068 166.527C46.9829 165.945 46.3742 165.521 45.6428 165.225L45.3426 165.967ZM47.2326 168.562H46.4326C46.4326 169.298 46.1843 169.844 45.6989 170.271L46.2276 170.872L46.7563 171.472C47.6109 170.719 48.0326 169.725 48.0326 168.562H47.2326ZM46.2276 170.872L45.704 170.267C45.2293 170.678 44.4835 170.942 43.3476 170.942V171.742V172.542C44.7117 172.542 45.8859 172.225 46.7512 171.476L46.2276 170.872ZM43.3476 171.742V170.942C42.6319 170.942 42 170.842 41.4441 170.654L41.1876 171.412L40.9311 172.169C41.6752 172.421 42.4833 172.542 43.3476 172.542V171.742ZM41.1876 171.412L41.4545 170.657C41.1695 170.557 41.0261 170.47 40.9676 170.421C40.9422 170.4 40.9531 170.403 40.9714 170.435C40.9928 170.474 41.0126 170.532 41.0126 170.602H40.2126H39.4126C39.4126 171.073 39.6698 171.423 39.9451 171.652C40.2116 171.873 40.5557 172.037 40.9207 172.166L41.1876 171.412ZM49.3974 170.362L48.7905 170.883L48.7937 170.886L49.3974 170.362ZM49.4124 162.322L50.0103 162.853L50.0132 162.85L49.4124 162.322ZM55.5774 162.307L54.9729 162.83L54.9729 162.83L55.5774 162.307ZM55.5474 170.422L54.9524 169.887L54.9521 169.887L55.5474 170.422ZM51.4974 164.497L50.8155 164.078L50.8128 164.083L51.4974 164.497ZM51.4824 168.187L50.7908 168.589L50.7964 168.598L50.8022 168.608L51.4824 168.187ZM53.4624 168.172L52.7777 167.758L52.7708 167.769L53.4624 168.172ZM53.4474 164.482L52.7627 164.896L52.7699 164.907L53.4474 164.482ZM52.4724 171.742V170.942C51.4472 170.942 50.6448 170.577 50.0011 169.837L49.3974 170.362L48.7937 170.886C49.75 171.986 50.9976 172.542 52.4724 172.542V171.742ZM49.3974 170.362L50.0043 169.84C49.3853 169.119 49.0124 167.991 49.0124 166.327H48.2124H47.4124C47.4124 168.202 47.8295 169.764 48.7905 170.883L49.3974 170.362ZM48.2124 166.327H49.0124C49.0124 164.662 49.39 163.551 50.0103 162.853L49.4124 162.322L48.8145 161.79C47.8348 162.892 47.4124 164.451 47.4124 166.327H48.2124ZM49.4124 162.322L50.0132 162.85C50.6546 162.12 51.462 161.757 52.5024 161.757V160.957V160.157C51.0228 160.157 49.7702 160.703 48.8116 161.793L49.4124 162.322ZM52.5024 160.957V161.757C53.5579 161.757 54.3559 162.119 54.9729 162.83L55.5774 162.307L56.182 161.783C55.2389 160.694 53.9869 160.157 52.5024 160.157V160.957ZM55.5774 162.307L54.9729 162.83C55.5755 163.526 55.9474 164.658 55.9474 166.372H56.7474H57.5474C57.5474 164.465 57.1393 162.887 56.182 161.783L55.5774 162.307ZM56.7474 166.372H55.9474C55.9474 168.082 55.567 169.203 54.9524 169.887L55.5474 170.422L56.1424 170.956C57.1278 169.86 57.5474 168.281 57.5474 166.372H56.7474ZM55.5474 170.422L54.9521 169.887C54.3247 170.586 53.522 170.942 52.4724 170.942V171.742V172.542C53.9428 172.542 55.1901 172.017 56.1427 170.956L55.5474 170.422ZM52.4724 163.837V163.037C51.7185 163.037 51.1727 163.496 50.8155 164.078L51.4974 164.497L52.1793 164.915C52.2726 164.763 52.3486 164.693 52.3921 164.664C52.4268 164.641 52.4477 164.637 52.4724 164.637V163.837ZM51.4974 164.497L50.8128 164.083C50.4451 164.691 50.3074 165.474 50.3074 166.342H51.1074H51.9074C51.9074 165.609 52.0298 165.162 52.182 164.91L51.4974 164.497ZM51.1074 166.342H50.3074C50.3074 167.205 50.439 167.984 50.7908 168.589L51.4824 168.187L52.174 167.784C52.0258 167.53 51.9074 167.078 51.9074 166.342H51.1074ZM51.4824 168.187L50.8022 168.608C51.1685 169.199 51.7277 169.617 52.4724 169.617V168.817V168.017C52.4171 168.017 52.3163 168.014 52.1626 167.765L51.4824 168.187ZM52.4724 168.817V169.617C53.2322 169.617 53.7967 169.188 54.154 168.574L53.4624 168.172L52.7708 167.769C52.6281 168.015 52.5326 168.017 52.4724 168.017V168.817ZM53.4624 168.172L54.147 168.585C54.5148 167.977 54.6524 167.194 54.6524 166.327H53.8524H53.0524C53.0524 167.059 52.9301 167.506 52.7778 167.758L53.4624 168.172ZM53.8524 166.327H54.6524C54.6524 165.455 54.5086 164.667 54.1249 164.056L53.4474 164.482L52.7699 164.907C52.9262 165.156 53.0524 165.598 53.0524 166.327H53.8524ZM53.4474 164.482L54.132 164.068C53.7748 163.477 53.2238 163.037 52.4724 163.037V163.837V164.637C52.501 164.637 52.6 164.626 52.7628 164.895L53.4474 164.482ZM58.9175 169.372L58.1684 169.091L58.1238 169.21L58.1183 169.336L58.9175 169.372ZM61.3775 169.447L62.1773 169.465L62.1775 169.456V169.447H61.3775ZM61.3475 170.722L62.0834 171.035L62.1436 170.894L62.1473 170.74L61.3475 170.722ZM60.4775 172.762L61.2075 173.089L61.2105 173.082L61.2134 173.075L60.4775 172.762ZM57.9875 172.867L57.3627 173.366L57.3683 173.373L57.9875 172.867ZM57.9425 172.597L57.2246 172.243L57.187 172.32L57.1664 172.403L57.9425 172.597ZM58.8575 170.737L59.5753 171.09L59.6493 170.939L59.6567 170.772L58.8575 170.737ZM58.9175 169.372L59.6665 169.652C59.5785 169.887 59.4055 169.974 59.3857 169.984C59.3539 169.999 59.3574 169.991 59.4292 169.978C59.5684 169.952 59.8136 169.932 60.1925 169.932V169.132V168.332C59.7813 168.332 59.4191 168.352 59.1332 168.405C58.9926 168.432 58.8292 168.474 58.6761 168.55C58.5351 168.619 58.2865 168.776 58.1684 169.091L58.9175 169.372ZM60.1925 169.132V169.932C60.5699 169.932 60.7816 169.958 60.8757 169.983C60.9258 169.997 60.8789 169.993 60.8046 169.934C60.7621 169.9 60.7028 169.842 60.6543 169.751C60.6036 169.657 60.5775 169.552 60.5775 169.447H61.3775H62.1775C62.1775 169.101 61.999 168.84 61.8022 168.683C61.6292 168.545 61.4342 168.476 61.2868 168.437C60.9859 168.357 60.6051 168.332 60.1925 168.332V169.132ZM61.3775 169.447L60.5777 169.428L60.5477 170.703L61.3475 170.722L62.1473 170.74L62.1773 169.465L61.3775 169.447ZM61.3475 170.722L60.6116 170.408L59.7416 172.448L60.4775 172.762L61.2134 173.075L62.0834 171.035L61.3475 170.722ZM60.4775 172.762L59.7475 172.434C59.7996 172.318 59.879 172.309 59.8066 172.335C59.7259 172.363 59.5576 172.397 59.2625 172.397V173.197V173.997C59.6474 173.997 60.0215 173.957 60.3459 173.841C60.6785 173.722 61.0254 173.495 61.2075 173.089L60.4775 172.762ZM59.2625 173.197V172.397C58.9636 172.397 58.764 172.371 58.6417 172.34C58.5098 172.305 58.5448 172.284 58.6066 172.36L57.9875 172.867L57.3683 173.373C57.6102 173.669 57.9477 173.813 58.2408 173.889C58.5435 173.967 58.8913 173.997 59.2625 173.997V173.197ZM57.9875 172.867L58.6122 172.367C58.6533 172.418 58.7275 172.539 58.7275 172.717H57.9275H57.1275C57.1275 172.994 57.2416 173.215 57.3628 173.366L57.9875 172.867ZM57.9275 172.717H58.7275C58.7275 172.744 58.724 172.769 58.7186 172.791L57.9425 172.597L57.1664 172.403C57.141 172.504 57.1275 172.609 57.1275 172.717H57.9275ZM57.9425 172.597L58.6603 172.95L59.5753 171.09L58.8575 170.737L58.1396 170.383L57.2246 172.243L57.9425 172.597ZM58.8575 170.737L59.6567 170.772L59.7167 169.407L58.9175 169.372L58.1183 169.336L58.0583 170.701L58.8575 170.737ZM63.2478 170.362L62.6408 170.883L62.6441 170.886L63.2478 170.362ZM63.2628 162.322L63.8607 162.853L63.8636 162.85L63.2628 162.322ZM69.4278 162.307L68.8232 162.83L68.8232 162.83L69.4278 162.307ZM69.3978 170.422L68.8028 169.887L68.8025 169.887L69.3978 170.422ZM65.3478 164.497L64.6659 164.078L64.6632 164.083L65.3478 164.497ZM65.3328 168.187L64.6412 168.589L64.6468 168.598L64.6526 168.608L65.3328 168.187ZM67.3128 168.172L66.6281 167.758L66.6212 167.769L67.3128 168.172ZM67.2978 164.482L66.6131 164.896L66.6203 164.907L67.2978 164.482ZM66.3228 171.742V170.942C65.2976 170.942 64.4952 170.577 63.8515 169.837L63.2478 170.362L62.6441 170.886C63.6004 171.986 64.8479 172.542 66.3228 172.542V171.742ZM63.2478 170.362L63.8547 169.84C63.2357 169.119 62.8628 167.991 62.8628 166.327H62.0628H61.2628C61.2628 168.202 61.6799 169.764 62.6409 170.883L63.2478 170.362ZM62.0628 166.327H62.8628C62.8628 164.662 63.2404 163.551 63.8607 162.853L63.2628 162.322L62.6649 161.79C61.6852 162.892 61.2628 164.451 61.2628 166.327H62.0628ZM63.2628 162.322L63.8636 162.85C64.505 162.12 65.3124 161.757 66.3528 161.757V160.957V160.157C64.8732 160.157 63.6206 160.703 62.662 161.793L63.2628 162.322ZM66.3528 160.957V161.757C67.4082 161.757 68.2063 162.119 68.8232 162.83L69.4278 162.307L70.0323 161.783C69.0893 160.694 67.8373 160.157 66.3528 160.157V160.957ZM69.4278 162.307L68.8232 162.83C69.4259 163.526 69.7978 164.658 69.7978 166.372H70.5978H71.3978C71.3978 164.465 70.9897 162.887 70.0323 161.783L69.4278 162.307ZM70.5978 166.372H69.7978C69.7978 168.082 69.4173 169.203 68.8028 169.887L69.3978 170.422L69.9928 170.956C70.9782 169.86 71.3978 168.281 71.3978 166.372H70.5978ZM69.3978 170.422L68.8025 169.887C68.1751 170.586 67.3724 170.942 66.3228 170.942V171.742V172.542C67.7932 172.542 69.0405 172.017 69.9931 170.956L69.3978 170.422ZM66.3228 163.837V163.037C65.5689 163.037 65.0231 163.496 64.6659 164.078L65.3478 164.497L66.0297 164.915C66.123 164.763 66.199 164.693 66.2425 164.664C66.2772 164.641 66.2981 164.637 66.3228 164.637V163.837ZM65.3478 164.497L64.6632 164.083C64.2954 164.691 64.1578 165.474 64.1578 166.342H64.9578H65.7578C65.7578 165.609 65.8801 165.162 66.0324 164.91L65.3478 164.497ZM64.9578 166.342H64.1578C64.1578 167.205 64.2894 167.984 64.6412 168.589L65.3328 168.187L66.0244 167.784C65.8762 167.53 65.7578 167.078 65.7578 166.342H64.9578ZM65.3328 168.187L64.6526 168.608C65.0189 169.199 65.5781 169.617 66.3228 169.617V168.817V168.017C66.2675 168.017 66.1667 168.014 66.013 167.765L65.3328 168.187ZM66.3228 168.817V169.617C67.0825 169.617 67.647 169.188 68.0044 168.574L67.3128 168.172L66.6212 167.769C66.4785 168.015 66.383 168.017 66.3228 168.017V168.817ZM67.3128 168.172L67.9974 168.585C68.3651 167.977 68.5028 167.194 68.5028 166.327H67.7028H66.9028C66.9028 167.059 66.7804 167.506 66.6282 167.758L67.3128 168.172ZM67.7028 166.327H68.5028C68.5028 165.455 68.359 164.667 67.9753 164.056L67.2978 164.482L66.6203 164.907C66.7766 165.156 66.9028 165.598 66.9028 166.327H67.7028ZM67.2978 164.482L67.9824 164.068C67.6252 163.477 67.0742 163.037 66.3228 163.037V163.837V164.637C66.3514 164.637 66.4504 164.626 66.6132 164.895L67.2978 164.482ZM72.6779 170.362L72.0709 170.883L72.0742 170.886L72.6779 170.362ZM72.6929 162.322L73.2908 162.853L73.2937 162.85L72.6929 162.322ZM78.8579 162.307L78.2533 162.83L78.2533 162.83L78.8579 162.307ZM78.8279 170.422L78.2329 169.887L78.2326 169.887L78.8279 170.422ZM74.7779 164.497L74.096 164.078L74.0933 164.083L74.7779 164.497ZM74.7629 168.187L74.0713 168.589L74.0768 168.598L74.0827 168.608L74.7629 168.187ZM76.7429 168.172L76.0582 167.758L76.0513 167.769L76.7429 168.172ZM76.7279 164.482L76.0432 164.896L76.0504 164.907L76.7279 164.482ZM75.7529 171.742V170.942C74.7277 170.942 73.9253 170.577 73.2816 169.837L72.6779 170.362L72.0742 170.886C73.0305 171.986 74.278 172.542 75.7529 172.542V171.742ZM72.6779 170.362L73.2848 169.84C72.6658 169.119 72.2929 167.991 72.2929 166.327H71.4929H70.6929C70.6929 168.202 71.11 169.764 72.0709 170.883L72.6779 170.362ZM71.4929 166.327H72.2929C72.2929 164.662 72.6705 163.551 73.2908 162.853L72.6929 162.322L72.0949 161.79C71.1153 162.892 70.6929 164.451 70.6929 166.327H71.4929ZM72.6929 162.322L73.2937 162.85C73.935 162.12 74.7425 161.757 75.7829 161.757V160.957V160.157C74.3033 160.157 73.0507 160.703 72.092 161.793L72.6929 162.322ZM75.7829 160.957V161.757C76.8383 161.757 77.6364 162.119 78.2533 162.83L78.8579 162.307L79.4624 161.783C78.5194 160.694 77.2674 160.157 75.7829 160.157V160.957ZM78.8579 162.307L78.2533 162.83C78.8559 163.526 79.2279 164.658 79.2279 166.372H80.0279H80.8279C80.8279 164.465 80.4198 162.887 79.4624 161.783L78.8579 162.307ZM80.0279 166.372H79.2279C79.2279 168.082 78.8474 169.203 78.2329 169.887L78.8279 170.422L79.4228 170.956C80.4083 169.86 80.8279 168.281 80.8279 166.372H80.0279ZM78.8279 170.422L78.2326 169.887C77.6052 170.586 76.8025 170.942 75.7529 170.942V171.742V172.542C77.2232 172.542 78.4706 172.017 79.4232 170.956L78.8279 170.422ZM75.7529 163.837V163.037C74.999 163.037 74.4532 163.496 74.096 164.078L74.7779 164.497L75.4597 164.915C75.5531 164.763 75.6291 164.693 75.6726 164.664C75.7073 164.641 75.7282 164.637 75.7529 164.637V163.837ZM74.7779 164.497L74.0933 164.083C73.7255 164.691 73.5879 165.474 73.5879 166.342H74.3879H75.1879C75.1879 165.609 75.3102 165.162 75.4625 164.91L74.7779 164.497ZM74.3879 166.342H73.5879C73.5879 167.205 73.7195 167.984 74.0713 168.589L74.7629 168.187L75.4545 167.784C75.3063 167.53 75.1879 167.078 75.1879 166.342H74.3879ZM74.7629 168.187L74.0827 168.608C74.4489 169.199 75.0082 169.617 75.7529 169.617V168.817V168.017C75.6975 168.017 75.5968 168.014 75.4431 167.765L74.7629 168.187ZM75.7529 168.817V169.617C76.5126 169.617 77.0771 169.188 77.4345 168.574L76.7429 168.172L76.0513 167.769C75.9086 168.015 75.8131 168.017 75.7529 168.017V168.817ZM76.7429 168.172L77.4275 168.585C77.7952 167.977 77.9329 167.194 77.9329 166.327H77.1329H76.3329C76.3329 167.059 76.2105 167.506 76.0583 167.758L76.7429 168.172ZM77.1329 166.327H77.9329C77.9329 165.455 77.7891 164.667 77.4054 164.056L76.7279 164.482L76.0504 164.907C76.2067 165.156 76.3329 165.598 76.3329 166.327H77.1329ZM76.7279 164.482L77.4125 164.068C77.0553 163.477 76.5043 163.037 75.7529 163.037V163.837V164.637C75.7815 164.637 75.8804 164.626 76.0433 164.895L76.7279 164.482ZM82.1079 170.362L81.501 170.883L81.5043 170.886L82.1079 170.362ZM82.1229 162.322L82.7209 162.853L82.7238 162.85L82.1229 162.322ZM88.2879 162.307L87.6834 162.83L87.6834 162.83L88.2879 162.307ZM88.2579 170.422L87.663 169.887L87.6626 169.887L88.2579 170.422ZM84.2079 164.497L83.5261 164.078L83.5234 164.083L84.2079 164.497ZM84.1929 168.187L83.5013 168.589L83.5069 168.598L83.5127 168.608L84.1929 168.187ZM86.1729 168.172L85.4883 167.758L85.4813 167.769L86.1729 168.172ZM86.1579 164.482L85.4733 164.896L85.4804 164.907L86.1579 164.482ZM85.1829 171.742V170.942C84.1578 170.942 83.3553 170.577 82.7116 169.837L82.1079 170.362L81.5043 170.886C82.4606 171.986 83.7081 172.542 85.1829 172.542V171.742ZM82.1079 170.362L82.7149 169.84C82.0959 169.119 81.7229 167.991 81.7229 166.327H80.9229H80.1229C80.1229 168.202 80.54 169.764 81.501 170.883L82.1079 170.362ZM80.9229 166.327H81.7229C81.7229 164.662 82.1005 163.551 82.7209 162.853L82.1229 162.322L81.525 161.79C80.5454 162.892 80.1229 164.451 80.1229 166.327H80.9229ZM82.1229 162.322L82.7238 162.85C83.3651 162.12 84.1725 161.757 85.2129 161.757V160.957V160.157C83.7334 160.157 82.4808 160.703 81.5221 161.793L82.1229 162.322ZM85.2129 160.957V161.757C86.2684 161.757 87.0664 162.119 87.6834 162.83L88.2879 162.307L88.8925 161.783C87.9495 160.694 86.6975 160.157 85.2129 160.157V160.957ZM88.2879 162.307L87.6834 162.83C88.286 163.526 88.6579 164.658 88.6579 166.372H89.4579H90.2579C90.2579 164.465 89.8499 162.887 88.8925 161.783L88.2879 162.307ZM89.4579 166.372H88.6579C88.6579 168.082 88.2775 169.203 87.663 169.887L88.2579 170.422L88.8529 170.956C89.8384 169.86 90.2579 168.281 90.2579 166.372H89.4579ZM88.2579 170.422L87.6626 169.887C87.0352 170.586 86.2326 170.942 85.1829 170.942V171.742V172.542C86.6533 172.542 87.9007 172.017 88.8533 170.956L88.2579 170.422ZM85.1829 163.837V163.037C84.429 163.037 83.8833 163.496 83.5261 164.078L84.2079 164.497L84.8898 164.915C84.9832 164.763 85.0592 164.693 85.1027 164.664C85.1374 164.641 85.1583 164.637 85.1829 164.637V163.837ZM84.2079 164.497L83.5234 164.083C83.1556 164.691 83.0179 165.474 83.0179 166.342H83.8179H84.6179C84.6179 165.609 84.7403 165.162 84.8925 164.91L84.2079 164.497ZM83.8179 166.342H83.0179C83.0179 167.205 83.1496 167.984 83.5013 168.589L84.1929 168.187L84.8846 167.784C84.7363 167.53 84.6179 167.078 84.6179 166.342H83.8179ZM84.1929 168.187L83.5127 168.608C83.879 169.199 84.4383 169.617 85.1829 169.617V168.817V168.017C85.1276 168.017 85.0269 168.014 84.8732 167.765L84.1929 168.187ZM85.1829 168.817V169.617C85.9427 169.617 86.5072 169.188 86.8646 168.574L86.1729 168.172L85.4813 167.769C85.3387 168.015 85.2432 168.017 85.1829 168.017V168.817ZM86.1729 168.172L86.8575 168.585C87.2253 167.977 87.3629 167.194 87.3629 166.327H86.5629H85.7629C85.7629 167.059 85.6406 167.506 85.4884 167.758L86.1729 168.172ZM86.5629 166.327H87.3629C87.3629 165.455 87.2192 164.667 86.8355 164.056L86.1579 164.482L85.4804 164.907C85.6367 165.156 85.7629 165.598 85.7629 166.327H86.5629ZM86.1579 164.482L86.8425 164.068C86.4854 163.477 85.9343 163.037 85.1829 163.037V163.837V164.637C85.2116 164.637 85.3105 164.626 85.4734 164.895L86.1579 164.482Z" fill="black" mask="url(#path-46-outside-3_2229_1429)"/>
</g>
<path d="M44.0417 143.137C45.4299 142.876 46.9382 143.557 47.4905 144.796L51.0262 152.726L51.0773 152.852C51.5391 154.063 50.8999 155.297 49.655 155.782L49.3889 155.87L45.3837 157.011C45.3239 157.028 45.2566 157.017 45.2024 156.979C45.1483 156.941 45.1136 156.881 45.1087 156.819C45.1064 156.789 45.1022 156.757 45.096 156.726C45.0023 156.261 44.4662 155.886 43.8487 155.95C43.2314 156.015 42.8656 156.484 42.9593 156.949C42.9894 157.098 43.063 157.234 43.1684 157.351C43.215 157.403 43.2341 157.472 43.2193 157.535C43.2044 157.598 43.1568 157.646 43.0935 157.664L35.5523 159.812C34.1851 160.202 32.6256 159.621 31.9505 158.459L31.8276 158.218L28.2919 150.288C27.698 148.955 28.4663 147.56 29.9292 147.143L37.1709 145.08L37.2101 145.073C37.3022 145.067 37.3957 145.123 37.432 145.214C37.5908 145.611 38.0848 145.91 38.6376 145.852C39.255 145.788 39.6207 145.318 39.527 144.853C39.5133 144.785 39.4911 144.72 39.461 144.659C39.4356 144.607 39.4329 144.549 39.4536 144.499C39.4743 144.449 39.5163 144.413 39.5692 144.398L43.766 143.202L44.0417 143.137Z" fill="white" stroke="black" stroke-width="0.4" stroke-linejoin="round"/>
<path fill-rule="evenodd" clip-rule="evenodd" d="M47.0562 144.934C46.5733 143.85 45.1755 143.258 43.9346 143.612L39.9745 144.74C39.9803 144.762 39.9854 144.784 39.9899 144.806C40.1364 145.533 39.5663 146.19 38.7237 146.278C38.0602 146.347 37.4203 146.044 37.1061 145.557L30.0995 147.553C28.8594 147.906 28.2456 149.07 28.7282 150.152L32.2627 158.082C32.7456 159.165 34.1434 159.757 35.3843 159.404L42.623 157.342C42.5645 157.234 42.5216 157.119 42.4972 156.997C42.3507 156.271 42.9208 155.614 43.7634 155.526C44.5427 155.445 45.2906 155.878 45.5144 156.518L49.2194 155.463C50.4595 155.11 51.0733 153.946 50.5908 152.863L47.0562 144.934ZM43.7425 143.175C45.2582 142.744 46.9647 143.466 47.5546 144.79L51.0891 152.719C51.6793 154.043 50.9281 155.467 49.4116 155.899L45.407 157.04C45.3277 157.063 45.2386 157.051 45.1669 157.008C45.0953 156.966 45.0497 156.898 45.0441 156.825C45.0418 156.795 45.0376 156.764 45.0313 156.733C44.9365 156.263 44.4122 155.924 43.8552 155.982C43.2982 156.04 42.9293 156.472 43.0241 156.942C43.0541 157.091 43.1265 157.226 43.229 157.34C43.2827 157.399 43.3013 157.475 43.2792 157.545C43.257 157.615 43.1967 157.67 43.117 157.692L35.5765 159.84C34.0607 160.272 32.3542 159.549 31.7643 158.226L28.2298 150.296C27.6397 148.972 28.3908 147.548 29.9074 147.116L37.1482 145.054C37.2157 145.035 37.2909 145.04 37.3566 145.069C37.4223 145.098 37.4729 145.148 37.4967 145.208C37.6555 145.605 38.131 145.874 38.6319 145.822C39.1889 145.764 39.5578 145.332 39.463 144.861C39.4494 144.794 39.427 144.729 39.3971 144.668C39.3685 144.61 39.3682 144.545 39.3965 144.489C39.4247 144.433 39.479 144.39 39.5468 144.371L43.7425 143.175Z" fill="black"/>
<path d="M40.4436 155.599C39.7589 155.795 39.3847 155.826 39.321 155.692L36.2249 149.159C36.1166 148.931 36.1791 148.783 36.4124 148.717L38.3988 148.148C39.5123 147.829 40.4108 147.805 41.0942 148.075C41.7851 148.343 42.3153 148.866 42.6848 149.646C42.9906 150.291 43.0376 150.949 42.8259 151.62C42.7201 151.956 42.4797 152.269 42.1047 152.56C41.7297 152.85 41.2412 153.081 40.6393 153.254L41.4945 155.058C41.5327 155.139 41.4168 155.237 41.1468 155.352C40.8812 155.459 40.6468 155.541 40.4436 155.599ZM39.0721 149.947L39.827 151.54L39.9737 151.498C40.2371 151.423 40.424 151.285 40.5345 151.086C40.645 150.886 40.6366 150.652 40.5092 150.383C40.3817 150.114 40.227 149.941 40.045 149.863C39.8704 149.784 39.6251 149.789 39.3091 149.879L39.0721 149.947Z" fill="black"/>
<defs>
<filter id="filter0_d_2229_1429" x="0.165625" y="0.808838" width="140.993" height="141.336" filterUnits="userSpaceOnUse" color-interpolation-filters="sRGB">
<feFlood flood-opacity="0" result="BackgroundImageFix"/>
<feColorMatrix in="SourceAlpha" type="matrix" values="0 0 0 0 0 0 0 0 0 0 0 0 0 0 0 0 0 0 127 0" result="hardAlpha"/>
<feOffset dy="3"/>
<feGaussianBlur stdDeviation="0.3"/>
<feComposite in2="hardAlpha" operator="out"/>
<feColorMatrix type="matrix" values="0 0 0 0 0 0 0 0 0 0 0 0 0 0 0 0 0 0 0.49 0"/>
<feBlend mode="normal" in2="BackgroundImageFix" result="effect1_dropShadow_2229_1429"/>
<feBlend mode="normal" in="SourceGraphic" in2="effect1_dropShadow_2229_1429" result="shape"/>
</filter>
<filter id="filter1_di_2229_1429" x="31.0034" y="29.2285" width="79.635" height="81.135" filterUnits="userSpaceOnUse" color-interpolation-filters="sRGB">
<feFlood flood-opacity="0" result="BackgroundImageFix"/>
<feColorMatrix in="SourceAlpha" type="matrix" values="0 0 0 0 0 0 0 0 0 0 0 0 0 0 0 0 0 0 127 0" result="hardAlpha"/>
<feOffset dy="1.5"/>
<feComposite in2="hardAlpha" operator="out"/>
<feColorMatrix type="matrix" values="0 0 0 0 0.164706 0 0 0 0 1 0 0 0 0 0.141176 0 0 0 1 0"/>
<feBlend mode="normal" in2="BackgroundImageFix" result="effect1_dropShadow_2229_1429"/>
<feBlend mode="normal" in="SourceGraphic" in2="effect1_dropShadow_2229_1429" result="shape"/>
<feColorMatrix in="SourceAlpha" type="matrix" values="0 0 0 0 0 0 0 0 0 0 0 0 0 0 0 0 0 0 127 0" result="hardAlpha"/>
<feOffset dy="1"/>
<feGaussianBlur stdDeviation="0.4"/>
<feComposite in2="hardAlpha" operator="arithmetic" k2="-1" k3="1"/>
<feColorMatrix type="matrix" values="0 0 0 0 0 0 0 0 0 0 0 0 0 0 0 0 0 0 0.7 0"/>
<feBlend mode="normal" in2="shape" result="effect2_innerShadow_2229_1429"/>
</filter>
<filter id="filter2_d_2229_1429" x="102.712" y="90.2844" width="47.0554" height="48.0552" filterUnits="userSpaceOnUse" color-interpolation-filters="sRGB">
<feFlood flood-opacity="0" result="BackgroundImageFix"/>
<feColorMatrix in="SourceAlpha" type="matrix" values="0 0 0 0 0 0 0 0 0 0 0 0 0 0 0 0 0 0 127 0" result="hardAlpha"/>
<feOffset dy="1"/>
<feComposite in2="hardAlpha" operator="out"/>
<feColorMatrix type="matrix" values="0 0 0 0 0 0 0 0 0 0 0 0 0 0 0 0 0 0 0.5 0"/>
<feBlend mode="normal" in2="BackgroundImageFix" result="effect1_dropShadow_2229_1429"/>
<feBlend mode="normal" in="SourceGraphic" in2="effect1_dropShadow_2229_1429" result="shape"/>
</filter>
<filter id="filter3_d_2229_1429" x="102.712" y="90.2844" width="47.0554" height="48.0552" filterUnits="userSpaceOnUse" color-interpolation-filters="sRGB">
<feFlood flood-opacity="0" result="BackgroundImageFix"/>
<feColorMatrix in="SourceAlpha" type="matrix" values="0 0 0 0 0 0 0 0 0 0 0 0 0 0 0 0 0 0 127 0" result="hardAlpha"/>
<feOffset dy="1"/>
<feComposite in2="hardAlpha" operator="out"/>
<feColorMatrix type="matrix" values="0 0 0 0 0 0 0 0 0 0 0 0 0 0 0 0 0 0 0.5 0"/>
<feBlend mode="normal" in2="BackgroundImageFix" result="effect1_dropShadow_2229_1429"/>
<feBlend mode="normal" in="SourceGraphic" in2="effect1_dropShadow_2229_1429" result="shape"/>
</filter>
<filter id="filter4_d_2229_1429" x="55.707" y="111.731" width="30.5525" height="14.823" filterUnits="userSpaceOnUse" color-interpolation-filters="sRGB">
<feFlood flood-opacity="0" result="BackgroundImageFix"/>
<feColorMatrix in="SourceAlpha" type="matrix" values="0 0 0 0 0 0 0 0 0 0 0 0 0 0 0 0 0 0 127 0" result="hardAlpha"/>
<feOffset dy="1"/>
<feComposite in2="hardAlpha" operator="out"/>
<feColorMatrix type="matrix" values="0 0 0 0 0 0 0 0 0 0 0 0 0 0 0 0 0 0 1 0"/>
<feBlend mode="normal" in2="BackgroundImageFix" result="effect1_dropShadow_2229_1429"/>
<feBlend mode="normal" in="SourceGraphic" in2="effect1_dropShadow_2229_1429" result="shape"/>
</filter>
<filter id="filter5_d_2229_1429" x="39.4126" y="160.142" width="50.8455" height="14.855" filterUnits="userSpaceOnUse" color-interpolation-filters="sRGB">
<feFlood flood-opacity="0" result="BackgroundImageFix"/>
<feColorMatrix in="SourceAlpha" type="matrix" values="0 0 0 0 0 0 0 0 0 0 0 0 0 0 0 0 0 0 127 0" result="hardAlpha"/>
<feOffset dy="1"/>
<feComposite in2="hardAlpha" operator="out"/>
<feColorMatrix type="matrix" values="0 0 0 0 0 0 0 0 0 0 0 0 0 0 0 0 0 0 1 0"/>
<feBlend mode="normal" in2="BackgroundImageFix" result="effect1_dropShadow_2229_1429"/>
<feBlend mode="normal" in="SourceGraphic" in2="effect1_dropShadow_2229_1429" result="shape"/>
</filter>
<linearGradient id="paint0_linear_2229_1429" x1="51.2393" y1="82.9326" x2="60.2345" y2="91.6477" gradientUnits="userSpaceOnUse">
<stop stop-color="#D37132"/>
<stop offset="0.37324" stop-color="#E5A13B"/>
<stop offset="0.54395" stop-color="#CB7E2D"/>
<stop offset="0.73367" stop-color="#B25D20"/>
<stop offset="0.89255" stop-color="#A34918"/>
<stop offset="1" stop-color="#9E4215"/>
</linearGradient>
<linearGradient id="paint1_linear_2229_1429" x1="52.1215" y1="82.425" x2="53.0401" y2="83.4857" gradientUnits="userSpaceOnUse">
<stop stop-color="#6E5750"/>
<stop offset="0.63971" stop-color="#CDC5C3"/>
<stop offset="1" stop-color="white"/>
</linearGradient>
<linearGradient id="paint2_linear_2229_1429" x1="58.2516" y1="89.5238" x2="60.2982" y2="91.1295" gradientUnits="userSpaceOnUse">
<stop stop-color="white"/>
<stop offset="0.11991" stop-color="#DCD6D4"/>
<stop offset="0.27156" stop-color="#B5A9A5"/>
<stop offset="0.41631" stop-color="#968580"/>
<stop offset="0.55028" stop-color="#806C66"/>
<stop offset="0.66954" stop-color="#735C56"/>
<stop offset="0.76191" stop-color="#6E5750"/>
<stop offset="0.8112" stop-color="#715A53"/>
<stop offset="0.85295" stop-color="#79645E"/>
<stop offset="0.89196" stop-color="#88756F"/>
<stop offset="0.92931" stop-color="#9C8D88"/>
<stop offset="0.96513" stop-color="#B6ABA8"/>
<stop offset="1" stop-color="#D6D0CE"/>
</linearGradient>
<radialGradient id="paint3_radial_2229_1429" cx="0" cy="0" r="1" gradientUnits="userSpaceOnUse" gradientTransform="translate(56.7693 83.5073) rotate(45.9065) scale(8.54497 8.5407)">
<stop stop-color="#CA844B"/>
<stop offset="1" stop-color="#010404"/>
</radialGradient>
<radialGradient id="paint4_radial_2229_1429" cx="0" cy="0" r="1" gradientUnits="userSpaceOnUse" gradientTransform="translate(57.113 82.5949) rotate(45.9066) scale(8.40006 8.39585)">
<stop stop-color="#FFD599"/>
<stop offset="0.74286" stop-color="#542300"/>
</radialGradient>
<linearGradient id="paint5_linear_2229_1429" x1="60.6673" y1="74.6899" x2="68.1746" y2="81.9634" gradientUnits="userSpaceOnUse">
<stop stop-color="#6B3F24"/>
<stop offset="0.28827" stop-color="#A36544"/>
<stop offset="0.39713" stop-color="#91583A"/>
<stop offset="0.60766" stop-color="#633721"/>
<stop offset="0.67759" stop-color="#5B3320"/>
<stop offset="0.78563" stop-color="#45291E"/>
<stop offset="0.78708" stop-color="#45291E"/>
<stop offset="0.93945" stop-color="#412519"/>
<stop offset="1" stop-color="#3D2215"/>
</linearGradient>
<linearGradient id="paint6_linear_2229_1429" x1="61.0338" y1="74.3119" x2="62.0519" y2="75.2983" gradientUnits="userSpaceOnUse">
<stop stop-color="#846853"/>
<stop offset="0.54622" stop-color="#D4CAC3"/>
<stop offset="0.86191" stop-color="white"/>
</linearGradient>
<linearGradient id="paint7_linear_2229_1429" x1="66.5448" y1="80.349" x2="68.1925" y2="81.9453" gradientUnits="userSpaceOnUse">
<stop offset="0.13809" stop-color="white"/>
<stop offset="0.45378" stop-color="#D4CAC3"/>
<stop offset="1" stop-color="#846853"/>
</linearGradient>
<radialGradient id="paint8_radial_2229_1429" cx="0" cy="0" r="1" gradientUnits="userSpaceOnUse" gradientTransform="translate(77.6643 71.5053) rotate(45.9065) scale(13.1589 13.1523)">
<stop offset="0.70714" stop-color="#9C8371"/>
<stop offset="0.74512" stop-color="#A28A79"/>
<stop offset="0.80385" stop-color="#B19D8F"/>
<stop offset="0.87602" stop-color="#C9BCB2"/>
<stop offset="0.95809" stop-color="#ECE7E3"/>
<stop offset="1" stop-color="white"/>
</radialGradient>
<linearGradient id="paint9_linear_2229_1429" x1="66.6855" y1="67.734" x2="74.8387" y2="75.6332" gradientUnits="userSpaceOnUse">
<stop stop-color="#49526B"/>
<stop offset="0.28827" stop-color="#7683A2"/>
<stop offset="0.39187" stop-color="#697490"/>
<stop offset="0.59948" stop-color="#484E60"/>
<stop offset="0.70743" stop-color="#353845"/>
<stop offset="0.84988" stop-color="#383D4A"/>
<stop offset="1" stop-color="#404957"/>
</linearGradient>
<radialGradient id="paint10_radial_2229_1429" cx="0" cy="0" r="1" gradientUnits="userSpaceOnUse" gradientTransform="translate(80.3315 68.4955) rotate(45.9065) scale(11.8143 11.8084)">
<stop offset="0.70714" stop-color="#78899B"/>
<stop offset="0.7465" stop-color="#8090A1"/>
<stop offset="0.80736" stop-color="#96A3B1"/>
<stop offset="0.88213" stop-color="#B9C2CB"/>
<stop offset="0.96717" stop-color="#EAEDF0"/>
<stop offset="1" stop-color="white"/>
</radialGradient>
<linearGradient id="paint11_linear_2229_1429" x1="67.0738" y1="67.3332" x2="68.0702" y2="68.2986" gradientUnits="userSpaceOnUse">
<stop stop-color="#78899B"/>
<stop offset="0.53884" stop-color="#C3CBD3"/>
<stop offset="1" stop-color="white"/>
</linearGradient>
<radialGradient id="paint12_radial_2229_1429" cx="0" cy="0" r="1" gradientUnits="userSpaceOnUse" gradientTransform="translate(78.3197 51.5412) rotate(45.9065) scale(15.7631 15.7552)">
<stop stop-color="#C3CFEB"/>
<stop offset="1" stop-color="#4B5C7D"/>
</radialGradient>
<radialGradient id="paint13_radial_2229_1429" cx="0" cy="0" r="1" gradientUnits="userSpaceOnUse" gradientTransform="translate(69.0512 53.5572) rotate(45.9066) scale(33.6893 33.6724)">
<stop stop-color="#A7B4D1"/>
<stop offset="1" stop-color="#4B5C7D"/>
</radialGradient>
<radialGradient id="paint14_radial_2229_1429" cx="0" cy="0" r="1" gradientUnits="userSpaceOnUse" gradientTransform="translate(86.2609 44.0283) rotate(45.9066) scale(39.128 39.1084)">
<stop stop-color="#D4E2FF"/>
<stop offset="1" stop-color="#455473"/>
</radialGradient>
<radialGradient id="paint15_radial_2229_1429" cx="0" cy="0" r="1" gradientUnits="userSpaceOnUse" gradientTransform="translate(77.5369 39.5383) rotate(45.9066) scale(43.1016 43.0801)">
<stop stop-color="#7284A3"/>
<stop offset="1" stop-color="#313E57"/>
</radialGradient>
<radialGradient id="paint16_radial_2229_1429" cx="0" cy="0" r="1" gradientUnits="userSpaceOnUse" gradientTransform="translate(90.051 53.9452) rotate(45.9065) scale(7.17987 7.17628)">
<stop offset="0.70714" stop-color="#78899B"/>
<stop offset="0.7465" stop-color="#8090A1"/>
<stop offset="0.80736" stop-color="#96A3B1"/>
<stop offset="0.88213" stop-color="#B9C2CB"/>
<stop offset="0.96717" stop-color="#EAEDF0"/>
<stop offset="1" stop-color="white"/>
</radialGradient>
<linearGradient id="paint17_linear_2229_1429" x1="81.9089" y1="52.5836" x2="89.7651" y2="60.1951" gradientUnits="userSpaceOnUse">
<stop stop-color="#55657E"/>
<stop offset="0.28827" stop-color="#AEC6E8"/>
<stop offset="0.39187" stop-color="#A0B5D6"/>
<stop offset="0.59948" stop-color="#7D8BA6"/>
<stop offset="0.70743" stop-color="#69728B"/>
<stop offset="0.80607" stop-color="#646E86"/>
<stop offset="0.93093" stop-color="#556376"/>
<stop offset="1" stop-color="#4A5A6A"/>
</linearGradient>
<linearGradient id="paint18_linear_2229_1429" x1="82.3391" y1="52.1394" x2="83.2588" y2="53.0305" gradientUnits="userSpaceOnUse">
<stop stop-color="#78899B"/>
<stop offset="0.53884" stop-color="#C3CBD3"/>
<stop offset="1" stop-color="white"/>
</linearGradient>
<linearGradient id="paint19_linear_2229_1429" x1="88.1057" y1="58.658" x2="89.73" y2="60.2317" gradientUnits="userSpaceOnUse">
<stop stop-color="white"/>
<stop offset="0.46116" stop-color="#C3CBD3"/>
<stop offset="1" stop-color="#78899B"/>
</linearGradient>
<radialGradient id="paint20_radial_2229_1429" cx="0" cy="0" r="1" gradientUnits="userSpaceOnUse" gradientTransform="translate(84.0229 55.1179) rotate(45.9066) scale(6.94558 6.94211)">
<stop stop-color="#DCE9F2"/>
<stop offset="0.13791" stop-color="#BBC6CD"/>
<stop offset="0.56634" stop-color="#575C60"/>
<stop offset="0.86244" stop-color="#181A1B"/>
<stop offset="1"/>
</radialGradient>
<radialGradient id="paint21_radial_2229_1429" cx="0" cy="0" r="1" gradientUnits="userSpaceOnUse" gradientTransform="translate(83.3832 54.382) rotate(45.9066) scale(10.2963 10.2911)">
<stop stop-color="#D4E2FF"/>
<stop offset="1" stop-color="#4B5C7D"/>
</radialGradient>
<radialGradient id="paint22_radial_2229_1429" cx="0" cy="0" r="1" gradientUnits="userSpaceOnUse" gradientTransform="translate(82.609 67.4378) rotate(45.9065) scale(14.8029 14.7955)">
<stop stop-color="#78899B"/>
<stop offset="0.35705" stop-color="#4A545F"/>
<stop offset="0.79476" stop-color="#15181B"/>
<stop offset="1"/>
</radialGradient>
<radialGradient id="paint23_radial_2229_1429" cx="0" cy="0" r="1" gradientUnits="userSpaceOnUse" gradientTransform="translate(79.0496 53.2328) rotate(45.9065) scale(12.2347 12.2286)">
<stop stop-color="#78899B"/>
<stop offset="0.35705" stop-color="#4A545F"/>
<stop offset="0.79476" stop-color="#15181B"/>
<stop offset="1"/>
</radialGradient>
</defs>
</svg>
