<svg width="150" height="178" viewBox="0 0 150 178" fill="none" xmlns="http://www.w3.org/2000/svg">
<g filter="url(#filter0_d_2229_1500)">
<mask id="path-1-outside-1_2229_1500" maskUnits="userSpaceOnUse" x="-0.0344238" y="0.00878906" width="141" height="139" fill="black">
<rect fill="white" x="-0.0344238" y="0.00878906" width="141" height="139"/>
<path fill-rule="evenodd" clip-rule="evenodd" d="M53.1935 14.8296C55.5978 7.38981 62.5812 2.00879 70.8213 2.00879C78.9846 2.00879 85.9144 7.2898 88.3807 14.6218C106.563 20.2997 120.891 34.7073 126.458 52.9381C133.939 55.3181 139.359 62.3219 139.359 70.5915C139.359 79.0519 133.686 86.1874 125.937 88.4023C120.056 105.798 106.128 119.485 88.5826 125.035C86.0293 132.209 79.1785 137.345 71.1281 137.345C63.0818 137.345 56.2338 132.214 53.6775 125.046C36.2017 119.53 22.3097 105.942 16.3754 88.6558C8.12509 86.7856 1.96558 79.4082 1.96558 70.5921C1.96558 61.9622 7.86762 54.7108 15.8554 52.6541C21.4164 34.7757 35.4151 20.6149 53.1935 14.8296Z"/>
</mask>
<path fill-rule="evenodd" clip-rule="evenodd" d="M53.1935 14.8296C55.5978 7.38981 62.5812 2.00879 70.8213 2.00879C78.9846 2.00879 85.9144 7.2898 88.3807 14.6218C106.563 20.2997 120.891 34.7073 126.458 52.9381C133.939 55.3181 139.359 62.3219 139.359 70.5915C139.359 79.0519 133.686 86.1874 125.937 88.4023C120.056 105.798 106.128 119.485 88.5826 125.035C86.0293 132.209 79.1785 137.345 71.1281 137.345C63.0818 137.345 56.2338 132.214 53.6775 125.046C36.2017 119.53 22.3097 105.942 16.3754 88.6558C8.12509 86.7856 1.96558 79.4082 1.96558 70.5921C1.96558 61.9622 7.86762 54.7108 15.8554 52.6541C21.4164 34.7757 35.4151 20.6149 53.1935 14.8296Z" fill="#03D302"/>
<path d="M53.1935 14.8296L53.5648 15.9707L54.147 15.7813L54.3353 15.1986L53.1935 14.8296ZM88.3807 14.6218L87.2433 15.0044L87.4385 15.5847L88.023 15.7672L88.3807 14.6218ZM126.458 52.9381L125.31 53.2885L125.494 53.8907L126.094 54.0816L126.458 52.9381ZM125.937 88.4023L125.607 87.2485L125.002 87.4215L124.8 88.0179L125.937 88.4023ZM88.5826 125.035L88.2207 123.891L87.6521 124.071L87.4521 124.633L88.5826 125.035ZM53.6775 125.046L54.8078 124.643L54.6074 124.081L54.0387 123.901L53.6775 125.046ZM16.3754 88.6558L17.5104 88.2662L17.2932 87.6334L16.6407 87.4855L16.3754 88.6558ZM15.8554 52.6541L16.1547 53.8162L16.8026 53.6494L17.0013 53.0105L15.8554 52.6541ZM53.1935 14.8296L54.3353 15.1986C56.5843 8.23963 63.1169 3.20879 70.8213 3.20879V2.00879V0.808789C62.0455 0.808789 54.6113 6.54 52.0516 14.4606L53.1935 14.8296ZM70.8213 2.00879V3.20879C78.4538 3.20879 84.9363 8.14602 87.2433 15.0044L88.3807 14.6218L89.518 14.2392C86.8924 6.43358 79.5153 0.808789 70.8213 0.808789V2.00879ZM126.458 52.9381L127.606 52.5876C121.923 33.9773 107.299 19.2723 88.7384 13.4763L88.3807 14.6218L88.023 15.7672C105.827 21.327 119.859 35.4372 125.31 53.2885L126.458 52.9381ZM139.359 70.5915H140.559C140.559 61.7843 134.787 54.3284 126.822 51.7945L126.458 52.9381L126.094 54.0816C133.092 56.3078 138.159 62.8595 138.159 70.5915H139.359ZM125.937 88.4023L126.267 89.5561C134.517 87.1979 140.559 79.6018 140.559 70.5915H139.359H138.159C138.159 78.502 132.855 85.1769 125.607 87.2485L125.937 88.4023ZM88.5826 125.035L88.9445 126.179C106.855 120.514 121.07 106.544 127.074 88.7866L125.937 88.4023L124.8 88.0179C119.041 105.052 105.401 118.456 88.2207 123.891L88.5826 125.035ZM71.1281 137.345V138.545C79.702 138.545 86.995 133.075 89.7131 125.437L88.5826 125.035L87.4521 124.633C85.0636 131.344 78.6551 136.145 71.1281 136.145V137.345ZM53.6775 125.046L52.5472 125.449C55.2686 133.08 62.5586 138.545 71.1281 138.545V137.345V136.145C63.605 136.145 57.1991 131.348 54.8078 124.643L53.6775 125.046ZM16.3754 88.6558L15.2405 89.0455C21.2981 106.691 35.4766 120.559 53.3163 126.19L53.6775 125.046L54.0387 123.901C36.9267 118.5 23.3214 105.193 17.5104 88.2662L16.3754 88.6558ZM1.96558 70.5921H0.765576C0.765576 79.9809 7.32509 87.8348 16.1102 89.8261L16.3754 88.6558L16.6407 87.4855C8.92508 85.7365 3.16558 78.8355 3.16558 70.5921H1.96558ZM15.8554 52.6541L15.5562 51.492C7.05115 53.6819 0.765576 61.4014 0.765576 70.5921H1.96558H3.16558C3.16558 62.5229 8.68409 55.7397 16.1547 53.8162L15.8554 52.6541ZM53.1935 14.8296L52.8221 13.6885C34.674 19.5941 20.3863 34.0472 14.7096 52.2977L15.8554 52.6541L17.0013 53.0105C22.4465 35.5042 36.1561 21.6357 53.5648 15.9707L53.1935 14.8296Z" fill="black" mask="url(#path-1-outside-1_2229_1500)"/>
</g>
<mask id="mask0_2229_1500" style="mask-type:alpha" maskUnits="userSpaceOnUse" x="3" y="2" width="137" height="136">
<path d="M88.7227 14.7299C106.346 20.3546 120.3 34.1954 126.08 51.7486C134.048 53.8188 139.931 61.0606 139.931 69.6763C139.931 78.2449 134.112 85.4545 126.211 87.5696C120.497 105.36 106.406 119.397 88.5818 125.035C86.0284 132.209 79.1777 137.345 71.1274 137.345C63.081 137.345 56.233 132.214 53.6767 125.046C35.7513 119.388 21.5967 105.237 15.9327 87.3142C8.47683 84.9193 3.08081 77.928 3.08081 69.6763C3.08081 61.3764 8.54011 54.3516 16.0637 51.9969C21.7974 34.315 35.8135 20.3636 53.5355 14.7193C55.9729 7.3367 62.928 2.00879 71.1274 2.00879C79.3307 2.00879 86.2884 7.34179 88.7227 14.7299Z" fill="#03D302"/>
</mask>
<g mask="url(#mask0_2229_1500)">
<path d="M37.0815 91.7107L16.4604 104.5L31.2974 139.898H108.4L133.522 94.2301L105.19 83.978L37.0815 91.7107Z" fill="#019701"/>
</g>
<g filter="url(#filter1_di_2229_1500)">
<circle cx="70.8207" cy="69.046" r="39.8175" fill="#034502"/>
</g>
<ellipse cx="64.9977" cy="8.87544" rx="4.72034" ry="7.36098" transform="rotate(58.4309 64.9977 8.87544)" fill="white"/>
<ellipse opacity="0.9" cx="11.7964" cy="61.4591" rx="4.72034" ry="7.36098" transform="rotate(52.6602 11.7964 61.4591)" fill="white"/>
<g filter="url(#filter2_d_2229_1500)">
<g filter="url(#filter3_d_2229_1500)">
<path d="M149.767 113.812C149.767 126.806 139.234 137.34 126.24 137.34C113.246 137.34 102.712 126.806 102.712 113.812C102.712 100.818 113.246 90.2844 126.24 90.2844C139.234 90.2844 149.767 100.818 149.767 113.812Z" fill="#FF3CD5"/>
<path fill-rule="evenodd" clip-rule="evenodd" d="M126.24 135.842C138.407 135.842 148.27 125.979 148.27 113.812C148.27 101.645 138.407 91.7816 126.24 91.7816C114.073 91.7816 104.209 101.645 104.209 113.812C104.209 125.979 114.073 135.842 126.24 135.842ZM126.24 137.34C139.234 137.34 149.767 126.806 149.767 113.812C149.767 100.818 139.234 90.2844 126.24 90.2844C113.246 90.2844 102.712 100.818 102.712 113.812C102.712 126.806 113.246 137.34 126.24 137.34Z" fill="black"/>
<path opacity="0.3" d="M129.729 95.4817C133.788 99.2343 132.345 107.395 126.506 113.71C120.667 120.025 112.644 122.101 108.586 118.349C104.527 114.596 105.97 106.435 111.809 100.12C117.648 93.8058 125.671 91.729 129.729 95.4817Z" fill="white"/>
<path opacity="0.3" d="M144.016 116.87C146.225 119.058 145.256 123.616 141.853 127.052C138.45 130.489 133.901 131.501 131.693 129.314C129.484 127.126 130.453 122.568 133.856 119.132C137.259 115.695 141.808 114.683 144.016 116.87Z" fill="white"/>
<path opacity="0.8" d="M110.851 99.3134C110.928 98.9689 111.367 98.8615 111.595 99.1312L113.513 101.399L116.411 102.052C116.756 102.129 116.863 102.568 116.593 102.796L114.326 104.714L113.673 107.612C113.595 107.957 113.157 108.064 112.929 107.794L111.01 105.527L108.112 104.874C107.768 104.796 107.661 104.358 107.93 104.13L110.198 102.211L110.851 99.3134Z" fill="white"/>
<path d="M139.804 115.336V113.406H137.607V115.336H139.804Z" fill="black"/>
<path d="M111.947 110.885L132.503 96.7203C133.104 96.3056 133.915 96.7876 133.839 97.5145L132.527 109.958C132.492 110.293 132.656 110.618 132.947 110.787L139.383 114.534C139.91 114.84 139.957 115.584 139.472 115.954L122.401 128.965C121.139 129.927 119.361 128.802 119.689 127.25L121.832 117.119L112.057 112.359C111.469 112.072 111.407 111.257 111.947 110.885Z" fill="black"/>
<path d="M113.72 110.313L132.494 97.2532L130.935 109.274L139.395 113.429L120.918 126.712L123.292 114.765L113.72 110.313Z" fill="white"/>
<path fill-rule="evenodd" clip-rule="evenodd" d="M132.716 96.8876C132.86 96.9755 132.94 97.1404 132.918 97.3082L131.399 109.025L139.583 113.045C139.718 113.112 139.808 113.244 139.821 113.394C139.833 113.544 139.766 113.689 139.644 113.777L121.168 127.059C121.025 127.162 120.834 127.167 120.686 127.072C120.539 126.976 120.464 126.801 120.498 126.628L122.807 115.011L113.54 110.701C113.401 110.636 113.307 110.503 113.294 110.35C113.281 110.197 113.35 110.049 113.476 109.962L132.249 96.9021C132.388 96.8054 132.571 96.7998 132.716 96.8876ZM123.292 114.765L120.918 126.712L139.395 113.429L130.935 109.274L132.494 97.2532L113.72 110.313L123.292 114.765Z" fill="black"/>
<mask id="mask1_2229_1500" style="mask-type:alpha" maskUnits="userSpaceOnUse" x="113" y="97" width="27" height="30">
<path d="M113.72 110.314L132.494 97.2537L130.935 109.274L139.395 113.43L120.918 126.712L123.292 114.765L113.72 110.314Z" fill="white"/>
</mask>
<g mask="url(#mask1_2229_1500)">
<path d="M133.394 96.3262L117.627 112.526L122.865 115.062L120.328 127.813L139.9 113.519L130.565 111.844L133.394 96.3262Z" fill="#FFCCFF"/>
</g>
</g>
</g>
<g filter="url(#filter4_d_2229_1500)">
<mask id="path-19-outside-2_2229_1500" maskUnits="userSpaceOnUse" x="50.6289" y="111.584" width="40" height="14" fill="black">
<rect fill="white" x="50.6289" y="111.584" width="40" height="14"/>
<path d="M57.4717 124.295C57.4717 124.487 56.8937 124.584 55.7377 124.584C54.5931 124.584 54.0207 124.487 54.0207 124.295V115.914L52.1847 115.931C51.8447 115.931 51.6747 115.387 51.6747 114.299C51.6747 113.925 51.7087 113.562 51.7767 113.211C51.8561 112.859 51.9864 112.684 52.1677 112.684H56.8257C57.0184 112.684 57.1714 112.729 57.2847 112.82C57.4094 112.899 57.4717 113.001 57.4717 113.126V124.295ZM63.579 124.754C62.1623 124.754 61.0007 124.232 60.094 123.19C59.1987 122.147 58.751 120.623 58.751 118.617C58.751 116.611 59.2043 115.098 60.111 114.078C61.0177 113.046 62.185 112.531 63.613 112.531C65.0523 112.531 66.214 113.041 67.098 114.061C67.982 115.081 68.424 116.616 68.424 118.668C68.424 120.719 67.9707 122.249 67.064 123.258C66.1687 124.255 65.007 124.754 63.579 124.754ZM63.579 115.795C63.1483 115.795 62.78 116.044 62.474 116.543C62.1793 117.03 62.032 117.727 62.032 118.634C62.032 119.54 62.1737 120.237 62.457 120.725C62.7517 121.201 63.1257 121.439 63.579 121.439C64.0437 121.439 64.4177 121.195 64.701 120.708C64.9957 120.22 65.143 119.523 65.143 118.617C65.143 117.71 64.99 117.013 64.684 116.526C64.3893 116.038 64.021 115.795 63.579 115.795ZM74.2664 124.754C72.8497 124.754 71.6881 124.232 70.7814 123.19C69.8861 122.147 69.4384 120.623 69.4384 118.617C69.4384 116.611 69.8917 115.098 70.7984 114.078C71.7051 113.046 72.8724 112.531 74.3004 112.531C75.7397 112.531 76.9014 113.041 77.7854 114.061C78.6694 115.081 79.1114 116.616 79.1114 118.668C79.1114 120.719 78.6581 122.249 77.7514 123.258C76.8561 124.255 75.6944 124.754 74.2664 124.754ZM74.2664 115.795C73.8357 115.795 73.4674 116.044 73.1614 116.543C72.8667 117.03 72.7194 117.727 72.7194 118.634C72.7194 119.54 72.8611 120.237 73.1444 120.725C73.4391 121.201 73.8131 121.439 74.2664 121.439C74.7311 121.439 75.1051 121.195 75.3884 120.708C75.6831 120.22 75.8304 119.523 75.8304 118.617C75.8304 117.71 75.6774 117.013 75.3714 116.526C75.0767 116.038 74.7084 115.795 74.2664 115.795ZM84.9538 124.754C83.5372 124.754 82.3755 124.232 81.4688 123.19C80.5735 122.147 80.1258 120.623 80.1258 118.617C80.1258 116.611 80.5792 115.098 81.4858 114.078C82.3925 113.046 83.5598 112.531 84.9878 112.531C86.4272 112.531 87.5888 113.041 88.4728 114.061C89.3568 115.081 89.7988 116.616 89.7988 118.668C89.7988 120.719 89.3455 122.249 88.4388 123.258C87.5435 124.255 86.3818 124.754 84.9538 124.754ZM84.9538 115.795C84.5232 115.795 84.1548 116.044 83.8488 116.543C83.5542 117.03 83.4068 117.727 83.4068 118.634C83.4068 119.54 83.5485 120.237 83.8318 120.725C84.1265 121.201 84.5005 121.439 84.9538 121.439C85.4185 121.439 85.7925 121.195 86.0758 120.708C86.3705 120.22 86.5178 119.523 86.5178 118.617C86.5178 117.71 86.3648 117.013 86.0588 116.526C85.7642 116.038 85.3958 115.795 84.9538 115.795Z"/>
</mask>
<path d="M57.4717 124.295C57.4717 124.487 56.8937 124.584 55.7377 124.584C54.5931 124.584 54.0207 124.487 54.0207 124.295V115.914L52.1847 115.931C51.8447 115.931 51.6747 115.387 51.6747 114.299C51.6747 113.925 51.7087 113.562 51.7767 113.211C51.8561 112.859 51.9864 112.684 52.1677 112.684H56.8257C57.0184 112.684 57.1714 112.729 57.2847 112.82C57.4094 112.899 57.4717 113.001 57.4717 113.126V124.295ZM63.579 124.754C62.1623 124.754 61.0007 124.232 60.094 123.19C59.1987 122.147 58.751 120.623 58.751 118.617C58.751 116.611 59.2043 115.098 60.111 114.078C61.0177 113.046 62.185 112.531 63.613 112.531C65.0523 112.531 66.214 113.041 67.098 114.061C67.982 115.081 68.424 116.616 68.424 118.668C68.424 120.719 67.9707 122.249 67.064 123.258C66.1687 124.255 65.007 124.754 63.579 124.754ZM63.579 115.795C63.1483 115.795 62.78 116.044 62.474 116.543C62.1793 117.03 62.032 117.727 62.032 118.634C62.032 119.54 62.1737 120.237 62.457 120.725C62.7517 121.201 63.1257 121.439 63.579 121.439C64.0437 121.439 64.4177 121.195 64.701 120.708C64.9957 120.22 65.143 119.523 65.143 118.617C65.143 117.71 64.99 117.013 64.684 116.526C64.3893 116.038 64.021 115.795 63.579 115.795ZM74.2664 124.754C72.8497 124.754 71.6881 124.232 70.7814 123.19C69.8861 122.147 69.4384 120.623 69.4384 118.617C69.4384 116.611 69.8917 115.098 70.7984 114.078C71.7051 113.046 72.8724 112.531 74.3004 112.531C75.7397 112.531 76.9014 113.041 77.7854 114.061C78.6694 115.081 79.1114 116.616 79.1114 118.668C79.1114 120.719 78.6581 122.249 77.7514 123.258C76.8561 124.255 75.6944 124.754 74.2664 124.754ZM74.2664 115.795C73.8357 115.795 73.4674 116.044 73.1614 116.543C72.8667 117.03 72.7194 117.727 72.7194 118.634C72.7194 119.54 72.8611 120.237 73.1444 120.725C73.4391 121.201 73.8131 121.439 74.2664 121.439C74.7311 121.439 75.1051 121.195 75.3884 120.708C75.6831 120.22 75.8304 119.523 75.8304 118.617C75.8304 117.71 75.6774 117.013 75.3714 116.526C75.0767 116.038 74.7084 115.795 74.2664 115.795ZM84.9538 124.754C83.5372 124.754 82.3755 124.232 81.4688 123.19C80.5735 122.147 80.1258 120.623 80.1258 118.617C80.1258 116.611 80.5792 115.098 81.4858 114.078C82.3925 113.046 83.5598 112.531 84.9878 112.531C86.4272 112.531 87.5888 113.041 88.4728 114.061C89.3568 115.081 89.7988 116.616 89.7988 118.668C89.7988 120.719 89.3455 122.249 88.4388 123.258C87.5435 124.255 86.3818 124.754 84.9538 124.754ZM84.9538 115.795C84.5232 115.795 84.1548 116.044 83.8488 116.543C83.5542 117.03 83.4068 117.727 83.4068 118.634C83.4068 119.54 83.5485 120.237 83.8318 120.725C84.1265 121.201 84.5005 121.439 84.9538 121.439C85.4185 121.439 85.7925 121.195 86.0758 120.708C86.3705 120.22 86.5178 119.523 86.5178 118.617C86.5178 117.71 86.3648 117.013 86.0588 116.526C85.7642 116.038 85.3958 115.795 84.9538 115.795Z" fill="white"/>
<path d="M54.0207 115.914H54.8207V115.106L54.0133 115.114L54.0207 115.914ZM52.1847 115.931L52.1847 116.731L52.1922 116.731L52.1847 115.931ZM51.7767 113.211L50.9964 113.035L50.9937 113.047L50.9913 113.059L51.7767 113.211ZM57.2847 112.82L56.785 113.444L56.8188 113.471L56.8552 113.495L57.2847 112.82ZM57.4717 124.295H56.6717C56.6717 123.871 57.0018 123.708 57.0056 123.706C57.0405 123.688 57.0255 123.703 56.9067 123.722C56.6851 123.759 56.3054 123.784 55.7377 123.784V124.584V125.384C56.3261 125.384 56.8134 125.36 57.1698 125.301C57.34 125.272 57.5417 125.226 57.7211 125.137C57.8694 125.063 58.2717 124.815 58.2717 124.295H57.4717ZM55.7377 124.584V123.784C55.1759 123.784 54.8009 123.759 54.5828 123.723C54.4658 123.703 54.4525 123.689 54.4887 123.707C54.4961 123.711 54.8207 123.875 54.8207 124.295H54.0207H53.2207C53.2207 124.811 53.6169 125.059 53.7675 125.135C53.9467 125.226 54.148 125.272 54.3172 125.3C54.6714 125.36 55.155 125.384 55.7377 125.384V124.584ZM54.0207 124.295H54.8207V115.914H54.0207H53.2207V124.295H54.0207ZM54.0207 115.914L54.0133 115.114L52.1773 115.131L52.1847 115.931L52.1922 116.731L54.0282 116.714L54.0207 115.914ZM52.1847 115.931V115.131C52.3435 115.131 52.474 115.206 52.5452 115.282C52.596 115.336 52.5896 115.36 52.5658 115.284C52.5179 115.131 52.4747 114.821 52.4747 114.299H51.6747H50.8747C50.8747 114.864 50.9166 115.371 51.0387 115.761C51.1469 116.108 51.4533 116.731 52.1847 116.731V115.931ZM51.6747 114.299H52.4747C52.4747 113.973 52.5043 113.662 52.5622 113.363L51.7767 113.211L50.9913 113.059C50.9132 113.462 50.8747 113.876 50.8747 114.299H51.6747ZM51.7767 113.211L52.5571 113.387C52.5701 113.33 52.5818 113.294 52.5891 113.276C52.5968 113.257 52.5953 113.267 52.5765 113.292C52.5567 113.319 52.5121 113.37 52.4341 113.414C52.3515 113.46 52.2581 113.484 52.1677 113.484V112.684V111.884C51.7703 111.884 51.4726 112.095 51.2915 112.339C51.1306 112.556 51.0467 112.812 50.9964 113.035L51.7767 113.211ZM52.1677 112.684V113.484H56.8257V112.684V111.884H52.1677V112.684ZM56.8257 112.684V113.484C56.8605 113.484 56.8684 113.488 56.8577 113.485C56.8449 113.481 56.8168 113.47 56.785 113.444L57.2847 112.82L57.7845 112.195C57.4889 111.959 57.1404 111.884 56.8257 111.884V112.684ZM57.2847 112.82L56.8552 113.495C56.8385 113.484 56.7881 113.448 56.7424 113.373C56.6934 113.293 56.6717 113.204 56.6717 113.126H57.4717H58.2717C58.2717 112.673 58.0199 112.339 57.7142 112.145L57.2847 112.82ZM57.4717 113.126H56.6717V124.295H57.4717H58.2717V113.126H57.4717ZM60.094 123.19L59.487 123.711L59.4903 123.715L60.094 123.19ZM60.111 114.078L60.7089 114.609L60.7118 114.606L60.111 114.078ZM67.098 114.061L66.4934 114.585L66.4934 114.585L67.098 114.061ZM67.064 123.258L66.469 122.723L66.4687 122.723L67.064 123.258ZM62.474 116.543L61.7921 116.124L61.7894 116.129L62.474 116.543ZM62.457 120.725L61.7654 121.127L61.771 121.136L61.7768 121.146L62.457 120.725ZM64.701 120.708L64.0163 120.294L64.0094 120.306L64.701 120.708ZM64.684 116.526L63.9993 116.94L64.0065 116.951L64.684 116.526ZM63.579 124.754V123.954C62.3872 123.954 61.4481 123.528 60.6977 122.665L60.094 123.19L59.4903 123.715C60.5533 124.937 61.9375 125.554 63.579 125.554V124.754ZM60.094 123.19L60.7009 122.669C59.9766 121.825 59.551 120.517 59.551 118.617H58.751H57.951C57.951 120.728 58.4208 122.469 59.4871 123.711L60.094 123.19ZM58.751 118.617H59.551C59.551 116.717 59.9819 115.427 60.7089 114.609L60.111 114.078L59.5131 113.546C58.4267 114.768 57.951 116.505 57.951 118.617H58.751ZM60.111 114.078L60.7118 114.606C61.4598 113.755 62.4046 113.331 63.613 113.331V112.531V111.731C61.9654 111.731 60.5755 112.338 59.5102 113.55L60.111 114.078ZM63.613 112.531V113.331C64.8378 113.331 65.7725 113.753 66.4934 114.585L67.098 114.061L67.7025 113.537C66.6555 112.329 65.2669 111.731 63.613 111.731V112.531ZM67.098 114.061L66.4934 114.585C67.2001 115.4 67.624 116.713 67.624 118.668H68.424H69.224C69.224 116.52 68.7639 114.761 67.7025 113.537L67.098 114.061ZM68.424 118.668H67.624C67.624 120.62 67.1902 121.921 66.469 122.723L67.064 123.258L67.659 123.793C68.7511 122.578 69.224 120.818 69.224 118.668H68.424ZM67.064 123.258L66.4687 122.723C65.7359 123.54 64.7966 123.954 63.579 123.954V124.754V125.554C65.2174 125.554 66.6014 124.971 67.6593 123.792L67.064 123.258ZM63.579 115.795V114.995C62.7744 114.995 62.1853 115.484 61.7921 116.124L62.474 116.543L63.1559 116.961C63.3747 116.605 63.5222 116.595 63.579 116.595V115.795ZM62.474 116.543L61.7894 116.129C61.387 116.794 61.232 117.66 61.232 118.634H62.032H62.832C62.832 117.795 62.9717 117.266 63.1586 116.957L62.474 116.543ZM62.032 118.634H61.232C61.232 119.604 61.3803 120.464 61.7654 121.127L62.457 120.725L63.1486 120.323C62.967 120.01 62.832 119.477 62.832 118.634H62.032ZM62.457 120.725L61.7768 121.146C62.1777 121.794 62.781 122.239 63.579 122.239V121.439V120.639C63.4703 120.639 63.3256 120.608 63.1372 120.304L62.457 120.725ZM63.579 121.439V122.239C64.3934 122.239 65.0019 121.782 65.3926 121.11L64.701 120.708L64.0094 120.306C63.8334 120.608 63.6939 120.639 63.579 120.639V121.439ZM64.701 120.708L65.3856 121.122C65.788 120.456 65.943 119.591 65.943 118.617H65.143H64.343C64.343 119.456 64.2033 119.985 64.0164 120.294L64.701 120.708ZM65.143 118.617H65.943C65.943 117.639 65.7812 116.769 65.3615 116.1L64.684 116.526L64.0065 116.951C64.1988 117.257 64.343 117.781 64.343 118.617H65.143ZM64.684 116.526L65.3686 116.112C64.9768 115.464 64.3824 114.995 63.579 114.995V115.795V116.595C63.6596 116.595 63.8019 116.613 63.9994 116.94L64.684 116.526ZM70.7814 123.19L70.1745 123.711L70.1777 123.715L70.7814 123.19ZM70.7984 114.078L71.3964 114.609L71.3992 114.606L70.7984 114.078ZM77.7854 114.061L77.1809 114.585L77.1809 114.585L77.7854 114.061ZM77.7514 123.258L77.1564 122.723L77.1561 122.723L77.7514 123.258ZM73.1614 116.543L72.4795 116.124L72.4768 116.129L73.1614 116.543ZM73.1444 120.725L72.4528 121.127L72.4584 121.136L72.4642 121.146L73.1444 120.725ZM75.3884 120.708L74.7037 120.294L74.6968 120.306L75.3884 120.708ZM75.3714 116.526L74.6867 116.94L74.6939 116.951L75.3714 116.526ZM74.2664 124.754V123.954C73.0746 123.954 72.1355 123.528 71.3851 122.665L70.7814 123.19L70.1777 123.715C71.2407 124.937 72.6249 125.554 74.2664 125.554V124.754ZM70.7814 123.19L71.3884 122.669C70.664 121.825 70.2384 120.517 70.2384 118.617H69.4384H68.6384C68.6384 120.728 69.1082 122.469 70.1745 123.711L70.7814 123.19ZM69.4384 118.617H70.2384C70.2384 116.717 70.6693 115.427 71.3963 114.609L70.7984 114.078L70.2005 113.546C69.1142 114.768 68.6384 116.505 68.6384 118.617H69.4384ZM70.7984 114.078L71.3992 114.606C72.1473 113.755 73.092 113.331 74.3004 113.331V112.531V111.731C72.6528 111.731 71.2629 112.338 70.1976 113.55L70.7984 114.078ZM74.3004 112.531V113.331C75.5252 113.331 76.4599 113.753 77.1809 114.585L77.7854 114.061L78.39 113.537C77.3429 112.329 75.9543 111.731 74.3004 111.731V112.531ZM77.7854 114.061L77.1809 114.585C77.8875 115.4 78.3114 116.713 78.3114 118.668H79.1114H79.9114C79.9114 116.52 79.4513 114.761 78.39 113.537L77.7854 114.061ZM79.1114 118.668H78.3114C78.3114 120.62 77.8776 121.921 77.1564 122.723L77.7514 123.258L78.3464 123.793C79.4385 122.578 79.9114 120.818 79.9114 118.668H79.1114ZM77.7514 123.258L77.1561 122.723C76.4234 123.54 75.4841 123.954 74.2664 123.954V124.754V125.554C75.9048 125.554 77.2888 124.971 78.3467 123.792L77.7514 123.258ZM74.2664 115.795V114.995C73.4618 114.995 72.8727 115.484 72.4796 116.124L73.1614 116.543L73.8433 116.961C74.0621 116.605 74.2097 116.595 74.2664 116.595V115.795ZM73.1614 116.543L72.4768 116.129C72.0744 116.794 71.9194 117.66 71.9194 118.634H72.7194H73.5194C73.5194 117.795 73.6591 117.266 73.846 116.957L73.1614 116.543ZM72.7194 118.634H71.9194C71.9194 119.604 72.0677 120.464 72.4528 121.127L73.1444 120.725L73.836 120.323C73.6545 120.01 73.5194 119.477 73.5194 118.634H72.7194ZM73.1444 120.725L72.4642 121.146C72.8652 121.794 73.4684 122.239 74.2664 122.239V121.439V120.639C74.1578 120.639 74.013 120.608 73.8246 120.304L73.1444 120.725ZM74.2664 121.439V122.239C75.0808 122.239 75.6893 121.782 76.08 121.11L75.3884 120.708L74.6968 120.306C74.5208 120.608 74.3813 120.639 74.2664 120.639V121.439ZM75.3884 120.708L76.073 121.122C76.4754 120.456 76.6304 119.591 76.6304 118.617H75.8304H75.0304C75.0304 119.456 74.8907 119.985 74.7038 120.294L75.3884 120.708ZM75.8304 118.617H76.6304C76.6304 117.639 76.4686 116.769 76.0489 116.1L75.3714 116.526L74.6939 116.951C74.8862 117.257 75.0304 117.781 75.0304 118.617H75.8304ZM75.3714 116.526L76.056 116.112C75.6642 115.464 75.0698 114.995 74.2664 114.995V115.795V116.595C74.347 116.595 74.4893 116.613 74.6868 116.94L75.3714 116.526ZM81.4688 123.19L80.8619 123.711L80.8652 123.715L81.4688 123.19ZM81.4858 114.078L82.0838 114.609L82.0867 114.606L81.4858 114.078ZM88.4728 114.061L87.8683 114.585L87.8683 114.585L88.4728 114.061ZM88.4388 123.258L87.8439 122.723L87.8435 122.723L88.4388 123.258ZM83.8488 116.543L83.167 116.124L83.1643 116.129L83.8488 116.543ZM83.8318 120.725L83.1402 121.127L83.1458 121.136L83.1516 121.146L83.8318 120.725ZM86.0758 120.708L85.3912 120.294L85.3842 120.306L86.0758 120.708ZM86.0588 116.526L85.3742 116.94L85.3813 116.951L86.0588 116.526ZM84.9538 124.754V123.954C83.762 123.954 82.8229 123.528 82.0725 122.665L81.4688 123.19L80.8652 123.715C81.9281 124.937 83.3123 125.554 84.9538 125.554V124.754ZM81.4688 123.19L82.0758 122.669C81.3514 121.825 80.9258 120.517 80.9258 118.617H80.1258H79.3258C79.3258 120.728 79.7956 122.469 80.8619 123.711L81.4688 123.19ZM80.1258 118.617H80.9258C80.9258 116.717 81.3568 115.427 82.0838 114.609L81.4858 114.078L80.8879 113.546C79.8016 114.768 79.3258 116.505 79.3258 118.617H80.1258ZM81.4858 114.078L82.0867 114.606C82.8347 113.755 83.7794 113.331 84.9878 113.331V112.531V111.731C83.3403 111.731 81.9503 112.338 80.885 113.55L81.4858 114.078ZM84.9878 112.531V113.331C86.2126 113.331 87.1473 113.753 87.8683 114.585L88.4728 114.061L89.0774 113.537C88.0304 112.329 86.6417 111.731 84.9878 111.731V112.531ZM88.4728 114.061L87.8683 114.585C88.5749 115.4 88.9988 116.713 88.9988 118.668H89.7988H90.5988C90.5988 116.52 90.1388 114.761 89.0774 113.537L88.4728 114.061ZM89.7988 118.668H88.9988C88.9988 120.62 88.5651 121.921 87.8439 122.723L88.4388 123.258L89.0338 123.793C90.126 122.578 90.5988 120.818 90.5988 118.668H89.7988ZM88.4388 123.258L87.8435 122.723C87.1108 123.54 86.1715 123.954 84.9538 123.954V124.754V125.554C86.5922 125.554 87.9762 124.971 89.0341 123.792L88.4388 123.258ZM84.9538 115.795V114.995C84.1493 114.995 83.5602 115.484 83.167 116.124L83.8488 116.543L84.5307 116.961C84.7495 116.605 84.8971 116.595 84.9538 116.595V115.795ZM83.8488 116.543L83.1643 116.129C82.7618 116.794 82.6068 117.66 82.6068 118.634H83.4068H84.2068C84.2068 117.795 84.3465 117.266 84.5334 116.957L83.8488 116.543ZM83.4068 118.634H82.6068C82.6068 119.604 82.7551 120.464 83.1402 121.127L83.8318 120.725L84.5234 120.323C84.3419 120.01 84.2068 119.477 84.2068 118.634H83.4068ZM83.8318 120.725L83.1516 121.146C83.5526 121.794 84.1558 122.239 84.9538 122.239V121.439V120.639C84.8452 120.639 84.7004 120.608 84.5121 120.304L83.8318 120.725ZM84.9538 121.439V122.239C85.7683 122.239 86.3768 121.782 86.7674 121.11L86.0758 120.708L85.3842 120.306C85.2083 120.608 85.0687 120.639 84.9538 120.639V121.439ZM86.0758 120.708L86.7604 121.122C87.1629 120.456 87.3178 119.591 87.3178 118.617H86.5178H85.7178C85.7178 119.456 85.5782 119.985 85.3913 120.294L86.0758 120.708ZM86.5178 118.617H87.3178C87.3178 117.639 87.1561 116.769 86.7364 116.1L86.0588 116.526L85.3813 116.951C85.5736 117.257 85.7178 117.781 85.7178 118.617H86.5178ZM86.0588 116.526L86.7434 116.112C86.3516 115.464 85.7572 114.995 84.9538 114.995V115.795V116.595C85.0344 116.595 85.1767 116.613 85.3743 116.94L86.0588 116.526Z" fill="black" mask="url(#path-19-outside-2_2229_1500)"/>
</g>
<path fill-rule="evenodd" clip-rule="evenodd" d="M56.4335 78.9985L63.7692 86.57L58.539 93.3706C58.4741 93.4547 58.4047 93.535 58.331 93.611C56.7433 95.2499 53.5044 94.5639 51.0962 92.0783C48.6887 89.5934 48.0239 86.2502 49.6117 84.6113C49.6854 84.5354 49.7632 84.4638 49.8448 84.3969L56.4335 78.9985Z" fill="url(#paint0_linear_2229_1500)"/>
<g style="mix-blend-mode:multiply">
<path fill-rule="evenodd" clip-rule="evenodd" d="M48.7521 87.1701C51.5842 84.7267 54.4163 82.2832 57.2484 79.8397L56.4334 78.9985L49.8447 84.3969C49.7632 84.4638 49.6853 84.5354 49.6116 84.6113C49.3027 84.9519 49.0665 85.3557 48.9185 85.7965C48.7704 86.2373 48.7137 86.7053 48.7521 87.1701Z" fill="url(#paint1_linear_2229_1500)"/>
</g>
<g style="mix-blend-mode:multiply" opacity="0.75">
<path fill-rule="evenodd" clip-rule="evenodd" d="M62.3019 85.0557C59.7115 88.1253 57.1212 91.1951 54.531 94.265C56.0254 94.7189 57.4387 94.5319 58.3309 93.611C58.4046 93.535 58.474 93.4547 58.5389 93.3706L63.7691 86.57L62.3019 85.0557Z" fill="url(#paint2_linear_2229_1500)"/>
</g>
<g style="mix-blend-mode:screen">
<path fill-rule="evenodd" clip-rule="evenodd" d="M61.9258 80.7951C63.906 82.839 64.5581 85.4797 63.3823 86.6933C62.2065 87.9069 59.6481 87.2339 57.6679 85.19C55.6877 83.1461 55.0355 80.5052 56.2112 79.2916C57.387 78.078 59.9456 78.7512 61.9258 80.7951Z" fill="url(#paint3_radial_2229_1500)"/>
</g>
<path fill-rule="evenodd" clip-rule="evenodd" d="M62.0782 80.743C64.1085 82.8386 64.8055 85.5169 63.6349 86.725C62.4644 87.9332 59.8695 87.2138 57.8393 85.1182C55.8094 83.0231 55.1125 80.345 56.2831 79.1368C57.4536 77.9286 60.0483 78.6479 62.0782 80.743Z" fill="url(#paint4_radial_2229_1500)"/>
<path fill-rule="evenodd" clip-rule="evenodd" d="M63.6247 86.2368C62.5095 87.3427 60.1068 86.6935 58.21 84.7357C56.3135 82.7782 55.6847 80.2986 56.7562 79.1475L66.763 68.3972L74.04 75.9082L63.6247 86.2368Z" fill="url(#paint5_linear_2229_1500)"/>
<path style="mix-blend-mode:multiply" fill-rule="evenodd" clip-rule="evenodd" d="M56.2889 81.2453C60.0506 77.2401 63.8122 73.2348 67.5737 69.2295L66.7652 68.395L56.7584 79.1453C56.5251 79.4322 56.3609 79.7721 56.2793 80.1371C56.1977 80.5021 56.201 80.8818 56.2889 81.2453Z" fill="url(#paint6_linear_2229_1500)"/>
<path style="mix-blend-mode:multiply" fill-rule="evenodd" clip-rule="evenodd" d="M72.5867 74.4041C68.606 78.4154 64.6252 82.4266 60.6443 86.4379C61.8412 86.929 62.9603 86.8933 63.6246 86.237L74.0421 75.9062L72.5867 74.4041Z" fill="url(#paint7_linear_2229_1500)"/>
<path style="mix-blend-mode:multiply" fill-rule="evenodd" clip-rule="evenodd" d="M68.9782 80.9278L73.3805 76.562L66.1324 69.0808C66.0584 69.1275 65.9892 69.1816 65.9255 69.2424L65.7998 69.3777C64.7026 70.7042 65.1456 74.4088 66.827 77.779C67.3822 78.9369 68.1079 79.9991 68.9782 80.9278Z" fill="url(#paint8_radial_2229_1500)"/>
<path fill-rule="evenodd" clip-rule="evenodd" d="M73.8802 76.4542C72.6846 77.6304 70.0323 76.848 67.8949 74.6419C65.7572 72.4354 64.9993 69.6981 66.1389 68.4639L69.4273 64.9028L77.3304 73.06L73.8802 76.4542Z" fill="url(#paint9_linear_2229_1500)"/>
<path style="mix-blend-mode:multiply" fill-rule="evenodd" clip-rule="evenodd" d="M72.454 77.3403L76.8563 72.9745L69.6082 65.4932C69.5343 65.5399 69.4651 65.594 69.4014 65.6547L69.2757 65.79C68.1785 67.1165 68.6215 70.8212 70.3028 74.1913C70.8581 75.3493 71.5837 76.4115 72.454 77.3403Z" fill="url(#paint10_radial_2229_1500)"/>
<path style="mix-blend-mode:multiply" fill-rule="evenodd" clip-rule="evenodd" d="M65.6857 70.7585C67.2257 69.1089 68.7657 67.4591 70.3054 65.8092L69.4272 64.9028L66.1388 68.4639C65.8897 68.7804 65.7184 69.1543 65.6395 69.5538C65.5606 69.9534 65.5764 70.3667 65.6857 70.7585Z" fill="url(#paint11_linear_2229_1500)"/>
<path fill-rule="evenodd" clip-rule="evenodd" d="M75.139 43.2789C74.9257 43.2188 74.7004 43.2217 74.4885 43.2871C74.2767 43.3525 74.0869 43.4779 73.9406 43.649L65.5958 53.1469C65.4903 53.2604 65.413 53.3985 65.3703 53.5494C65.3277 53.7003 65.321 53.8596 65.3508 54.0138L72.0425 77.1718C72.1187 77.3866 72.2432 77.5797 72.406 77.7351C72.5687 77.8905 72.7648 78.0037 72.9783 78.0654L84.8746 81.5144C85.0409 81.5545 85.214 81.5533 85.3797 81.5109C85.5455 81.4685 85.6991 81.3861 85.828 81.2706L95.4106 72.4181C95.5675 72.274 95.6864 72.0912 95.756 71.8867C95.8257 71.6822 95.8439 71.4628 95.8088 71.249L92.6554 58.2434L87.3899 48.8089C87.2018 48.4736 86.9132 48.2105 86.5675 48.0594L75.139 43.2789Z" fill="#666666"/>
<path fill-rule="evenodd" clip-rule="evenodd" d="M79.6292 52.999L92.547 58.0492L87.39 48.809C87.2019 48.4737 86.9133 48.2107 86.5676 48.0595L75.1391 43.279C74.9292 43.203 74.7001 43.2057 74.4919 43.2866L79.6292 52.999Z" fill="url(#paint12_radial_2229_1500)"/>
<path fill-rule="evenodd" clip-rule="evenodd" d="M92.5469 58.0492L79.6292 52.999L82.7109 67.6368C82.9098 67.5748 83.1219 67.575 83.3207 67.6374L95.405 71.8042C95.519 71.8462 95.6384 71.8709 95.7593 71.8774C95.8355 71.6776 95.8528 71.4591 95.8089 71.2493L92.6555 58.2436L92.5469 58.0492Z" fill="url(#paint13_radial_2229_1500)"/>
<path fill-rule="evenodd" clip-rule="evenodd" d="M82.7109 67.6368L79.6291 52.999L74.4919 43.2866C74.2816 43.3581 74.0921 43.4827 73.9406 43.6492L65.5958 53.1471C65.4903 53.2606 65.413 53.3986 65.3703 53.5496C65.3277 53.7005 65.321 53.8598 65.3508 54.014L72.0425 77.1719C72.1164 77.4035 72.253 77.6083 72.4362 77.7623C72.5088 77.6507 72.5933 77.5479 72.6882 77.4558L82.2926 67.8768C82.4112 67.7631 82.5547 67.6808 82.7109 67.6368Z" fill="url(#paint14_radial_2229_1500)"/>
<path fill-rule="evenodd" clip-rule="evenodd" d="M82.2927 67.8767L72.6883 77.4557C72.5935 77.5478 72.5089 77.6506 72.4363 77.7622C72.5941 77.9018 72.7789 78.0052 72.9784 78.0655L84.8748 81.5145C85.041 81.5545 85.2141 81.5533 85.3798 81.5109C85.5456 81.4685 85.6992 81.3862 85.8281 81.2706L95.4107 72.4181C95.5672 72.2693 95.6868 72.0838 95.7594 71.8772C95.6385 71.8706 95.5191 71.846 95.4051 71.804L83.3207 67.6372C83.122 67.5749 82.9098 67.5747 82.711 67.6367C82.5548 67.6806 82.4113 67.763 82.2927 67.8767Z" fill="url(#paint15_radial_2229_1500)"/>
<path style="mix-blend-mode:multiply" fill-rule="evenodd" clip-rule="evenodd" d="M88.6416 54.8851C90.7455 57.0566 91.6427 59.6511 90.6457 60.6802C89.6487 61.7092 87.1351 60.7832 85.0312 58.6117C82.9274 56.4402 82.0299 53.8455 83.0269 52.8164C84.0239 51.7874 86.5378 52.7136 88.6416 54.8851Z" fill="url(#paint16_radial_2229_1500)"/>
<path fill-rule="evenodd" clip-rule="evenodd" d="M90.8327 59.0917L83.1467 51.3047L82.3079 52.2366C81.9481 52.6079 82.0722 53.4423 82.5639 54.1464C82.9512 55.9589 83.9229 57.5821 85.3202 58.7505C87.1344 60.2573 89.0127 60.8398 89.8282 60.0564L90.8327 59.0917Z" fill="url(#paint17_linear_2229_1500)"/>
<path style="mix-blend-mode:multiply" opacity="0.5" fill-rule="evenodd" clip-rule="evenodd" d="M82.413 53.9022C82.9429 53.3244 83.4727 52.7465 84.0023 52.1686L83.1481 51.3032L82.3094 52.235C82.16 52.4907 82.0899 52.7874 82.1084 53.0853C82.1269 53.3833 82.2332 53.6683 82.413 53.9022Z" fill="url(#paint18_linear_2229_1500)"/>
<path style="mix-blend-mode:multiply" opacity="0.5" fill-rule="evenodd" clip-rule="evenodd" d="M89.297 57.533C88.515 58.305 87.7329 59.0769 86.9507 59.8488C88.1718 60.4828 89.2586 60.602 89.8282 60.0564L90.8343 59.0905L89.297 57.533Z" fill="url(#paint19_linear_2229_1500)"/>
<path style="mix-blend-mode:screen" fill-rule="evenodd" clip-rule="evenodd" d="M88.7147 53.3992C90.7884 55.5396 91.6873 58.0822 90.7222 59.0782C89.7572 60.0742 87.2938 59.1466 85.2202 57.0061C83.1464 54.8657 82.2476 52.3232 83.2126 51.3271C84.1776 50.3311 86.641 51.2588 88.7147 53.3992Z" fill="url(#paint20_radial_2229_1500)"/>
<path fill-rule="evenodd" clip-rule="evenodd" d="M88.7652 53.3626C90.8693 55.5343 91.8084 58.086 90.8627 59.0621C89.917 60.0382 87.4448 59.069 85.3407 56.8973C83.2371 54.7259 82.2983 52.1745 83.2439 51.1984C84.1896 50.2223 86.6616 51.1913 88.7652 53.3626Z" fill="url(#paint21_radial_2229_1500)"/>
<path style="mix-blend-mode:screen" fill-rule="evenodd" clip-rule="evenodd" d="M80.4803 57.0408L82.071 66.5031C82.1268 66.8016 82.1106 67.1097 82.0239 67.4002C81.9372 67.6907 81.7826 67.9547 81.5737 68.169L73.252 76.8939L82.2927 68.2541C82.44 68.1 82.6239 67.9886 82.826 67.931C83.0281 67.8733 83.2413 67.8713 83.4443 67.9253L94.3984 71.457L83.9186 67.5242C83.6349 67.4213 83.3807 67.2466 83.1794 67.016C82.9782 66.7854 82.8363 66.5063 82.7667 66.2043L80.4803 57.0408Z" fill="url(#paint22_radial_2229_1500)"/>
<path style="mix-blend-mode:screen" fill-rule="evenodd" clip-rule="evenodd" d="M75.7151 45.5994L79.6696 52.684L82.3829 54.0759L79.9467 53.3707L80.3929 56.627L79.3053 52.872L75.7151 45.5994Z" fill="url(#paint23_radial_2229_1500)"/>
<g filter="url(#filter5_d_2229_1500)">
<mask id="path-46-outside-3_2229_1500" maskUnits="userSpaceOnUse" x="38.9126" y="159.592" width="52" height="15" fill="black">
<rect fill="white" x="38.9126" y="159.592" width="52" height="15"/>
<path d="M46.3176 161.092C46.5076 161.092 46.6026 161.507 46.6026 162.337C46.6026 162.597 46.5776 162.907 46.5276 163.267C46.4876 163.617 46.4076 163.792 46.2876 163.792H43.3626L43.3476 164.887H43.8426C44.9126 164.887 45.7076 165.197 46.2276 165.817C46.7576 166.437 47.0226 167.257 47.0226 168.277C47.0226 169.297 46.6626 170.132 45.9426 170.782C45.2226 171.422 44.2976 171.742 43.1676 171.742C42.0376 171.742 41.2126 171.582 40.6926 171.262C40.6126 171.132 40.5726 170.932 40.5726 170.662C40.5726 170.382 40.6126 169.992 40.6926 169.492C40.7726 168.982 40.8826 168.727 41.0226 168.727C41.0326 168.727 41.0626 168.747 41.1126 168.787C41.8226 169.077 42.3626 169.222 42.7326 169.222C43.1126 169.222 43.4226 169.122 43.6626 168.922C43.9126 168.712 44.0376 168.447 44.0376 168.127C44.0376 167.327 43.6076 166.927 42.7476 166.927L41.4576 166.942C41.3576 166.962 41.2576 166.922 41.1576 166.822C41.0576 166.712 41.0076 166.572 41.0076 166.402V161.707C41.0076 161.297 41.1576 161.092 41.4576 161.092H46.3176ZM52.4138 171.742C51.1638 171.742 50.1388 171.282 49.3388 170.362C48.5488 169.442 48.1538 168.097 48.1538 166.327C48.1538 164.557 48.5538 163.222 49.3538 162.322C50.1538 161.412 51.1838 160.957 52.4438 160.957C53.7138 160.957 54.7388 161.407 55.5188 162.307C56.2988 163.207 56.6888 164.562 56.6888 166.372C56.6888 168.182 56.2888 169.532 55.4888 170.422C54.6988 171.302 53.6738 171.742 52.4138 171.742ZM52.4138 163.837C52.0338 163.837 51.7088 164.057 51.4388 164.497C51.1788 164.927 51.0488 165.542 51.0488 166.342C51.0488 167.142 51.1738 167.757 51.4238 168.187C51.6838 168.607 52.0138 168.817 52.4138 168.817C52.8238 168.817 53.1538 168.602 53.4038 168.172C53.6638 167.742 53.7938 167.127 53.7938 166.327C53.7938 165.527 53.6588 164.912 53.3888 164.482C53.1288 164.052 52.8038 163.837 52.4138 163.837ZM58.8589 169.372C58.9189 169.212 59.3439 169.132 60.1339 169.132C60.9239 169.132 61.3189 169.237 61.3189 169.447L61.2889 170.722L60.4189 172.762C60.2889 173.052 59.8839 173.197 59.2039 173.197C58.5339 173.197 58.1089 173.087 57.9289 172.867C57.8889 172.817 57.8689 172.767 57.8689 172.717C57.8689 172.677 57.8739 172.637 57.8839 172.597L58.7989 170.737L58.8589 169.372ZM66.2642 171.742C65.0142 171.742 63.9892 171.282 63.1892 170.362C62.3992 169.442 62.0042 168.097 62.0042 166.327C62.0042 164.557 62.4042 163.222 63.2042 162.322C64.0042 161.412 65.0342 160.957 66.2942 160.957C67.5642 160.957 68.5892 161.407 69.3692 162.307C70.1492 163.207 70.5392 164.562 70.5392 166.372C70.5392 168.182 70.1392 169.532 69.3392 170.422C68.5492 171.302 67.5242 171.742 66.2642 171.742ZM66.2642 163.837C65.8842 163.837 65.5592 164.057 65.2892 164.497C65.0292 164.927 64.8992 165.542 64.8992 166.342C64.8992 167.142 65.0242 167.757 65.2742 168.187C65.5342 168.607 65.8642 168.817 66.2642 168.817C66.6742 168.817 67.0042 168.602 67.2542 168.172C67.5142 167.742 67.6442 167.127 67.6442 166.327C67.6442 165.527 67.5092 164.912 67.2392 164.482C66.9792 164.052 66.6542 163.837 66.2642 163.837ZM75.6943 171.742C74.4443 171.742 73.4193 171.282 72.6193 170.362C71.8293 169.442 71.4343 168.097 71.4343 166.327C71.4343 164.557 71.8343 163.222 72.6343 162.322C73.4343 161.412 74.4643 160.957 75.7243 160.957C76.9943 160.957 78.0193 161.407 78.7993 162.307C79.5793 163.207 79.9693 164.562 79.9693 166.372C79.9693 168.182 79.5693 169.532 78.7693 170.422C77.9793 171.302 76.9543 171.742 75.6943 171.742ZM75.6943 163.837C75.3143 163.837 74.9893 164.057 74.7193 164.497C74.4593 164.927 74.3293 165.542 74.3293 166.342C74.3293 167.142 74.4543 167.757 74.7043 168.187C74.9643 168.607 75.2943 168.817 75.6943 168.817C76.1043 168.817 76.4343 168.602 76.6843 168.172C76.9443 167.742 77.0743 167.127 77.0743 166.327C77.0743 165.527 76.9393 164.912 76.6693 164.482C76.4093 164.052 76.0843 163.837 75.6943 163.837ZM85.1244 171.742C83.8744 171.742 82.8494 171.282 82.0494 170.362C81.2594 169.442 80.8644 168.097 80.8644 166.327C80.8644 164.557 81.2644 163.222 82.0644 162.322C82.8644 161.412 83.8944 160.957 85.1544 160.957C86.4244 160.957 87.4494 161.407 88.2294 162.307C89.0094 163.207 89.3994 164.562 89.3994 166.372C89.3994 168.182 88.9994 169.532 88.1994 170.422C87.4094 171.302 86.3844 171.742 85.1244 171.742ZM85.1244 163.837C84.7444 163.837 84.4194 164.057 84.1494 164.497C83.8894 164.927 83.7594 165.542 83.7594 166.342C83.7594 167.142 83.8844 167.757 84.1344 168.187C84.3944 168.607 84.7244 168.817 85.1244 168.817C85.5344 168.817 85.8644 168.602 86.1144 168.172C86.3744 167.742 86.5044 167.127 86.5044 166.327C86.5044 165.527 86.3694 164.912 86.0994 164.482C85.8394 164.052 85.5144 163.837 85.1244 163.837Z"/>
</mask>
<path d="M46.3176 161.092C46.5076 161.092 46.6026 161.507 46.6026 162.337C46.6026 162.597 46.5776 162.907 46.5276 163.267C46.4876 163.617 46.4076 163.792 46.2876 163.792H43.3626L43.3476 164.887H43.8426C44.9126 164.887 45.7076 165.197 46.2276 165.817C46.7576 166.437 47.0226 167.257 47.0226 168.277C47.0226 169.297 46.6626 170.132 45.9426 170.782C45.2226 171.422 44.2976 171.742 43.1676 171.742C42.0376 171.742 41.2126 171.582 40.6926 171.262C40.6126 171.132 40.5726 170.932 40.5726 170.662C40.5726 170.382 40.6126 169.992 40.6926 169.492C40.7726 168.982 40.8826 168.727 41.0226 168.727C41.0326 168.727 41.0626 168.747 41.1126 168.787C41.8226 169.077 42.3626 169.222 42.7326 169.222C43.1126 169.222 43.4226 169.122 43.6626 168.922C43.9126 168.712 44.0376 168.447 44.0376 168.127C44.0376 167.327 43.6076 166.927 42.7476 166.927L41.4576 166.942C41.3576 166.962 41.2576 166.922 41.1576 166.822C41.0576 166.712 41.0076 166.572 41.0076 166.402V161.707C41.0076 161.297 41.1576 161.092 41.4576 161.092H46.3176ZM52.4138 171.742C51.1638 171.742 50.1388 171.282 49.3388 170.362C48.5488 169.442 48.1538 168.097 48.1538 166.327C48.1538 164.557 48.5538 163.222 49.3538 162.322C50.1538 161.412 51.1838 160.957 52.4438 160.957C53.7138 160.957 54.7388 161.407 55.5188 162.307C56.2988 163.207 56.6888 164.562 56.6888 166.372C56.6888 168.182 56.2888 169.532 55.4888 170.422C54.6988 171.302 53.6738 171.742 52.4138 171.742ZM52.4138 163.837C52.0338 163.837 51.7088 164.057 51.4388 164.497C51.1788 164.927 51.0488 165.542 51.0488 166.342C51.0488 167.142 51.1738 167.757 51.4238 168.187C51.6838 168.607 52.0138 168.817 52.4138 168.817C52.8238 168.817 53.1538 168.602 53.4038 168.172C53.6638 167.742 53.7938 167.127 53.7938 166.327C53.7938 165.527 53.6588 164.912 53.3888 164.482C53.1288 164.052 52.8038 163.837 52.4138 163.837ZM58.8589 169.372C58.9189 169.212 59.3439 169.132 60.1339 169.132C60.9239 169.132 61.3189 169.237 61.3189 169.447L61.2889 170.722L60.4189 172.762C60.2889 173.052 59.8839 173.197 59.2039 173.197C58.5339 173.197 58.1089 173.087 57.9289 172.867C57.8889 172.817 57.8689 172.767 57.8689 172.717C57.8689 172.677 57.8739 172.637 57.8839 172.597L58.7989 170.737L58.8589 169.372ZM66.2642 171.742C65.0142 171.742 63.9892 171.282 63.1892 170.362C62.3992 169.442 62.0042 168.097 62.0042 166.327C62.0042 164.557 62.4042 163.222 63.2042 162.322C64.0042 161.412 65.0342 160.957 66.2942 160.957C67.5642 160.957 68.5892 161.407 69.3692 162.307C70.1492 163.207 70.5392 164.562 70.5392 166.372C70.5392 168.182 70.1392 169.532 69.3392 170.422C68.5492 171.302 67.5242 171.742 66.2642 171.742ZM66.2642 163.837C65.8842 163.837 65.5592 164.057 65.2892 164.497C65.0292 164.927 64.8992 165.542 64.8992 166.342C64.8992 167.142 65.0242 167.757 65.2742 168.187C65.5342 168.607 65.8642 168.817 66.2642 168.817C66.6742 168.817 67.0042 168.602 67.2542 168.172C67.5142 167.742 67.6442 167.127 67.6442 166.327C67.6442 165.527 67.5092 164.912 67.2392 164.482C66.9792 164.052 66.6542 163.837 66.2642 163.837ZM75.6943 171.742C74.4443 171.742 73.4193 171.282 72.6193 170.362C71.8293 169.442 71.4343 168.097 71.4343 166.327C71.4343 164.557 71.8343 163.222 72.6343 162.322C73.4343 161.412 74.4643 160.957 75.7243 160.957C76.9943 160.957 78.0193 161.407 78.7993 162.307C79.5793 163.207 79.9693 164.562 79.9693 166.372C79.9693 168.182 79.5693 169.532 78.7693 170.422C77.9793 171.302 76.9543 171.742 75.6943 171.742ZM75.6943 163.837C75.3143 163.837 74.9893 164.057 74.7193 164.497C74.4593 164.927 74.3293 165.542 74.3293 166.342C74.3293 167.142 74.4543 167.757 74.7043 168.187C74.9643 168.607 75.2943 168.817 75.6943 168.817C76.1043 168.817 76.4343 168.602 76.6843 168.172C76.9443 167.742 77.0743 167.127 77.0743 166.327C77.0743 165.527 76.9393 164.912 76.6693 164.482C76.4093 164.052 76.0843 163.837 75.6943 163.837ZM85.1244 171.742C83.8744 171.742 82.8494 171.282 82.0494 170.362C81.2594 169.442 80.8644 168.097 80.8644 166.327C80.8644 164.557 81.2644 163.222 82.0644 162.322C82.8644 161.412 83.8944 160.957 85.1544 160.957C86.4244 160.957 87.4494 161.407 88.2294 162.307C89.0094 163.207 89.3994 164.562 89.3994 166.372C89.3994 168.182 88.9994 169.532 88.1994 170.422C87.4094 171.302 86.3844 171.742 85.1244 171.742ZM85.1244 163.837C84.7444 163.837 84.4194 164.057 84.1494 164.497C83.8894 164.927 83.7594 165.542 83.7594 166.342C83.7594 167.142 83.8844 167.757 84.1344 168.187C84.3944 168.607 84.7244 168.817 85.1244 168.817C85.5344 168.817 85.8644 168.602 86.1144 168.172C86.3744 167.742 86.5044 167.127 86.5044 166.327C86.5044 165.527 86.3694 164.912 86.0994 164.482C85.8394 164.052 85.5144 163.837 85.1244 163.837Z" fill="white"/>
<path d="M46.5276 163.267L45.7352 163.156L45.7339 163.166L45.7328 163.176L46.5276 163.267ZM43.3626 163.792V162.992H42.5735L42.5627 163.781L43.3626 163.792ZM43.3476 164.887L42.5477 164.876L42.5366 165.687H43.3476V164.887ZM46.2276 165.817L45.6146 166.331L45.6195 166.336L46.2276 165.817ZM45.9426 170.782L46.4741 171.379L46.4787 171.375L45.9426 170.782ZM40.6926 171.262L40.0113 171.681L40.1111 171.843L40.2733 171.943L40.6926 171.262ZM40.6926 169.492L41.4826 169.618L41.4829 169.616L40.6926 169.492ZM41.1126 168.787L40.6128 169.411L40.7031 169.483L40.8101 169.527L41.1126 168.787ZM43.6626 168.922L44.1747 169.536L44.1772 169.534L43.6626 168.922ZM42.7476 166.927V166.126L42.7383 166.127L42.7476 166.927ZM41.4576 166.942L41.4483 166.142L41.3738 166.142L41.3007 166.157L41.4576 166.942ZM41.1576 166.822L40.5656 167.36L40.5785 167.374L40.5919 167.387L41.1576 166.822ZM46.3176 161.092V161.892C46.1867 161.892 46.0629 161.853 45.9609 161.79C45.8658 161.73 45.8103 161.662 45.7828 161.622C45.7352 161.553 45.7369 161.517 45.7515 161.581C45.7783 161.698 45.8026 161.936 45.8026 162.337H46.6026H47.4026C47.4026 161.907 47.3794 161.522 47.3112 161.224C47.2783 161.081 47.2206 160.89 47.1018 160.716C46.9705 160.525 46.7109 160.292 46.3176 160.292V161.092ZM46.6026 162.337H45.8026C45.8026 162.548 45.782 162.82 45.7352 163.156L46.5276 163.267L47.32 163.377C47.3732 162.993 47.4026 162.645 47.4026 162.337H46.6026ZM46.5276 163.267L45.7328 163.176C45.7158 163.324 45.6972 163.356 45.71 163.328C45.7177 163.311 45.7537 163.235 45.8433 163.157C45.9473 163.066 46.1026 162.992 46.2876 162.992V163.792V164.592C46.8259 164.592 47.0816 164.176 47.1652 163.993C47.258 163.79 47.2994 163.559 47.3224 163.357L46.5276 163.267ZM46.2876 163.792V162.992H43.3626V163.792V164.592H46.2876V163.792ZM43.3626 163.792L42.5627 163.781L42.5477 164.876L43.3476 164.887L44.1475 164.898L44.1625 163.803L43.3626 163.792ZM43.3476 164.887V165.687H43.8426V164.887V164.087H43.3476V164.887ZM43.8426 164.887V165.687C44.7574 165.687 45.2921 165.946 45.6146 166.331L46.2276 165.817L46.8406 165.302C46.1231 164.447 45.0678 164.087 43.8426 164.087V164.887ZM46.2276 165.817L45.6195 166.336C45.997 166.778 46.2226 167.398 46.2226 168.277H47.0226H47.8226C47.8226 167.115 47.5182 166.095 46.8357 165.297L46.2276 165.817ZM47.0226 168.277H46.2226C46.2226 169.083 45.9489 169.698 45.4065 170.188L45.9426 170.782L46.4787 171.375C47.3763 170.565 47.8226 169.51 47.8226 168.277H47.0226ZM45.9426 170.782L45.4111 170.184C44.8623 170.671 44.1376 170.942 43.1676 170.942V171.742V172.542C44.4576 172.542 45.5829 172.172 46.4741 171.379L45.9426 170.782ZM43.1676 171.742V170.942C42.0784 170.942 41.4382 170.781 41.1119 170.58L40.6926 171.262L40.2733 171.943C40.987 172.382 41.9968 172.542 43.1676 172.542V171.742ZM40.6926 171.262L41.3739 170.842C41.3971 170.88 41.3944 170.894 41.3871 170.857C41.3801 170.822 41.3726 170.76 41.3726 170.662H40.5726H39.7726C39.7726 170.981 39.8145 171.361 40.0113 171.681L40.6926 171.262ZM40.5726 170.662H41.3726C41.3726 170.445 41.4048 170.104 41.4826 169.618L40.6926 169.492L39.9026 169.365C39.8204 169.879 39.7726 170.318 39.7726 170.662H40.5726ZM40.6926 169.492L41.4829 169.616C41.5198 169.381 41.555 169.269 41.5697 169.235C41.5774 169.217 41.5596 169.268 41.4945 169.334C41.4189 169.412 41.2577 169.527 41.0226 169.527V168.727V167.927C40.7175 167.927 40.4901 168.073 40.352 168.214C40.2244 168.344 40.1478 168.491 40.1005 168.601C40.0052 168.822 39.9454 169.093 39.9023 169.368L40.6926 169.492ZM41.0226 168.727V169.527C40.9028 169.527 40.8124 169.499 40.7743 169.486C40.729 169.471 40.6948 169.455 40.6761 169.446C40.6391 169.427 40.6144 169.411 40.6088 169.407C40.5953 169.398 40.5944 169.396 40.6128 169.411L41.1126 168.787L41.6124 168.162C41.5808 168.137 41.5399 168.105 41.4964 168.076C41.4758 168.062 41.4386 168.038 41.3916 168.015C41.3803 168.009 41.229 167.927 41.0226 167.927V168.727ZM41.1126 168.787L40.8101 169.527C41.5353 169.823 42.1975 170.022 42.7326 170.022V169.222V168.422C42.5277 168.422 42.1099 168.33 41.4151 168.046L41.1126 168.787ZM42.7326 169.222V170.022C43.2577 170.022 43.7617 169.88 44.1747 169.536L43.6626 168.922L43.1505 168.307C43.0835 168.363 42.9675 168.422 42.7326 168.422V169.222ZM43.6626 168.922L44.1772 169.534C44.6039 169.176 44.8376 168.688 44.8376 168.127H44.0376H43.2376C43.2376 168.205 43.2213 168.247 43.148 168.309L43.6626 168.922ZM44.0376 168.127H44.8376C44.8376 167.588 44.6901 167.041 44.26 166.641C43.8408 166.251 43.2871 166.127 42.7476 166.127V166.927V167.727C43.0681 167.727 43.1594 167.802 43.1702 167.812C43.1762 167.818 43.1895 167.831 43.2039 167.871C43.2198 167.916 43.2376 167.996 43.2376 168.127H44.0376ZM42.7476 166.927L42.7383 166.127L41.4483 166.142L41.4576 166.942L41.4669 167.741L42.7569 167.726L42.7476 166.927ZM41.4576 166.942L41.3007 166.157C41.4116 166.135 41.5191 166.15 41.6047 166.184C41.6815 166.214 41.7195 166.252 41.7233 166.256L41.1576 166.822L40.5919 167.387C40.8012 167.596 41.158 167.817 41.6145 167.726L41.4576 166.942ZM41.1576 166.822L41.7496 166.283C41.7706 166.307 41.788 166.336 41.7985 166.365C41.8084 166.393 41.8076 166.408 41.8076 166.402H41.0076H40.2076C40.2076 166.74 40.3125 167.081 40.5656 167.36L41.1576 166.822ZM41.0076 166.402H41.8076V161.707H41.0076H40.2076V166.402H41.0076ZM41.0076 161.707H41.8076C41.8076 161.65 41.813 161.627 41.8129 161.627C41.8127 161.628 41.8034 161.666 41.7657 161.718C41.7245 161.774 41.6645 161.825 41.5924 161.858C41.5247 161.889 41.4731 161.892 41.4576 161.892V161.092V160.292C41.1049 160.292 40.7286 160.426 40.4745 160.773C40.2544 161.074 40.2076 161.428 40.2076 161.707H41.0076ZM41.4576 161.092V161.892H46.3176V161.092V160.292H41.4576V161.092ZM49.3388 170.362L48.7319 170.883L48.7351 170.886L49.3388 170.362ZM49.3538 162.322L49.9517 162.853L49.9546 162.85L49.3538 162.322ZM55.5188 162.307L54.9143 162.83L54.9143 162.83L55.5188 162.307ZM55.4888 170.422L54.8938 169.887L54.8935 169.887L55.4888 170.422ZM51.4388 164.497L50.7569 164.078L50.7542 164.083L51.4388 164.497ZM51.4238 168.187L50.7322 168.589L50.7378 168.598L50.7436 168.608L51.4238 168.187ZM53.4038 168.172L52.7191 167.758L52.7122 167.769L53.4038 168.172ZM53.3888 164.482L52.7041 164.896L52.7113 164.907L53.3888 164.482ZM52.4138 171.742V170.942C51.3887 170.942 50.5862 170.577 49.9425 169.837L49.3388 170.362L48.7351 170.886C49.6914 171.986 50.939 172.542 52.4138 172.542V171.742ZM49.3388 170.362L49.9457 169.84C49.3267 169.119 48.9538 167.991 48.9538 166.327H48.1538H47.3538C47.3538 168.202 47.7709 169.764 48.7319 170.883L49.3388 170.362ZM48.1538 166.327H48.9538C48.9538 164.662 49.3314 163.551 49.9517 162.853L49.3538 162.322L48.7559 161.79C47.7762 162.892 47.3538 164.451 47.3538 166.327H48.1538ZM49.3538 162.322L49.9546 162.85C50.596 162.12 51.4034 161.757 52.4438 161.757V160.957V160.157C50.9642 160.157 49.7116 160.703 48.753 161.793L49.3538 162.322ZM52.4438 160.957V161.757C53.4993 161.757 54.2973 162.119 54.9143 162.83L55.5188 162.307L56.1234 161.783C55.1803 160.694 53.9284 160.157 52.4438 160.157V160.957ZM55.5188 162.307L54.9143 162.83C55.5169 163.526 55.8888 164.658 55.8888 166.372H56.6888H57.4888C57.4888 164.465 57.0807 162.887 56.1234 161.783L55.5188 162.307ZM56.6888 166.372H55.8888C55.8888 168.082 55.5084 169.203 54.8938 169.887L55.4888 170.422L56.0838 170.956C57.0693 169.86 57.4888 168.281 57.4888 166.372H56.6888ZM55.4888 170.422L54.8935 169.887C54.2661 170.586 53.4634 170.942 52.4138 170.942V171.742V172.542C53.8842 172.542 55.1315 172.017 56.0841 170.956L55.4888 170.422ZM52.4138 163.837V163.037C51.6599 163.037 51.1141 163.496 50.757 164.078L51.4388 164.497L52.1207 164.915C52.214 164.763 52.2901 164.693 52.3335 164.664C52.3682 164.641 52.3891 164.637 52.4138 164.637V163.837ZM51.4388 164.497L50.7542 164.083C50.3865 164.691 50.2488 165.474 50.2488 166.342H51.0488H51.8488C51.8488 165.609 51.9712 165.162 52.1234 164.91L51.4388 164.497ZM51.0488 166.342H50.2488C50.2488 167.205 50.3804 167.984 50.7322 168.589L51.4238 168.187L52.1154 167.784C51.9672 167.53 51.8488 167.078 51.8488 166.342H51.0488ZM51.4238 168.187L50.7436 168.608C51.1099 169.199 51.6691 169.617 52.4138 169.617V168.817V168.017C52.3585 168.017 52.2577 168.014 52.104 167.765L51.4238 168.187ZM52.4138 168.817V169.617C53.1736 169.617 53.7381 169.188 54.0954 168.574L53.4038 168.172L52.7122 167.769C52.5696 168.015 52.4741 168.017 52.4138 168.017V168.817ZM53.4038 168.172L54.0884 168.585C54.4562 167.977 54.5938 167.194 54.5938 166.327H53.7938H52.9938C52.9938 167.059 52.8715 167.506 52.7192 167.758L53.4038 168.172ZM53.7938 166.327H54.5938C54.5938 165.455 54.45 164.667 54.0663 164.056L53.3888 164.482L52.7113 164.907C52.8676 165.156 52.9938 165.598 52.9938 166.327H53.7938ZM53.3888 164.482L54.0734 164.068C53.7163 163.477 53.1652 163.037 52.4138 163.037V163.837V164.637C52.4424 164.637 52.5414 164.626 52.7042 164.895L53.3888 164.482ZM58.8589 169.372L58.1098 169.091L58.0652 169.21L58.0597 169.336L58.8589 169.372ZM61.3189 169.447L62.1187 169.465L62.1189 169.456V169.447H61.3189ZM61.2889 170.722L62.0248 171.035L62.0851 170.894L62.0887 170.74L61.2889 170.722ZM60.4189 172.762L61.1489 173.089L61.1519 173.082L61.1548 173.075L60.4189 172.762ZM57.9289 172.867L57.3042 173.366L57.3097 173.373L57.9289 172.867ZM57.8839 172.597L57.166 172.243L57.1284 172.32L57.1078 172.403L57.8839 172.597ZM58.7989 170.737L59.5167 171.09L59.5908 170.939L59.5981 170.772L58.7989 170.737ZM58.8589 169.372L59.608 169.652C59.5199 169.887 59.3469 169.974 59.3271 169.984C59.2953 169.999 59.2988 169.991 59.3706 169.978C59.5098 169.952 59.755 169.932 60.1339 169.932V169.132V168.332C59.7227 168.332 59.3605 168.352 59.0746 168.405C58.934 168.432 58.7706 168.474 58.6175 168.55C58.4765 168.619 58.2279 168.776 58.1098 169.091L58.8589 169.372ZM60.1339 169.132V169.932C60.5113 169.932 60.723 169.958 60.8171 169.983C60.8672 169.997 60.8203 169.993 60.746 169.934C60.7036 169.9 60.6442 169.842 60.5957 169.751C60.545 169.657 60.5189 169.552 60.5189 169.447H61.3189H62.1189C62.1189 169.101 61.9404 168.84 61.7436 168.683C61.5706 168.545 61.3756 168.476 61.2282 168.437C60.9273 168.357 60.5465 168.332 60.1339 168.332V169.132ZM61.3189 169.447L60.5191 169.428L60.4891 170.703L61.2889 170.722L62.0887 170.74L62.1187 169.465L61.3189 169.447ZM61.2889 170.722L60.553 170.408L59.683 172.448L60.4189 172.762L61.1548 173.075L62.0248 171.035L61.2889 170.722ZM60.4189 172.762L59.6889 172.434C59.741 172.318 59.8204 172.309 59.748 172.335C59.6673 172.363 59.499 172.397 59.2039 172.397V173.197V173.997C59.5888 173.997 59.963 173.957 60.2873 173.841C60.6199 173.722 60.9668 173.495 61.1489 173.089L60.4189 172.762ZM59.2039 173.197V172.397C58.905 172.397 58.7054 172.371 58.5831 172.34C58.4512 172.305 58.4862 172.284 58.5481 172.36L57.9289 172.867L57.3097 173.373C57.5516 173.669 57.8891 173.813 58.1822 173.889C58.4849 173.967 58.8327 173.997 59.2039 173.997V173.197ZM57.9289 172.867L58.5536 172.367C58.5947 172.418 58.6689 172.539 58.6689 172.717H57.8689H57.0689C57.0689 172.994 57.183 173.215 57.3042 173.366L57.9289 172.867ZM57.8689 172.717H58.6689C58.6689 172.744 58.6654 172.769 58.66 172.791L57.8839 172.597L57.1078 172.403C57.0824 172.504 57.0689 172.609 57.0689 172.717H57.8689ZM57.8839 172.597L58.6017 172.95L59.5167 171.09L58.7989 170.737L58.081 170.383L57.166 172.243L57.8839 172.597ZM58.7989 170.737L59.5981 170.772L59.6581 169.407L58.8589 169.372L58.0597 169.336L57.9997 170.701L58.7989 170.737ZM63.1892 170.362L62.5822 170.883L62.5855 170.886L63.1892 170.362ZM63.2042 162.322L63.8021 162.853L63.805 162.85L63.2042 162.322ZM69.3692 162.307L68.7646 162.83L68.7646 162.83L69.3692 162.307ZM69.3392 170.422L68.7442 169.887L68.7439 169.887L69.3392 170.422ZM65.2892 164.497L64.6073 164.078L64.6046 164.083L65.2892 164.497ZM65.2742 168.187L64.5826 168.589L64.5882 168.598L64.594 168.608L65.2742 168.187ZM67.2542 168.172L66.5695 167.758L66.5626 167.769L67.2542 168.172ZM67.2392 164.482L66.5545 164.896L66.5617 164.907L67.2392 164.482ZM66.2642 171.742V170.942C65.239 170.942 64.4366 170.577 63.7929 169.837L63.1892 170.362L62.5855 170.886C63.5418 171.986 64.7894 172.542 66.2642 172.542V171.742ZM63.1892 170.362L63.7961 169.84C63.1771 169.119 62.8042 167.991 62.8042 166.327H62.0042H61.2042C61.2042 168.202 61.6213 169.764 62.5823 170.883L63.1892 170.362ZM62.0042 166.327H62.8042C62.8042 164.662 63.1818 163.551 63.8021 162.853L63.2042 162.322L62.6063 161.79C61.6266 162.892 61.2042 164.451 61.2042 166.327H62.0042ZM63.2042 162.322L63.805 162.85C64.4464 162.12 65.2538 161.757 66.2942 161.757V160.957V160.157C64.8146 160.157 63.562 160.703 62.6034 161.793L63.2042 162.322ZM66.2942 160.957V161.757C67.3497 161.757 68.1477 162.119 68.7646 162.83L69.3692 162.307L69.9738 161.783C69.0307 160.694 67.7787 160.157 66.2942 160.157V160.957ZM69.3692 162.307L68.7646 162.83C69.3673 163.526 69.7392 164.658 69.7392 166.372H70.5392H71.3392C71.3392 164.465 70.9311 162.887 69.9737 161.783L69.3692 162.307ZM70.5392 166.372H69.7392C69.7392 168.082 69.3588 169.203 68.7442 169.887L69.3392 170.422L69.9342 170.956C70.9196 169.86 71.3392 168.281 71.3392 166.372H70.5392ZM69.3392 170.422L68.7439 169.887C68.1165 170.586 67.3138 170.942 66.2642 170.942V171.742V172.542C67.7346 172.542 68.9819 172.017 69.9345 170.956L69.3392 170.422ZM66.2642 163.837V163.037C65.5103 163.037 64.9645 163.496 64.6073 164.078L65.2892 164.497L65.9711 164.915C66.0644 164.763 66.1404 164.693 66.1839 164.664C66.2186 164.641 66.2395 164.637 66.2642 164.637V163.837ZM65.2892 164.497L64.6046 164.083C64.2368 164.691 64.0992 165.474 64.0992 166.342H64.8992H65.6992C65.6992 165.609 65.8215 165.162 65.9738 164.91L65.2892 164.497ZM64.8992 166.342H64.0992C64.0992 167.205 64.2308 167.984 64.5826 168.589L65.2742 168.187L65.9658 167.784C65.8176 167.53 65.6992 167.078 65.6992 166.342H64.8992ZM65.2742 168.187L64.594 168.608C64.9603 169.199 65.5195 169.617 66.2642 169.617V168.817V168.017C66.2089 168.017 66.1081 168.014 65.9544 167.765L65.2742 168.187ZM66.2642 168.817V169.617C67.024 169.617 67.5885 169.188 67.9458 168.574L67.2542 168.172L66.5626 167.769C66.4199 168.015 66.3244 168.017 66.2642 168.017V168.817ZM67.2542 168.172L67.9388 168.585C68.3065 167.977 68.4442 167.194 68.4442 166.327H67.6442H66.8442C66.8442 167.059 66.7218 167.506 66.5696 167.758L67.2542 168.172ZM67.6442 166.327H68.4442C68.4442 165.455 68.3004 164.667 67.9167 164.056L67.2392 164.482L66.5617 164.907C66.718 165.156 66.8442 165.598 66.8442 166.327H67.6442ZM67.2392 164.482L67.9238 164.068C67.5666 163.477 67.0156 163.037 66.2642 163.037V163.837V164.637C66.2928 164.637 66.3918 164.626 66.5546 164.895L67.2392 164.482ZM72.6193 170.362L72.0123 170.883L72.0156 170.886L72.6193 170.362ZM72.6343 162.322L73.2322 162.853L73.2351 162.85L72.6343 162.322ZM78.7993 162.307L78.1947 162.83L78.1947 162.83L78.7993 162.307ZM78.7693 170.422L78.1743 169.887L78.174 169.887L78.7693 170.422ZM74.7193 164.497L74.0374 164.078L74.0347 164.083L74.7193 164.497ZM74.7043 168.187L74.0127 168.589L74.0182 168.598L74.0241 168.608L74.7043 168.187ZM76.6843 168.172L75.9996 167.758L75.9927 167.769L76.6843 168.172ZM76.6693 164.482L75.9846 164.896L75.9918 164.907L76.6693 164.482ZM75.6943 171.742V170.942C74.6691 170.942 73.8667 170.577 73.223 169.837L72.6193 170.362L72.0156 170.886C72.9719 171.986 74.2194 172.542 75.6943 172.542V171.742ZM72.6193 170.362L73.2262 169.84C72.6072 169.119 72.2343 167.991 72.2343 166.327H71.4343H70.6343C70.6343 168.202 71.0514 169.764 72.0123 170.883L72.6193 170.362ZM71.4343 166.327H72.2343C72.2343 164.662 72.6119 163.551 73.2322 162.853L72.6343 162.322L72.0363 161.79C71.0567 162.892 70.6343 164.451 70.6343 166.327H71.4343ZM72.6343 162.322L73.2351 162.85C73.8765 162.12 74.6839 161.757 75.7243 161.757V160.957V160.157C74.2447 160.157 72.9921 160.703 72.0334 161.793L72.6343 162.322ZM75.7243 160.957V161.757C76.7797 161.757 77.5778 162.119 78.1947 162.83L78.7993 162.307L79.4038 161.783C78.4608 160.694 77.2088 160.157 75.7243 160.157V160.957ZM78.7993 162.307L78.1947 162.83C78.7974 163.526 79.1693 164.658 79.1693 166.372H79.9693H80.7693C80.7693 164.465 80.3612 162.887 79.4038 161.783L78.7993 162.307ZM79.9693 166.372H79.1693C79.1693 168.082 78.7888 169.203 78.1743 169.887L78.7693 170.422L79.3642 170.956C80.3497 169.86 80.7693 168.281 80.7693 166.372H79.9693ZM78.7693 170.422L78.174 169.887C77.5466 170.586 76.7439 170.942 75.6943 170.942V171.742V172.542C77.1646 172.542 78.412 172.017 79.3646 170.956L78.7693 170.422ZM75.6943 163.837V163.037C74.9404 163.037 74.3946 163.496 74.0374 164.078L74.7193 164.497L75.4011 164.915C75.4945 164.763 75.5705 164.693 75.614 164.664C75.6487 164.641 75.6696 164.637 75.6943 164.637V163.837ZM74.7193 164.497L74.0347 164.083C73.6669 164.691 73.5293 165.474 73.5293 166.342H74.3293H75.1293C75.1293 165.609 75.2516 165.162 75.4039 164.91L74.7193 164.497ZM74.3293 166.342H73.5293C73.5293 167.205 73.6609 167.984 74.0127 168.589L74.7043 168.187L75.3959 167.784C75.2477 167.53 75.1293 167.078 75.1293 166.342H74.3293ZM74.7043 168.187L74.0241 168.608C74.3904 169.199 74.9496 169.617 75.6943 169.617V168.817V168.017C75.639 168.017 75.5382 168.014 75.3845 167.765L74.7043 168.187ZM75.6943 168.817V169.617C76.454 169.617 77.0185 169.188 77.3759 168.574L76.6843 168.172L75.9927 167.769C75.85 168.015 75.7545 168.017 75.6943 168.017V168.817ZM76.6843 168.172L77.3689 168.585C77.7366 167.977 77.8743 167.194 77.8743 166.327H77.0743H76.2743C76.2743 167.059 76.1519 167.506 75.9997 167.758L76.6843 168.172ZM77.0743 166.327H77.8743C77.8743 165.455 77.7305 164.667 77.3468 164.056L76.6693 164.482L75.9918 164.907C76.1481 165.156 76.2743 165.598 76.2743 166.327H77.0743ZM76.6693 164.482L77.3539 164.068C76.9967 163.477 76.4457 163.037 75.6943 163.037V163.837V164.637C75.7229 164.637 75.8218 164.626 75.9847 164.895L76.6693 164.482ZM82.0494 170.362L81.4424 170.883L81.4457 170.886L82.0494 170.362ZM82.0644 162.322L82.6623 162.853L82.6652 162.85L82.0644 162.322ZM88.2294 162.307L87.6248 162.83L87.6248 162.83L88.2294 162.307ZM88.1994 170.422L87.6044 169.887L87.604 169.887L88.1994 170.422ZM84.1494 164.497L83.4675 164.078L83.4648 164.083L84.1494 164.497ZM84.1344 168.187L83.4428 168.589L83.4483 168.598L83.4541 168.608L84.1344 168.187ZM86.1144 168.172L85.4297 167.758L85.4228 167.769L86.1144 168.172ZM86.0994 164.482L85.4147 164.896L85.4218 164.907L86.0994 164.482ZM85.1244 171.742V170.942C84.0992 170.942 83.2968 170.577 82.653 169.837L82.0494 170.362L81.4457 170.886C82.402 171.986 83.6495 172.542 85.1244 172.542V171.742ZM82.0494 170.362L82.6563 169.84C82.0373 169.119 81.6644 167.991 81.6644 166.327H80.8644H80.0644C80.0644 168.202 80.4814 169.764 81.4424 170.883L82.0494 170.362ZM80.8644 166.327H81.6644C81.6644 164.662 82.042 163.551 82.6623 162.853L82.0644 162.322L81.4664 161.79C80.4868 162.892 80.0644 164.451 80.0644 166.327H80.8644ZM82.0644 162.322L82.6652 162.85C83.3065 162.12 84.1139 161.757 85.1544 161.757V160.957V160.157C83.6748 160.157 82.4222 160.703 81.4635 161.793L82.0644 162.322ZM85.1544 160.957V161.757C86.2098 161.757 87.0078 162.119 87.6248 162.83L88.2294 162.307L88.8339 161.783C87.8909 160.694 86.6389 160.157 85.1544 160.157V160.957ZM88.2294 162.307L87.6248 162.83C88.2274 163.526 88.5994 164.658 88.5994 166.372H89.3994H90.1994C90.1994 164.465 89.7913 162.887 88.8339 161.783L88.2294 162.307ZM89.3994 166.372H88.5994C88.5994 168.082 88.2189 169.203 87.6044 169.887L88.1994 170.422L88.7943 170.956C89.7798 169.86 90.1994 168.281 90.1994 166.372H89.3994ZM88.1994 170.422L87.604 169.887C86.9766 170.586 86.174 170.942 85.1244 170.942V171.742V172.542C86.5947 172.542 87.8421 172.017 88.7947 170.956L88.1994 170.422ZM85.1244 163.837V163.037C84.3704 163.037 83.8247 163.496 83.4675 164.078L84.1494 164.497L84.8312 164.915C84.9246 164.763 85.0006 164.693 85.0441 164.664C85.0788 164.641 85.0997 164.637 85.1244 164.637V163.837ZM84.1494 164.497L83.4648 164.083C83.097 164.691 82.9594 165.474 82.9594 166.342H83.7594H84.5594C84.5594 165.609 84.6817 165.162 84.8339 164.91L84.1494 164.497ZM83.7594 166.342H82.9594C82.9594 167.205 83.091 167.984 83.4428 168.589L84.1344 168.187L84.826 167.784C84.6777 167.53 84.5594 167.078 84.5594 166.342H83.7594ZM84.1344 168.187L83.4541 168.608C83.8204 169.199 84.3797 169.617 85.1244 169.617V168.817V168.017C85.069 168.017 84.9683 168.014 84.8146 167.765L84.1344 168.187ZM85.1244 168.817V169.617C85.8841 169.617 86.4486 169.188 86.806 168.574L86.1144 168.172L85.4228 167.769C85.2801 168.015 85.1846 168.017 85.1244 168.017V168.817ZM86.1144 168.172L86.7989 168.585C87.1667 167.977 87.3044 167.194 87.3044 166.327H86.5044H85.7044C85.7044 167.059 85.582 167.506 85.4298 167.758L86.1144 168.172ZM86.5044 166.327H87.3044C87.3044 165.455 87.1606 164.667 86.7769 164.056L86.0994 164.482L85.4218 164.907C85.5781 165.156 85.7044 165.598 85.7044 166.327H86.5044ZM86.0994 164.482L86.7839 164.068C86.4268 163.477 85.8758 163.037 85.1244 163.037V163.837V164.637C85.153 164.637 85.2519 164.626 85.4148 164.895L86.0994 164.482Z" fill="black" mask="url(#path-46-outside-3_2229_1500)"/>
</g>
<path d="M44.0417 143.137C45.4299 142.876 46.9382 143.557 47.4905 144.796L51.0262 152.726L51.0773 152.852C51.5391 154.063 50.8999 155.297 49.655 155.782L49.3889 155.87L45.3837 157.011C45.3239 157.028 45.2566 157.017 45.2024 156.979C45.1483 156.941 45.1136 156.881 45.1087 156.819C45.1064 156.789 45.1022 156.757 45.096 156.726C45.0023 156.261 44.4662 155.886 43.8487 155.95C43.2314 156.015 42.8656 156.484 42.9593 156.949C42.9894 157.098 43.063 157.234 43.1684 157.351C43.215 157.403 43.2341 157.472 43.2193 157.535C43.2044 157.598 43.1568 157.646 43.0935 157.664L35.5523 159.812C34.1851 160.202 32.6256 159.621 31.9505 158.459L31.8276 158.218L28.2919 150.288C27.698 148.955 28.4663 147.56 29.9292 147.143L37.1709 145.08L37.2101 145.073C37.3022 145.067 37.3957 145.123 37.432 145.214C37.5908 145.611 38.0848 145.91 38.6376 145.852C39.255 145.788 39.6207 145.318 39.527 144.853C39.5133 144.785 39.4911 144.72 39.461 144.659C39.4356 144.607 39.4329 144.549 39.4536 144.499C39.4743 144.449 39.5163 144.413 39.5692 144.398L43.766 143.202L44.0417 143.137Z" fill="white" stroke="black" stroke-width="0.4" stroke-linejoin="round"/>
<path fill-rule="evenodd" clip-rule="evenodd" d="M47.0562 144.934C46.5733 143.85 45.1755 143.258 43.9346 143.612L39.9745 144.74C39.9803 144.762 39.9854 144.784 39.9899 144.806C40.1364 145.533 39.5663 146.19 38.7237 146.278C38.0602 146.347 37.4203 146.044 37.1061 145.557L30.0995 147.553C28.8594 147.906 28.2456 149.07 28.7282 150.152L32.2627 158.082C32.7456 159.165 34.1434 159.757 35.3843 159.404L42.623 157.342C42.5645 157.234 42.5216 157.119 42.4972 156.997C42.3507 156.271 42.9208 155.614 43.7634 155.526C44.5427 155.445 45.2906 155.878 45.5144 156.518L49.2194 155.463C50.4595 155.11 51.0733 153.946 50.5908 152.863L47.0562 144.934ZM43.7425 143.175C45.2582 142.744 46.9647 143.466 47.5546 144.79L51.0891 152.719C51.6793 154.043 50.9281 155.467 49.4116 155.899L45.407 157.04C45.3277 157.063 45.2386 157.051 45.1669 157.008C45.0953 156.966 45.0497 156.898 45.0441 156.825C45.0418 156.795 45.0376 156.764 45.0313 156.733C44.9365 156.263 44.4122 155.924 43.8552 155.982C43.2982 156.04 42.9293 156.472 43.0241 156.942C43.0541 157.091 43.1265 157.226 43.229 157.34C43.2827 157.399 43.3013 157.475 43.2792 157.545C43.257 157.615 43.1967 157.67 43.117 157.692L35.5765 159.84C34.0607 160.272 32.3542 159.549 31.7643 158.226L28.2298 150.296C27.6397 148.972 28.3908 147.548 29.9074 147.116L37.1482 145.054C37.2157 145.035 37.2909 145.04 37.3566 145.069C37.4223 145.098 37.4729 145.148 37.4967 145.208C37.6555 145.605 38.131 145.874 38.6319 145.822C39.1889 145.764 39.5578 145.332 39.463 144.861C39.4494 144.794 39.427 144.729 39.3971 144.668C39.3685 144.61 39.3682 144.545 39.3965 144.489C39.4247 144.433 39.479 144.39 39.5468 144.371L43.7425 143.175Z" fill="black"/>
<path d="M40.4436 155.599C39.7589 155.795 39.3847 155.826 39.321 155.692L36.2249 149.159C36.1166 148.931 36.1791 148.783 36.4124 148.717L38.3988 148.148C39.5123 147.829 40.4108 147.805 41.0942 148.075C41.7851 148.343 42.3153 148.866 42.6848 149.646C42.9906 150.291 43.0376 150.949 42.8259 151.62C42.7201 151.956 42.4797 152.269 42.1047 152.56C41.7297 152.85 41.2412 153.081 40.6393 153.254L41.4945 155.058C41.5327 155.139 41.4168 155.237 41.1468 155.352C40.8812 155.459 40.6468 155.541 40.4436 155.599ZM39.0721 149.947L39.827 151.54L39.9737 151.498C40.2371 151.423 40.424 151.285 40.5345 151.086C40.645 150.886 40.6366 150.652 40.5092 150.383C40.3817 150.114 40.227 149.941 40.045 149.863C39.8704 149.784 39.6251 149.789 39.3091 149.879L39.0721 149.947Z" fill="black"/>
<defs>
<filter id="filter0_d_2229_1500" x="0.165625" y="0.808838" width="140.993" height="141.336" filterUnits="userSpaceOnUse" color-interpolation-filters="sRGB">
<feFlood flood-opacity="0" result="BackgroundImageFix"/>
<feColorMatrix in="SourceAlpha" type="matrix" values="0 0 0 0 0 0 0 0 0 0 0 0 0 0 0 0 0 0 127 0" result="hardAlpha"/>
<feOffset dy="3"/>
<feGaussianBlur stdDeviation="0.3"/>
<feComposite in2="hardAlpha" operator="out"/>
<feColorMatrix type="matrix" values="0 0 0 0 0 0 0 0 0 0 0 0 0 0 0 0 0 0 0.49 0"/>
<feBlend mode="normal" in2="BackgroundImageFix" result="effect1_dropShadow_2229_1500"/>
<feBlend mode="normal" in="SourceGraphic" in2="effect1_dropShadow_2229_1500" result="shape"/>
</filter>
<filter id="filter1_di_2229_1500" x="31.0032" y="29.2285" width="79.635" height="81.135" filterUnits="userSpaceOnUse" color-interpolation-filters="sRGB">
<feFlood flood-opacity="0" result="BackgroundImageFix"/>
<feColorMatrix in="SourceAlpha" type="matrix" values="0 0 0 0 0 0 0 0 0 0 0 0 0 0 0 0 0 0 127 0" result="hardAlpha"/>
<feOffset dy="1.5"/>
<feComposite in2="hardAlpha" operator="out"/>
<feColorMatrix type="matrix" values="0 0 0 0 0.164706 0 0 0 0 1 0 0 0 0 0.141176 0 0 0 1 0"/>
<feBlend mode="normal" in2="BackgroundImageFix" result="effect1_dropShadow_2229_1500"/>
<feBlend mode="normal" in="SourceGraphic" in2="effect1_dropShadow_2229_1500" result="shape"/>
<feColorMatrix in="SourceAlpha" type="matrix" values="0 0 0 0 0 0 0 0 0 0 0 0 0 0 0 0 0 0 127 0" result="hardAlpha"/>
<feOffset dy="1"/>
<feGaussianBlur stdDeviation="0.4"/>
<feComposite in2="hardAlpha" operator="arithmetic" k2="-1" k3="1"/>
<feColorMatrix type="matrix" values="0 0 0 0 0 0 0 0 0 0 0 0 0 0 0 0 0 0 0.7 0"/>
<feBlend mode="normal" in2="shape" result="effect2_innerShadow_2229_1500"/>
</filter>
<filter id="filter2_d_2229_1500" x="102.712" y="90.2844" width="47.0554" height="48.0552" filterUnits="userSpaceOnUse" color-interpolation-filters="sRGB">
<feFlood flood-opacity="0" result="BackgroundImageFix"/>
<feColorMatrix in="SourceAlpha" type="matrix" values="0 0 0 0 0 0 0 0 0 0 0 0 0 0 0 0 0 0 127 0" result="hardAlpha"/>
<feOffset dy="1"/>
<feComposite in2="hardAlpha" operator="out"/>
<feColorMatrix type="matrix" values="0 0 0 0 0 0 0 0 0 0 0 0 0 0 0 0 0 0 0.5 0"/>
<feBlend mode="normal" in2="BackgroundImageFix" result="effect1_dropShadow_2229_1500"/>
<feBlend mode="normal" in="SourceGraphic" in2="effect1_dropShadow_2229_1500" result="shape"/>
</filter>
<filter id="filter3_d_2229_1500" x="102.712" y="90.2844" width="47.0554" height="48.0552" filterUnits="userSpaceOnUse" color-interpolation-filters="sRGB">
<feFlood flood-opacity="0" result="BackgroundImageFix"/>
<feColorMatrix in="SourceAlpha" type="matrix" values="0 0 0 0 0 0 0 0 0 0 0 0 0 0 0 0 0 0 127 0" result="hardAlpha"/>
<feOffset dy="1"/>
<feComposite in2="hardAlpha" operator="out"/>
<feColorMatrix type="matrix" values="0 0 0 0 0 0 0 0 0 0 0 0 0 0 0 0 0 0 0.5 0"/>
<feBlend mode="normal" in2="BackgroundImageFix" result="effect1_dropShadow_2229_1500"/>
<feBlend mode="normal" in="SourceGraphic" in2="effect1_dropShadow_2229_1500" result="shape"/>
</filter>
<filter id="filter4_d_2229_1500" x="50.8748" y="111.731" width="39.7241" height="14.823" filterUnits="userSpaceOnUse" color-interpolation-filters="sRGB">
<feFlood flood-opacity="0" result="BackgroundImageFix"/>
<feColorMatrix in="SourceAlpha" type="matrix" values="0 0 0 0 0 0 0 0 0 0 0 0 0 0 0 0 0 0 127 0" result="hardAlpha"/>
<feOffset dy="1"/>
<feComposite in2="hardAlpha" operator="out"/>
<feColorMatrix type="matrix" values="0 0 0 0 0 0 0 0 0 0 0 0 0 0 0 0 0 0 1 0"/>
<feBlend mode="normal" in2="BackgroundImageFix" result="effect1_dropShadow_2229_1500"/>
<feBlend mode="normal" in="SourceGraphic" in2="effect1_dropShadow_2229_1500" result="shape"/>
</filter>
<filter id="filter5_d_2229_1500" x="39.7727" y="160.156" width="50.4268" height="14.8401" filterUnits="userSpaceOnUse" color-interpolation-filters="sRGB">
<feFlood flood-opacity="0" result="BackgroundImageFix"/>
<feColorMatrix in="SourceAlpha" type="matrix" values="0 0 0 0 0 0 0 0 0 0 0 0 0 0 0 0 0 0 127 0" result="hardAlpha"/>
<feOffset dy="1"/>
<feComposite in2="hardAlpha" operator="out"/>
<feColorMatrix type="matrix" values="0 0 0 0 0 0 0 0 0 0 0 0 0 0 0 0 0 0 1 0"/>
<feBlend mode="normal" in2="BackgroundImageFix" result="effect1_dropShadow_2229_1500"/>
<feBlend mode="normal" in="SourceGraphic" in2="effect1_dropShadow_2229_1500" result="shape"/>
</filter>
<linearGradient id="paint0_linear_2229_1500" x1="51.2393" y1="82.9326" x2="60.2345" y2="91.6477" gradientUnits="userSpaceOnUse">
<stop stop-color="#D37132"/>
<stop offset="0.37324" stop-color="#E5A13B"/>
<stop offset="0.54395" stop-color="#CB7E2D"/>
<stop offset="0.73367" stop-color="#B25D20"/>
<stop offset="0.89255" stop-color="#A34918"/>
<stop offset="1" stop-color="#9E4215"/>
</linearGradient>
<linearGradient id="paint1_linear_2229_1500" x1="52.1215" y1="82.425" x2="53.0401" y2="83.4857" gradientUnits="userSpaceOnUse">
<stop stop-color="#6E5750"/>
<stop offset="0.63971" stop-color="#CDC5C3"/>
<stop offset="1" stop-color="white"/>
</linearGradient>
<linearGradient id="paint2_linear_2229_1500" x1="58.2518" y1="89.5238" x2="60.2984" y2="91.1295" gradientUnits="userSpaceOnUse">
<stop stop-color="white"/>
<stop offset="0.11991" stop-color="#DCD6D4"/>
<stop offset="0.27156" stop-color="#B5A9A5"/>
<stop offset="0.41631" stop-color="#968580"/>
<stop offset="0.55028" stop-color="#806C66"/>
<stop offset="0.66954" stop-color="#735C56"/>
<stop offset="0.76191" stop-color="#6E5750"/>
<stop offset="0.8112" stop-color="#715A53"/>
<stop offset="0.85295" stop-color="#79645E"/>
<stop offset="0.89196" stop-color="#88756F"/>
<stop offset="0.92931" stop-color="#9C8D88"/>
<stop offset="0.96513" stop-color="#B6ABA8"/>
<stop offset="1" stop-color="#D6D0CE"/>
</linearGradient>
<radialGradient id="paint3_radial_2229_1500" cx="0" cy="0" r="1" gradientUnits="userSpaceOnUse" gradientTransform="translate(56.7693 83.5073) rotate(45.9065) scale(8.54497 8.5407)">
<stop stop-color="#CA844B"/>
<stop offset="1" stop-color="#010404"/>
</radialGradient>
<radialGradient id="paint4_radial_2229_1500" cx="0" cy="0" r="1" gradientUnits="userSpaceOnUse" gradientTransform="translate(57.113 82.5949) rotate(45.9066) scale(8.40006 8.39585)">
<stop stop-color="#FFD599"/>
<stop offset="0.74286" stop-color="#542300"/>
</radialGradient>
<linearGradient id="paint5_linear_2229_1500" x1="60.6676" y1="74.6899" x2="68.1749" y2="81.9634" gradientUnits="userSpaceOnUse">
<stop stop-color="#6B3F24"/>
<stop offset="0.28827" stop-color="#A36544"/>
<stop offset="0.39713" stop-color="#91583A"/>
<stop offset="0.60766" stop-color="#633721"/>
<stop offset="0.67759" stop-color="#5B3320"/>
<stop offset="0.78563" stop-color="#45291E"/>
<stop offset="0.78708" stop-color="#45291E"/>
<stop offset="0.93945" stop-color="#412519"/>
<stop offset="1" stop-color="#3D2215"/>
</linearGradient>
<linearGradient id="paint6_linear_2229_1500" x1="61.0338" y1="74.3119" x2="62.0519" y2="75.2983" gradientUnits="userSpaceOnUse">
<stop stop-color="#846853"/>
<stop offset="0.54622" stop-color="#D4CAC3"/>
<stop offset="0.86191" stop-color="white"/>
</linearGradient>
<linearGradient id="paint7_linear_2229_1500" x1="66.5448" y1="80.349" x2="68.1925" y2="81.9453" gradientUnits="userSpaceOnUse">
<stop offset="0.13809" stop-color="white"/>
<stop offset="0.45378" stop-color="#D4CAC3"/>
<stop offset="1" stop-color="#846853"/>
</linearGradient>
<radialGradient id="paint8_radial_2229_1500" cx="0" cy="0" r="1" gradientUnits="userSpaceOnUse" gradientTransform="translate(77.6643 71.5053) rotate(45.9065) scale(13.1589 13.1523)">
<stop offset="0.70714" stop-color="#9C8371"/>
<stop offset="0.74512" stop-color="#A28A79"/>
<stop offset="0.80385" stop-color="#B19D8F"/>
<stop offset="0.87602" stop-color="#C9BCB2"/>
<stop offset="0.95809" stop-color="#ECE7E3"/>
<stop offset="1" stop-color="white"/>
</radialGradient>
<linearGradient id="paint9_linear_2229_1500" x1="66.6855" y1="67.734" x2="74.8387" y2="75.6332" gradientUnits="userSpaceOnUse">
<stop stop-color="#49526B"/>
<stop offset="0.28827" stop-color="#7683A2"/>
<stop offset="0.39187" stop-color="#697490"/>
<stop offset="0.59948" stop-color="#484E60"/>
<stop offset="0.70743" stop-color="#353845"/>
<stop offset="0.84988" stop-color="#383D4A"/>
<stop offset="1" stop-color="#404957"/>
</linearGradient>
<radialGradient id="paint10_radial_2229_1500" cx="0" cy="0" r="1" gradientUnits="userSpaceOnUse" gradientTransform="translate(80.3315 68.4955) rotate(45.9065) scale(11.8143 11.8084)">
<stop offset="0.70714" stop-color="#78899B"/>
<stop offset="0.7465" stop-color="#8090A1"/>
<stop offset="0.80736" stop-color="#96A3B1"/>
<stop offset="0.88213" stop-color="#B9C2CB"/>
<stop offset="0.96717" stop-color="#EAEDF0"/>
<stop offset="1" stop-color="white"/>
</radialGradient>
<linearGradient id="paint11_linear_2229_1500" x1="67.0738" y1="67.3332" x2="68.0702" y2="68.2986" gradientUnits="userSpaceOnUse">
<stop stop-color="#78899B"/>
<stop offset="0.53884" stop-color="#C3CBD3"/>
<stop offset="1" stop-color="white"/>
</linearGradient>
<radialGradient id="paint12_radial_2229_1500" cx="0" cy="0" r="1" gradientUnits="userSpaceOnUse" gradientTransform="translate(78.3197 51.5412) rotate(45.9065) scale(15.7631 15.7552)">
<stop stop-color="#C3CFEB"/>
<stop offset="1" stop-color="#4B5C7D"/>
</radialGradient>
<radialGradient id="paint13_radial_2229_1500" cx="0" cy="0" r="1" gradientUnits="userSpaceOnUse" gradientTransform="translate(69.0512 53.5572) rotate(45.9066) scale(33.6893 33.6724)">
<stop stop-color="#A7B4D1"/>
<stop offset="1" stop-color="#4B5C7D"/>
</radialGradient>
<radialGradient id="paint14_radial_2229_1500" cx="0" cy="0" r="1" gradientUnits="userSpaceOnUse" gradientTransform="translate(86.2609 44.0283) rotate(45.9066) scale(39.128 39.1084)">
<stop stop-color="#D4E2FF"/>
<stop offset="1" stop-color="#455473"/>
</radialGradient>
<radialGradient id="paint15_radial_2229_1500" cx="0" cy="0" r="1" gradientUnits="userSpaceOnUse" gradientTransform="translate(77.5369 39.5383) rotate(45.9066) scale(43.1016 43.0801)">
<stop stop-color="#7284A3"/>
<stop offset="1" stop-color="#313E57"/>
</radialGradient>
<radialGradient id="paint16_radial_2229_1500" cx="0" cy="0" r="1" gradientUnits="userSpaceOnUse" gradientTransform="translate(90.051 53.9452) rotate(45.9065) scale(7.17987 7.17628)">
<stop offset="0.70714" stop-color="#78899B"/>
<stop offset="0.7465" stop-color="#8090A1"/>
<stop offset="0.80736" stop-color="#96A3B1"/>
<stop offset="0.88213" stop-color="#B9C2CB"/>
<stop offset="0.96717" stop-color="#EAEDF0"/>
<stop offset="1" stop-color="white"/>
</radialGradient>
<linearGradient id="paint17_linear_2229_1500" x1="81.9089" y1="52.5836" x2="89.7651" y2="60.1951" gradientUnits="userSpaceOnUse">
<stop stop-color="#55657E"/>
<stop offset="0.28827" stop-color="#AEC6E8"/>
<stop offset="0.39187" stop-color="#A0B5D6"/>
<stop offset="0.59948" stop-color="#7D8BA6"/>
<stop offset="0.70743" stop-color="#69728B"/>
<stop offset="0.80607" stop-color="#646E86"/>
<stop offset="0.93093" stop-color="#556376"/>
<stop offset="1" stop-color="#4A5A6A"/>
</linearGradient>
<linearGradient id="paint18_linear_2229_1500" x1="82.3391" y1="52.1394" x2="83.2588" y2="53.0305" gradientUnits="userSpaceOnUse">
<stop stop-color="#78899B"/>
<stop offset="0.53884" stop-color="#C3CBD3"/>
<stop offset="1" stop-color="white"/>
</linearGradient>
<linearGradient id="paint19_linear_2229_1500" x1="88.1057" y1="58.658" x2="89.73" y2="60.2317" gradientUnits="userSpaceOnUse">
<stop stop-color="white"/>
<stop offset="0.46116" stop-color="#C3CBD3"/>
<stop offset="1" stop-color="#78899B"/>
</linearGradient>
<radialGradient id="paint20_radial_2229_1500" cx="0" cy="0" r="1" gradientUnits="userSpaceOnUse" gradientTransform="translate(84.0231 55.1179) rotate(45.9066) scale(6.94558 6.94211)">
<stop stop-color="#DCE9F2"/>
<stop offset="0.13791" stop-color="#BBC6CD"/>
<stop offset="0.56634" stop-color="#575C60"/>
<stop offset="0.86244" stop-color="#181A1B"/>
<stop offset="1"/>
</radialGradient>
<radialGradient id="paint21_radial_2229_1500" cx="0" cy="0" r="1" gradientUnits="userSpaceOnUse" gradientTransform="translate(83.3832 54.382) rotate(45.9066) scale(10.2963 10.2911)">
<stop stop-color="#D4E2FF"/>
<stop offset="1" stop-color="#4B5C7D"/>
</radialGradient>
<radialGradient id="paint22_radial_2229_1500" cx="0" cy="0" r="1" gradientUnits="userSpaceOnUse" gradientTransform="translate(82.6092 67.4378) rotate(45.9065) scale(14.8029 14.7955)">
<stop stop-color="#78899B"/>
<stop offset="0.35705" stop-color="#4A545F"/>
<stop offset="0.79476" stop-color="#15181B"/>
<stop offset="1"/>
</radialGradient>
<radialGradient id="paint23_radial_2229_1500" cx="0" cy="0" r="1" gradientUnits="userSpaceOnUse" gradientTransform="translate(79.0496 53.2328) rotate(45.9065) scale(12.2347 12.2286)">
<stop stop-color="#78899B"/>
<stop offset="0.35705" stop-color="#4A545F"/>
<stop offset="0.79476" stop-color="#15181B"/>
<stop offset="1"/>
</radialGradient>
</defs>
</svg>
