<svg width="56" height="71" viewBox="0 0 56 71" fill="none" xmlns="http://www.w3.org/2000/svg">
<path d="M48.9344 51.5669C48.3741 61.5325 36.5924 69.9424 23.4103 68.6404C9.72782 67.2891 1.6803 58.428 1.6803 48.4626C2.24058 38.497 12.413 31.9481 25.6383 32.6917C38.8637 33.4352 49.4947 41.6013 48.9344 51.5669Z" fill="black"/>
<path d="M3.9222 3.45068L0.300537 7.2448L8.92354 12.936L11.338 10.3491L3.9222 3.45068Z" fill="white"/>
<path d="M2.71498 17.5924L3.40482 13.7983L7.88878 14.833L7.19894 18.2822L2.71498 17.5924Z" fill="white"/>
<path d="M51.4842 44.6637C50.9122 54.8391 39.9756 62.7268 26.516 61.3974C12.5455 60.0176 3.57745 51.912 3.57745 41.7368C4.14951 31.5615 14.7368 24.4217 28.2406 25.1809C41.7443 25.9401 52.0563 34.4883 51.4842 44.6637Z" fill="#DE1E3E"/>
<path fill-rule="evenodd" clip-rule="evenodd" d="M1.16272 41.669L1.16653 41.6013C1.84604 29.5148 14.2062 21.9736 28.3758 22.7703C35.5816 23.1754 42.0485 25.6622 46.6885 29.5383C51.3374 33.4218 54.2322 38.7937 53.8946 44.7992C53.219 56.8165 40.585 65.2132 26.2784 63.8002C11.6169 62.3521 1.16272 53.6335 1.16272 41.7368L1.16272 41.669ZM26.5157 61.3974C39.9753 62.7268 50.9119 54.8391 51.484 44.6637C52.056 34.4884 41.744 25.9401 28.2403 25.1809C14.7365 24.4217 4.14923 31.5615 3.57716 41.7368C3.57716 51.912 12.5452 60.0176 26.5157 61.3974Z" fill="black"/>
<path fill-rule="evenodd" clip-rule="evenodd" d="M26.5271 53.3765C35.7225 54.2813 43.1913 48.9428 43.5788 42.0515C43.9662 35.1602 36.9187 29.3673 27.6933 28.8486C18.4679 28.33 11.2375 33.162 10.8501 40.0533C10.8535 46.9447 16.9827 52.4374 26.5271 53.3765ZM26.4756 46.3882C31.942 46.9231 36.3793 43.7937 36.6066 39.7501C36.8339 35.7065 32.6423 32.3042 27.1583 31.9959C21.6743 31.6875 17.3785 34.5199 17.1511 38.5635C17.1561 42.6073 20.8018 45.833 26.4756 46.3882Z" fill="#FF6C4F"/>
<path d="M31.3917 38.3516C31.0625 40.6598 28.5341 42.2611 25.6449 41.717C22.6461 41.1522 20.8667 39.1446 21.0718 36.8262C21.401 34.5179 23.8387 33.0808 26.7489 33.4958C29.6591 33.9108 31.7208 36.0433 31.3917 38.3516Z" fill="#110111"/>
<path fill-rule="evenodd" clip-rule="evenodd" d="M22.9293 4.12965C22.6504 2.53704 21.1912 1.48267 19.67 1.77465C18.1488 2.06663 17.1417 3.59439 17.4206 5.187L17.5782 6.08729C17.4066 6.13462 17.2388 6.1857 17.0749 6.24078C15.3202 6.83029 14.6152 8.75445 14.7954 10.5967C15.2171 14.9089 16.2938 18.6965 17.8769 22.2556C18.1923 22.9647 18.8964 23.4215 19.6723 23.408C19.987 23.4025 20.2982 23.3919 20.6058 23.3765L22.8564 36.2289C23.1353 37.8216 24.5946 38.8759 26.1158 38.5839C27.637 38.292 28.6441 36.7642 28.3652 35.1716L26.1481 22.5108C34.6988 20.1993 39.4264 14.0218 40.1389 10.8665C40.5888 8.87388 41.5179 4.08707 37.2064 4.94936C35.0201 6.08039 31.2512 5.89274 27.3411 5.69805C25.9495 5.62876 24.5399 5.55858 23.1775 5.54665L22.9293 4.12965Z" fill="#EE3040"/>
<path fill-rule="evenodd" clip-rule="evenodd" d="M37.2064 4.94933C41.5179 4.08705 40.5888 8.87386 40.1389 10.8664C39.4265 14.0218 34.6989 20.1993 26.1482 22.5108L28.3653 35.1716C28.6442 36.7642 27.6371 38.2919 26.1158 38.5839C24.5946 38.8759 23.1354 37.8215 22.8565 36.2289L20.6058 23.3765C20.2982 23.3919 19.987 23.4025 19.6723 23.4079C18.8964 23.4214 18.1923 22.9647 17.8769 22.2556C16.2939 18.6964 15.2172 14.9089 14.7955 10.5967C14.6153 8.75442 15.3203 6.83027 17.0749 6.24075C17.2388 6.18568 17.4067 6.1346 17.5783 6.08727L17.4206 5.18698C17.1417 3.59437 18.1488 2.0666 19.67 1.77462C21.1912 1.48265 22.6505 2.53702 22.9294 4.12963L23.1775 5.54662C24.54 5.55856 25.9495 5.62874 27.3411 5.69803L27.3412 5.69803C31.2512 5.89271 35.0201 6.08037 37.2064 4.94933ZM24.6318 3.85282L24.6281 3.83215C24.1955 1.36164 21.8817 -0.405968 19.3449 0.0809394C17.0022 0.5306 15.5044 2.70851 15.6616 4.98924C13.5099 6.20539 12.885 8.78023 13.079 10.7645C13.5199 15.2721 14.6477 19.2391 16.3012 22.9565C16.8191 24.1208 17.902 24.9337 19.157 25.101L21.1577 36.5264C21.5904 38.9969 23.9041 40.7645 26.4409 40.2776C28.9529 39.7955 30.4934 37.3264 30.064 34.8741L28.1104 23.718C31.966 22.4231 35.0275 20.3912 37.2721 18.2541C39.7586 15.8867 41.3645 13.2689 41.8212 11.2463C42.036 10.2948 42.479 8.25976 42.1534 6.52003C41.983 5.60969 41.5575 4.53246 40.536 3.8172C39.5025 3.0935 38.2159 2.98869 36.8682 3.25822L36.6299 3.30589L36.414 3.41757C35.6675 3.80378 34.492 4.03009 32.8493 4.09768C31.2387 4.16396 29.4023 4.07392 27.4269 3.97556L27.4088 3.97466C26.4994 3.92938 25.5641 3.88281 24.6318 3.85282Z" fill="black"/>
<path fill-rule="evenodd" clip-rule="evenodd" d="M19.6701 1.77465C21.1913 1.48267 22.6506 2.53704 22.9294 4.12965L28.3653 35.1716C28.6442 36.7642 27.6371 38.292 26.1159 38.5839C24.5947 38.8759 23.1354 37.8216 22.8565 36.2289L17.4207 5.187C17.1418 3.59439 18.1489 2.06663 19.6701 1.77465Z" fill="#963F3B"/>
<mask id="mask0_2232_1742" style="mask-type:alpha" maskUnits="userSpaceOnUse" x="17" y="1" width="12" height="38">
<path fill-rule="evenodd" clip-rule="evenodd" d="M19.6701 1.77465C21.1913 1.48267 22.6506 2.53704 22.9294 4.12965L28.3653 35.1716C28.6442 36.7642 27.6371 38.292 26.1159 38.5839C24.5947 38.8759 23.1354 37.8216 22.8565 36.2289L17.4207 5.187C17.1418 3.59439 18.1489 2.06663 19.6701 1.77465Z" fill="#963F3B"/>
</mask>
<g mask="url(#mask0_2232_1742)">
<path d="M27.0323 21.5591L20.4788 22.5938L18.2368 27.4227L30.6539 31.0444L27.0323 21.5591Z" fill="#842B27"/>
</g>
<path d="M17.8769 22.2555C16.2938 18.6964 15.2171 14.9088 14.7954 10.5966C14.6152 8.75436 15.3202 6.8302 17.0749 6.24069C22.6908 4.35387 32.9491 7.15169 37.2064 4.94927C41.5179 4.08698 40.5888 8.8738 40.1389 10.8664C39.2632 14.7445 32.3222 23.1881 19.6723 23.4079C18.8964 23.4214 18.1923 22.9646 17.8769 22.2555Z" fill="#EE3040"/>
<mask id="mask1_2232_1742" style="mask-type:alpha" maskUnits="userSpaceOnUse" x="14" y="4" width="27" height="20">
<path d="M17.8769 22.2555C16.2938 18.6964 15.2171 14.9088 14.7954 10.5966C14.6152 8.75436 15.3202 6.8302 17.0749 6.24069C22.6908 4.35387 32.9491 7.15169 37.2064 4.94927C41.5179 4.08698 40.5888 8.8738 40.1389 10.8664C39.2632 14.7445 32.3222 23.1881 19.6723 23.4079C18.8964 23.4214 18.1923 22.9646 17.8769 22.2555Z" fill="#EE3040"/>
</mask>
<g mask="url(#mask1_2232_1742)">
<path d="M26.1696 24.4908C24.9624 19.4894 24.2726 8.27951 24.6175 3.10571L10.1309 3.45063L13.5801 27.94L26.1696 24.4908Z" fill="#FF4343"/>
</g>
</svg>
