<svg width="56" height="55" viewBox="0 0 56 55" fill="none" xmlns="http://www.w3.org/2000/svg">
<g filter="url(#filter0_d_2234_1803)">
<path d="M10.2771 8.3103C11.7204 3.72132 16.6105 1.17121 21.1995 2.61447L47.4529 10.8713C52.0418 12.3146 54.5919 17.2047 53.1487 21.7936L45.485 46.161C44.0418 50.75 39.1517 53.3001 34.5627 51.8568L8.3093 43.6C3.72032 42.1567 1.17021 37.2666 2.61347 32.6777L10.2771 8.3103Z" fill="#093493"/>
<path d="M47.6327 10.2993C52.5376 11.8419 55.2637 17.0683 53.7213 21.9733L46.0574 46.3415C44.5145 51.2463 39.2876 53.9715 34.3827 52.4289L8.12902 44.172C3.22431 42.6292 0.499016 37.4031 2.04134 32.4982L9.70526 8.13005C11.248 3.22531 16.4741 0.499976 21.379 2.04237L47.6327 10.2993Z" stroke="black" stroke-width="1.2"/>
</g>
<path d="M47.4164 10.8584C51.9926 12.2977 54.6863 16.6965 53.4324 20.6833L46.9487 41.2991C45.6947 45.2858 40.7593 47.8944 36.1831 46.4552L10.0897 38.2487C5.51358 36.8095 2.93669 31.8576 4.19027 27.8708L10.6796 7.23734C11.9335 3.25052 16.6601 1.18541 21.2363 2.62466L47.4164 10.8584ZM45.5295 21.6918C45.5295 18.2375 42.7293 15.4374 39.275 15.4374C35.8207 15.4374 33.0206 18.2375 33.0206 21.6918C33.0207 25.146 35.8209 27.9462 39.2751 27.9462C42.7293 27.9462 45.5294 25.1459 45.5295 21.6918ZM27.2944 15.9127C27.2944 12.4584 24.4933 9.65801 21.039 9.65801C17.5849 9.65826 14.7846 12.4584 14.7846 15.9125C14.7846 19.3666 17.5849 22.1667 21.039 22.1669C24.4933 22.1669 27.2943 19.3669 27.2944 15.9127Z" fill="#0087FA"/>
<path d="M19.3733 24.5461L35.4449 29.6007L34.5158 32.5548C33.2508 36.5771 28.6275 38.7063 24.1895 37.3105L-nan -nanL-nan -nanL24.1895 37.3105C19.7514 35.9147 17.1792 31.5225 18.4442 27.5002L19.3733 24.5461Z" fill="#093494"/>
<defs>
<filter id="filter0_d_2234_1803" x="1.00952" y="1.0105" width="53.7432" height="53.4502" filterUnits="userSpaceOnUse" color-interpolation-filters="sRGB">
<feFlood flood-opacity="0" result="BackgroundImageFix"/>
<feColorMatrix in="SourceAlpha" type="matrix" values="0 0 0 0 0 0 0 0 0 0 0 0 0 0 0 0 0 0 127 0" result="hardAlpha"/>
<feOffset dy="1"/>
<feComposite in2="hardAlpha" operator="out"/>
<feColorMatrix type="matrix" values="0 0 0 0 0 0 0 0 0 0 0 0 0 0 0 0 0 0 0.5 0"/>
<feBlend mode="normal" in2="BackgroundImageFix" result="effect1_dropShadow_2234_1803"/>
<feBlend mode="normal" in="SourceGraphic" in2="effect1_dropShadow_2234_1803" result="shape"/>
</filter>
</defs>
</svg>
