<svg width="57" height="54" viewBox="0 0 57 54" fill="none" xmlns="http://www.w3.org/2000/svg">
<path d="M41.1025 3.77783C41.2654 3.75384 41.431 3.7982 41.5605 3.8999L55.3711 14.7466C55.5038 14.8508 55.5863 15.007 55.5986 15.1753C55.6109 15.3434 55.5515 15.5089 55.4355 15.6313L52.6133 18.6108L52.6133 28.1704C52.6133 29.0118 52.2362 29.6662 51.6729 30.0923C51.1269 30.505 50.4297 30.69 49.7637 30.687C49.0973 30.6841 48.4021 30.4924 47.8584 30.0796C47.2985 29.6544 46.9189 29.0047 46.9189 28.1704L46.9189 24.6235L20.5996 52.4126C20.3759 52.6486 20.0045 52.6633 19.7627 52.4458L1.59863 36.1128C1.3659 35.9034 1.33295 35.5498 1.52344 35.3013L9.3623 25.0776L9.44531 24.9888C9.53737 24.9091 9.65241 24.8591 9.77539 24.8462C9.93927 24.8291 10.1034 24.8796 10.2285 24.9868L20.0527 33.4087L40.6992 4.02686L40.7793 3.93408C40.8679 3.85092 40.9805 3.79584 41.1025 3.77783Z" fill="#18FE10" stroke="black" stroke-width="1.2" stroke-linejoin="round"/>
<path d="M13.1508 38.8566C12.3818 33.3033 19.3025 33.7521 18.7581 38.8567M22.5381 38.8571C21.7691 33.3038 28.6898 33.7525 28.1454 38.8572" stroke="black" stroke-linecap="round" stroke-linejoin="round"/>
<path d="M21.8047 41.9192L21.8652 41.925C22.0018 41.9531 22.1045 42.0741 22.1045 42.219L22.1045 46.1458C22.1045 47.3224 21.094 47.9729 20.1641 48.0208C19.6904 48.045 19.1977 47.9199 18.8184 47.6057C18.4319 47.2854 18.1924 46.7925 18.1924 46.1458L18.1924 42.219L18.1982 42.1584C18.2262 42.0218 18.3472 41.9192 18.4922 41.9192L21.8047 41.9192Z" fill="#462427" stroke="black" stroke-width="0.6" stroke-linecap="round" stroke-linejoin="round"/>
<path d="M27.2074 0.784584C27.3403 0.84978 27.4267 0.983392 27.4316 1.1314L27.4906 2.93589L28.55 4.39519C28.637 4.51501 28.6511 4.67356 28.5863 4.80657C28.5214 4.9396 28.388 5.02582 28.2402 5.03071L26.4408 5.08912L24.9837 6.1524C24.8642 6.23953 24.7059 6.25327 24.5729 6.1883C24.4399 6.12318 24.3537 5.98958 24.3487 5.84148L24.2885 4.03526L23.2295 2.57727C23.1425 2.45741 23.1283 2.29892 23.1932 2.16589C23.2581 2.03293 23.3915 1.94664 23.5393 1.94174L25.3382 1.88202L26.7966 0.820483L26.8922 0.769396C26.9933 0.731755 27.1076 0.735709 27.2074 0.784584Z" fill="#F2E603" stroke="black" stroke-width="0.8" stroke-linejoin="round"/>
<path d="M19.248 14.4996C19.394 14.475 19.5418 14.5333 19.6319 14.6507L20.8872 16.2906L22.8468 16.943C22.9871 16.9897 23.0898 17.1104 23.1144 17.2563C23.1389 17.4022 23.0814 17.55 22.9641 17.6402L21.3269 18.8983L20.6769 20.8622C20.6302 21.0028 20.5097 21.1063 20.3636 21.131C20.2176 21.1557 20.0698 21.0975 19.9797 20.98L18.7222 19.3384L16.7648 18.6877C16.6245 18.641 16.5208 18.5204 16.4963 18.3745C16.4718 18.2287 16.5302 18.0807 16.6475 17.9905L18.2844 16.7304L18.9347 14.7685L18.9827 14.6712C19.0431 14.5815 19.1383 14.5182 19.248 14.4996Z" fill="#F2E603" stroke="black" stroke-width="0.8" stroke-linejoin="round"/>
<path d="M34.0056 8.18054C34.1249 8.26824 34.1861 8.41509 34.1647 8.56171L33.6495 12.0881L35.1982 15.2979C35.2625 15.4312 35.2474 15.5892 35.1601 15.7086C35.0727 15.8281 34.9269 15.8898 34.7806 15.8684L31.2596 15.3515L28.0589 16.9038C27.9257 16.9683 27.7676 16.9539 27.6483 16.8662C27.5588 16.8004 27.5016 16.7016 27.4879 16.5944L27.4892 16.4851L28.0045 12.9587L26.4558 9.7489C26.3914 9.61547 26.4056 9.45698 26.493 9.33754C26.5805 9.2182 26.7271 9.1569 26.8734 9.17836L30.3927 9.69407L33.5951 8.14295L33.6981 8.10962C33.8044 8.09046 33.916 8.11467 34.0056 8.18054Z" fill="#F2E603" stroke="black" stroke-width="0.8" stroke-linejoin="round"/>
<mask id="mask0_2234_1760" style="mask-type:alpha" maskUnits="userSpaceOnUse" x="18" y="42" width="4" height="6">
<path d="M21.8044 42.219L18.4922 42.219L18.4922 46.1461C18.4922 48.416 21.8044 48.0766 21.8044 46.1461L21.8044 42.219Z" fill="#F74656"/>
</mask>
<g mask="url(#mask0_2234_1760)">
<ellipse cx="19.2915" cy="45.8718" rx="2.852" ry="3.23316" fill="#EF3045"/>
</g>
</svg>
