<svg width="58" height="58" viewBox="0 0 58 58" fill="none" xmlns="http://www.w3.org/2000/svg">
<g filter="url(#filter0_d_2234_1772)">
<path d="M16.3975 0.696289C16.5292 0.523537 16.7627 0.452592 16.9727 0.532227L53.1689 14.2588L53.2754 14.3145C53.3085 14.3372 53.3384 14.3643 53.3652 14.3945L56.374 17.7783L56.4229 17.8428C56.5218 17.9985 56.5276 18.199 56.4326 18.3623L49.377 30.4834L53.1992 32.2285L53.2803 32.2754C53.3056 32.2932 53.329 32.3136 53.3506 32.3359L56.3594 35.4385C56.5293 35.6138 56.5481 35.8864 56.4033 36.083L42.3994 55.1064C41.7514 55.9868 40.6137 56.3374 39.5928 55.9951L39.3906 55.918L0.920898 39.2119C0.66527 39.1008 0.5 38.8481 0.5 38.5693L0.5 32.6836C0.500016 32.6063 0.518262 32.5302 0.552734 32.4609L16.3477 0.777344L16.3975 0.696289Z" fill="#8EE0F6" stroke="black" stroke-linejoin="round"/>
<mask id="mask0_2234_1772" style="mask-type:alpha" maskUnits="userSpaceOnUse" x="1" y="1" width="56" height="55">
<path d="M52.9919 14.7264L16.795 1L1 32.6837L1 38.5697C1 38.6493 1.04727 38.7214 1.12033 38.7531L39.5894 55.4591C40.445 55.8307 41.4438 55.5615 41.9967 54.8103L56.0005 35.7863L52.9919 32.6837L48.6671 30.7093L56.0005 18.1109L52.9919 14.7264Z" fill="#8EE0F6"/>
</mask>
<g mask="url(#mask0_2234_1772)">
<path d="M39.0141 47.6974L48.6718 30.7014L53.3467 32.2588L42.2697 49.4387C40.5536 52.0129 37.5065 50.9312 39.0141 47.6974Z" fill="#1450AF"/>
<path d="M53.6475 13.8857L34.3301 47.4336L1 32.6914L16.8438 -0.15039L53.6475 13.8857ZM7.45312 30.4268L34.6084 40.6025L36.8145 36.7334L8.92285 26.7793L7.45312 30.4268ZM29.0703 28.1396L39.3945 32.626L40.9951 29.6104L30.6494 24.9268L29.0703 28.1396ZM10.0156 23.1133L23.6318 29.1514L32.9453 13.8643L17.3379 7.37695L10.0156 23.1133ZM32.8271 20.9531L43.9893 25.0908L45.8779 21.627L33.9707 17.958L32.8271 20.9531ZM23.5801 14.6436L26.9297 14.6436L25.2168 18.4639L25.8262 22.1299L22.3037 22.5703L19.335 25.0156L17.5479 22.5703L14.1133 21.8213L15.874 18.2988L15.3896 14.6436L18.7881 14.6436L21.335 11.6934L23.5801 14.6436Z" fill="white"/>
</g>
</g>
<defs>
<filter id="filter0_d_2234_1772" x="0" y="-0.000244141" width="57.5005" height="57.6252" filterUnits="userSpaceOnUse" color-interpolation-filters="sRGB">
<feFlood flood-opacity="0" result="BackgroundImageFix"/>
<feColorMatrix in="SourceAlpha" type="matrix" values="0 0 0 0 0 0 0 0 0 0 0 0 0 0 0 0 0 0 127 0" result="hardAlpha"/>
<feOffset dx="0.5" dy="1"/>
<feComposite in2="hardAlpha" operator="out"/>
<feColorMatrix type="matrix" values="0 0 0 0 0 0 0 0 0 0 0 0 0 0 0 0 0 0 1 0"/>
<feBlend mode="normal" in2="BackgroundImageFix" result="effect1_dropShadow_2234_1772"/>
<feBlend mode="normal" in="SourceGraphic" in2="effect1_dropShadow_2234_1772" result="shape"/>
</filter>
</defs>
</svg>
