<svg width="59" height="58" viewBox="0 0 59 58" fill="none" xmlns="http://www.w3.org/2000/svg">
<path d="M25.178 18.1867C33.638 17.4052 41.1624 23.9816 41.9844 32.8757C42.4875 38.3213 40.36 43.372 36.694 46.6503L38.7511 53.1841L29.3526 55.6549L28.5141 50.358C28.3945 50.372 28.2744 50.3851 28.1538 50.3962C21.4096 51.0193 15.2596 46.9664 12.6261 40.7909L6.82905 42.977L4.79006 33.4759L11.1603 32.7373L11.2946 33.2888C11.6813 25.4319 17.4943 18.8966 25.178 18.1867Z" fill="black"/>
<path d="M25.178 18.1867L25.086 17.191L25.086 17.191L25.178 18.1867ZM41.9844 32.8757L42.9801 32.7837L42.9801 32.7837L41.9844 32.8757ZM36.694 46.6503L36.0274 45.9049C35.7346 46.1668 35.6222 46.5759 35.7402 46.9506L36.694 46.6503ZM38.7511 53.1841L39.0054 54.1512C39.2699 54.0817 39.4944 53.9068 39.6266 53.6673C39.7588 53.4279 39.7871 53.1447 39.705 52.8838L38.7511 53.1841ZM29.3526 55.6549L28.3649 55.8113C28.4091 56.0904 28.5693 56.3378 28.806 56.4923C29.0426 56.6468 29.3336 56.6939 29.6069 56.6221L29.3526 55.6549ZM28.5141 50.358L29.5018 50.2017C29.4179 49.6718 28.9308 49.3025 28.398 49.3648L28.5141 50.358ZM28.1538 50.3962L28.2458 51.392L28.2458 51.392L28.1538 50.3962ZM12.6261 40.7909L13.546 40.3986C13.3358 39.9058 12.7746 39.6661 12.2733 39.8552L12.6261 40.7909ZM6.82905 42.977L5.85131 43.1868C5.91241 43.4715 6.09455 43.7154 6.35016 43.8549C6.60577 43.9943 6.90946 44.0154 7.18191 43.9127L6.82905 42.977ZM4.79006 33.4759L4.67489 32.4825C4.39488 32.515 4.14158 32.6641 3.97734 32.8932C3.8131 33.1223 3.75318 33.4101 3.81233 33.6857L4.79006 33.4759ZM11.1603 32.7373L12.1319 32.5006C12.0124 32.0103 11.5464 31.6858 11.0451 31.7439L11.1603 32.7373ZM11.2946 33.2888L10.323 33.5254C10.4405 34.0081 10.8947 34.3313 11.3893 34.2843C11.8839 34.2372 12.2689 33.8342 12.2934 33.3379L11.2946 33.2888ZM25.178 18.1867L25.2699 19.1825C33.1337 18.4561 40.2131 24.576 40.9886 32.9677L41.9844 32.8757L42.9801 32.7837C42.1118 23.3872 34.1423 16.3544 25.086 17.191L25.178 18.1867ZM41.9844 32.8757L40.9886 32.9677C41.4625 38.0965 39.4582 42.8369 36.0274 45.9049L36.694 46.6503L37.3606 47.3957C41.2619 43.907 43.5125 38.546 42.9801 32.7837L41.9844 32.8757ZM36.694 46.6503L35.7402 46.9506L37.7973 53.4844L38.7511 53.1841L39.705 52.8838L37.6479 46.35L36.694 46.6503ZM38.7511 53.1841L38.4969 52.217L29.0984 54.6878L29.3526 55.6549L29.6069 56.6221L39.0054 54.1512L38.7511 53.1841ZM29.3526 55.6549L30.3403 55.4986L29.5018 50.2017L28.5141 50.358L27.5264 50.5144L28.3649 55.8113L29.3526 55.6549ZM28.5141 50.358L28.398 49.3648C28.2835 49.3782 28.1719 49.3903 28.0618 49.4005L28.1538 50.3962L28.2458 51.392C28.3769 51.3799 28.5054 51.3659 28.6303 51.3513L28.5141 50.358ZM28.1538 50.3962L28.0618 49.4005C21.7896 49.98 16.0252 46.2122 13.546 40.3986L12.6261 40.7909L11.7063 41.1831C14.4941 47.7205 21.0295 52.0587 28.2458 51.392L28.1538 50.3962ZM12.6261 40.7909L12.2733 39.8552L6.4762 42.0413L6.82905 42.977L7.18191 43.9127L12.979 41.7265L12.6261 40.7909ZM6.82905 42.977L7.80679 42.7672L5.7678 33.266L4.79006 33.4759L3.81233 33.6857L5.85131 43.1868L6.82905 42.977ZM4.79006 33.4759L4.90524 34.4692L11.2754 33.7306L11.1603 32.7373L11.0451 31.7439L4.67489 32.4825L4.79006 33.4759ZM11.1603 32.7373L10.1887 32.9739L10.323 33.5254L11.2946 33.2888L12.2662 33.0521L12.1319 32.5006L11.1603 32.7373ZM11.2946 33.2888L12.2934 33.3379C12.6579 25.9328 18.1261 19.8425 25.27 19.1825L25.178 18.1867L25.086 17.191C16.8624 17.9508 10.7048 24.931 10.2958 33.2396L11.2946 33.2888Z" fill="black"/>
<mask id="path-3-outside-1_2234_1787" maskUnits="userSpaceOnUse" x="6.27588" y="0.558105" width="53" height="53" fill="black">
<rect fill="white" x="6.27588" y="0.558105" width="53" height="53"/>
<path d="M34.7905 8.14111C41.2297 9.02425 46.627 13.2 49.2544 18.9282L54.8003 17.3979L56.3921 29.0542L50.8403 29.0542C50.0857 35.4929 46.1082 40.9369 40.5757 43.7095L42.0464 49.356L30.5337 51.1997L30.479 45.5933C23.7243 44.9602 18.0116 40.7191 15.2612 34.8022L9.66357 36.3423L8.27588 24.7661L13.6284 24.6411C14.3987 17.9093 18.691 12.2569 24.604 9.59814L22.9849 4.23096L34.5229 2.55811L34.7905 8.14111Z"/>
</mask>
<path d="M34.7905 8.14111C41.2297 9.02425 46.627 13.2 49.2544 18.9282L54.8003 17.3979L56.3921 29.0542L50.8403 29.0542C50.0857 35.4929 46.1082 40.9369 40.5757 43.7095L42.0464 49.356L30.5337 51.1997L30.479 45.5933C23.7243 44.9602 18.0116 40.7191 15.2612 34.8022L9.66357 36.3423L8.27588 24.7661L13.6284 24.6411C14.3987 17.9093 18.691 12.2569 24.604 9.59814L22.9849 4.23096L34.5229 2.55811L34.7905 8.14111Z" fill="white"/>
<path d="M34.7905 8.14111L32.7928 8.23686C32.8389 9.19906 33.5644 9.99167 34.5188 10.1226L34.7905 8.14111ZM49.2544 18.9282L47.4365 19.762C47.8455 20.6537 48.8407 21.1171 49.7864 20.8562L49.2544 18.9282ZM54.8003 17.3979L56.7819 17.1273C56.7038 16.5558 56.3828 16.0458 55.9012 15.7282C55.4196 15.4107 54.8244 15.3166 54.2683 15.47L54.8003 17.3979ZM56.3921 29.0542L56.3921 31.0542C56.9697 31.0542 57.5191 30.8045 57.8989 30.3693C58.2788 29.9341 58.4519 29.3559 58.3737 28.7836L56.3921 29.0542ZM50.8403 29.0542L50.8403 27.0542C49.8258 27.0542 48.972 27.8138 48.8539 28.8214L50.8403 29.0542ZM40.5757 43.7095L39.6796 41.9214C38.8356 42.3444 38.4023 43.3 38.6403 44.2136L40.5757 43.7095ZM42.0464 49.356L42.3627 51.3308C42.9193 51.2416 43.4125 50.9217 43.7208 50.4497C44.0292 49.9776 44.1239 49.3974 43.9818 48.8518L42.0464 49.356ZM30.5337 51.1997L28.5338 51.2192C28.5395 51.8015 28.7986 52.3523 29.2435 52.7279C29.6885 53.1036 30.275 53.2666 30.85 53.1745L30.5337 51.1997ZM30.479 45.5933L32.4789 45.5738C32.4689 44.549 31.6859 43.6976 30.6656 43.602L30.479 45.5933ZM15.2612 34.8022L17.0749 33.9592C16.6632 33.0736 15.6723 32.6149 14.7307 32.8739L15.2612 34.8022ZM9.66357 36.3423L7.67779 36.5803C7.7471 37.1585 8.06496 37.6778 8.54835 38.0025C9.03174 38.3272 9.63264 38.4251 10.1941 38.2706L9.66357 36.3423ZM8.27588 24.7661L8.22918 22.7667C7.66557 22.7798 7.13369 23.0302 6.76447 23.4563C6.39526 23.8823 6.22299 24.4444 6.2901 25.0042L8.27588 24.7661ZM13.6284 24.6411L13.6751 26.6406C14.6736 26.6172 15.5019 25.8608 15.6155 24.8685L13.6284 24.6411ZM24.604 9.59814L25.4242 11.4222C26.3405 11.0102 26.8089 9.98236 26.5188 9.02051L24.604 9.59814ZM22.9849 4.23096L22.6979 2.25165C22.1217 2.3352 21.6104 2.66572 21.2977 3.1569C20.985 3.64808 20.9019 4.25114 21.0701 4.80859L22.9849 4.23096ZM34.5229 2.55811L36.5207 2.46236C36.4937 1.8992 36.2302 1.37358 35.7952 1.01493C35.3602 0.656276 34.794 0.497902 34.236 0.578801L34.5229 2.55811ZM34.7905 8.14111L34.5188 10.1226C40.2589 10.9098 45.0852 14.6358 47.4365 19.762L49.2544 18.9282L51.0723 18.0944C48.1688 11.7643 42.2005 7.13868 35.0623 6.15966L34.7905 8.14111ZM49.2544 18.9282L49.7864 20.8562L55.3323 19.3259L54.8003 17.3979L54.2683 15.47L48.7224 17.0003L49.2544 18.9282ZM54.8003 17.3979L52.8187 17.6686L54.4105 29.3248L56.3921 29.0542L58.3737 28.7836L56.7819 17.1273L54.8003 17.3979ZM56.3921 29.0542L56.3921 27.0542L50.8403 27.0542L50.8403 29.0542L50.8403 31.0542L56.3921 31.0542L56.3921 29.0542ZM50.8403 29.0542L48.8539 28.8214C48.1795 34.5761 44.6237 39.4438 39.6796 41.9214L40.5757 43.7095L41.4717 45.4975C47.5927 42.4301 51.992 36.4096 52.8267 29.287L50.8403 29.0542ZM40.5757 43.7095L38.6403 44.2136L40.111 49.8601L42.0464 49.356L43.9818 48.8518L42.5111 43.2054L40.5757 43.7095ZM42.0464 49.356L41.7301 47.3811L30.2174 49.2249L30.5337 51.1997L30.85 53.1745L42.3627 51.3308L42.0464 49.356ZM30.5337 51.1997L32.5336 51.1802L32.4789 45.5738L30.479 45.5933L28.4791 45.6128L28.5338 51.2192L30.5337 51.1997ZM30.479 45.5933L30.6656 43.602C24.6439 43.0377 19.5364 39.2546 17.0749 33.9592L15.2612 34.8022L13.4476 35.6453C16.4869 42.1836 22.8046 46.8828 30.2924 47.5845L30.479 45.5933ZM15.2612 34.8022L14.7307 32.8739L9.13304 34.4139L9.66357 36.3423L10.1941 38.2706L15.7918 36.7306L15.2612 34.8022ZM9.66357 36.3423L11.6494 36.1042L10.2617 24.5281L8.27588 24.7661L6.2901 25.0042L7.67779 36.5803L9.66357 36.3423ZM8.27588 24.7661L8.32257 26.7656L13.6751 26.6406L13.6284 24.6411L13.5817 22.6417L8.22918 22.7667L8.27588 24.7661ZM13.6284 24.6411L15.6155 24.8685C16.304 18.8512 20.1418 13.7975 25.4242 11.4222L24.604 9.59814L23.7838 7.77407C17.2403 10.7164 12.4934 16.9674 11.6414 24.4137L13.6284 24.6411ZM24.604 9.59814L26.5188 9.02051L24.8996 3.65332L22.9849 4.23096L21.0701 4.80859L22.6892 10.1758L24.604 9.59814ZM22.9849 4.23096L23.2718 6.21026L34.8099 4.53741L34.5229 2.55811L34.236 0.578801L22.6979 2.25165L22.9849 4.23096ZM34.5229 2.55811L32.5252 2.65385L32.7928 8.23686L34.7905 8.14111L36.7882 8.04537L36.5207 2.46236L34.5229 2.55811Z" fill="black" mask="url(#path-3-outside-1_2234_1787)"/>
<ellipse cx="32.6749" cy="27.175" rx="11.3212" ry="11.5878" fill="black"/>
<ellipse cx="32.421" cy="27.3694" rx="5.75525" ry="5.83498" fill="#EE1F1F"/>
<ellipse cx="29.9467" cy="25.5045" rx="2.55183" ry="3.17005" transform="rotate(23.8809 29.9467 25.5045)" fill="#FF6F20"/>
<path d="M10.2204 1L5.45909 3.99691L12.1499 11.9598L15.2285 9.86638L10.2204 1Z" fill="black"/>
<path d="M-1.6539e-07 14.2174L2.01131 9.49696L9.35885 13.1502L7.8401 16.5571L-1.6539e-07 14.2174Z" fill="black"/>
</svg>
