<svg width="53" height="68" viewBox="0 0 53 68" fill="none" xmlns="http://www.w3.org/2000/svg">
<path d="M34.788 8.32364L34.718 14.3689L35.9222 13.1369L36.4729 12.574L36.8698 13.2536C44.881 26.9751 47.2947 34.7364 46.0195 44.9043L45.9581 45.3463C44.5423 54.5826 35.4894 60.5093 26.3589 60.7392C21.6974 60.8565 16.962 59.4978 13.1355 56.31C9.30437 53.1182 6.43044 48.1311 5.42818 41.0771L5.42556 41.0585L5.4242 41.0394C5.06421 36.4805 6.72012 32.1158 9.3397 28.1648C11.9598 24.2132 15.5713 20.6325 19.2033 17.6225C22.8382 14.6099 26.5135 12.152 29.2777 10.4477C30.6604 9.59528 31.817 8.93014 32.629 8.47777C33.035 8.25156 33.3551 8.07797 33.5742 7.96108C33.6838 7.90264 33.7684 7.85877 33.8257 7.82881C33.8543 7.81383 33.8762 7.80206 33.8911 7.79435C33.8983 7.79064 33.9038 7.78782 33.9077 7.78581L33.914 7.78289C33.9143 7.7827 33.9145 7.78256 34.1882 8.31631L33.9143 7.78197L34.8002 7.32893L34.788 8.32364Z" fill="black" stroke="black" stroke-width="1.2"/>
<path d="M35.4528 5.63624L35.28 11.5467L36.3771 10.3755L36.9443 9.76977L37.342 10.4985C44.7129 23.9919 46.8657 31.658 45.4724 41.775L45.4058 42.2141C43.8987 51.3895 35.2048 57.4513 26.4943 57.8445C22.0492 58.0451 17.5559 56.7769 13.963 53.6669C10.3672 50.5544 7.72604 45.6439 6.90046 38.6582L6.89707 38.6216C6.63711 34.1061 8.28557 29.7467 10.8439 25.7782C13.4032 21.8082 16.8993 18.1882 20.4052 15.1326C23.9138 12.0748 27.4507 9.56646 30.1087 7.8236C31.4383 6.95178 32.5496 6.27046 33.3296 5.80641C33.7196 5.57439 34.0274 5.39744 34.2378 5.27734C34.3429 5.21734 34.4235 5.17098 34.4785 5.14017C34.506 5.12477 34.5278 5.11298 34.5421 5.10504C34.549 5.10126 34.5541 5.09821 34.5578 5.09618C34.5597 5.09513 34.5618 5.0944 34.5628 5.09383L34.5631 5.09291C34.5634 5.09275 34.5643 5.0927 34.7722 5.47082L34.5644 5.09233L35.4837 4.58702L35.4528 5.63624Z" fill="#FF4D40" stroke="black" stroke-width="1.2"/>
<g filter="url(#filter0_d_2125_1425)">
<mask id="path-3-outside-1_2125_1425" maskUnits="userSpaceOnUse" x="16.7793" y="25.9595" width="19.663" height="20.0992" fill="black">
<rect fill="white" x="16.7793" y="25.9595" width="19.663" height="20.0992"/>
<path d="M33.0721 37.6931C33.2387 37.6977 33.2058 38.3225 32.9734 39.5677C32.7441 40.7965 32.5462 41.4086 32.3795 41.404L30.7256 41.3834L30.1477 44.4799C30.1141 44.6601 29.7481 44.7818 29.0497 44.845C28.3514 44.9082 27.7523 44.933 27.2525 44.9192L26.237 44.842C25.3996 44.7532 25.0022 44.5941 25.045 44.3647L25.6137 41.3173L20.6406 41.1809C20.2869 40.7431 19.9978 40.1835 19.7733 39.5021C19.5519 38.8044 19.4687 38.3081 19.5237 38.0132C19.5818 37.7019 19.6776 37.4575 19.8112 37.28L27.0636 27.8947C27.1547 27.7655 27.6812 27.6811 28.6431 27.6416C29.6216 27.6026 30.6357 27.5975 31.6853 27.6263C32.7349 27.655 33.2521 27.7104 33.2368 27.7923L31.4227 37.6479L33.0721 37.6931ZM27.0448 37.5525L28.0033 32.4162L24.1208 37.4723L27.0448 37.5525Z"/>
</mask>
<path d="M33.0721 37.6931C33.2387 37.6977 33.2058 38.3225 32.9734 39.5677C32.7441 40.7965 32.5462 41.4086 32.3795 41.404L30.7256 41.3834L30.1477 44.4799C30.1141 44.6601 29.7481 44.7818 29.0497 44.845C28.3514 44.9082 27.7523 44.933 27.2525 44.9192L26.237 44.842C25.3996 44.7532 25.0022 44.5941 25.045 44.3647L25.6137 41.3173L20.6406 41.1809C20.2869 40.7431 19.9978 40.1835 19.7733 39.5021C19.5519 38.8044 19.4687 38.3081 19.5237 38.0132C19.5818 37.7019 19.6776 37.4575 19.8112 37.28L27.0636 27.8947C27.1547 27.7655 27.6812 27.6811 28.6431 27.6416C29.6216 27.6026 30.6357 27.5975 31.6853 27.6263C32.7349 27.655 33.2521 27.7104 33.2368 27.7923L31.4227 37.6479L33.0721 37.6931ZM27.0448 37.5525L28.0033 32.4162L24.1208 37.4723L27.0448 37.5525Z" fill="#E9FB53"/>
<path d="M32.3795 41.404L32.563 40.421L32.5554 40.4208L32.5478 40.4207L32.3795 41.404ZM30.7256 41.3834L30.8939 40.4L29.9066 40.3877L29.726 41.356L30.7256 41.3834ZM27.2525 44.9192L27.0205 45.8998L27.0446 45.9016L27.069 45.9023L27.2525 44.9192ZM26.237 44.842L25.976 45.8199L25.9905 45.8214L26.0051 45.8225L26.237 44.842ZM25.6137 41.3173L26.6134 41.3447L26.7968 40.3617L25.7972 40.3343L25.6137 41.3173ZM20.6406 41.1809L19.804 41.8566L20.0431 42.1526L20.4572 42.1639L20.6406 41.1809ZM19.7733 39.5021L18.7972 39.9173L18.8 39.9259L19.7733 39.5021ZM19.8112 37.28L19.0309 36.773L19.0262 36.7791L19.0215 36.7853L19.8112 37.28ZM27.0636 27.8947L27.844 28.4018L27.8603 28.3807L27.8757 28.3589L27.0636 27.8947ZM28.6431 27.6416L28.7573 26.659L28.7561 26.6591L28.6431 27.6416ZM33.2368 27.7923L32.2372 27.7649L32.2367 27.7673L33.2368 27.7923ZM31.4227 37.6479L30.4226 37.6229L30.2421 38.6035L31.2392 38.6309L31.4227 37.6479ZM27.0448 37.5525L26.8613 38.5355L27.8609 38.5629L28.0444 37.5799L27.0448 37.5525ZM28.0033 32.4162L29.0029 32.4436L29.7062 28.6751L27.2206 31.9121L28.0033 32.4162ZM24.1208 37.4723L23.3382 36.9682L22.2322 38.4086L23.9374 38.4554L24.1208 37.4723ZM33.0721 37.6931L32.8886 38.6761C32.5542 38.6669 32.3558 38.493 32.2656 38.3697C32.1861 38.2609 32.1659 38.1643 32.1625 38.1483C32.1547 38.1118 32.1643 38.1332 32.1574 38.2662C32.1444 38.5124 32.0881 38.9276 31.9738 39.5403L32.9734 39.5677L33.973 39.5951C34.0911 38.9627 34.1674 38.4428 34.1874 38.0641C34.1968 37.8846 34.198 37.6712 34.1568 37.4774C34.1367 37.3827 34.0935 37.2268 33.9848 37.0781C33.8654 36.9148 33.6316 36.7204 33.2555 36.7101L33.0721 37.6931ZM32.9734 39.5677L31.9738 39.5403C31.861 40.1447 31.7638 40.5518 31.6864 40.7913C31.6445 40.9208 31.6278 40.939 31.6504 40.9013C31.6605 40.8844 31.7175 40.7893 31.8379 40.686C31.9747 40.5687 32.2335 40.412 32.563 40.421L32.3795 41.404L32.1961 42.387C32.5672 42.3972 32.8687 42.2223 33.0491 42.0676C33.2131 41.927 33.3147 41.7752 33.3704 41.6824C33.4841 41.4928 33.5625 41.282 33.6196 41.1055C33.7401 40.7328 33.8565 40.2195 33.973 39.5951L32.9734 39.5677ZM32.3795 41.404L32.5478 40.4207L30.8939 40.4L30.7256 41.3834L30.5573 42.3667L32.2113 42.3874L32.3795 41.404ZM30.7256 41.3834L29.726 41.356L29.1481 44.4525L30.1477 44.4799L31.1473 44.5073L31.7252 41.4108L30.7256 41.3834ZM30.1477 44.4799L29.1481 44.4525C29.1736 44.316 29.2313 44.1887 29.3075 44.0806C29.3805 43.977 29.459 43.907 29.5152 43.8645C29.6167 43.7878 29.6855 43.7706 29.6555 43.7806C29.5996 43.7992 29.4354 43.8365 29.1108 43.8659L29.0497 44.845L28.9886 45.8241C29.3624 45.7903 29.7304 45.7352 30.0405 45.6321C30.1935 45.5812 30.4037 45.4959 30.6051 45.3437C30.8252 45.1774 31.0748 44.8959 31.1473 44.5073L30.1477 44.4799ZM29.0497 44.845L29.1108 43.8659C28.4394 43.9267 27.8834 43.9485 27.4359 43.9362L27.2525 44.9192L27.069 45.9023C27.6211 45.9174 28.2633 45.8898 28.9886 45.8241L29.0497 44.845ZM27.2525 44.9192L27.4844 43.9387L26.4689 43.8615L26.237 44.842L26.0051 45.8225L27.0205 45.8998L27.2525 44.9192ZM26.237 44.842L26.4981 43.8641C26.1033 43.8222 25.8979 43.7707 25.8166 43.7382C25.7742 43.7212 25.8304 43.7344 25.9012 43.8119C25.9409 43.8555 25.9924 43.9273 26.0258 44.0323C26.0605 44.1416 26.0683 44.2653 26.0447 44.3921L25.045 44.3647L24.0454 44.3373C23.9713 44.7344 24.113 45.0414 24.2897 45.2351C24.4491 45.4098 24.649 45.5113 24.8052 45.5739C25.1213 45.7005 25.5333 45.7729 25.976 45.8199L26.237 44.842ZM25.045 44.3647L26.0447 44.3921L26.6134 41.3447L25.6137 41.3173L24.6141 41.2899L24.0454 44.3373L25.045 44.3647ZM25.6137 41.3173L25.7972 40.3343L20.8241 40.1979L20.6406 41.1809L20.4572 42.1639L25.4303 42.3003L25.6137 41.3173ZM20.6406 41.1809L21.4772 40.5052C21.1966 40.1579 20.9481 39.6896 20.7467 39.0784L19.7733 39.5021L18.8 39.9259C19.0476 40.6774 19.3772 41.3283 19.804 41.8566L20.6406 41.1809ZM19.7733 39.5021L20.7495 39.087C20.6456 38.7599 20.5816 38.5024 20.5489 38.3077C20.5136 38.0972 20.5265 38.0236 20.5233 38.0406L19.5237 38.0132L18.5241 37.9858C18.4659 38.2977 18.4928 38.6197 18.5407 38.9055C18.5913 39.2072 18.6796 39.5466 18.7972 39.9172L19.7733 39.5021ZM19.5237 38.0132L20.5233 38.0406C20.5431 37.9349 20.5653 37.8622 20.5834 37.8161C20.6015 37.7701 20.6111 37.7614 20.601 37.7748L19.8112 37.28L19.0215 36.7853C18.7396 37.1598 18.5983 37.5879 18.5241 37.9858L19.5237 38.0132ZM19.8112 37.28L20.5916 37.7871L27.844 28.4018L27.0636 27.8947L26.2833 27.3877L19.0309 36.773L19.8112 37.28ZM27.0636 27.8947L27.8757 28.3589C27.7508 28.536 27.6077 28.6302 27.5448 28.6673C27.4762 28.7078 27.4273 28.7247 27.4195 28.7274C27.4051 28.7324 27.4361 28.721 27.5398 28.7044C27.7397 28.6723 28.0625 28.6434 28.5301 28.6242L28.6431 27.6416L28.7561 26.6591C28.2618 26.6794 27.8404 26.7124 27.5139 26.7647C27.3543 26.7903 27.1765 26.8267 27.0077 26.885C26.9072 26.9198 26.5173 27.0536 26.2516 27.4306L27.0636 27.8947ZM28.6431 27.6416L28.5289 28.6242C29.4824 28.5862 30.4733 28.5811 31.5019 28.6093L31.6853 27.6263L31.8688 26.6432C30.7981 26.6139 29.7609 26.619 28.7573 26.659L28.6431 27.6416ZM31.6853 27.6263L31.5019 28.6093C32.0207 28.6235 32.3801 28.6438 32.5984 28.6671C32.7152 28.6796 32.7497 28.6889 32.7384 28.6858C32.7322 28.6841 32.7149 28.6792 32.6907 28.6697C32.6685 28.6611 32.6242 28.6423 32.5717 28.6088C32.5244 28.5786 32.4298 28.5109 32.35 28.3885C32.2625 28.2544 32.1859 28.0397 32.2372 27.7649L33.2368 27.7923L34.2364 27.8197C34.3454 27.2358 33.9329 26.9612 33.8634 26.9168C33.7416 26.839 33.6186 26.8024 33.5584 26.7859C33.4217 26.7485 33.2642 26.7268 33.1223 26.7116C32.8235 26.6796 32.3995 26.6578 31.8688 26.6432L31.6853 27.6263ZM33.2368 27.7923L32.2367 27.7673L30.4226 37.6229L31.4227 37.6479L32.4228 37.6728L34.2369 27.8173L33.2368 27.7923ZM31.4227 37.6479L31.2392 38.6309L32.8886 38.6761L33.0721 37.6931L33.2555 36.7101L31.6061 36.6648L31.4227 37.6479ZM27.0448 37.5525L28.0444 37.5799L29.0029 32.4436L28.0033 32.4162L27.0037 32.3888L26.0451 37.5251L27.0448 37.5525ZM28.0033 32.4162L27.2206 31.9121L23.3382 36.9682L24.1208 37.4723L24.9035 37.9764L28.7859 32.9203L28.0033 32.4162ZM24.1208 37.4723L23.9374 38.4554L26.8613 38.5355L27.0448 37.5525L27.2282 36.5695L24.3043 36.4893L24.1208 37.4723Z" fill="black" mask="url(#path-3-outside-1_2125_1425)"/>
</g>
<defs>
<filter id="filter0_d_2125_1425" x="18.491" y="26.6245" width="15.7637" height="21.2817" filterUnits="userSpaceOnUse" color-interpolation-filters="sRGB">
<feFlood flood-opacity="0" result="BackgroundImageFix"/>
<feColorMatrix in="SourceAlpha" type="matrix" values="0 0 0 0 0 0 0 0 0 0 0 0 0 0 0 0 0 0 127 0" result="hardAlpha"/>
<feOffset dy="2"/>
<feComposite in2="hardAlpha" operator="out"/>
<feColorMatrix type="matrix" values="0 0 0 0 0 0 0 0 0 0 0 0 0 0 0 0 0 0 1 0"/>
<feBlend mode="normal" in2="BackgroundImageFix" result="effect1_dropShadow_2125_1425"/>
<feBlend mode="normal" in="SourceGraphic" in2="effect1_dropShadow_2125_1425" result="shape"/>
</filter>
</defs>
</svg>
