<svg width="53" height="66" viewBox="0 0 53 66" fill="none" xmlns="http://www.w3.org/2000/svg">
<path d="M34.788 8.32389L34.718 14.3692L35.9222 13.1372L36.4729 12.5742L36.8698 13.2538C44.881 26.9754 47.2947 34.7367 46.0195 44.9046L45.9581 45.3466C44.5423 54.5829 35.4894 60.5096 26.3589 60.7394C21.6974 60.8567 16.962 59.498 13.1355 56.3102C9.30437 53.1184 6.43044 48.1314 5.42818 41.0774L5.42556 41.0588L5.4242 41.0396C5.06421 36.4807 6.72012 32.116 9.3397 28.1651C11.9598 24.2134 15.5713 20.6328 19.2033 17.6227C22.8382 14.6102 26.5135 12.1523 29.2777 10.448C30.6604 9.59552 31.817 8.93038 32.629 8.47801C33.035 8.25181 33.3551 8.07821 33.5742 7.96132C33.6838 7.90288 33.7684 7.85902 33.8257 7.82906C33.8543 7.81408 33.8762 7.8023 33.8911 7.79459C33.8983 7.79089 33.9038 7.78806 33.9077 7.78606L33.914 7.78313C33.9143 7.78295 33.9145 7.7828 34.1882 8.31655L33.9143 7.78221L34.8002 7.32918L34.788 8.32389Z" fill="black" stroke="black" stroke-width="1.2"/>
<path d="M35.4528 5.63648L35.28 11.5469L36.3771 10.3758L36.9443 9.77002L37.342 10.4988C44.7129 23.9922 46.8657 31.6582 45.4724 41.7752L45.4058 42.2143C43.8987 51.3897 35.2048 57.4515 26.4943 57.8448C22.0492 58.0454 17.5559 56.7771 13.963 53.6671C10.3672 50.5546 7.72604 45.6441 6.90046 38.6584L6.89707 38.6219C6.63711 34.1064 8.28557 29.747 10.8439 25.7784C13.4032 21.8085 16.8993 18.1884 20.4052 15.1329C23.9138 12.075 27.4507 9.56671 30.1087 7.82384C31.4383 6.95202 32.5496 6.2707 33.3296 5.80666C33.7196 5.57464 34.0274 5.39768 34.2378 5.27758C34.3429 5.21758 34.4235 5.17122 34.4785 5.14042C34.506 5.12501 34.5278 5.11322 34.5421 5.10529C34.549 5.1015 34.5541 5.09845 34.5578 5.09642C34.5597 5.09538 34.5618 5.09464 34.5628 5.09408L34.5631 5.09316C34.5634 5.09299 34.5643 5.09295 34.7722 5.47107L34.5644 5.09257L35.4837 4.58726L35.4528 5.63648Z" fill="#FF4D40" stroke="black" stroke-width="1.2"/>
</svg>
