<svg width="45" height="49" viewBox="0 0 45 49" fill="none" xmlns="http://www.w3.org/2000/svg">
<path fill-rule="evenodd" clip-rule="evenodd" d="M7.35134 34.1853L14.3612 41.4204L9.36335 47.9188C9.30132 47.9992 9.23495 48.0759 9.16456 48.1486C7.64734 49.7147 4.55236 49.0591 2.2512 46.684C-0.0493657 44.3094 -0.684603 41.1148 0.832617 39.5487C0.903061 39.4761 0.977435 39.4077 1.05538 39.3438L7.35134 34.1853Z" fill="url(#paint0_linear_2125_1435)"/>
<g style="mix-blend-mode:multiply">
<path fill-rule="evenodd" clip-rule="evenodd" d="M0.0111401 41.9938C2.7174 39.659 5.42365 37.3241 8.12991 34.9891L7.35113 34.1853L1.05518 39.3438C0.977252 39.4078 0.902879 39.4762 0.832415 39.5487C0.537219 39.8742 0.311572 40.26 0.170092 40.6812C0.0286116 41.1024 -0.0255448 41.5496 0.0111401 41.9938Z" fill="url(#paint1_linear_2125_1435)"/>
</g>
<g style="mix-blend-mode:multiply" opacity="0.75">
<path fill-rule="evenodd" clip-rule="evenodd" d="M12.9588 39.9734C10.4835 42.9067 8.0083 45.8401 5.5332 48.7736C6.96124 49.2073 8.31174 49.0286 9.16428 48.1487C9.23467 48.076 9.30104 47.9993 9.36307 47.9189L14.3609 41.4205L12.9588 39.9734Z" fill="url(#paint2_linear_2125_1435)"/>
</g>
<g style="mix-blend-mode:screen">
<path fill-rule="evenodd" clip-rule="evenodd" d="M12.5995 35.9022C14.4918 37.8552 15.1149 40.3786 13.9913 41.5383C12.8678 42.698 10.4231 42.0549 8.53083 40.1018C6.63862 38.1487 6.01533 35.6251 7.13887 34.4654C8.26241 33.3058 10.7073 33.9491 12.5995 35.9022Z" fill="url(#paint3_radial_2125_1435)"/>
</g>
<path fill-rule="evenodd" clip-rule="evenodd" d="M12.7452 35.8524C14.6853 37.8548 15.3513 40.4142 14.2327 41.5687C13.1142 42.7231 10.6346 42.0357 8.69461 40.0332C6.75489 38.0312 6.08896 35.4721 7.20757 34.3175C8.32609 33.163 10.8055 33.8503 12.7452 35.8524Z" fill="url(#paint4_radial_2125_1435)"/>
<path fill-rule="evenodd" clip-rule="evenodd" d="M14.2229 41.1019C13.1572 42.1588 10.8613 41.5383 9.04877 39.6675C7.23658 37.797 6.63564 35.4276 7.65961 34.3276L17.2218 24.0549L24.1755 31.2322L14.2229 41.1019Z" fill="url(#paint5_linear_2125_1435)"/>
<path style="mix-blend-mode:multiply" fill-rule="evenodd" clip-rule="evenodd" d="M7.21303 36.3323C10.8075 32.5051 14.402 28.6778 17.9965 24.8504L17.2238 24.053L7.66165 34.3257C7.43869 34.5998 7.2818 34.9246 7.20382 35.2734C7.12584 35.6222 7.129 35.985 7.21303 36.3323Z" fill="url(#paint6_linear_2125_1435)"/>
<path style="mix-blend-mode:multiply" fill-rule="evenodd" clip-rule="evenodd" d="M22.7869 29.7949C18.983 33.628 15.179 37.4611 11.375 41.2941C12.5188 41.7634 13.5882 41.7293 14.2229 41.1021L24.1776 31.2304L22.7869 29.7949Z" fill="url(#paint7_linear_2125_1435)"/>
<path style="mix-blend-mode:multiply" fill-rule="evenodd" clip-rule="evenodd" d="M19.3386 36.0287L23.5454 31.8568L16.6192 24.708C16.5486 24.7526 16.4824 24.8044 16.4216 24.8624L16.3015 24.9917C15.253 26.2592 15.6763 29.7993 17.283 33.0197C17.8136 34.1262 18.507 35.1413 19.3386 36.0287Z" fill="url(#paint8_radial_2125_1435)"/>
<path fill-rule="evenodd" clip-rule="evenodd" d="M24.0229 31.754C22.8804 32.8779 20.3458 32.1303 18.3034 30.0222C16.2606 27.9138 15.5365 25.298 16.6254 24.1187L19.7677 20.7158L27.3197 28.5106L24.0229 31.754Z" fill="url(#paint9_linear_2125_1435)"/>
<path style="mix-blend-mode:multiply" fill-rule="evenodd" clip-rule="evenodd" d="M22.6599 32.6008L26.8666 28.4289L19.9405 21.28C19.8699 21.3247 19.8037 21.3764 19.7429 21.4344L19.6228 21.5637C18.5743 22.8313 18.9976 26.3713 20.6042 29.5917C21.1349 30.6983 21.8283 31.7133 22.6599 32.6008Z" fill="url(#paint10_radial_2125_1435)"/>
<path style="mix-blend-mode:multiply" fill-rule="evenodd" clip-rule="evenodd" d="M16.1924 26.3114C17.664 24.735 19.1356 23.1585 20.6069 21.5819L19.7677 20.7158L16.6254 24.1187C16.3873 24.4211 16.2236 24.7784 16.1482 25.1602C16.0729 25.542 16.088 25.9369 16.1924 26.3114Z" fill="url(#paint11_linear_2125_1435)"/>
<path fill-rule="evenodd" clip-rule="evenodd" d="M25.2258 0.052595C25.022 -0.00478755 24.8066 -0.00206384 24.6042 0.0604569C24.4018 0.122978 24.2204 0.242794 24.0806 0.406315L16.1065 9.48224C16.0058 9.59066 15.9319 9.72258 15.8911 9.8668C15.8504 10.011 15.844 10.1633 15.8725 10.3106L22.2668 32.4397C22.3396 32.645 22.4587 32.8295 22.6142 32.978C22.7696 33.1265 22.9571 33.2347 23.1611 33.2937L34.5289 36.5894C34.6878 36.6277 34.8532 36.6265 35.0115 36.586C35.1699 36.5455 35.3167 36.4668 35.4399 36.3564L44.5968 27.8972C44.7467 27.7595 44.8603 27.5848 44.9268 27.3894C44.9934 27.194 45.0108 26.9843 44.9773 26.7801L41.964 14.3523L36.9324 5.3369C36.7527 5.01651 36.4768 4.76515 36.1466 4.62071L25.2258 0.052595Z" fill="#666666"/>
<path fill-rule="evenodd" clip-rule="evenodd" d="M29.5164 9.3408L41.8603 14.1666L36.9325 5.33699C36.7527 5.01661 36.4769 4.76524 36.1466 4.6208L25.2258 0.0526856C25.0253 -0.0199679 24.8063 -0.0174069 24.6074 0.0599187L29.5164 9.3408Z" fill="url(#paint12_radial_2125_1435)"/>
<path fill-rule="evenodd" clip-rule="evenodd" d="M41.8602 14.1667L29.5164 9.34082L32.4612 23.3283C32.6512 23.2691 32.854 23.2693 33.0439 23.3288L44.5913 27.3105C44.7003 27.3507 44.8143 27.3743 44.9299 27.3805C45.0027 27.1896 45.0192 26.9807 44.9773 26.7802L41.9639 14.3524L41.8602 14.1667Z" fill="url(#paint13_radial_2125_1435)"/>
<path fill-rule="evenodd" clip-rule="evenodd" d="M32.4613 23.3284L29.5164 9.34094L24.6074 0.0600586C24.4065 0.128323 24.2254 0.247446 24.0806 0.406545L16.1065 9.48248C16.0058 9.59089 15.9319 9.72281 15.8911 9.86703C15.8504 10.0112 15.844 10.1635 15.8725 10.3108L22.2668 32.4399C22.3375 32.6612 22.468 32.8569 22.643 33.0041C22.7124 32.8974 22.7932 32.7992 22.8839 32.7112L32.0615 23.5577C32.1749 23.4491 32.312 23.3704 32.4613 23.3284Z" fill="url(#paint14_radial_2125_1435)"/>
<path fill-rule="evenodd" clip-rule="evenodd" d="M32.0616 23.5575L22.8839 32.711C22.7933 32.799 22.7125 32.8973 22.6431 33.0039C22.7939 33.1373 22.9705 33.2361 23.1611 33.2937L34.5289 36.5895C34.6878 36.6277 34.8532 36.6266 35.0116 36.5861C35.1699 36.5455 35.3167 36.4669 35.4399 36.3564L44.5968 27.8973C44.7464 27.755 44.8606 27.5777 44.93 27.3804C44.8144 27.3741 44.7004 27.3505 44.5914 27.3104L33.044 23.3288C32.8541 23.2692 32.6513 23.269 32.4613 23.3282C32.3121 23.3702 32.1749 23.4489 32.0616 23.5575Z" fill="url(#paint15_radial_2125_1435)"/>
<path style="mix-blend-mode:multiply" fill-rule="evenodd" clip-rule="evenodd" d="M38.1285 11.1432C40.1389 13.2182 40.9962 15.6974 40.0435 16.6808C39.0908 17.6641 36.6889 16.7792 34.6785 14.7042C32.6681 12.6291 31.8105 10.1498 32.7632 9.16634C33.716 8.18307 36.1181 9.06813 38.1285 11.1432Z" fill="url(#paint16_radial_2125_1435)"/>
<path fill-rule="evenodd" clip-rule="evenodd" d="M40.2223 15.1627L32.8777 7.72168L32.0762 8.61214C31.7323 8.967 31.8509 9.76428 32.3208 10.4372C32.6909 12.1691 33.6195 13.7202 34.9546 14.8367C36.6882 16.2766 38.4831 16.8332 39.2624 16.0845L40.2223 15.1627Z" fill="url(#paint17_linear_2125_1435)"/>
<path style="mix-blend-mode:multiply" opacity="0.5" fill-rule="evenodd" clip-rule="evenodd" d="M32.1766 10.204C32.6829 9.65183 33.1891 9.09965 33.6953 8.54743L32.879 7.72046L32.0775 8.61085C31.9348 8.85517 31.8678 9.13868 31.8855 9.4234C31.9032 9.70813 32.0048 9.98047 32.1766 10.204Z" fill="url(#paint18_linear_2125_1435)"/>
<path style="mix-blend-mode:multiply" opacity="0.5" fill-rule="evenodd" clip-rule="evenodd" d="M38.7548 13.6733C38.0075 14.4111 37.2601 15.1487 36.5127 15.8863C37.6795 16.4921 38.718 16.606 39.2624 16.0847L40.2238 15.1617L38.7548 13.6733Z" fill="url(#paint19_linear_2125_1435)"/>
<path style="mix-blend-mode:screen" fill-rule="evenodd" clip-rule="evenodd" d="M38.1981 9.72316C40.1798 11.7685 41.0387 14.1982 40.1165 15.1499C39.1944 16.1017 36.8404 15.2152 34.8589 13.1699C32.8772 11.1246 32.0184 8.69497 32.9405 7.74314C33.8626 6.79139 36.2166 7.67789 38.1981 9.72316Z" fill="url(#paint20_radial_2125_1435)"/>
<path fill-rule="evenodd" clip-rule="evenodd" d="M38.2466 9.68826C40.2572 11.7635 41.1545 14.2019 40.2509 15.1346C39.3472 16.0673 36.9848 15.1411 34.9742 13.0659C32.9641 10.9911 32.067 8.55295 32.9706 7.62023C33.8742 6.68751 36.2365 7.61345 38.2466 9.68826Z" fill="url(#paint21_radial_2125_1435)"/>
<path style="mix-blend-mode:screen" fill-rule="evenodd" clip-rule="evenodd" d="M30.3295 13.2031L31.8496 22.2451C31.9029 22.5303 31.8875 22.8247 31.8046 23.1023C31.7217 23.3799 31.574 23.6321 31.3744 23.8369L23.4224 32.1742L32.0615 23.9182C32.2022 23.7711 32.3779 23.6646 32.571 23.6095C32.7642 23.5544 32.9679 23.5525 33.1619 23.6041L43.6293 26.9789L33.6151 23.2208C33.344 23.1225 33.1011 22.9555 32.9088 22.7351C32.7165 22.5148 32.5809 22.2481 32.5144 21.9595L30.3295 13.2031Z" fill="url(#paint22_radial_2125_1435)"/>
<path style="mix-blend-mode:screen" fill-rule="evenodd" clip-rule="evenodd" d="M25.7764 2.27002L29.5552 9.03985L32.1479 10.3699L29.82 9.69613L30.2463 12.8077L29.207 9.21953L25.7764 2.27002Z" fill="url(#paint23_radial_2125_1435)"/>
<defs>
<linearGradient id="paint0_linear_2125_1435" x1="2.38787" y1="37.9446" x2="10.9835" y2="46.2725" gradientUnits="userSpaceOnUse">
<stop stop-color="#D37132"/>
<stop offset="0.37324" stop-color="#E5A13B"/>
<stop offset="0.54395" stop-color="#CB7E2D"/>
<stop offset="0.73367" stop-color="#B25D20"/>
<stop offset="0.89255" stop-color="#A34918"/>
<stop offset="1" stop-color="#9E4215"/>
</linearGradient>
<linearGradient id="paint1_linear_2125_1435" x1="3.23077" y1="37.4595" x2="4.10859" y2="38.4731" gradientUnits="userSpaceOnUse">
<stop stop-color="#6E5750"/>
<stop offset="0.63971" stop-color="#CDC5C3"/>
<stop offset="1" stop-color="white"/>
</linearGradient>
<linearGradient id="paint2_linear_2125_1435" x1="9.08869" y1="44.2431" x2="11.0444" y2="45.7774" gradientUnits="userSpaceOnUse">
<stop stop-color="white"/>
<stop offset="0.11991" stop-color="#DCD6D4"/>
<stop offset="0.27156" stop-color="#B5A9A5"/>
<stop offset="0.41631" stop-color="#968580"/>
<stop offset="0.55028" stop-color="#806C66"/>
<stop offset="0.66954" stop-color="#735C56"/>
<stop offset="0.76191" stop-color="#6E5750"/>
<stop offset="0.8112" stop-color="#715A53"/>
<stop offset="0.85295" stop-color="#79645E"/>
<stop offset="0.89196" stop-color="#88756F"/>
<stop offset="0.92931" stop-color="#9C8D88"/>
<stop offset="0.96513" stop-color="#B6ABA8"/>
<stop offset="1" stop-color="#D6D0CE"/>
</linearGradient>
<radialGradient id="paint3_radial_2125_1435" cx="0" cy="0" r="1" gradientUnits="userSpaceOnUse" gradientTransform="translate(7.67209 38.4939) rotate(45.9066) scale(8.16534 8.16125)">
<stop stop-color="#CA844B"/>
<stop offset="1" stop-color="#010404"/>
</radialGradient>
<radialGradient id="paint4_radial_2125_1435" cx="0" cy="0" r="1" gradientUnits="userSpaceOnUse" gradientTransform="translate(8.00059 37.622) rotate(45.9066) scale(8.02686 8.02284)">
<stop stop-color="#FFD599"/>
<stop offset="0.74286" stop-color="#542300"/>
</radialGradient>
<linearGradient id="paint5_linear_2125_1435" x1="11.3972" y1="30.0681" x2="18.5709" y2="37.0184" gradientUnits="userSpaceOnUse">
<stop stop-color="#6B3F24"/>
<stop offset="0.28827" stop-color="#A36544"/>
<stop offset="0.39713" stop-color="#91583A"/>
<stop offset="0.60766" stop-color="#633721"/>
<stop offset="0.67759" stop-color="#5B3320"/>
<stop offset="0.78563" stop-color="#45291E"/>
<stop offset="0.78708" stop-color="#45291E"/>
<stop offset="0.93945" stop-color="#412519"/>
<stop offset="1" stop-color="#3D2215"/>
</linearGradient>
<linearGradient id="paint6_linear_2125_1435" x1="11.7471" y1="29.707" x2="12.7199" y2="30.6496" gradientUnits="userSpaceOnUse">
<stop stop-color="#846853"/>
<stop offset="0.54622" stop-color="#D4CAC3"/>
<stop offset="0.86191" stop-color="white"/>
</linearGradient>
<linearGradient id="paint7_linear_2125_1435" x1="17.0134" y1="35.4757" x2="18.5879" y2="37.0011" gradientUnits="userSpaceOnUse">
<stop offset="0.13809" stop-color="white"/>
<stop offset="0.45378" stop-color="#D4CAC3"/>
<stop offset="1" stop-color="#846853"/>
</linearGradient>
<radialGradient id="paint8_radial_2125_1435" cx="0" cy="0" r="1" gradientUnits="userSpaceOnUse" gradientTransform="translate(27.6388 27.0248) rotate(45.9065) scale(12.5742 12.5679)">
<stop offset="0.70714" stop-color="#9C8371"/>
<stop offset="0.74512" stop-color="#A28A79"/>
<stop offset="0.80385" stop-color="#B19D8F"/>
<stop offset="0.87602" stop-color="#C9BCB2"/>
<stop offset="0.95809" stop-color="#ECE7E3"/>
<stop offset="1" stop-color="white"/>
</radialGradient>
<linearGradient id="paint9_linear_2125_1435" x1="17.1478" y1="23.4212" x2="24.9387" y2="30.9695" gradientUnits="userSpaceOnUse">
<stop stop-color="#49526B"/>
<stop offset="0.28827" stop-color="#7683A2"/>
<stop offset="0.39187" stop-color="#697490"/>
<stop offset="0.59948" stop-color="#484E60"/>
<stop offset="0.70743" stop-color="#353845"/>
<stop offset="0.84988" stop-color="#383D4A"/>
<stop offset="1" stop-color="#404957"/>
</linearGradient>
<radialGradient id="paint10_radial_2125_1435" cx="0" cy="0" r="1" gradientUnits="userSpaceOnUse" gradientTransform="translate(30.1874 24.149) rotate(45.9065) scale(11.2894 11.2838)">
<stop offset="0.70714" stop-color="#78899B"/>
<stop offset="0.7465" stop-color="#8090A1"/>
<stop offset="0.80736" stop-color="#96A3B1"/>
<stop offset="0.88213" stop-color="#B9C2CB"/>
<stop offset="0.96717" stop-color="#EAEDF0"/>
<stop offset="1" stop-color="white"/>
</radialGradient>
<linearGradient id="paint11_linear_2125_1435" x1="17.5188" y1="23.0382" x2="18.471" y2="23.9607" gradientUnits="userSpaceOnUse">
<stop stop-color="#78899B"/>
<stop offset="0.53884" stop-color="#C3CBD3"/>
<stop offset="1" stop-color="white"/>
</linearGradient>
<radialGradient id="paint12_radial_2125_1435" cx="0" cy="0" r="1" gradientUnits="userSpaceOnUse" gradientTransform="translate(28.2651 7.94783) rotate(45.9065) scale(15.0628 15.0553)">
<stop stop-color="#C3CFEB"/>
<stop offset="1" stop-color="#4B5C7D"/>
</radialGradient>
<radialGradient id="paint13_radial_2125_1435" cx="0" cy="0" r="1" gradientUnits="userSpaceOnUse" gradientTransform="translate(19.4084 9.87416) rotate(45.9066) scale(32.1925 32.1764)">
<stop stop-color="#A7B4D1"/>
<stop offset="1" stop-color="#4B5C7D"/>
</radialGradient>
<radialGradient id="paint14_radial_2125_1435" cx="0" cy="0" r="1" gradientUnits="userSpaceOnUse" gradientTransform="translate(35.8536 0.768811) rotate(45.9065) scale(37.3896 37.3709)">
<stop stop-color="#D4E2FF"/>
<stop offset="1" stop-color="#455473"/>
</radialGradient>
<radialGradient id="paint15_radial_2125_1435" cx="0" cy="0" r="1" gradientUnits="userSpaceOnUse" gradientTransform="translate(27.5171 -3.52178) rotate(45.9066) scale(41.1867 41.1661)">
<stop stop-color="#7284A3"/>
<stop offset="1" stop-color="#313E57"/>
</radialGradient>
<radialGradient id="paint16_radial_2125_1435" cx="0" cy="0" r="1" gradientUnits="userSpaceOnUse" gradientTransform="translate(39.4752 10.2451) rotate(45.9065) scale(6.86088 6.85745)">
<stop offset="0.70714" stop-color="#78899B"/>
<stop offset="0.7465" stop-color="#8090A1"/>
<stop offset="0.80736" stop-color="#96A3B1"/>
<stop offset="0.88213" stop-color="#B9C2CB"/>
<stop offset="0.96717" stop-color="#EAEDF0"/>
<stop offset="1" stop-color="white"/>
</radialGradient>
<linearGradient id="paint17_linear_2125_1435" x1="31.6949" y1="8.94375" x2="39.2021" y2="16.2171" gradientUnits="userSpaceOnUse">
<stop stop-color="#55657E"/>
<stop offset="0.28827" stop-color="#AEC6E8"/>
<stop offset="0.39187" stop-color="#A0B5D6"/>
<stop offset="0.59948" stop-color="#7D8BA6"/>
<stop offset="0.70743" stop-color="#69728B"/>
<stop offset="0.80607" stop-color="#646E86"/>
<stop offset="0.93093" stop-color="#556376"/>
<stop offset="1" stop-color="#4A5A6A"/>
</linearGradient>
<linearGradient id="paint18_linear_2125_1435" x1="32.106" y1="8.51951" x2="32.9848" y2="9.37096" gradientUnits="userSpaceOnUse">
<stop stop-color="#78899B"/>
<stop offset="0.53884" stop-color="#C3CBD3"/>
<stop offset="1" stop-color="white"/>
</linearGradient>
<linearGradient id="paint19_linear_2125_1435" x1="37.6164" y1="14.7484" x2="39.1686" y2="16.2522" gradientUnits="userSpaceOnUse">
<stop stop-color="white"/>
<stop offset="0.46116" stop-color="#C3CBD3"/>
<stop offset="1" stop-color="#78899B"/>
</linearGradient>
<radialGradient id="paint20_radial_2125_1435" cx="0" cy="0" r="1" gradientUnits="userSpaceOnUse" gradientTransform="translate(33.715 11.3655) rotate(45.9066) scale(6.63701 6.63368)">
<stop stop-color="#DCE9F2"/>
<stop offset="0.13791" stop-color="#BBC6CD"/>
<stop offset="0.56634" stop-color="#575C60"/>
<stop offset="0.86244" stop-color="#181A1B"/>
<stop offset="1"/>
</radialGradient>
<radialGradient id="paint21_radial_2125_1435" cx="0" cy="0" r="1" gradientUnits="userSpaceOnUse" gradientTransform="translate(33.1037 10.6624) rotate(45.9066) scale(9.83883 9.83391)">
<stop stop-color="#D4E2FF"/>
<stop offset="1" stop-color="#4B5C7D"/>
</radialGradient>
<radialGradient id="paint22_radial_2125_1435" cx="0" cy="0" r="1" gradientUnits="userSpaceOnUse" gradientTransform="translate(32.3639 23.1382) rotate(45.9065) scale(14.1452 14.1382)">
<stop stop-color="#78899B"/>
<stop offset="0.35705" stop-color="#4A545F"/>
<stop offset="0.79476" stop-color="#15181B"/>
<stop offset="1"/>
</radialGradient>
<radialGradient id="paint23_radial_2125_1435" cx="0" cy="0" r="1" gradientUnits="userSpaceOnUse" gradientTransform="translate(28.9628 9.56434) rotate(45.9065) scale(11.6912 11.6853)">
<stop stop-color="#78899B"/>
<stop offset="0.35705" stop-color="#4A545F"/>
<stop offset="0.79476" stop-color="#15181B"/>
<stop offset="1"/>
</radialGradient>
</defs>
</svg>
