<svg width="81" height="81" viewBox="0 0 81 81" fill="none" xmlns="http://www.w3.org/2000/svg">
<g filter="url(#filter0_d_2229_1326)">
<path fill-rule="evenodd" clip-rule="evenodd" d="M40.4165 6C47.2235 6 53.8776 8.01821 59.5374 11.7994C65.1972 15.5806 69.6084 20.955 72.2133 27.2429C74.8182 33.5308 75.4998 40.4499 74.1718 47.1251C72.8439 53.8003 69.5661 59.9319 64.7528 64.7445C59.9396 69.557 53.8071 72.8345 47.131 74.1623C40.4549 75.4901 33.5349 74.8086 27.2461 72.2041C20.9572 69.5996 15.5821 65.189 11.8003 59.5301C8.01857 53.8711 6.00004 47.218 6 40.412C6 31.2854 9.62603 22.5326 16.0804 16.0791C22.5347 9.62562 31.2887 6.00006 40.4165 6Z" fill="url(#paint0_linear_2229_1326)"/>
<path fill-rule="evenodd" clip-rule="evenodd" d="M14.9567 40.4119C14.9567 33.6604 17.6391 27.1855 22.4137 22.4115C27.1884 17.6376 33.6642 14.9556 40.4165 14.9556C47.1689 14.9556 53.6447 17.6376 58.4194 22.4115C63.194 27.1855 65.8764 33.6604 65.8764 40.4119C66.2116 39.4936 66.821 38.7006 67.6221 38.1403C68.4232 37.58 69.3773 37.2795 70.3549 37.2795C71.3325 37.2795 72.2865 37.58 73.0876 38.1403C73.8887 38.7006 74.4981 39.4936 74.8334 40.4119C74.8334 35.8928 73.9432 31.4181 72.2136 27.243C70.484 23.068 67.9488 19.2744 64.7529 16.079C61.557 12.8836 57.763 10.3488 53.5874 8.61945C49.4117 6.89009 44.9363 6 40.4167 6C35.897 6 31.4216 6.89009 27.246 8.61945C23.0704 10.3488 19.2763 12.8836 16.0804 16.079C12.8845 19.2744 10.3494 23.068 8.61979 27.243C6.89019 31.4181 6 35.8928 6 40.4119C6.33519 39.4936 6.9446 38.7006 7.74567 38.1403C8.54674 37.58 9.50076 37.2795 10.4784 37.2795C11.456 37.2795 12.41 37.58 13.211 38.1403C14.0121 38.7006 14.6215 39.4936 14.9567 40.4119Z" fill="url(#paint1_linear_2229_1326)"/>
<g style="mix-blend-mode:screen">
<path fill-rule="evenodd" clip-rule="evenodd" d="M39.7645 14.2876C44.8031 14.2876 49.7284 15.7815 53.9178 18.5804C58.1072 21.3793 61.3725 25.3575 63.3006 30.0119C65.2288 34.6662 65.7332 39.7877 64.7502 44.7288C63.7672 49.6698 61.3409 54.2084 57.7781 57.7707C54.2153 61.333 49.676 63.7589 44.7343 64.7417C39.7926 65.7246 34.6704 65.2201 30.0154 63.2922C25.3604 61.3643 21.3816 58.0995 18.5824 53.9107C15.7831 49.7218 14.289 44.7971 14.2891 39.7593C14.2891 33.0037 16.9731 26.5249 21.7507 21.748C26.5283 16.9712 33.008 14.2876 39.7645 14.2876Z" fill="#F7E984"/>
</g>
<path fill-rule="evenodd" clip-rule="evenodd" d="M40.4166 14.9556C45.4521 14.9556 50.3745 16.4485 54.5613 19.2457C58.7482 22.0429 62.0115 26.0186 63.9385 30.6701C65.8655 35.3216 66.3697 40.44 65.3873 45.3781C64.405 50.3161 61.9802 54.852 58.4196 58.4121C54.859 61.9722 50.3225 64.3967 45.3838 65.379C40.4451 66.3613 35.3259 65.8572 30.6738 63.9305C26.0216 62.0038 22.0453 58.741 19.2477 54.5548C16.4501 50.3685 14.9568 45.4468 14.9568 40.4121C14.9568 33.6606 17.6392 27.1857 22.4138 22.4117C27.1885 17.6376 33.6642 14.9556 40.4166 14.9556Z" fill="url(#paint2_radial_2229_1326)"/>
<path style="mix-blend-mode:screen" fill-rule="evenodd" clip-rule="evenodd" d="M19.476 54.8944L54.9016 19.4739C51.8829 17.3904 48.4506 15.9819 44.8384 15.3443C41.2262 14.7066 37.519 14.8549 33.9692 15.7789L15.7802 33.9653C14.8561 37.5145 14.7078 41.2212 15.3456 44.8328C15.9833 48.4444 17.3921 51.8762 19.476 54.8944Z" fill="url(#paint3_radial_2229_1326)"/>
<path style="mix-blend-mode:screen" fill-rule="evenodd" clip-rule="evenodd" d="M63.759 31.1818L31.1851 63.7511L30.9043 64.0316C33.6215 65.1261 36.508 65.7411 39.4354 65.8494L40.0552 65.2299L65.2379 40.0506L65.8579 39.4307C65.7494 36.5038 65.1343 33.6178 64.0399 30.9009L63.759 31.1818Z" fill="url(#paint4_radial_2229_1326)"/>
<path fill-rule="evenodd" clip-rule="evenodd" d="M40.4165 6.89565C47.0463 6.89568 53.5273 8.86138 59.0398 12.5442C64.5522 16.227 68.8486 21.4615 71.3857 27.5858C73.9228 33.7101 74.5866 40.4491 73.2932 46.9506C71.9998 53.4521 68.8073 59.4241 64.1193 64.1114C59.4313 68.7987 53.4585 71.9908 46.9561 73.2841C40.4537 74.5773 33.7138 73.9136 27.5886 71.3768C21.4635 68.8401 16.2282 64.5442 12.5449 59.0325C8.86156 53.5208 6.89557 47.0408 6.89554 40.412C6.89554 36.0105 7.76259 31.6522 9.44717 27.5858C11.1318 23.5194 13.6009 19.8246 16.7136 16.7123C19.8263 13.6001 23.5217 11.1313 27.5886 9.44691C31.6556 7.76257 36.0145 6.89565 40.4165 6.89565ZM40.4165 6C47.2235 6 53.8776 8.01821 59.5374 11.7994C65.1972 15.5806 69.6084 20.955 72.2133 27.2429C74.8182 33.5308 75.4998 40.4499 74.1718 47.1251C72.8439 53.8003 69.5661 59.9319 64.7528 64.7445C59.9396 69.557 53.8071 72.8345 47.131 74.1623C40.4549 75.4901 33.5349 74.8086 27.2461 72.2041C20.9572 69.5996 15.5821 65.189 11.8003 59.5301C8.01857 53.8711 6.00004 47.218 6 40.412C6 31.2854 9.62603 22.5326 16.0804 16.0791C22.5347 9.62562 31.2887 6.00006 40.4165 6Z" fill="url(#paint5_linear_2229_1326)"/>
<g style="mix-blend-mode:screen">
<path fill-rule="evenodd" clip-rule="evenodd" d="M7.71045 33.0331C9.70471 25.8934 13.9811 19.6024 19.8867 15.1208C25.7923 10.6392 33.0025 8.21313 40.4164 8.21313C47.8304 8.21313 55.0407 10.6392 60.9462 15.1208C66.8518 19.6024 71.1282 25.8934 73.1225 33.0331C71.4457 25.6125 67.2946 18.9828 61.3511 14.233C55.4076 9.48317 48.0251 6.89575 40.4164 6.89575C32.8078 6.89575 25.4253 9.48317 19.4818 14.233C13.5383 18.9828 9.38725 25.6125 7.71045 33.0331Z" fill="#F7E984"/>
</g>
<g clip-path="url(#clip0_2229_1326)">
<path d="M40.7012 62.9119C28.297 62.9119 18.2029 52.82 18.2029 40.4136C18.2029 28.0072 28.297 17.9119 40.7012 17.9119C53.1054 17.9119 63.1996 28.0037 63.1996 40.4136C63.1996 52.8235 53.1054 62.9153 40.7012 62.9153V62.9119Z" fill="#290000"/>
<path d="M62.1951 40.4137C62.1951 52.424 52.5721 62.1611 40.7045 62.1611C28.837 62.1611 19.2107 52.424 19.2107 40.4137C19.2107 28.4033 28.8337 18.6663 40.7013 18.6663C52.5689 18.6663 62.1919 28.4033 62.1919 40.4137H62.1951Z" fill="#FFC942"/>
<g style="mix-blend-mode:screen" opacity="0.53">
<path d="M40.8059 26.7914L30.6692 30.7937L34.3142 24.1358L40.7012 18.6663L46.774 23.9498L50.37 31.0555L40.8059 26.7914Z" fill="white"/>
</g>
<g style="mix-blend-mode:multiply" opacity="0.88">
<path d="M40.5736 54.0325L30.2373 50.292L34.4811 57.191L40.5736 62.1887L46.846 57.1324L50.4387 50.5159L40.5736 54.0325Z" fill="#470E0D"/>
</g>
<g style="mix-blend-mode:multiply">
<path d="M27.2205 40.7545L30.3846 50.5708L24.9203 47.0955L19.1223 40.8991L24.9203 34.0277L30.8885 30.6592L27.2205 40.7545Z" fill="#CF7812"/>
</g>
<path d="M53.6747 40.8132L50.7986 50.0681L56.4788 47.0956L62.1492 40.8993L56.2628 33.9693L50.2947 30.6042L53.6747 40.8132Z" fill="#FDAD24"/>
<g style="mix-blend-mode:multiply" opacity="0.82">
<path d="M24.7764 46.9922L30.8132 50.0852L34.4092 57.1943L25.5453 55.7511L24.7764 46.9922Z" fill="#6E0E0D"/>
</g>
<g style="mix-blend-mode:multiply">
<path d="M56.3708 46.9922L50.334 50.0852L46.738 57.1943L55.6019 55.7511L56.3708 46.9922Z" fill="#E49926"/>
</g>
<g style="mix-blend-mode:multiply">
<path d="M24.7764 34.1037L30.8132 31.0141L34.4092 23.9016L25.5453 25.3482L24.7764 34.1037Z" fill="#FDB025"/>
</g>
<path d="M56.3708 34.1037L50.334 31.0141L46.738 23.9016L55.6019 25.3482L56.3708 34.1037Z" fill="#FFFC9F"/>
<g style="mix-blend-mode:overlay" opacity="0.5">
<path d="M22.4761 28.9233C22.4761 28.9233 28.9677 18.425 41.5977 18.828C52.7716 19.1827 58.2752 28.3618 58.2752 28.3618C58.2752 28.3618 52.3725 22.6029 41.6926 22.1931C30.2962 21.7487 22.4761 28.9233 22.4761 28.9233Z" fill="white"/>
</g>
<path d="M34.4092 23.9016L40.59 26.9016L46.7381 23.9016L40.59 26.23L34.4092 23.9016Z" fill="white"/>
<path d="M30.1589 50.3883L26.8411 40.8062L30.2832 30.8108L40.7046 26.502L50.9983 30.9038L54.1722 40.727L50.8609 50.5605L40.5639 54.5972L30.1589 50.3883Z" fill="white"/>
<path d="M30.8132 50.0852L40.5736 54.0324L50.2064 50.254L53.4163 40.727L50.334 31.2L40.7012 27.0771L30.9376 31.1139L27.6001 40.8131L30.8132 50.0852Z" fill="#FFE35C"/>
<path d="M34.4092 23.9016L30.9376 31.114L24.7764 34.1037L30.4566 30.6043L34.4092 23.9016Z" fill="white"/>
<path d="M46.738 23.9016L50.334 31.0141L56.3708 34.1037L50.7266 30.5491L46.738 23.9016Z" fill="white"/>
<path d="M24.9922 34.0486L27.7243 40.4206L24.9922 46.9372L26.7885 40.3655L24.9922 34.0486Z" fill="white"/>
<path d="M56.3709 34.1035L53.6748 40.813L56.4986 46.9922L54.5386 40.5892L56.3709 34.1035Z" fill="white"/>
<path d="M56.4986 46.9922L50.5828 49.8992L46.7021 57.022L50.8609 50.5605L56.4986 46.9922Z" fill="white"/>
<path d="M24.7764 46.9922L30.8132 50.0852L34.4092 57.1943L30.1588 50.3883L24.7764 46.9922Z" fill="white"/>
<path d="M46.4829 57.1116L40.446 53.8257L34.4092 57.1942L40.3773 54.8349L46.4829 57.1116Z" fill="white"/>
<g style="mix-blend-mode:multiply" opacity="0.75">
<path d="M21.8054 51.7695C21.8054 51.7695 28.1204 63.06 41.071 62.5365C55.0164 61.975 59.4728 51.5457 59.4728 51.5457C59.4728 51.5457 53.099 57.3046 41.022 57.4148C28.5163 57.5319 21.8054 51.7695 21.8054 51.7695Z" fill="#470000"/>
</g>
<g style="mix-blend-mode:overlay" opacity="0.56">
<path d="M45.0466 46.7856C45.0466 50.7501 40.9271 53.9636 35.8457 53.9636C30.7642 53.9636 26.6448 50.7466 26.6448 46.7856C26.6448 42.8247 30.7675 39.6042 35.8457 39.6042C40.9238 39.6042 45.0466 42.8212 45.0466 46.7856Z" fill="white"/>
</g>
<path d="M49.9186 29.7603C49.9186 29.7603 52.1632 28.0037 53.4425 27.1323C53.4425 27.1323 56.1256 28.5514 56.8781 30.5629C56.8781 30.5629 53.7435 31.8924 52.3071 32.192C52.3071 32.192 50.3668 29.8361 49.9153 29.7603H49.9186Z" fill="white"/>
<path d="M49.5586 29.4606C49.5586 29.4606 49.9611 29.1161 50.1705 28.7924C50.1705 28.7924 48.7897 28.0002 48.0666 27.8831L47.3369 28.5788C47.3369 28.5788 49.5259 29.3193 49.5553 29.4606H49.5586Z" fill="white"/>
<path d="M51.1127 27.6558C51.1127 27.6558 50.7332 28.2758 50.4551 28.4756C50.4551 28.4756 48.8485 27.6731 48.1614 27.5319C48.1614 27.5319 48.6947 26.9153 48.8256 26.5916C48.8256 26.5916 50.5205 27.2184 51.1127 27.6558Z" fill="white"/>
<g style="mix-blend-mode:overlay" opacity="0.54">
<path d="M43.7835 34.3241C43.7835 34.3241 46.0281 32.5675 47.3075 31.696C47.3075 31.696 49.9906 33.1151 50.7431 35.13C50.7431 35.13 47.6085 36.4595 46.1721 36.7557C46.1721 36.7557 44.2318 34.3998 43.7803 34.3241H43.7835Z" fill="white"/>
<path d="M43.4235 34.0243C43.4235 34.0243 43.8227 33.6798 44.0354 33.3561C44.0354 33.3561 42.6546 32.5639 41.9347 32.4468L41.2051 33.1425C41.2051 33.1425 43.3941 33.8796 43.4235 34.0243Z" fill="white"/>
<path d="M44.9809 32.2161C44.9809 32.2161 44.6013 32.8361 44.3232 33.0359C44.3232 33.0359 42.7167 32.2333 42.0295 32.0921C42.0295 32.0921 42.5629 31.479 42.6938 31.1553C42.6938 31.1553 44.3887 31.7821 44.9809 32.2196V32.2161Z" fill="white"/>
</g>
<g style="mix-blend-mode:multiply" opacity="0.74">
<mask id="mask0_2229_1326" style="mask-type:luminance" maskUnits="userSpaceOnUse" x="27" y="27" width="27" height="27">
<path d="M40.8681 53.9705L31.1993 50.0612L27.9175 40.7925L31.3727 30.9762L41.1299 27.1565L50.6253 31.1588L53.822 40.6995L50.5402 50.3367L40.8681 53.9705Z" fill="white"/>
</mask>
<g mask="url(#mask0_2229_1326)">
<g style="mix-blend-mode:multiply">
<path style="mix-blend-mode:lighten" d="M24.8254 46.0245C24.8254 46.0245 27.7375 44.571 30.2079 44.1095C32.6815 43.6514 36.2775 43.2553 39.2681 43.0245C48.8289 42.284 49.1561 48.2564 49.9578 48.3322C50.7561 48.408 52.9288 43.4585 53.22 43.765C53.5112 44.0716 50.8707 47.633 48.1058 51.5389C48.1058 51.5389 42.8935 52.5549 37.9888 51.8592C37.3049 51.7627 32.8288 51.1531 32.3936 51.3839C31.9584 51.6146 30.1392 51.9212 30.1392 51.9212L27.8848 52.9924C27.8848 52.9924 25.0479 49.7788 24.8287 46.0245H24.8254Z" fill="url(#paint6_linear_2229_1326)"/>
<path style="mix-blend-mode:multiply" opacity="0.56" d="M24.7534 39.5148C24.7534 39.5148 28.9448 41.5228 34.7625 37.9993C40.5834 34.4792 49.6305 24.6594 49.6305 24.6594C49.6305 24.6594 50.6481 26.3437 49.4832 26.4987C48.3184 26.6502 51.2272 25.4275 50.6448 26.3437C50.0624 27.2599 51.6624 26.4987 50.6448 27.1083C49.6272 27.718 47.2975 29.5572 47.2975 29.5572L51.224 27.2599C51.224 27.2599 47.0063 30.6319 46.4239 30.9384C45.8415 31.245 51.6591 28.0245 51.6591 28.0245L49.7679 30.3253L51.6591 29.5572C51.6591 29.5572 52.0943 29.7122 51.6591 30.4803C51.224 31.245 51.0767 30.1738 51.224 31.245C51.3712 32.3161 51.9536 31.7031 51.3712 32.3161C50.7888 32.9292 48.3151 35.0716 45.5503 36.6043C45.5503 36.6043 51.3712 34.0004 52.0976 32.6227C52.0976 32.6227 52.68 34.92 52.536 35.3781C52.3888 35.8362 52.536 35.2231 52.536 36.4493C52.536 37.6755 51.8096 37.6755 51.5184 39.2082C51.2272 40.7375 50.792 41.5056 50.792 41.5056L49.2149 45.7145C49.2149 45.7145 46.257 41.9637 38.9964 42.3873C30.5252 42.8833 24.8221 46.0211 24.8221 46.0211C24.8221 46.0211 23.8765 42.4252 24.7501 39.5148H24.7534Z" fill="url(#paint7_linear_2229_1326)"/>
<path opacity="0.75" d="M41.048 31.6272C41.048 31.6272 36.392 36.3769 32.5375 38.0612C28.6831 39.7455 24.7534 39.5147 24.7534 39.5147C24.7534 39.5147 27.443 32.6226 29.4095 31.7822C31.3727 30.9383 40.4133 25.5755 41.8693 25.8063C43.3254 26.0336 45.4554 27.9659 41.048 31.6306V31.6272Z" fill="white"/>
<path d="M47.0096 24.7351C47.0096 24.7351 44.8992 26.1163 43.4464 26.9567C41.9904 27.8006 39.0815 29.0233 39.0815 29.0233C39.0815 29.0233 41.12 27.1083 43.3024 25.9613C45.4849 24.8109 47.0096 24.7317 47.0096 24.7317V24.7351Z" fill="white"/>
<path d="M51.5217 25.8855C51.5217 25.8855 52.6866 27.7213 52.6866 34.0038C52.6866 34.0038 52.1761 28.2586 51.5217 25.8855Z" fill="white"/>
<g style="mix-blend-mode:multiply" opacity="0.57">
<path d="M25.771 50.006C25.771 50.006 30.4467 47.3091 37.7891 46.4204C47.7393 45.2184 50.4289 48.828 50.4289 48.828C50.4289 48.828 43.7409 42.7316 25.771 50.006Z" fill="#AA3A3B"/>
<path d="M25.4077 48.246C25.4077 48.246 35.7375 44.1851 43.5216 42.9624C43.5216 42.9624 29.6286 46.4825 25.4077 48.246Z" fill="#AA3A3B"/>
<path d="M25.9148 48.9348C25.9148 48.9348 35.829 45.7488 42.1571 45.2907C48.4884 44.8292 50.9621 48.2632 50.9621 48.2632C50.9621 48.2632 48.3183 43.2689 39.6638 45.1082C31.006 46.944 25.9148 48.9383 25.9148 48.9383V48.9348Z" fill="#AA3A3B"/>
<path d="M27.2236 51.6146C27.2236 51.6146 31.955 49.6996 38.355 49.1622C44.7584 48.6249 47.376 49.7753 47.376 49.7753C47.376 49.7753 38.355 47.7053 27.2269 51.6112L27.2236 51.6146Z" fill="#AA3A3B"/>
<path d="M26.4973 50.6191C26.4973 50.6191 32.4262 47.719 40.2071 47.4124C47.9912 47.1093 49.8202 50.1024 49.8202 50.1024C49.8202 50.1024 43.2271 44.3401 26.4973 50.6225V50.6191Z" fill="#AA3A3B"/>
</g>
<g style="mix-blend-mode:multiply" opacity="0.5">
<path d="M31.1536 55.0623C31.1536 55.0623 32.5344 54.2977 34.792 54.3735C37.0465 54.4492 36.9745 54.3735 37.4097 54.3735C37.8448 54.3735 37.4097 54.0669 38.5025 54.0669C39.5954 54.0669 39.3761 53.9912 40.3937 53.9912C40.7144 53.9912 41.2248 53.9739 41.7647 53.9498C42.9295 53.9085 44.2482 53.8396 44.2482 53.8396L43.6657 54.1427L45.8482 54.2977C45.8482 54.2977 42.141 58.1243 37.2657 57.3597C32.3937 56.5951 31.1536 55.0658 31.1536 55.0658V55.0623Z" fill="#842827"/>
</g>
<g style="mix-blend-mode:multiply">
<path d="M29.7727 31.4757C29.7727 31.4757 35.6623 29.0233 39.52 26.0371C39.52 26.0371 34.6447 30.1737 29.7727 31.4757Z" fill="#AA3A3B"/>
<g style="mix-blend-mode:multiply" opacity="0.42">
<path d="M41.2641 28.7168C41.2641 28.7168 34.5728 33.928 27.4431 35.6881C27.4431 35.6881 33.7712 33.6973 41.2641 28.7168Z" fill="#AA3A3B"/>
<path d="M26.4973 37.9854C26.4973 37.9854 32.5342 35.9188 39.5199 31.0176C39.5199 31.0176 33.627 36.0704 26.4973 37.9854Z" fill="#AA3A3B"/>
<path d="M28.3887 33.6972C28.3887 33.6972 35.8816 30.4045 42.8641 26.0405C42.8641 26.0405 36.2448 30.6352 28.3887 33.6972Z" fill="#AA3A3B"/>
<path d="M42.7921 29.7122C42.7921 29.7122 35.5904 37.6789 27.1519 39.5181C27.1519 39.5181 36.0256 37.0658 42.7921 29.7122Z" fill="#AA3A3B"/>
<path d="M46.3552 28.6409C46.3552 28.6409 39.592 36.3768 34.0623 39.2873C28.5326 42.1943 25.4045 41.9704 25.4045 41.9704C25.4045 41.9704 31.7326 42.4285 37.7695 37.1449C43.8063 31.8613 46.352 28.6443 46.352 28.6443L46.3552 28.6409Z" fill="#AA3A3B"/>
</g>
</g>
<g style="mix-blend-mode:multiply">
<g style="mix-blend-mode:multiply" opacity="0.42">
<path d="M46.3552 29.5571C46.3552 29.5571 39.592 37.2931 34.0623 40.2035C28.5326 43.1105 25.4045 42.8832 25.4045 42.8832C25.4045 42.8832 31.7326 43.3413 37.7695 38.0611C43.8063 32.7776 46.352 29.5571 46.352 29.5571H46.3552Z" fill="#AA3A3B"/>
</g>
</g>
<g style="mix-blend-mode:multiply" opacity="0.51">
<g style="mix-blend-mode:multiply" opacity="0.42">
<path d="M46.3551 30.4802C46.3551 30.4802 39.8864 38.6295 34.3599 41.5399C28.8302 44.4504 25.4077 43.8028 25.4077 43.8028C25.4077 43.8028 33.2965 44.2782 39.3334 38.9911C45.3703 33.7075 46.3551 30.4802 46.3551 30.4802Z" fill="#AA3A3B"/>
</g>
</g>
<g style="mix-blend-mode:overlay" opacity="0.73">
<path d="M35.2271 27.4149C35.2271 27.4149 44.5392 22.8236 50.0656 23.7398C55.5921 24.6594 51.8849 42.5768 51.8849 42.5768C51.8849 42.5768 54.2865 27.4114 50.5041 24.811C47.291 22.5997 35.2271 27.4114 35.2271 27.4114V27.4149Z" fill="white"/>
</g>
<g style="mix-blend-mode:multiply" opacity="0.27">
<path d="M25.6271 45.1806C25.6271 45.1806 32.4656 41.3505 37.4096 39.9728C44.199 38.0819 47.7393 38.9016 49.4866 39.3597C51.2306 39.8212 51.813 40.5824 51.813 40.5824C51.813 40.5824 50.7954 40.734 48.6129 40.5824C45.4162 40.3551 50.7954 41.5021 50.7954 41.5021C50.7954 41.5021 44.9745 41.6536 41.192 41.6536C37.4096 41.6536 30.2799 43.3379 25.6238 45.1772L25.6271 45.1806Z" fill="#7A0000"/>
</g>
<g style="mix-blend-mode:overlay" opacity="0.52">
<path d="M30.427 30.7868C30.427 30.7868 38.4271 24.0463 47.7392 23.5882C57.0514 23.1266 51.8849 42.5767 51.8849 42.5767C51.8849 42.5767 51.8129 28.3344 45.704 27.7179C39.5919 27.1083 30.427 30.7868 30.427 30.7868Z" fill="#FBFFFE"/>
</g>
<path d="M29.6286 53.3746C29.6286 53.3746 24.9005 49.6995 25.4077 41.967C25.4077 41.967 25.2605 49.3172 29.6286 53.3746Z" fill="white"/>
<path opacity="0.26" d="M30.2798 55.1381C30.2798 55.1381 17.7676 46.5618 28.6798 32.1646C28.6798 32.1646 21.2589 44.8775 30.2798 55.1381Z" fill="white"/>
</g>
</g>
</g>
</g>
</g>
<defs>
<filter id="filter0_d_2229_1326" x="0" y="0" width="80.8335" height="80.8235" filterUnits="userSpaceOnUse" color-interpolation-filters="sRGB">
<feFlood flood-opacity="0" result="BackgroundImageFix"/>
<feColorMatrix in="SourceAlpha" type="matrix" values="0 0 0 0 0 0 0 0 0 0 0 0 0 0 0 0 0 0 127 0" result="hardAlpha"/>
<feOffset/>
<feGaussianBlur stdDeviation="3"/>
<feComposite in2="hardAlpha" operator="out"/>
<feColorMatrix type="matrix" values="0 0 0 0 0 0 0 0 0 0 0 0 0 0 0 0 0 0 0.7 0"/>
<feBlend mode="normal" in2="BackgroundImageFix" result="effect1_dropShadow_2229_1326"/>
<feBlend mode="normal" in="SourceGraphic" in2="effect1_dropShadow_2229_1326" result="shape"/>
</filter>
<linearGradient id="paint0_linear_2229_1326" x1="40.4167" y1="74.8235" x2="40.4167" y2="6" gradientUnits="userSpaceOnUse">
<stop stop-color="#DE8B00"/>
<stop offset="1" stop-color="#FFC75E"/>
</linearGradient>
<linearGradient id="paint1_linear_2229_1326" x1="40.4167" y1="40.4119" x2="40.4167" y2="5.99989" gradientUnits="userSpaceOnUse">
<stop stop-color="#FFB805"/>
<stop offset="1" stop-color="#FFE89C"/>
</linearGradient>
<radialGradient id="paint2_radial_2229_1326" cx="0" cy="0" r="1" gradientUnits="userSpaceOnUse" gradientTransform="translate(28.4065 18.2712) scale(56.5096 56.5017)">
<stop stop-color="#FFEEB8"/>
<stop offset="1" stop-color="#FFBF00"/>
</radialGradient>
<radialGradient id="paint3_radial_2229_1326" cx="0" cy="0" r="1" gradientUnits="userSpaceOnUse" gradientTransform="translate(31.176 3.40267) scale(57.0231 57.0152)">
<stop stop-color="#FFFD9E"/>
<stop offset="1"/>
</radialGradient>
<radialGradient id="paint4_radial_2229_1326" cx="0" cy="0" r="1" gradientUnits="userSpaceOnUse" gradientTransform="translate(52.1343 22.4817) scale(48.4106 48.4038)">
<stop stop-color="#FFFD9E"/>
<stop offset="1"/>
</radialGradient>
<linearGradient id="paint5_linear_2229_1326" x1="40.4167" y1="74.8235" x2="40.4167" y2="6" gradientUnits="userSpaceOnUse">
<stop stop-color="#CF8000"/>
<stop offset="1" stop-color="#F5B133"/>
</linearGradient>
<linearGradient id="paint6_linear_2229_1326" x1="31.4905" y1="47.5572" x2="61.9713" y2="50.0332" gradientUnits="userSpaceOnUse">
<stop stop-color="#FF7B28"/>
<stop offset="0.44" stop-color="#D64D30"/>
<stop offset="1" stop-color="#9F2B1F"/>
</linearGradient>
<linearGradient id="paint7_linear_2229_1326" x1="31.6181" y1="34.8374" x2="61.5487" y2="37.2667" gradientUnits="userSpaceOnUse">
<stop stop-color="#781C31"/>
<stop offset="1" stop-color="#9F2B1F"/>
</linearGradient>
<clipPath id="clip0_2229_1326">
<rect width="45" height="45" fill="white" transform="translate(18.2029 17.9119)"/>
</clipPath>
</defs>
</svg>
