<svg width="43" height="42" viewBox="0 0 43 42" fill="none" xmlns="http://www.w3.org/2000/svg">
<g filter="url(#filter0_d_2173_1990)">
<path d="M8.38795 13.274L2.51682 14.7986C2.40041 14.8288 2.33682 14.9542 2.38121 15.066L12.1882 39.756C12.2258 39.8504 12.3281 39.9017 12.4262 39.8752L41.2852 32.0892C41.3984 32.0587 41.4612 31.9379 41.4211 31.8277L32.5243 7.36603C32.4902 7.27246 32.3926 7.21817 32.2951 7.23868L27.393 8.27068C27.2935 8.29162 27.1942 8.23464 27.1621 8.13822L26.1193 5.01048C26.0864 4.91188 25.9835 4.85489 25.8825 4.87935L23.3024 5.50423C23.2037 5.52813 23.1033 5.47741 23.0629 5.38422C22.6828 4.50579 20.6269 0.377618 15.8205 1.07972C10.9558 1.79035 10.91 7.38511 10.9449 8.43711C10.9481 8.53545 10.8825 8.62398 10.7868 8.64658L7.74561 9.36439C7.63547 9.39039 7.56882 9.50251 7.59861 9.61169L8.53063 13.0278C8.55996 13.1353 8.4958 13.246 8.38795 13.274Z" fill="white"/>
<path d="M16.2273 0.578857C18.5433 0.375886 20.2387 1.24951 21.4041 2.3064C22.4965 3.29727 23.1234 4.44767 23.3914 5.01929L25.7761 4.44214L25.8992 4.42456C26.144 4.41291 26.3757 4.54106 26.4958 4.75464L26.5466 4.86792L27.5183 7.78491L32.2029 6.79858L32.321 6.78491C32.5561 6.77923 32.7769 6.90162 32.8962 7.10425L32.947 7.21265L41.8445 31.6736L41.8777 31.8093C41.9146 32.0805 41.7752 32.3479 41.532 32.4734L41.4021 32.5232L12.5437 40.3093C12.2646 40.3846 11.9746 40.2666 11.825 40.03L11.7703 39.9216L1.96265 15.2322C1.81842 14.8689 2.02574 14.4613 2.40405 14.363L8.02905 12.9021L7.16479 9.73022C7.06799 9.3754 7.28438 9.011 7.64233 8.92651L10.491 8.25366C10.4837 7.55884 10.5427 6.00234 11.1248 4.47046C11.7786 2.74978 13.1143 1.02037 15.7556 0.634521L16.2273 0.578857Z" stroke="black" stroke-width="0.9"/>
</g>
<path d="M11.6914 29.0084L13.2626 24.0745L19.9404 27.1936L24.7203 11.7598L32.1235 14.6685L21.9606 33.8289L11.6914 29.0084Z" fill="black"/>
<ellipse cx="17.0778" cy="6.6643" rx="2.74451" ry="2.77367" fill="black"/>
<defs>
<filter id="filter0_d_2173_1990" x="0.966553" y="0.0996094" width="41.3669" height="41.4826" filterUnits="userSpaceOnUse" color-interpolation-filters="sRGB">
<feFlood flood-opacity="0" result="BackgroundImageFix"/>
<feColorMatrix in="SourceAlpha" type="matrix" values="0 0 0 0 0 0 0 0 0 0 0 0 0 0 0 0 0 0 127 0" result="hardAlpha"/>
<feOffset dx="-0.5" dy="0.8"/>
<feComposite in2="hardAlpha" operator="out"/>
<feColorMatrix type="matrix" values="0 0 0 0 0 0 0 0 0 0 0 0 0 0 0 0 0 0 1 0"/>
<feBlend mode="normal" in2="BackgroundImageFix" result="effect1_dropShadow_2173_1990"/>
<feBlend mode="normal" in="SourceGraphic" in2="effect1_dropShadow_2173_1990" result="shape"/>
</filter>
</defs>
</svg>
