<svg width="102" height="99" viewBox="0 0 102 99" fill="none" xmlns="http://www.w3.org/2000/svg">
<path fill-rule="evenodd" clip-rule="evenodd" d="M19.8897 31.7741C18.7381 32.1186 18.0348 33.2839 18.266 34.4646L18.6001 36.1709L15.6184 36.7363C15.3821 36.7811 15.1524 36.8563 14.9351 36.96L8.17779 40.1857C6.95935 40.7673 6.32714 42.1372 6.675 43.442L14.2072 71.6949C14.5823 73.1019 15.9723 73.9827 17.4031 73.7199L22.939 72.7034C23.0759 72.6783 23.2107 72.643 23.3423 72.5978L25.5821 71.8281L25.9295 73.6027C26.1936 74.9515 27.559 75.7772 28.8746 75.3836L74.6332 61.697C75.8355 61.3373 76.54 60.0885 76.2265 58.8724L66.3114 20.4078C65.982 19.1298 64.6603 18.383 63.3967 18.7609L19.8897 31.7741Z" fill="black"/>
<path d="M24.3692 25.0909C24.1383 23.9104 24.8421 22.7448 25.9941 22.4001L69.4945 9.38102C70.7663 9.00041 72.0948 9.75841 72.4145 11.0471L81.9835 49.609C82.284 50.82 81.5789 52.0562 80.3839 52.4139L34.9689 66.0059C33.6529 66.3998 32.2874 65.5745 32.0236 64.2258L24.3692 25.0909Z" fill="#00AFE4"/>
<path d="M34.5758 22.09C34.3146 20.8954 35.0194 19.6986 36.1906 19.3481L69.5109 9.37564C70.7751 8.99728 72.0972 9.74386 72.4265 11.022L82.3365 49.4919C82.6498 50.7082 81.9446 51.9575 80.7416 52.3175L46.0132 62.7115C44.7164 63.0996 43.3668 62.3042 43.0777 60.9814L34.5758 22.09Z" fill="#8EDFF6"/>
<path d="M41.7215 25.6646C41.5265 24.932 41.9496 24.1754 42.6757 23.9581L66.7576 16.7507C67.5119 16.5249 68.3017 16.9666 68.5043 17.7277L76.6064 48.1608C76.8014 48.8933 76.3783 49.65 75.6522 49.8673L51.5704 57.0747C50.816 57.3004 50.0263 56.8587 49.8236 56.0977L41.7215 25.6646Z" fill="#233C53"/>
<mask id="mask0_2173_1911" style="mask-type:alpha" maskUnits="userSpaceOnUse" x="41" y="17" width="36" height="41">
<path d="M41.8543 26.1123C41.6593 25.3798 42.0824 24.6231 42.8085 24.4058L66.8904 17.1984C67.6448 16.9726 68.4345 17.4144 68.6371 18.1754L76.7392 48.6085C76.9342 49.341 76.5111 50.0977 75.785 50.315L51.7031 57.5224C50.9488 57.7482 50.159 57.3064 49.9564 56.5454L41.8543 26.1123Z" fill="#233C53"/>
</mask>
<g mask="url(#mask0_2173_1911)">
<path d="M43.7207 26.6653L54.7684 23.3592C56.071 22.9693 57.4256 23.7729 57.7084 25.1031L61.6397 43.5974C61.8884 44.7674 61.213 45.9391 60.0758 46.3101L52.7236 48.7087C51.4774 49.1153 50.1447 48.4146 49.7734 47.1577L43.7207 26.6653Z" fill="#152432"/>
<path d="M70.9737 20.9013L57.2541 25.7995L58.4551 30.6081L72.5501 28.3314L70.9737 20.9013Z" fill="#174478"/>
<path d="M59.9031 37.6293L59.1637 35.1257L72.7112 31.9479L74.4704 37.9049L59.9031 37.6293Z" fill="#174478"/>
<path d="M58.8524 40.9598L48.103 44.1767L44.6158 49.584L46.0613 54.4781L52.0182 57.4325L62.7676 54.2155L66.4338 48.3813L64.9883 43.4871L58.8524 40.9598Z" fill="#452877"/>
<mask id="mask1_2173_1911" style="mask-type:alpha" maskUnits="userSpaceOnUse" x="44" y="40" width="23" height="18">
<path d="M58.8522 40.9597L48.1029 44.1765L44.5883 49.4906L46.0003 54.271L51.9272 57.1243L62.6765 53.9075L66.3725 48.1744L64.9605 43.394L58.8522 40.9597Z" fill="#512EA4"/>
</mask>
<g mask="url(#mask1_2173_1911)">
<path d="M65.1106 43.3569L61.3458 49.8563L51.0875 52.9254L44.4888 49.5267L48.0502 44.1296L58.7849 40.9179L65.1106 43.3569Z" fill="#8538CE"/>
<mask id="mask2_2173_1911" style="mask-type:alpha" maskUnits="userSpaceOnUse" x="44" y="40" width="22" height="13">
<path d="M65.1098 43.3574L61.3454 49.857L51.0874 52.9257L44.4885 49.5263L48.0496 44.129L58.784 40.9177L65.1098 43.3574Z" fill="#5A2C89"/>
</mask>
<g mask="url(#mask2_2173_1911)">
<path d="M50.9381 53.2894L51.7559 48.5112L57.8396 46.6909L61.6776 50.076L50.9381 53.2894Z" fill="#63329D"/>
<path d="M60.4495 44.1643L56.5803 42.4282L59.2014 40.7133L65.2678 43.4103L60.4495 44.1643Z" fill="#63329D"/>
<path d="M48.4886 47.9649L44.0126 49.8126L47.2247 44.1314L50.6323 44.2089L48.4886 47.9649Z" fill="#855F9E"/>
</g>
</g>
<path d="M55.9877 33.2054L45.2383 36.4223L41.7511 41.8296L43.1966 46.7237L49.1534 49.6781L59.9029 46.4611L63.5691 40.6269L62.1236 35.7327L55.9877 33.2054Z" fill="#452877"/>
<mask id="mask3_2173_1911" style="mask-type:alpha" maskUnits="userSpaceOnUse" x="41" y="33" width="23" height="17">
<path d="M55.9874 33.2053L45.2382 36.4221L41.7236 41.7362L43.1355 46.5166L49.0625 49.3699L59.8117 46.1531L63.5077 40.42L62.0958 35.6396L55.9874 33.2053Z" fill="#512EA4"/>
</mask>
<g mask="url(#mask3_2173_1911)">
<path d="M62.2458 35.6028L58.481 42.1021L48.2227 45.1713L41.624 41.7726L45.1854 36.3754L55.9202 33.1637L62.2458 35.6028Z" fill="#8538CE"/>
<mask id="mask4_2173_1911" style="mask-type:alpha" maskUnits="userSpaceOnUse" x="41" y="33" width="22" height="13">
<path d="M62.2455 35.603L58.4811 42.1026L48.2231 45.1713L41.6243 41.7719L45.1853 36.3746L55.9198 33.1634L62.2455 35.603Z" fill="#5A2C89"/>
</mask>
<g mask="url(#mask4_2173_1911)">
<path d="M48.0734 45.5345L49.1819 41.8298L55.2546 39.883L58.8128 42.3211L48.0734 45.5345Z" fill="#63329D"/>
<path d="M57.5848 36.4094L53.7156 34.6733L56.3367 32.9584L62.4031 35.6554L57.5848 36.4094Z" fill="#63329D"/>
<path d="M45.6239 40.2103L41.1479 42.058L44.36 36.3768L47.7676 36.4543L45.6239 40.2103Z" fill="#855F9E"/>
<path d="M45.4306 40.2864L47.5867 36.46L53.8124 34.5975L57.7241 36.3699L55.41 40.0046L49.1843 41.8671L45.4306 40.2864Z" fill="#803C9D"/>
</g>
</g>
<path d="M41.1349 28.8884C40.7252 27.3505 41.6384 25.7677 43.1746 25.3532V25.3532C44.7108 24.9386 46.2882 25.8493 46.6979 27.3872L48.5858 34.4732C48.9955 36.0111 48.0823 37.5939 46.5461 38.0084V38.0084C45.0099 38.423 43.4325 37.5123 43.0228 35.9744L41.1349 28.8884Z" fill="#0450B4"/>
<path d="M44.9967 45.7993C44.587 44.2614 45.5002 42.6786 47.0364 42.2641V42.2641C48.5726 41.8495 50.15 42.7602 50.5598 44.2981L52.4476 51.3841C52.8573 52.922 51.9441 54.5048 50.4079 54.9193V54.9193C48.8718 55.3339 47.2943 54.4232 46.8846 52.8853L44.9967 45.7993Z" fill="#0450B4"/>
</g>
<path d="M22.1496 27.2093L39.1469 23.9828C40.5549 23.7156 41.9335 24.5575 42.3397 25.9326L50.3896 53.1877C50.815 54.6277 50.0293 56.1507 48.6093 56.6389L29.869 63.0811C29.7373 63.1264 29.6024 63.1617 29.4655 63.1869L23.9261 64.2052C22.4945 64.4683 21.1039 63.5876 20.729 62.1802L13.1995 33.9196C12.8518 32.6144 13.4847 31.2439 14.7039 30.6618L21.4658 27.4333C21.6833 27.3295 21.9131 27.2542 22.1496 27.2093Z" fill="#00AFE4"/>
<mask id="mask5_2173_1911" style="mask-type:alpha" maskUnits="userSpaceOnUse" x="13" y="23" width="38" height="42">
<path d="M20.6118 27.4734L39.1507 23.9785C40.5577 23.7133 41.9342 24.555 42.3399 25.9288L50.3901 53.1864C50.8154 54.6264 50.0296 56.1495 48.6096 56.6377L29.8686 63.0805C29.7368 63.1258 29.6019 63.1611 29.465 63.1863L23.9255 64.2047C22.4938 64.4679 21.1033 63.5873 20.7283 62.1799L13.1687 33.8041C12.835 32.5513 13.4044 31.2303 14.5446 30.6118L19.7957 27.7637C20.0512 27.6251 20.3265 27.5272 20.6118 27.4734Z" fill="#D9D9D9"/>
</mask>
<g mask="url(#mask5_2173_1911)">
<path d="M22.35 27.1635L39.1449 23.9815C40.553 23.7147 41.9315 24.5567 42.3376 25.9317L50.3881 53.1885C50.814 54.6304 50.0257 56.1553 48.6028 56.6419L31.2474 62.5762C29.6998 63.1054 28.035 62.1994 27.6389 60.6125L20.1489 30.6035C19.7583 29.0386 20.7661 27.4636 22.35 27.1635Z" fill="#B8EEFB"/>
</g>
<path d="M84.8394 52.8086L71.2965 53.1239L65.5127 58.1938L65.6366 64.2152L71.6321 69.433L85.1751 69.1176L91.3034 63.6175L91.1795 57.5961L84.8394 52.8086Z" fill="#512EA4"/>
<mask id="mask6_2173_1911" style="mask-type:alpha" maskUnits="userSpaceOnUse" x="65" y="52" width="27" height="18">
<path d="M84.8394 52.8086L71.2965 53.1239L65.5127 58.1938L65.6366 64.2152L71.6321 69.433L85.1751 69.1176L91.3034 63.6175L91.1795 57.5961L84.8394 52.8086Z" fill="#512EA4"/>
</mask>
<g mask="url(#mask6_2173_1911)">
<path d="M91.3643 57.6001L84.9117 63.9689L71.9875 64.2697L65.3835 58.2048L71.2485 53.055L84.7729 52.7402L91.3643 57.6001Z" fill="#8538CE"/>
<mask id="mask7_2173_1911" style="mask-type:alpha" maskUnits="userSpaceOnUse" x="65" y="52" width="27" height="13">
<path d="M91.3641 57.6005L84.9118 63.9695L71.9878 64.2698L65.3836 58.2042L71.2484 53.0542L84.7726 52.7399L91.3641 57.6005Z" fill="#8538CE"/>
</mask>
<g mask="url(#mask7_2173_1911)">
<path d="M71.6995 64.6488L74.1692 60.6862L81.8614 60.3571L85.2302 64.3342L71.6995 64.6488Z" fill="#9A45FF"/>
<path d="M85.6805 57.0539L81.7262 53.7955L85.3245 52.6344L91.5323 57.7141L85.6805 57.0539Z" fill="#9A45FF"/>
<path d="M70.5353 57.6572L64.7342 58.3808L70.2827 52.7871L74.2269 53.9656L70.5353 57.6572Z" fill="#FAB6FF"/>
<path d="M70.2895 57.6884L74.0181 53.9197L81.8618 53.7375L85.8539 57.0503L82.0023 60.5455L74.1585 60.7278L70.2895 57.6884Z" fill="#E05FFF"/>
</g>
</g>
<path d="M84.1553 44.6489L70.6124 44.9643L64.8286 50.0341L64.9525 56.0555L70.948 61.2734L84.491 60.958L90.6193 55.4578L90.4954 49.4364L84.1553 44.6489Z" fill="#512EA4"/>
<mask id="mask8_2173_1911" style="mask-type:alpha" maskUnits="userSpaceOnUse" x="64" y="44" width="27" height="18">
<path d="M84.1553 44.6489L70.6124 44.9643L64.8286 50.0341L64.9525 56.0555L70.948 61.2734L84.491 60.958L90.6193 55.4578L90.4954 49.4364L84.1553 44.6489Z" fill="#512EA4"/>
</mask>
<g mask="url(#mask8_2173_1911)">
<path d="M90.6803 49.4402L84.2276 55.809L71.3034 56.1098L64.6994 50.0449L70.5644 44.895L84.0888 44.5803L90.6803 49.4402Z" fill="#8538CE"/>
<mask id="mask9_2173_1911" style="mask-type:alpha" maskUnits="userSpaceOnUse" x="64" y="44" width="27" height="13">
<path d="M90.6801 49.4406L84.2277 55.8096L71.3037 56.1099L64.6996 50.0443L70.5644 44.8943L84.0886 44.58L90.6801 49.4406Z" fill="#8538CE"/>
</mask>
<g mask="url(#mask9_2173_1911)">
<path d="M71.015 56.4896L73.4846 52.527L81.1769 52.1979L84.5457 56.175L71.015 56.4896Z" fill="#9A45FF"/>
<path d="M84.9959 48.8948L81.0416 45.6363L84.64 44.4752L90.8477 49.5549L84.9959 48.8948Z" fill="#9A45FF"/>
<path d="M69.8512 49.4973L64.0501 50.2209L69.5986 44.6272L73.5428 45.8057L69.8512 49.4973Z" fill="#FAB6FF"/>
<path d="M69.6054 49.529L73.334 45.7603L81.1778 45.578L85.1698 48.8909L81.3182 52.3861L73.4744 52.5683L69.6054 49.529Z" fill="#E05FFF"/>
</g>
</g>
<path d="M52.7706 49.649C53.4958 48.9462 54.5412 48.6877 55.5068 48.9723L64.762 51.701C65.6726 51.9694 66.3834 52.6833 66.6492 53.5964L69.5989 63.729C69.8721 64.6677 69.6362 65.6826 68.9767 66.4062L62.8177 73.1629C62.1553 73.8896 61.1621 74.2164 60.2009 74.0238L49.2281 71.8255C48.2104 71.6216 47.391 70.8688 47.1005 69.8707L44.2295 60.0084C43.9388 59.0101 44.2251 57.931 44.9728 57.2064L52.7706 49.649Z" fill="#512EA4"/>
<path d="M55.8233 48.7708C56.1859 48.4194 56.7086 48.2901 57.1915 48.4324L67.6327 51.5105C68.088 51.6447 68.4434 52.0016 68.5763 52.4582L71.8606 63.7407C71.9957 64.2048 71.8819 64.7066 71.5597 65.0679L64.3921 73.1049C64.0514 73.4869 63.5305 73.653 63.0334 73.5381L51.0028 70.7583C50.5115 70.6448 50.1201 70.2745 49.979 69.7895L46.729 58.6252C46.5837 58.126 46.7269 57.5865 47.1007 57.2241L55.8233 48.7708Z" fill="#8538CE"/>
<mask id="mask10_2173_1911" style="mask-type:alpha" maskUnits="userSpaceOnUse" x="46" y="48" width="26" height="26">
<path d="M56.019 48.5812C56.2607 48.3469 56.6092 48.2607 56.9311 48.3556L67.8763 51.5821C68.1799 51.6716 68.4168 51.9096 68.5054 52.2139L71.9332 63.9893C72.0233 64.2987 71.9474 64.6333 71.7326 64.8741L64.208 73.3113C63.9809 73.566 63.6336 73.6767 63.3022 73.6001L50.7376 70.697C50.41 70.6214 50.1491 70.3745 50.055 70.0512L46.6502 58.3546C46.5533 58.0218 46.6487 57.6621 46.898 57.4206L56.019 48.5812Z" fill="#8538CE"/>
</mask>
<g mask="url(#mask10_2173_1911)">
<path d="M59.0699 53.4738L54.4299 59.2175L43.3832 57.1297L54.4798 44.3772L59.0699 53.4738Z" fill="#FAB5FF"/>
<path d="M55.5664 66.446L49.4827 71.4005L63.9292 75.1589L63.4092 67.5348L55.5664 66.446Z" fill="#9A45FF"/>
<path d="M67.8628 62.8182L65.6846 56.1694L68.7596 50.8872L72.5756 64.8304L67.8628 62.8182Z" fill="#9A45FF"/>
</g>
<path d="M58.6607 53.6384C58.9026 53.4037 59.2515 53.3175 59.5738 53.4127L65.6877 55.219C65.991 55.3086 66.2277 55.5465 66.3162 55.8507L68.2453 62.4775C68.3353 62.7867 68.2596 63.1211 68.0451 63.3619L63.8525 68.0687C63.6252 68.3237 63.2775 68.4346 62.9458 68.3578L55.8914 66.7236C55.5641 66.6478 55.3034 66.401 55.2094 66.0778L53.3033 59.5298C53.2064 59.1972 53.3017 58.8377 53.5507 58.5961L58.6607 53.6384Z" fill="#E05FFF"/>
<path fill-rule="evenodd" clip-rule="evenodd" d="M91.1736 57.5508L91.2982 63.5796L85.172 69.0859L71.6324 69.4002L69.3998 67.4542L64.3792 73.0859C64.0388 73.4678 63.5181 73.6337 63.0211 73.5188L62.5336 73.406C61.8877 73.9486 61.0255 74.1754 60.1875 74.0072L49.218 71.8063C48.2006 71.6022 47.3814 70.8492 47.0907 69.8511L45.0933 62.9933L34.9894 66.0157C33.7029 66.4005 32.3689 65.6197 32.0631 64.3238C32.0561 64.2942 32.0497 64.2644 32.0438 64.2343L31.6996 62.4765L29.8669 63.1063C29.7352 63.1515 29.6004 63.1869 29.4635 63.212L23.9266 64.2287C22.4956 64.4915 21.1054 63.6106 20.7302 62.2032L13.1967 33.9441C12.8488 32.639 13.4811 31.2688 14.6998 30.6871L21.4582 27.4607C21.6756 27.3569 21.9053 27.2817 22.1417 27.2369L24.7047 26.7509L24.379 25.0875C24.3679 25.0311 24.359 24.9747 24.3522 24.9184C24.216 23.7971 24.9062 22.7246 26.003 22.3965L69.5173 9.38038C70.781 9.00237 72.103 9.74937 72.4325 11.0276L81.1053 44.6749L84.1596 44.604L90.4987 49.3981L90.6233 55.427L89.5916 56.3543L91.1736 57.5508ZM92.5027 56.2143L93.0172 56.6034L93.1782 64.3946L85.8998 70.9364L70.951 71.2834L69.5611 70.072L65.7668 74.3281C65.0408 75.1424 63.9637 75.5359 62.8986 75.3928C61.9659 75.8834 60.8802 76.0512 59.8176 75.838L48.8481 73.6371C47.1525 73.2968 45.7871 72.0419 45.3025 70.3783L43.8289 65.3187L35.518 67.8046C33.2587 68.4804 30.9179 67.159 30.2942 64.9279C30.1301 64.9773 29.9634 65.0175 29.7948 65.0484L24.2579 66.0652C21.8729 66.5031 19.5559 65.0349 18.9306 62.6893L11.3971 34.4302C10.8173 32.2551 11.8711 29.9714 13.9022 29.0018L20.6607 25.7754C21.0229 25.6025 21.4057 25.4771 21.7998 25.4024L22.5191 25.266C22.2093 23.2049 23.4614 21.2096 25.4743 20.6075L68.9887 7.59142C71.2634 6.911 73.643 8.25559 74.236 10.5564L82.5404 42.7742L84.7679 42.7225L92.3423 48.4508L92.5027 56.2143Z" fill="black"/>
<path fill-rule="evenodd" clip-rule="evenodd" d="M72.9916 2.79828C73.26 2.27332 73.9016 2.06493 74.4245 2.33283L75.1673 2.71334L77.134 2.29207L77.6724 1.17299C77.9281 0.641659 78.5644 0.417695 79.0938 0.672747C79.6231 0.9278 79.845 1.56529 79.5894 2.09661L79.2836 2.7321L79.7776 5.07508L80.6809 5.53784C81.2039 5.80574 81.4102 6.44849 81.1418 6.97345C80.8733 7.49842 80.2317 7.70681 79.7088 7.4389L79.1185 7.13649L76.9399 7.60315L76.4609 8.59875C76.2052 9.13008 75.5689 9.35404 75.0395 9.09899C74.5102 8.84394 74.2883 8.20645 74.544 7.67512L74.9078 6.91884L74.4494 4.74466L73.4524 4.2339C72.9294 3.96599 72.7231 3.32325 72.9916 2.79828Z" fill="white"/>
<path fill-rule="evenodd" clip-rule="evenodd" d="M69.592 17.5296C69.3516 16.9951 68.7242 16.7583 68.1907 17.0007C67.6571 17.243 67.4195 17.8727 67.6599 18.4072L68.1025 19.3913L67.9193 20.0822L66.7331 20.5769C66.1923 20.8024 65.9352 21.4244 66.1588 21.9662C66.3825 22.5079 67.0021 22.7643 67.5429 22.5388L68.1203 22.298L69.5842 22.6852L69.9815 23.5683C70.2219 24.1028 70.8493 24.3396 71.3828 24.0972C71.9163 23.8549 72.154 23.2252 71.9136 22.6907L71.5409 21.8622L71.8363 20.7482L72.7678 20.3598C73.3086 20.1342 73.5657 19.5122 73.3421 18.9705C73.1185 18.4287 72.4988 18.1723 71.958 18.3979L70.7732 18.892L70.1281 18.7214L69.592 17.5296Z" fill="white"/>
<path fill-rule="evenodd" clip-rule="evenodd" d="M85.6562 35.6638C85.4451 35.1946 84.8943 34.9867 84.4259 35.1995C83.9574 35.4122 83.7488 35.9651 83.9599 36.4343L84.3485 37.2983L84.1876 37.9049L83.1462 38.3392C82.6714 38.5372 82.4457 39.0833 82.642 39.559C82.8383 40.0346 83.3824 40.2597 83.8572 40.0617L84.364 39.8503L85.6493 40.1903L85.9981 40.9656C86.2092 41.4348 86.76 41.6428 87.2284 41.43C87.6969 41.2172 87.9055 40.6643 87.6944 40.1951L87.3672 39.4677L87.6266 38.4897L88.4444 38.1486C88.9192 37.9506 89.1449 37.4045 88.9486 36.9289C88.7523 36.4532 88.2082 36.2282 87.7334 36.4262L86.6932 36.86L86.1268 36.7102L85.6562 35.6638Z" fill="white"/>
</svg>
