<svg width="36" height="31" viewBox="0 0 36 31" fill="none" xmlns="http://www.w3.org/2000/svg">
<path d="M24.5292 1.85886C26.5245 1.27038 28.6626 2.3362 29.3728 4.31222L33.9558 17.0688L34.0194 17.2609C34.6019 19.1841 33.6236 21.2321 31.7607 21.9932L31.5718 22.0647L25.9203 24.047C25.8603 24.0681 25.7937 24.0592 25.7411 24.0235C25.6885 23.9877 25.6553 23.929 25.6529 23.8655C25.6508 23.8104 25.6466 23.7548 25.6384 23.6989C25.5132 22.8431 24.7058 22.2456 23.8306 22.3715C22.9554 22.4975 22.3534 23.2978 22.4785 24.1535C22.5181 24.4237 22.6246 24.6675 22.7799 24.8708C22.8188 24.9217 22.8312 24.9883 22.8129 25.0496C22.7946 25.1108 22.7483 25.1599 22.6881 25.181L12.0458 28.9124C10.0614 29.6084 7.88361 28.6265 7.08297 26.7101L7.00995 26.5213L2.42694 13.7647C1.69395 11.7239 2.76182 9.4874 4.811 8.76875L15.0298 5.1851L15.0688 5.17553C15.1085 5.17004 15.1498 5.17697 15.1862 5.19515C15.2344 5.21937 15.271 5.26238 15.2874 5.31378C15.5171 6.03271 16.2499 6.50518 17.0371 6.39199C17.9123 6.26606 18.5153 5.46565 18.3901 4.60985C18.3722 4.48731 18.3403 4.37033 18.2965 4.26024C18.2764 4.20972 18.2779 4.15325 18.3003 4.10381C18.3228 4.0544 18.3638 4.01555 18.415 3.99752L24.337 1.92106L24.5292 1.85886Z" fill="white" stroke="black" stroke-width="0.4" stroke-linejoin="round"/>
<path fill-rule="evenodd" clip-rule="evenodd" d="M28.8338 4.50594C28.2076 2.7631 26.2797 1.84787 24.5284 2.46205L18.9395 4.42213C18.9465 4.45762 18.9527 4.49347 18.958 4.52963C19.1299 5.70455 18.3029 6.78905 17.1207 6.95916C16.1897 7.09311 15.3085 6.62186 14.8913 5.84185L5.00275 9.3098C3.25262 9.92357 2.3414 11.8325 2.96714 13.5742L7.55008 26.3304C8.17623 28.0732 10.1041 28.9884 11.8554 28.3743L22.0715 24.7914C21.9946 24.6183 21.9398 24.4322 21.9112 24.2363C21.7393 23.0614 22.5663 21.9769 23.7485 21.8068C24.842 21.6494 25.8683 22.3278 26.1522 23.3603L31.3811 21.5265C33.1312 20.9127 34.0424 19.0038 33.4167 17.2622L28.8338 4.50594ZM24.2795 1.75998C26.4187 1.00976 28.7723 2.12709 29.5371 4.25595L34.1201 17.0122C34.8853 19.1422 33.7703 21.478 31.63 22.2286L25.9784 24.2107C25.8664 24.2499 25.7423 24.2338 25.644 24.1672C25.5458 24.1006 25.4851 23.9915 25.4806 23.8733C25.4787 23.8242 25.4742 23.7746 25.4669 23.7247C25.3557 22.9642 24.6378 22.431 23.8563 22.5434C23.0747 22.6559 22.5392 23.3694 22.6505 24.1299C22.6857 24.3706 22.7809 24.5871 22.919 24.768C22.9914 24.8627 23.014 24.9861 22.9798 25.1C22.9457 25.2139 22.8589 25.3047 22.7463 25.3441L12.1043 29.0763C9.96513 29.8266 7.61154 28.7092 6.8467 26.5804L2.26376 13.8241C1.49851 11.6941 2.61351 9.35834 4.75384 8.60772L14.9729 5.02386C15.0682 4.99042 15.1732 4.99694 15.2637 5.04193C15.3543 5.08692 15.4227 5.16653 15.4533 5.26258C15.6573 5.90184 16.31 6.32366 17.0129 6.22253C17.7945 6.11008 18.3299 5.39654 18.2187 4.636C18.2027 4.52656 18.1743 4.42239 18.1354 4.32445C18.0979 4.23039 18.1005 4.12524 18.1425 4.03321C18.1846 3.94119 18.2624 3.87022 18.3581 3.83664L24.2795 1.75998Z" fill="black"/>
<path d="M18.9307 22.1493C17.9376 22.5082 17.4012 22.5787 17.3216 22.3611L13.4509 11.7842C13.3155 11.4142 13.417 11.1681 13.7553 11.0459L16.6364 10.0049C18.2515 9.42133 19.5353 9.33327 20.4875 9.74075C21.4507 10.1443 22.1633 10.9772 22.6252 12.2394C23.0075 13.2841 23.0197 14.3639 22.6616 15.4789C22.4826 16.0364 22.1135 16.564 21.5542 17.0618C20.995 17.5595 20.2789 17.9661 19.4058 18.2816L20.475 21.2033C20.5228 21.3338 20.3493 21.5013 19.9545 21.7055C19.5666 21.8949 19.2254 22.0429 18.9307 22.1493ZM17.4466 12.9278L18.3903 15.5067L18.6031 15.4299C18.9851 15.2918 19.2632 15.0558 19.4376 14.7218C19.6119 14.3878 19.6194 14.0031 19.4601 13.5679C19.3008 13.1326 19.0946 12.856 18.8413 12.738C18.599 12.6161 18.2487 12.638 17.7903 12.8036L17.4466 12.9278Z" fill="black"/>
</svg>
