<svg width="71" height="62" viewBox="0 0 71 62" fill="none" xmlns="http://www.w3.org/2000/svg">
<path d="M0 3.71753H62.289L52.923 61.2073L0 61.2073V3.71753Z" fill="black"/>
<path d="M69.2314 0.60083L69.3203 0.611572C69.4071 0.631469 69.4861 0.679527 69.543 0.750244C69.5998 0.820926 69.63 0.908328 69.6309 0.997314L69.6221 1.08716L57.5361 56.1487C57.4959 56.3321 57.3333 56.463 57.1455 56.4631H4.5332C4.31241 56.4631 4.13301 56.2845 4.13281 56.0637V1.00122L4.1416 0.920166C4.17908 0.73813 4.34007 0.60083 4.5332 0.60083H69.2314Z" fill="#F4A41B" stroke="black" stroke-width="0.8" stroke-linejoin="round"/>
<mask id="mask0_2171_1623" style="mask-type:alpha" maskUnits="userSpaceOnUse" x="4" y="1" width="66" height="56">
<path d="M4.5332 1.00122H69.231L57.1453 56.0634H4.5332V1.00122Z" fill="#D9D9D9"/>
</mask>
<g mask="url(#mask0_2171_1623)">
<path d="M-0.064209 -5.27661H69.1486V17.7305L-0.064209 39.0846V-5.27661Z" fill="#FFC11E"/>
</g>
</svg>
