<svg width="186" height="120" viewBox="0 0 186 120" fill="none" xmlns="http://www.w3.org/2000/svg">
<mask id="path-1-outside-1_2171_1621" maskUnits="userSpaceOnUse" x="-0.346924" y="-0.0244141" width="187" height="120" fill="black">
<rect fill="white" x="-0.346924" y="-0.0244141" width="187" height="120"/>
<path d="M56.8038 21.0943C68.0373 10.1463 83.7741 4.26466 100.268 6.41461C114.705 8.29667 127.004 15.9791 135.246 26.8941L167.934 37.2056C174.525 39.285 178.963 45.3253 179.112 52.1021C180.32 54.6321 180.876 57.4997 180.603 60.4566L178.832 79.6197C178.552 82.6493 177.432 85.4263 175.712 87.7252C174.051 93.9423 168.76 98.6684 162.195 99.4693L124.727 104.041C114.037 112.213 100.391 116.322 86.1828 114.47C74.5954 112.96 64.385 107.713 56.5441 100.058L16.84 87.5338C9.66096 85.269 5.03159 78.3063 5.72084 70.8101L8.58314 39.6871C9.2732 32.1865 15.1014 26.1833 22.5783 25.2711L56.8038 21.0943Z"/>
</mask>
<path d="M56.8038 21.0943L57.4095 26.0575L59.0849 25.853L60.2936 24.675L56.8038 21.0943ZM100.268 6.41461L100.914 1.45656L100.914 1.45656L100.268 6.41461ZM135.246 26.8941L131.256 29.9072L132.219 31.1819L133.742 31.6625L135.246 26.8941ZM167.934 37.2056L169.438 32.4373L169.438 32.4373L167.934 37.2056ZM179.112 52.1021L174.114 52.2124L174.137 53.2861L174.6 54.2554L179.112 52.1021ZM180.603 60.4566L185.581 60.9166L185.581 60.9166L180.603 60.4566ZM178.832 79.6197L183.811 80.0798L183.811 80.0797L178.832 79.6197ZM175.712 87.7252L171.709 84.7295L171.131 85.502L170.882 86.4343L175.712 87.7252ZM162.195 99.4693L162.801 104.432L162.801 104.432L162.195 99.4693ZM124.727 104.041L124.121 99.0774L122.771 99.2421L121.69 100.068L124.727 104.041ZM86.1828 114.47L85.5365 119.428L85.5365 119.428L86.1828 114.47ZM56.5441 100.058L60.037 96.4805L59.1845 95.6482L58.0482 95.2898L56.5441 100.058ZM16.84 87.5338L15.3357 92.3021L15.3358 92.3021L16.84 87.5338ZM5.72084 70.8101L0.741851 70.3522L0.741842 70.3523L5.72084 70.8101ZM8.58314 39.6871L3.60417 39.229L3.60416 39.2292L8.58314 39.6871ZM22.5783 25.2711L23.1838 30.2343L23.1839 30.2342L22.5783 25.2711ZM56.8038 21.0943L60.2936 24.675C70.5006 14.7274 84.7375 9.43254 99.6214 11.3727L100.268 6.41461L100.914 1.45656C82.8106 -0.903229 65.574 5.56512 53.3141 17.5136L56.8038 21.0943ZM100.268 6.41461L99.6214 11.3727C112.655 13.0717 123.776 20.0021 131.256 29.9072L135.246 26.8941L139.236 23.881C130.231 11.9562 116.756 3.52166 100.914 1.45656L100.268 6.41461ZM135.246 26.8941L133.742 31.6625L166.43 41.974L167.934 37.2056L169.438 32.4373L136.75 22.1257L135.246 26.8941ZM167.934 37.2056L166.43 41.974C170.957 43.4023 174.011 47.5535 174.114 52.2124L179.112 52.1021L184.111 51.9918C183.915 43.097 178.093 35.1677 169.438 32.4373L167.934 37.2056ZM179.112 52.1021L174.6 54.2554C175.431 55.9963 175.812 57.9631 175.624 59.9966L180.603 60.4566L185.581 60.9166C185.94 57.0364 185.209 53.268 183.625 49.9488L179.112 52.1021ZM180.603 60.4566L175.624 59.9966L173.853 79.1597L178.832 79.6197L183.811 80.0797L185.581 60.9166L180.603 60.4566ZM178.832 79.6197L173.853 79.1596C173.661 81.2412 172.894 83.1459 171.709 84.7295L175.712 87.7252L179.715 90.7208C181.971 87.7067 183.443 84.0574 183.811 80.0798L178.832 79.6197ZM175.712 87.7252L170.882 86.4343C169.739 90.7087 166.099 93.956 161.59 94.5061L162.195 99.4693L162.801 104.432C171.42 103.381 178.362 97.176 180.543 89.0161L175.712 87.7252ZM162.195 99.4693L161.59 94.5061L124.121 99.0774L124.727 104.041L125.332 109.004L162.801 104.432L162.195 99.4693ZM124.727 104.041L121.69 100.068C111.99 107.484 99.6559 111.184 86.829 109.512L86.1828 114.47L85.5365 119.428C101.126 121.46 116.083 116.942 127.763 108.013L124.727 104.041ZM86.1828 114.47L86.829 109.512C76.3618 108.148 67.1379 103.413 60.037 96.4805L56.5441 100.058L53.0512 103.636C61.6321 112.013 72.8291 117.772 85.5365 119.428L86.1828 114.47ZM56.5441 100.058L58.0482 95.2898L18.3441 82.7654L16.84 87.5338L15.3358 92.3021L55.0399 104.827L56.5441 100.058ZM16.84 87.5338L18.3442 82.7654C13.4086 81.2084 10.226 76.4215 10.6998 71.2679L5.72084 70.8101L0.741842 70.3523C-0.162797 80.191 5.91327 89.3296 15.3357 92.3021L16.84 87.5338ZM5.72084 70.8101L10.6998 71.268L13.5621 40.145L8.58314 39.6871L3.60416 39.2292L0.741851 70.3522L5.72084 70.8101ZM8.58314 39.6871L13.5621 40.1451C14.0365 34.9888 18.0433 30.8615 23.1838 30.2343L22.5783 25.2711L21.9727 20.3079C12.1596 21.5052 4.5099 29.3843 3.60417 39.229L8.58314 39.6871ZM22.5783 25.2711L23.1839 30.2342L57.4095 26.0575L56.8038 21.0943L56.1982 16.1311L21.9726 20.3079L22.5783 25.2711Z" fill="black" mask="url(#path-1-outside-1_2171_1621)"/>
<g filter="url(#filter0_i_2171_1621)">
<path d="M56.8038 21.0943C68.0373 10.1463 83.7741 4.26466 100.268 6.41461C114.705 8.29667 127.004 15.9791 135.246 26.8941L167.934 37.2056C175.113 39.4704 179.742 46.4339 179.053 53.9302L176.191 85.0523C175.501 92.5529 169.672 98.557 162.195 99.4693L124.727 104.041C114.037 112.213 100.391 116.322 86.1828 114.47C74.5954 112.96 64.385 107.713 56.5441 100.058L16.84 87.5338C9.66096 85.269 5.03159 78.3063 5.72084 70.8101L8.58314 39.6871C9.2732 32.1865 15.1014 26.1833 22.5783 25.2711L56.8038 21.0943Z" fill="#471B04"/>
</g>
<g filter="url(#filter1_dii_2171_1621)">
<path d="M59.9376 93.2617L15.8745 81.1861C8.39068 79.1352 3.45734 72.01 4.17122 64.2831L5.94165 45.1204C6.65505 37.3986 12.803 31.3 20.5302 30.6489L66.3355 26.7889L59.9376 93.2617Z" fill="#5E2503"/>
</g>
<g filter="url(#filter2_dii_2171_1621)">
<path d="M124.837 31.478L168.9 43.5536C176.383 45.6046 181.317 52.7298 180.603 60.4566L178.833 79.6194C178.119 87.3411 171.971 93.4397 164.244 94.0909L118.439 97.9509L124.837 31.478Z" fill="#592103"/>
</g>
<g opacity="0.1">
<mask id="mask0_2171_1621" style="mask-type:alpha" maskUnits="userSpaceOnUse" x="5" y="5" width="175" height="110">
<path d="M56.8038 21.0943C68.0373 10.1463 83.7741 4.26466 100.268 6.41461C114.705 8.29667 127.004 15.9791 135.246 26.8941L167.934 37.2056C175.113 39.4704 179.742 46.4339 179.053 53.9302L176.191 85.0523C175.501 92.5529 169.672 98.557 162.195 99.4693L124.727 104.041C114.037 112.213 100.391 116.322 86.1828 114.47C74.5954 112.96 64.385 107.713 56.5441 100.058L16.84 87.5338C9.66096 85.269 5.03159 78.3063 5.72084 70.8101L8.58314 39.6871C9.2732 32.1865 15.1014 26.1833 22.5783 25.2711L56.8038 21.0943Z" fill="#491E04"/>
</mask>
<g mask="url(#mask0_2171_1621)">
<circle opacity="0.2" cx="58.7729" cy="57.9148" r="112.745" fill="white"/>
</g>
</g>
<path fill-rule="evenodd" clip-rule="evenodd" d="M139.589 44.1645C139.937 44.1785 140.285 44.2014 140.635 44.2333C151.885 45.2588 160.173 55.2096 159.147 66.459C158.122 77.7084 148.171 85.9964 136.921 84.9709C136.476 84.9303 136.035 84.8756 135.598 84.8072C126.809 101.79 108.657 112.701 88.7376 110.885C68.8167 109.069 52.9359 95.0538 47.3639 76.7593C46.902 76.7484 46.4378 76.7219 45.9716 76.6794C34.7222 75.6539 26.4342 65.7031 27.4597 54.4537C28.4853 43.2043 38.4361 34.9163 49.6854 35.9418C50.0558 35.9756 50.4232 36.0191 50.7874 36.072C59.4167 19.0721 77.7837 8.16846 97.9343 10.0055C118.084 11.8424 134.176 25.886 139.589 44.1645ZM49.6869 73.5791C54.2481 91.8571 69.6108 106.04 89.018 107.809C108.421 109.578 126.092 98.4123 133.885 81.2668C134.949 81.5777 136.057 81.7909 137.202 81.8952C146.753 82.7659 155.201 75.7294 156.071 66.1786C156.942 56.6278 149.906 48.1796 140.355 47.3089C139.298 47.2126 138.255 47.213 137.234 47.303C132.869 29.1047 117.325 14.8744 97.6539 13.0811C77.9789 11.2875 60.1142 22.4771 52.5336 39.5921C51.5279 39.3103 50.4825 39.1157 49.405 39.0174C39.8543 38.1468 31.406 45.1833 30.5353 54.7341C29.6646 64.2848 36.7012 72.7331 46.252 73.6038C47.4173 73.71 48.5662 73.6985 49.6869 73.5791Z" fill="black"/>
<path d="M156.072 66.1787C155.201 75.7294 146.753 82.766 137.202 81.8953C127.651 81.0246 120.615 72.5763 121.485 63.0256C122.356 53.4748 130.804 46.4383 140.355 47.309C149.906 48.1797 156.943 56.6279 156.072 66.1787Z" fill="#F07527"/>
<path d="M30.5356 54.7341C29.6649 64.2849 36.7015 72.7331 46.2522 73.6038C55.803 74.4745 64.2513 67.4379 65.122 57.8872C65.9926 48.3364 58.9561 39.8882 49.4053 39.0175C39.8546 38.1468 31.4063 45.1833 30.5356 54.7341Z" fill="#F07527"/>
<mask id="mask1_2171_1621" style="mask-type:alpha" maskUnits="userSpaceOnUse" x="30" y="38" width="127" height="44">
<path opacity="0.5" fill-rule="evenodd" clip-rule="evenodd" d="M46.2522 73.6038C36.7014 72.7331 29.6648 64.2848 30.5355 54.7341C31.4062 45.1833 39.8545 38.1468 49.4052 39.0175C58.956 39.8881 65.9926 48.3364 65.1219 57.8872C64.2512 67.4379 55.8029 74.4745 46.2522 73.6038ZM137.202 81.8952C146.753 82.7659 155.201 75.7294 156.072 66.1786C156.942 56.6278 149.906 48.1796 140.355 47.3089C130.804 46.4382 122.356 53.4748 121.485 63.0255C120.615 72.5763 127.651 81.0245 137.202 81.8952Z" fill="#D9D9D9"/>
</mask>
<g mask="url(#mask1_2171_1621)">
<path d="M144.793 65.1592C142.177 93.8553 116.793 114.997 88.0968 112.381C59.4007 109.765 38.2586 84.3817 40.8747 55.6855C43.4908 26.9894 68.8744 5.84732 97.5705 8.46341C126.267 11.0795 147.409 36.4631 144.793 65.1592Z" fill="#D05316"/>
<path d="M141.601 64.0131C139.174 90.6272 115.632 110.235 89.0183 107.809C62.4042 105.383 42.796 81.8408 45.2223 55.2267C47.6486 28.6126 71.1905 9.00449 97.8046 11.4308C124.419 13.857 144.027 37.3989 141.601 64.0131Z" fill="#C0420D"/>
</g>
<path d="M32.8482 57.2334C32.5479 60.5277 34.9749 63.4417 38.2692 63.742C41.5635 64.0423 44.4774 61.6152 44.7778 58.321C45.0781 55.0267 42.651 52.1127 39.3568 51.8124C36.0625 51.5121 33.1485 53.9392 32.8482 57.2334Z" fill="#D4470D"/>
<path d="M39.6427 49.0389C36.1794 48.7231 33.1159 51.2747 32.8001 54.738C32.4844 58.2014 35.036 61.2649 38.4993 61.5806C41.9626 61.8963 45.0261 59.3447 45.3419 55.8814C45.6575 52.4181 43.106 49.3546 39.6427 49.0389Z" fill="#B03105" stroke="#652621" stroke-width="2"/>
<path d="M34.8729 53.9368C34.7251 55.5582 35.9197 56.9925 37.5412 57.1403C39.1627 57.2882 40.597 56.0935 40.7448 54.4721C40.8926 52.8506 39.698 51.4163 38.0765 51.2685C36.455 51.1207 35.0208 52.3153 34.8729 53.9368Z" fill="#D76307"/>
<path d="M36.123 53.2519C36.0582 53.9623 36.5816 54.5907 37.292 54.6554C38.0023 54.7202 38.6307 54.1968 38.6955 53.4864C38.7602 52.7761 38.2369 52.1477 37.5265 52.0829C36.8161 52.0182 36.1877 52.5415 36.123 53.2519Z" fill="#EFA61A"/>
<path d="M137.89 66.0755C135.584 91.3747 113.703 110.059 89.0179 107.809C64.333 105.559 46.1915 83.2252 48.498 57.926C50.8044 32.6268 72.6852 13.942 97.3702 16.1924C122.055 18.4428 140.197 40.7762 137.89 66.0755Z" fill="url(#paint0_linear_2171_1621)"/>
<path d="M138.275 61.8519C136.025 86.5369 114.189 104.724 89.5044 102.473C64.8194 100.223 46.6326 78.3874 48.883 53.7024C51.1334 29.0175 72.9689 10.8307 97.6539 13.0811C122.339 15.3315 140.526 37.1669 138.275 61.8519Z" fill="#FFBE07"/>
<mask id="mask2_2171_1621" style="mask-type:alpha" maskUnits="userSpaceOnUse" x="48" y="12" width="91" height="91">
<path d="M138.275 61.8519C136.025 86.5369 114.189 104.724 89.5044 102.473C64.8194 100.223 46.6326 78.3874 48.883 53.7024C51.1334 29.0175 72.9689 10.8307 97.6539 13.0811C122.339 15.3315 140.526 37.1669 138.275 61.8519Z" fill="#FFBE07"/>
</mask>
<g mask="url(#mask2_2171_1621)">
<path d="M139.551 65.1378C137.301 89.8228 115.465 108.01 90.7803 105.759C66.0953 103.509 47.9085 81.6733 50.1589 56.9883C52.4093 32.3034 74.2448 14.1166 98.9297 16.367C123.615 18.6174 141.802 40.4528 139.551 65.1378Z" fill="#F07527"/>
<mask id="mask3_2171_1621" style="mask-type:alpha" maskUnits="userSpaceOnUse" x="49" y="16" width="91" height="90">
<path d="M139.551 65.1378C137.3 89.8228 115.465 108.01 90.78 105.759C66.0951 103.509 47.9083 81.6733 50.1587 56.9883C52.4091 32.3034 74.2445 14.1166 98.9295 16.367C123.614 18.6174 141.801 40.4528 139.551 65.1378Z" fill="white"/>
</mask>
<g mask="url(#mask3_2171_1621)">
<g opacity="0.35">
<path d="M117.003 98.1939L77.2662 12.0651L93.1861 7.32148L128.926 84.779L117.003 98.1939Z" fill="#FFC17B"/>
<path d="M113.435 103.36L71.8578 14.2472L53.2075 22.6842L93.0614 109.47L113.435 103.36Z" fill="#FFC17B"/>
</g>
</g>
</g>
<path d="M129.332 63.7407C127.567 83.1012 110.442 97.3651 91.0813 95.6001C71.7208 93.8351 57.4569 76.7095 59.2219 57.3491C60.9869 37.9887 78.1125 23.7248 97.4729 25.4898C116.833 27.2547 131.097 44.3803 129.332 63.7407Z" fill="#FCC406"/>
<path d="M129.373 62.4087C127.608 81.7691 110.483 96.033 91.1223 94.268C71.7619 92.5031 57.4979 75.3775 59.2629 56.0171C61.0279 36.6566 78.1535 22.3927 97.5139 24.1577C116.874 25.9227 131.138 43.0483 129.373 62.4087Z" fill="#D74A12"/>
<path d="M87.1796 38.4322C89.3887 41.096 88.0895 45.8181 84.2778 48.9792C80.466 52.1404 75.5851 52.5435 73.376 49.8797C71.1668 47.2159 72.466 42.4938 76.2778 39.3327C80.0896 36.1715 84.9705 35.7684 87.1796 38.4322Z" fill="white"/>
<path d="M141.817 66.6638C141.517 69.9581 143.944 72.8721 147.238 73.1724C150.532 73.4727 153.446 71.0457 153.747 67.7514C154.047 64.4571 151.62 61.5432 148.326 61.2428C145.031 60.9425 142.118 63.3696 141.817 66.6638Z" fill="#D4470D"/>
<path d="M148.612 58.4693C145.149 58.1535 142.085 60.7052 141.769 64.1685C141.454 67.6318 144.005 70.6953 147.469 71.011C150.932 71.3267 153.995 68.7752 154.311 65.3118C154.627 61.8485 152.075 58.7851 148.612 58.4693Z" fill="#B03105" stroke="#652621" stroke-width="2"/>
<path d="M143.842 63.3672C143.694 64.9886 144.889 66.4229 146.51 66.5708C148.132 66.7186 149.566 65.524 149.714 63.9025C149.862 62.281 148.667 60.8467 147.046 60.6989C145.424 60.5511 143.99 61.7457 143.842 63.3672Z" fill="#D76307"/>
<path d="M145.092 62.6823C145.027 63.3927 145.551 64.0211 146.261 64.0859C146.972 64.1506 147.6 63.6272 147.665 62.9169C147.729 62.2065 147.206 61.5781 146.496 61.5134C145.785 61.4486 145.157 61.972 145.092 62.6823Z" fill="#EFA61A"/>
<defs>
<filter id="filter0_i_2171_1621" x="5.65308" y="5.97559" width="173.468" height="108.934" filterUnits="userSpaceOnUse" color-interpolation-filters="sRGB">
<feFlood flood-opacity="0" result="BackgroundImageFix"/>
<feBlend mode="normal" in="SourceGraphic" in2="BackgroundImageFix" result="shape"/>
<feColorMatrix in="SourceAlpha" type="matrix" values="0 0 0 0 0 0 0 0 0 0 0 0 0 0 0 0 0 0 127 0" result="hardAlpha"/>
<feOffset dy="4"/>
<feComposite in2="hardAlpha" operator="arithmetic" k2="-1" k3="1"/>
<feColorMatrix type="matrix" values="0 0 0 0 0.345098 0 0 0 0 0.145098 0 0 0 0 0.0156863 0 0 0 1 0"/>
<feBlend mode="normal" in2="shape" result="effect1_innerShadow_2171_1621"/>
</filter>
<filter id="filter1_dii_2171_1621" x="4.10278" y="26.7888" width="62.2327" height="69.4729" filterUnits="userSpaceOnUse" color-interpolation-filters="sRGB">
<feFlood flood-opacity="0" result="BackgroundImageFix"/>
<feColorMatrix in="SourceAlpha" type="matrix" values="0 0 0 0 0 0 0 0 0 0 0 0 0 0 0 0 0 0 127 0" result="hardAlpha"/>
<feOffset dy="3"/>
<feComposite in2="hardAlpha" operator="out"/>
<feColorMatrix type="matrix" values="0 0 0 0 0.254902 0 0 0 0 0.0588235 0 0 0 0 0.0156863 0 0 0 1 0"/>
<feBlend mode="normal" in2="BackgroundImageFix" result="effect1_dropShadow_2171_1621"/>
<feBlend mode="normal" in="SourceGraphic" in2="effect1_dropShadow_2171_1621" result="shape"/>
<feColorMatrix in="SourceAlpha" type="matrix" values="0 0 0 0 0 0 0 0 0 0 0 0 0 0 0 0 0 0 127 0" result="hardAlpha"/>
<feOffset dy="3"/>
<feComposite in2="hardAlpha" operator="arithmetic" k2="-1" k3="1"/>
<feColorMatrix type="matrix" values="0 0 0 0 0.415686 0 0 0 0 0.164706 0 0 0 0 0.0117647 0 0 0 1 0"/>
<feBlend mode="normal" in2="shape" result="effect2_innerShadow_2171_1621"/>
<feColorMatrix in="SourceAlpha" type="matrix" values="0 0 0 0 0 0 0 0 0 0 0 0 0 0 0 0 0 0 127 0" result="hardAlpha"/>
<feOffset dy="-3"/>
<feComposite in2="hardAlpha" operator="arithmetic" k2="-1" k3="1"/>
<feColorMatrix type="matrix" values="0 0 0 0 0.34902 0 0 0 0 0.121569 0 0 0 0 0.00784314 0 0 0 1 0"/>
<feBlend mode="normal" in2="effect2_innerShadow_2171_1621" result="effect3_innerShadow_2171_1621"/>
</filter>
<filter id="filter2_dii_2171_1621" x="118.439" y="31.478" width="62.2327" height="69.4729" filterUnits="userSpaceOnUse" color-interpolation-filters="sRGB">
<feFlood flood-opacity="0" result="BackgroundImageFix"/>
<feColorMatrix in="SourceAlpha" type="matrix" values="0 0 0 0 0 0 0 0 0 0 0 0 0 0 0 0 0 0 127 0" result="hardAlpha"/>
<feOffset dy="3"/>
<feComposite in2="hardAlpha" operator="out"/>
<feColorMatrix type="matrix" values="0 0 0 0 0.254902 0 0 0 0 0.0588235 0 0 0 0 0.0156863 0 0 0 1 0"/>
<feBlend mode="normal" in2="BackgroundImageFix" result="effect1_dropShadow_2171_1621"/>
<feBlend mode="normal" in="SourceGraphic" in2="effect1_dropShadow_2171_1621" result="shape"/>
<feColorMatrix in="SourceAlpha" type="matrix" values="0 0 0 0 0 0 0 0 0 0 0 0 0 0 0 0 0 0 127 0" result="hardAlpha"/>
<feOffset dy="3"/>
<feComposite in2="hardAlpha" operator="arithmetic" k2="-1" k3="1"/>
<feColorMatrix type="matrix" values="0 0 0 0 0.415686 0 0 0 0 0.164706 0 0 0 0 0.0117647 0 0 0 1 0"/>
<feBlend mode="normal" in2="shape" result="effect2_innerShadow_2171_1621"/>
<feColorMatrix in="SourceAlpha" type="matrix" values="0 0 0 0 0 0 0 0 0 0 0 0 0 0 0 0 0 0 127 0" result="hardAlpha"/>
<feOffset dy="-3"/>
<feComposite in2="hardAlpha" operator="arithmetic" k2="-1" k3="1"/>
<feColorMatrix type="matrix" values="0 0 0 0 0.34902 0 0 0 0 0.121569 0 0 0 0 0.00784314 0 0 0 1 0"/>
<feBlend mode="normal" in2="effect2_innerShadow_2171_1621" result="effect3_innerShadow_2171_1621"/>
</filter>
<linearGradient id="paint0_linear_2171_1621" x1="133.708" y1="93.1281" x2="49.71" y2="74.5753" gradientUnits="userSpaceOnUse">
<stop stop-color="#CE4327"/>
<stop offset="1" stop-color="#C33822"/>
</linearGradient>
</defs>
</svg>
