<svg width="66" height="70" viewBox="0 0 66 70" fill="none" xmlns="http://www.w3.org/2000/svg">
<path fill-rule="evenodd" clip-rule="evenodd" d="M63.9039 34.4436C63.9258 33.9651 63.937 33.4838 63.937 32.9999C63.937 15.9138 50.0859 2.06274 32.9998 2.06274C15.9137 2.06274 2.06262 15.9138 2.06262 32.9999C2.06262 33.4838 2.07373 33.9651 2.09571 34.4436C2.07373 34.934 2.06262 35.4273 2.06262 35.9232C2.06262 53.4345 15.9137 67.6303 32.9998 67.6303C50.0859 67.6303 63.937 53.4345 63.937 35.9232C63.937 35.4273 63.9258 34.934 63.9039 34.4436Z" fill="#FFBE07"/>
<path fill-rule="evenodd" clip-rule="evenodd" d="M65.9689 34.4448C65.9896 33.9657 66 33.484 66 33C66 14.7746 51.2254 0 33 0C14.7746 0 0 14.7746 0 33C0 33.484 0.0104324 33.9656 0.0310956 34.4448C0.0104327 34.9351 0 35.428 0 35.9233C0 54.5258 14.7271 69.6932 33 69.6932C51.2729 69.6932 66 54.5258 66 35.9233C66 35.428 65.9896 34.9351 65.9689 34.4448ZM63.9372 33C63.9372 33.4839 63.9261 33.9652 63.9041 34.4437C63.9261 34.9341 63.9372 35.4274 63.9372 35.9233C63.9372 53.4346 50.0861 67.6303 33 67.6303C15.9139 67.6303 2.06283 53.4346 2.06283 35.9233C2.06283 35.4274 2.07394 34.9341 2.09592 34.4437C2.07394 33.9652 2.06283 33.4839 2.06283 33C2.06283 15.9139 15.9139 2.06283 33 2.06283C50.0861 2.06283 63.9372 15.9139 63.9372 33Z" fill="black"/>
<path d="M63.937 35.9236C63.937 53.4349 50.0859 67.6306 32.9998 67.6306C15.9137 67.6306 2.06262 53.4349 2.06262 35.9236C2.06262 18.4123 15.9137 4.21655 32.9998 4.21655C50.0859 4.21655 63.937 18.4123 63.937 35.9236Z" fill="url(#paint0_linear_2125_1241)"/>
<path d="M63.937 32.9999C63.937 50.086 50.0859 63.9371 32.9998 63.9371C15.9137 63.9371 2.06262 50.086 2.06262 32.9999C2.06262 15.9138 15.9137 2.06274 32.9998 2.06274C50.0859 2.06274 63.937 15.9138 63.937 32.9999Z" fill="#FFBE07"/>
<mask id="mask0_2125_1241" style="mask-type:alpha" maskUnits="userSpaceOnUse" x="2" y="2" width="62" height="62">
<path d="M63.937 32.9999C63.937 50.086 50.0859 63.9371 32.9998 63.9371C15.9137 63.9371 2.06262 50.086 2.06262 32.9999C2.06262 15.9138 15.9137 2.06274 32.9998 2.06274C50.0859 2.06274 63.937 15.9138 63.937 32.9999Z" fill="#FFBE07"/>
</mask>
<g mask="url(#mask0_2125_1241)">
<path d="M65.0187 35.1747C65.0187 52.2608 51.1677 66.1119 34.0816 66.1119C16.9955 66.1119 3.14441 52.2608 3.14441 35.1747C3.14441 18.0886 16.9955 4.23755 34.0816 4.23755C51.1677 4.23755 65.0187 18.0886 65.0187 35.1747Z" fill="#F07527"/>
<mask id="mask1_2125_1241" style="mask-type:alpha" maskUnits="userSpaceOnUse" x="3" y="4" width="63" height="63">
<path d="M65.0187 35.1747C65.0187 52.2608 51.1677 66.1119 34.0816 66.1119C16.9955 66.1119 3.14441 52.2608 3.14441 35.1747C3.14441 18.0886 16.9955 4.23755 34.0816 4.23755C51.1677 4.23755 65.0187 18.0886 65.0187 35.1747Z" fill="white"/>
</mask>
<g mask="url(#mask1_2125_1241)">
<g opacity="0.35">
<path d="M51.609 59.2789L18.9411 2.64155L29.5726 -1.61108L58.9544 49.3238L51.609 59.2789Z" fill="#FFC17B"/>
<path d="M49.4826 63.0482L15.3649 4.47792L3.09021 11.4368L35.8796 68.5179L49.4826 63.0482Z" fill="#FFC17B"/>
</g>
</g>
</g>
<path d="M57.9159 34.8563C57.9159 48.257 47.0525 59.1203 33.6518 59.1203C20.2512 59.1203 9.38782 48.257 9.38782 34.8563C9.38782 21.4557 20.2512 10.5923 33.6518 10.5923C47.0525 10.5923 57.9159 21.4557 57.9159 34.8563Z" fill="#FCC406"/>
<path d="M57.8606 33.9388C57.8606 47.3395 46.9972 58.2029 33.5966 58.2029C20.1959 58.2029 9.33252 47.3395 9.33252 33.9388C9.33252 20.5382 20.1959 9.6748 33.5966 9.6748C46.9972 9.6748 57.8606 20.5382 57.8606 33.9388Z" fill="#D74A12"/>
<path d="M27.3967 20.1211C29.0799 21.8114 28.4835 25.1342 26.0647 27.5428C23.6459 29.9513 20.3206 30.5335 18.6374 28.8431C16.9542 27.1528 17.5505 23.83 19.9694 21.4214C22.3882 19.0129 25.7135 18.4307 27.3967 20.1211Z" fill="white"/>
<defs>
<linearGradient id="paint0_linear_2125_1241" x1="62.759" y1="54.7559" x2="3.93659" y2="47.2768" gradientUnits="userSpaceOnUse">
<stop stop-color="#CE4327"/>
<stop offset="1" stop-color="#C33822"/>
</linearGradient>
</defs>
</svg>
