<svg width="25" height="26" viewBox="0 0 25 26" fill="none" xmlns="http://www.w3.org/2000/svg">
<g filter="url(#filter0_d_2125_1297)">
<g filter="url(#filter1_d_2125_1297)">
<mask id="mask0_2125_1297" style="mask-type:alpha" maskUnits="userSpaceOnUse" x="0" y="0" width="25" height="25">
<path d="M25 12.5C25 19.4036 19.4036 25 12.5 25C5.59644 25 0 19.4036 0 12.5C0 5.59644 5.59644 0 12.5 0C19.4036 0 25 5.59644 25 12.5Z" fill="#D9D9D9"/>
</mask>
<g mask="url(#mask0_2125_1297)">
<path d="M25 0L12.5 12.5H25V0Z" fill="#66FFB1"/>
<path d="M12.5 12.5L0 25H12.5V12.5Z" fill="#F7EB51"/>
<path d="M12.5 12.5V0H25L12.5 12.5Z" fill="#A9FFD2"/>
<path d="M0 25V12.5H12.5L0 25Z" fill="#FFF885"/>
<path d="M25 25L12.5 12.5H25V25Z" fill="#FBC5FF"/>
<path d="M12.5 12.5L0 0H12.5V12.5Z" fill="#F8FBF8"/>
<path d="M12.5 25V12.5L25 25H12.5Z" fill="#FDEBFF"/>
<path d="M0 12.5V0L12.5 12.5H0Z" fill="#DCFFED"/>
</g>
</g>
<mask id="mask1_2125_1297" style="mask-type:alpha" maskUnits="userSpaceOnUse" x="4" y="4" width="17" height="17">
<path d="M20.4545 12.5C20.4545 16.8931 16.8931 20.4545 12.5 20.4545C8.10678 20.4545 4.54541 16.8931 4.54541 12.5C4.54541 8.10678 8.10678 4.54541 12.5 4.54541C16.8931 4.54541 20.4545 8.10678 20.4545 12.5Z" fill="#D9D9D9"/>
</mask>
<g mask="url(#mask1_2125_1297)">
<path d="M25 0L12.5 12.5H25V0Z" fill="#7F5AFF"/>
<path d="M12.5 12.5L0 25H12.5V12.5Z" fill="#F67752"/>
<path d="M12.5 12.5V0H25L12.5 12.5Z" fill="#BE96FF"/>
<path d="M0 25V12.5H12.5L0 25Z" fill="#FFD085"/>
<path d="M25 25L12.5 12.5H25V25Z" fill="#FA31FF"/>
<path d="M12.5 12.5L0 0H12.5V12.5Z" fill="#79E4F7"/>
<path d="M12.5 25V12.5L25 25H12.5Z" fill="#FD77FF"/>
<path d="M0 12.5V0L12.5 12.5H0Z" fill="#00FFEA"/>
</g>
<g filter="url(#filter2_d_2125_1297)">
<path d="M11.9794 4.60072C12.1778 4.14644 12.8222 4.14644 13.0207 4.60072L15.175 9.53172C15.2323 9.66289 15.337 9.7676 15.4682 9.82491L20.3992 11.9792C20.8535 12.1777 20.8535 12.8221 20.3992 13.0206L15.4682 15.1749C15.337 15.2322 15.2323 15.3369 15.175 15.4681L13.0207 20.3991C12.8222 20.8534 12.1778 20.8534 11.9794 20.3991L9.82503 15.4681C9.76772 15.3369 9.66301 15.2322 9.53184 15.1749L4.60084 13.0206C4.14656 12.8221 4.14656 12.1777 4.60084 11.9792L9.53184 9.82491C9.66301 9.7676 9.76772 9.66289 9.82503 9.53172L11.9794 4.60072Z" fill="#D9D9D9"/>
</g>
<mask id="mask2_2125_1297" style="mask-type:alpha" maskUnits="userSpaceOnUse" x="4" y="4" width="17" height="17">
<path d="M11.9794 4.60096C12.1778 4.14668 12.8222 4.14669 13.0207 4.60096L15.175 9.53196C15.2323 9.66314 15.337 9.76784 15.4682 9.82515L20.3992 11.9795C20.8535 12.178 20.8535 12.8223 20.3992 13.0208L15.4682 15.1752C15.337 15.2325 15.2323 15.3372 15.175 15.4683L13.0207 20.3993C12.8222 20.8536 12.1778 20.8536 11.9794 20.3993L9.82503 15.4683C9.76772 15.3372 9.66301 15.2325 9.53184 15.1752L4.60084 13.0208C4.14656 12.8223 4.14656 12.178 4.60084 11.9795L9.53184 9.82515C9.66301 9.76784 9.76772 9.66314 9.82503 9.53196L11.9794 4.60096Z" fill="#D9D9D9"/>
</mask>
<g mask="url(#mask2_2125_1297)">
<path d="M11.9793 4.60081C12.1778 4.14653 12.8222 4.14653 13.0207 4.60081L15.175 9.53181C15.2323 9.66298 15.337 9.76769 15.4682 9.825L20.3992 11.9793C20.8535 12.1778 20.8535 12.8222 20.3992 13.0207L15.4682 15.175C15.337 15.2323 15.2323 15.337 15.175 15.4682L13.0207 20.3992C12.8222 20.8535 12.1778 20.8535 11.9793 20.3992L9.825 15.4682C9.76769 15.337 9.66299 15.2323 9.53182 15.175L4.60081 13.0207C4.14653 12.8222 4.14653 12.1778 4.60081 11.9793L9.53181 9.825C9.66298 9.76769 9.76769 9.66299 9.825 9.53182L11.9793 4.60081Z" fill="#D9D9D9"/>
<path d="M11.9793 4.60081C12.1778 4.14653 12.8222 4.14653 13.0207 4.60081L15.175 9.53181C15.2323 9.66298 15.337 9.76769 15.4682 9.825L20.3992 11.9793C20.8535 12.1778 20.8535 12.8222 20.3992 13.0207L15.4682 15.175C15.337 15.2323 15.2323 15.337 15.175 15.4682L13.0207 20.3992C12.8222 20.8535 12.1778 20.8535 11.9793 20.3992L9.825 15.4682C9.76769 15.337 9.66299 15.2323 9.53182 15.175L4.60081 13.0207C4.14653 12.8222 4.14653 12.1778 4.60081 11.9793L9.53181 9.825C9.66298 9.76769 9.76769 9.66299 9.825 9.53182L11.9793 4.60081Z" fill="#D9D9D9"/>
<path d="M25 0L12.5 12.5H25V0Z" fill="#FFF9B8"/>
<path d="M12.5 12.5L0 25H12.5V12.5Z" fill="#FBD3FF"/>
<path d="M12.5 12.5V0H25L12.5 12.5Z" fill="#FFF887"/>
<path d="M0 25V12.5H12.5L0 25Z" fill="#F5E9FF"/>
<path d="M25 25L12.5 12.5H25V25Z" fill="#9FFFFB"/>
<path d="M12.5 12.5L0 0H12.5V12.5Z" fill="white"/>
<path d="M12.5 25V12.5L25 25H12.5Z" fill="#80FFFF"/>
<path d="M0 12.5V0L12.5 12.5H0Z" fill="white"/>
</g>
<path fill-rule="evenodd" clip-rule="evenodd" d="M14.6544 9.7592L12.5 4.82819L10.3457 9.7592C10.2311 10.0215 10.0217 10.2309 9.75932 10.3456L4.82831 12.4999L9.75932 14.6542C10.0217 14.7689 10.2311 14.9783 10.3457 15.2406L12.5 20.1716L14.6544 15.2406C14.769 14.9783 14.9784 14.7689 15.2407 14.6542L20.1717 12.4999L15.2407 10.3456C14.9784 10.2309 14.769 10.0215 14.6544 9.7592ZM13.0207 4.60072C12.8222 4.14644 12.1778 4.14644 11.9794 4.60072L9.82503 9.53172C9.76772 9.66289 9.66301 9.7676 9.53184 9.82491L4.60084 11.9792C4.14656 12.1777 4.14656 12.8221 4.60084 13.0206L9.53184 15.1749C9.66301 15.2322 9.76772 15.3369 9.82503 15.4681L11.9794 20.3991C12.1778 20.8534 12.8222 20.8534 13.0207 20.3991L15.175 15.4681C15.2323 15.3369 15.337 15.2322 15.4682 15.1749L20.3992 13.0206C20.8535 12.8221 20.8535 12.1777 20.3992 11.9792L15.4682 9.82491C15.337 9.7676 15.2323 9.66289 15.175 9.53172L13.0207 4.60072Z" fill="black"/>
<path fill-rule="evenodd" clip-rule="evenodd" d="M12.5 24.2045C18.9642 24.2045 24.2045 18.9642 24.2045 12.5C24.2045 6.03576 18.9642 0.795455 12.5 0.795455C6.03576 0.795455 0.795455 6.03576 0.795455 12.5C0.795455 18.9642 6.03576 24.2045 12.5 24.2045ZM12.5 25C19.4036 25 25 19.4036 25 12.5C25 5.59644 19.4036 0 12.5 0C5.59644 0 0 5.59644 0 12.5C0 19.4036 5.59644 25 12.5 25Z" fill="black"/>
</g>
<defs>
<filter id="filter0_d_2125_1297" x="0" y="0" width="25" height="26" filterUnits="userSpaceOnUse" color-interpolation-filters="sRGB">
<feFlood flood-opacity="0" result="BackgroundImageFix"/>
<feColorMatrix in="SourceAlpha" type="matrix" values="0 0 0 0 0 0 0 0 0 0 0 0 0 0 0 0 0 0 127 0" result="hardAlpha"/>
<feOffset dy="1"/>
<feComposite in2="hardAlpha" operator="out"/>
<feColorMatrix type="matrix" values="0 0 0 0 0 0 0 0 0 0 0 0 0 0 0 0 0 0 0.5 0"/>
<feBlend mode="normal" in2="BackgroundImageFix" result="effect1_dropShadow_2125_1297"/>
<feBlend mode="normal" in="SourceGraphic" in2="effect1_dropShadow_2125_1297" result="shape"/>
</filter>
<filter id="filter1_d_2125_1297" x="0" y="0" width="25" height="26" filterUnits="userSpaceOnUse" color-interpolation-filters="sRGB">
<feFlood flood-opacity="0" result="BackgroundImageFix"/>
<feColorMatrix in="SourceAlpha" type="matrix" values="0 0 0 0 0 0 0 0 0 0 0 0 0 0 0 0 0 0 127 0" result="hardAlpha"/>
<feOffset dy="1"/>
<feComposite in2="hardAlpha" operator="out"/>
<feColorMatrix type="matrix" values="0 0 0 0 0 0 0 0 0 0 0 0 0 0 0 0 0 0 0.5 0"/>
<feBlend mode="normal" in2="BackgroundImageFix" result="effect1_dropShadow_2125_1297"/>
<feBlend mode="normal" in="SourceGraphic" in2="effect1_dropShadow_2125_1297" result="shape"/>
</filter>
<filter id="filter2_d_2125_1297" x="4.26013" y="4.26001" width="16.4797" height="16.9297" filterUnits="userSpaceOnUse" color-interpolation-filters="sRGB">
<feFlood flood-opacity="0" result="BackgroundImageFix"/>
<feColorMatrix in="SourceAlpha" type="matrix" values="0 0 0 0 0 0 0 0 0 0 0 0 0 0 0 0 0 0 127 0" result="hardAlpha"/>
<feOffset dy="0.45"/>
<feComposite in2="hardAlpha" operator="out"/>
<feColorMatrix type="matrix" values="0 0 0 0 0.498039 0 0 0 0 0.352941 0 0 0 0 1 0 0 0 0.77 0"/>
<feBlend mode="normal" in2="BackgroundImageFix" result="effect1_dropShadow_2125_1297"/>
<feBlend mode="normal" in="SourceGraphic" in2="effect1_dropShadow_2125_1297" result="shape"/>
</filter>
</defs>
</svg>
