<svg width="22" height="23" viewBox="0 0 22 23" fill="none" xmlns="http://www.w3.org/2000/svg">
<g filter="url(#filter0_d_2125_1310)">
<g filter="url(#filter1_d_2125_1310)">
<circle cx="11" cy="11" r="11" fill="#D9D9D9"/>
</g>
<mask id="mask0_2125_1310" style="mask-type:alpha" maskUnits="userSpaceOnUse" x="0" y="0" width="22" height="22">
<circle cx="11" cy="11" r="11" fill="#D9D9D9"/>
</mask>
<g mask="url(#mask0_2125_1310)">
<path d="M-5.52637 4.37573L13.5262 -6.62427L20.5262 5.50009L1.47363 16.5001L-5.52637 4.37573Z" fill="#60DB1A"/>
<path d="M10.9999 11.0001L10.9281 -5.12427L-2.92829 2.87573L10.9999 11.0001Z" fill="#F8FDA2"/>
<path d="M1.47363 16.5001L20.5262 5.50009L27.5262 17.6244L8.47363 28.6244L1.47363 16.5001Z" fill="#449D83"/>
<path d="M10.9999 11.0001L11.0717 27.1244L24.9281 19.1244L10.9999 11.0001Z" fill="#2C6785"/>
</g>
<path d="M10.6262 4.4207C10.8251 4.19683 11.1749 4.19683 11.3738 4.4207L13.725 7.06703C13.773 7.12109 13.8322 7.16408 13.8984 7.19305L17.1418 8.6114C17.4162 8.73139 17.5242 9.06402 17.3728 9.32237L15.5825 12.3762C15.546 12.4386 15.5234 12.5082 15.5163 12.5801L15.1696 16.1031C15.1403 16.4011 14.8573 16.6067 14.5648 16.5425L11.1072 15.7835C11.0366 15.768 10.9634 15.768 10.8928 15.7835L7.43518 16.5425C7.14268 16.6067 6.85972 16.4011 6.83039 16.1031L6.48372 12.5801C6.47664 12.5082 6.45403 12.4386 6.41747 12.3762L4.62721 9.32237C4.47576 9.06402 4.58384 8.73139 4.85822 8.6114L8.10159 7.19305C8.16784 7.16408 8.22701 7.12109 8.27504 7.06703L10.6262 4.4207Z" fill="#C3F527"/>
<circle cx="11" cy="11" r="10.65" stroke="black" stroke-width="0.7"/>
</g>
<defs>
<filter id="filter0_d_2125_1310" x="0" y="0" width="22" height="23" filterUnits="userSpaceOnUse" color-interpolation-filters="sRGB">
<feFlood flood-opacity="0" result="BackgroundImageFix"/>
<feColorMatrix in="SourceAlpha" type="matrix" values="0 0 0 0 0 0 0 0 0 0 0 0 0 0 0 0 0 0 127 0" result="hardAlpha"/>
<feOffset dy="1"/>
<feComposite in2="hardAlpha" operator="out"/>
<feColorMatrix type="matrix" values="0 0 0 0 0 0 0 0 0 0 0 0 0 0 0 0 0 0 0.5 0"/>
<feBlend mode="normal" in2="BackgroundImageFix" result="effect1_dropShadow_2125_1310"/>
<feBlend mode="normal" in="SourceGraphic" in2="effect1_dropShadow_2125_1310" result="shape"/>
</filter>
<filter id="filter1_d_2125_1310" x="0" y="0" width="22" height="23" filterUnits="userSpaceOnUse" color-interpolation-filters="sRGB">
<feFlood flood-opacity="0" result="BackgroundImageFix"/>
<feColorMatrix in="SourceAlpha" type="matrix" values="0 0 0 0 0 0 0 0 0 0 0 0 0 0 0 0 0 0 127 0" result="hardAlpha"/>
<feOffset dy="1"/>
<feComposite in2="hardAlpha" operator="out"/>
<feColorMatrix type="matrix" values="0 0 0 0 0 0 0 0 0 0 0 0 0 0 0 0 0 0 0.5 0"/>
<feBlend mode="normal" in2="BackgroundImageFix" result="effect1_dropShadow_2125_1310"/>
<feBlend mode="normal" in="SourceGraphic" in2="effect1_dropShadow_2125_1310" result="shape"/>
</filter>
</defs>
</svg>
